G75*
%MOIN*%
%OFA0B0*%
%FSLAX25Y25*%
%IPPOS*%
%LPD*%
%AMOC8*
5,1,8,0,0,1.08239X$1,22.5*
%
%ADD10C,0.01700*%
%ADD11C,0.01000*%
%ADD12C,0.00800*%
%ADD13C,0.00600*%
%ADD14C,0.00400*%
%ADD15C,0.01500*%
%ADD16C,0.01600*%
%ADD17C,0.00000*%
%ADD18C,0.00500*%
D10*
X0174507Y0160399D02*
X0175658Y0159248D01*
X0176809Y0159248D01*
X0177960Y0161550D02*
X0174507Y0161550D01*
X0174507Y0160399D02*
X0174507Y0166154D01*
X0171192Y0166154D02*
X0170041Y0165003D01*
X0167739Y0165003D01*
X0166588Y0163852D01*
X0166588Y0162701D01*
X0167739Y0161550D01*
X0170041Y0161550D01*
X0171192Y0162701D01*
X0171192Y0166154D02*
X0171192Y0167305D01*
X0170041Y0168456D01*
X0167739Y0168456D01*
X0166588Y0167305D01*
X0163273Y0166154D02*
X0160971Y0166154D01*
X0162122Y0167305D02*
X0162122Y0162701D01*
X0160971Y0161550D01*
X0157994Y0161550D02*
X0155692Y0161550D01*
X0156843Y0161550D02*
X0156843Y0166154D01*
X0157994Y0166154D01*
X0156843Y0168456D02*
X0156843Y0169607D01*
X0152715Y0165003D02*
X0152715Y0162701D01*
X0151564Y0161550D01*
X0148111Y0161550D01*
X0144796Y0161550D02*
X0144796Y0168456D01*
X0148111Y0166154D02*
X0151564Y0166154D01*
X0152715Y0165003D01*
X0144796Y0163852D02*
X0141343Y0161550D01*
X0138197Y0161550D02*
X0134744Y0161550D01*
X0133593Y0162701D01*
X0134744Y0163852D01*
X0137046Y0163852D01*
X0138197Y0165003D01*
X0137046Y0166154D01*
X0133593Y0166154D01*
X0130278Y0162701D02*
X0129127Y0162701D01*
X0129127Y0161550D01*
X0130278Y0161550D01*
X0130278Y0162701D01*
X0126319Y0162701D02*
X0125168Y0161550D01*
X0121715Y0161550D01*
X0118400Y0162701D02*
X0117249Y0161550D01*
X0114947Y0161550D01*
X0113796Y0162701D01*
X0113796Y0165003D01*
X0114947Y0166154D01*
X0117249Y0166154D01*
X0118400Y0165003D01*
X0118400Y0162701D01*
X0121715Y0166154D02*
X0125168Y0166154D01*
X0126319Y0165003D01*
X0126319Y0162701D01*
X0141343Y0166154D02*
X0144796Y0163852D01*
X0110481Y0161550D02*
X0110481Y0166154D01*
X0109331Y0166154D01*
X0108180Y0165003D01*
X0107029Y0166154D01*
X0105878Y0165003D01*
X0105878Y0161550D01*
X0108180Y0161550D02*
X0108180Y0165003D01*
X0177960Y0161550D02*
X0179111Y0162701D01*
X0179111Y0166154D01*
X0182426Y0166154D02*
X0185879Y0166154D01*
X0187030Y0165003D01*
X0187030Y0162701D01*
X0185879Y0161550D01*
X0182426Y0161550D01*
X0182426Y0160399D02*
X0182426Y0166154D01*
X0182426Y0160399D02*
X0183577Y0159248D01*
X0184728Y0159248D01*
X0190344Y0161550D02*
X0190344Y0165003D01*
X0191495Y0166154D01*
X0194948Y0166154D01*
X0194948Y0161550D01*
X0197925Y0161550D02*
X0200227Y0161550D01*
X0199076Y0161550D02*
X0199076Y0166154D01*
X0200227Y0166154D01*
X0199076Y0168456D02*
X0199076Y0169607D01*
X0203542Y0165003D02*
X0203542Y0161550D01*
X0208146Y0161550D02*
X0208146Y0168456D01*
X0206995Y0166154D02*
X0204693Y0166154D01*
X0203542Y0165003D01*
X0206995Y0166154D02*
X0208146Y0165003D01*
X0211461Y0168456D02*
X0216065Y0168456D01*
X0213763Y0168456D02*
X0213763Y0161550D01*
D11*
X0211921Y0157965D02*
X0215657Y0157965D01*
X0215657Y0152360D01*
X0215657Y0155163D02*
X0213789Y0155163D01*
X0209580Y0155163D02*
X0209580Y0153294D01*
X0208646Y0152360D01*
X0206778Y0152360D01*
X0205844Y0154228D02*
X0209580Y0154228D01*
X0209580Y0155163D02*
X0208646Y0156097D01*
X0206778Y0156097D01*
X0205844Y0155163D01*
X0205844Y0154228D01*
X0203503Y0153294D02*
X0202569Y0154228D01*
X0199767Y0154228D01*
X0199767Y0155163D02*
X0199767Y0152360D01*
X0202569Y0152360D01*
X0203503Y0153294D01*
X0202569Y0156097D02*
X0200701Y0156097D01*
X0199767Y0155163D01*
X0197426Y0156097D02*
X0195558Y0156097D01*
X0196492Y0157031D02*
X0196492Y0153294D01*
X0195558Y0152360D01*
X0193374Y0152360D02*
X0193374Y0157965D01*
X0192440Y0156097D02*
X0190572Y0156097D01*
X0189638Y0155163D01*
X0189638Y0152360D01*
X0187297Y0153294D02*
X0187297Y0155163D01*
X0186363Y0156097D01*
X0184495Y0156097D01*
X0183561Y0155163D01*
X0183561Y0154228D01*
X0187297Y0154228D01*
X0187297Y0153294D02*
X0186363Y0152360D01*
X0184495Y0152360D01*
X0181220Y0152360D02*
X0181220Y0156097D01*
X0179352Y0156097D02*
X0181220Y0154228D01*
X0179352Y0156097D02*
X0178418Y0156097D01*
X0170079Y0156097D02*
X0169144Y0155163D01*
X0167276Y0155163D01*
X0166342Y0154228D01*
X0166342Y0153294D01*
X0167276Y0152360D01*
X0169144Y0152360D01*
X0170079Y0153294D01*
X0170079Y0156097D02*
X0170079Y0157031D01*
X0169144Y0157965D01*
X0167276Y0157965D01*
X0166342Y0157031D01*
X0164001Y0155163D02*
X0164001Y0153294D01*
X0163067Y0152360D01*
X0161199Y0152360D01*
X0160265Y0153294D01*
X0160265Y0155163D01*
X0161199Y0156097D01*
X0163067Y0156097D01*
X0164001Y0155163D01*
X0157924Y0157965D02*
X0156990Y0157965D01*
X0156990Y0152360D01*
X0157924Y0152360D02*
X0156056Y0152360D01*
X0153873Y0153294D02*
X0152939Y0154228D01*
X0150136Y0154228D01*
X0150136Y0155163D02*
X0150136Y0152360D01*
X0152939Y0152360D01*
X0153873Y0153294D01*
X0152939Y0156097D02*
X0151070Y0156097D01*
X0150136Y0155163D01*
X0147796Y0156097D02*
X0147796Y0152360D01*
X0147796Y0154228D02*
X0145927Y0156097D01*
X0144993Y0156097D01*
X0136654Y0157965D02*
X0136654Y0152360D01*
X0136654Y0154228D02*
X0133852Y0154228D01*
X0132918Y0155163D01*
X0132918Y0157031D01*
X0133852Y0157965D01*
X0136654Y0157965D01*
X0134786Y0154228D02*
X0132918Y0152360D01*
X0130577Y0153294D02*
X0129643Y0152360D01*
X0127774Y0152360D01*
X0126840Y0153294D01*
X0126840Y0154228D01*
X0127774Y0155163D01*
X0129643Y0155163D01*
X0130577Y0156097D01*
X0130577Y0157031D01*
X0129643Y0157965D01*
X0127774Y0157965D01*
X0126840Y0157031D01*
X0124500Y0155163D02*
X0120763Y0155163D01*
X0118422Y0156097D02*
X0118422Y0157031D01*
X0117488Y0157965D01*
X0115620Y0157965D01*
X0114686Y0157031D01*
X0114686Y0156097D01*
X0115620Y0155163D01*
X0117488Y0155163D01*
X0118422Y0156097D01*
X0117488Y0155163D02*
X0118422Y0154228D01*
X0118422Y0153294D01*
X0117488Y0152360D01*
X0115620Y0152360D01*
X0114686Y0153294D01*
X0114686Y0154228D01*
X0115620Y0155163D01*
X0112345Y0155163D02*
X0112345Y0157965D01*
X0108609Y0157965D01*
X0109543Y0156097D02*
X0108609Y0155163D01*
X0108609Y0153294D01*
X0109543Y0152360D01*
X0111411Y0152360D01*
X0112345Y0153294D01*
X0112345Y0155163D02*
X0110477Y0156097D01*
X0109543Y0156097D01*
X0121697Y0157965D02*
X0121697Y0152360D01*
X0124500Y0155163D02*
X0121697Y0157965D01*
X0192440Y0156097D02*
X0193374Y0155163D01*
D12*
X0194669Y0150279D02*
X0194669Y0148877D01*
X0194669Y0149578D02*
X0190465Y0149578D01*
X0190465Y0148877D02*
X0190465Y0150279D01*
X0191166Y0147076D02*
X0190465Y0146375D01*
X0190465Y0144974D01*
X0191166Y0144274D01*
X0192567Y0144974D02*
X0192567Y0146375D01*
X0191866Y0147076D01*
X0191166Y0147076D01*
X0192567Y0144974D02*
X0193267Y0144274D01*
X0193968Y0144274D01*
X0194669Y0144974D01*
X0194669Y0146375D01*
X0193968Y0147076D01*
X0193968Y0142472D02*
X0194669Y0141771D01*
X0194669Y0140370D01*
X0193968Y0139670D01*
X0191166Y0139670D01*
X0190465Y0140370D01*
X0190465Y0141771D01*
X0191166Y0142472D01*
X0193968Y0142472D01*
X0194669Y0137868D02*
X0190465Y0137868D01*
X0193267Y0136467D02*
X0194669Y0137868D01*
X0193267Y0136467D02*
X0194669Y0135066D01*
X0190465Y0135066D01*
X0194669Y0133264D02*
X0190465Y0130462D01*
X0190465Y0128660D02*
X0190465Y0125858D01*
X0193267Y0128660D01*
X0193968Y0128660D01*
X0194669Y0127960D01*
X0194669Y0126558D01*
X0193968Y0125858D01*
X0194669Y0122655D02*
X0190465Y0122655D01*
X0190465Y0121254D02*
X0190465Y0124056D01*
X0193267Y0121254D02*
X0194669Y0122655D01*
X0193968Y0119452D02*
X0194669Y0118752D01*
X0194669Y0116650D01*
X0190465Y0116650D01*
X0190465Y0118752D01*
X0191166Y0119452D01*
X0193968Y0119452D01*
X0200465Y0118752D02*
X0201166Y0119452D01*
X0203968Y0119452D01*
X0204669Y0118752D01*
X0204669Y0116650D01*
X0200465Y0116650D01*
X0200465Y0118752D01*
X0200465Y0121254D02*
X0200465Y0124056D01*
X0200465Y0122655D02*
X0204669Y0122655D01*
X0203267Y0121254D01*
X0203267Y0125858D02*
X0204669Y0127259D01*
X0200465Y0127259D01*
X0200465Y0125858D02*
X0200465Y0128660D01*
X0200465Y0130462D02*
X0204669Y0133264D01*
X0204669Y0135066D02*
X0203267Y0136467D01*
X0204669Y0137868D01*
X0200465Y0137868D01*
X0200465Y0139670D02*
X0200465Y0141071D01*
X0200465Y0140370D02*
X0204669Y0140370D01*
X0204669Y0139670D02*
X0204669Y0141071D01*
X0203968Y0142739D02*
X0203267Y0142739D01*
X0202567Y0143439D01*
X0202567Y0144841D01*
X0201866Y0145541D01*
X0201166Y0145541D01*
X0200465Y0144841D01*
X0200465Y0143439D01*
X0201166Y0142739D01*
X0203968Y0142739D02*
X0204669Y0143439D01*
X0204669Y0144841D01*
X0203968Y0145541D01*
X0203968Y0147343D02*
X0201166Y0147343D01*
X0200465Y0148043D01*
X0200465Y0149445D01*
X0201166Y0150145D01*
X0203968Y0150145D01*
X0204669Y0149445D01*
X0204669Y0148043D01*
X0203968Y0147343D01*
X0210465Y0142472D02*
X0214669Y0139670D01*
X0213968Y0137868D02*
X0212567Y0137868D01*
X0211866Y0137167D01*
X0211866Y0135066D01*
X0211866Y0136467D02*
X0210465Y0137868D01*
X0210465Y0139670D02*
X0214669Y0142472D01*
X0213968Y0137868D02*
X0214669Y0137167D01*
X0214669Y0135066D01*
X0210465Y0135066D01*
X0214669Y0133264D02*
X0210465Y0130462D01*
X0211166Y0128660D02*
X0210465Y0127960D01*
X0210465Y0126558D01*
X0211166Y0125858D01*
X0213968Y0128660D01*
X0211166Y0128660D01*
X0213968Y0128660D02*
X0214669Y0127960D01*
X0214669Y0126558D01*
X0213968Y0125858D01*
X0211166Y0125858D01*
X0210465Y0124056D02*
X0210465Y0121254D01*
X0210465Y0122655D02*
X0214669Y0122655D01*
X0213267Y0121254D01*
X0213968Y0119452D02*
X0214669Y0118752D01*
X0214669Y0116650D01*
X0210465Y0116650D01*
X0210465Y0118752D01*
X0211166Y0119452D01*
X0213968Y0119452D01*
X0220465Y0118752D02*
X0221166Y0119452D01*
X0223968Y0119452D01*
X0224669Y0118752D01*
X0224669Y0116650D01*
X0220465Y0116650D01*
X0220465Y0118752D01*
X0221166Y0121254D02*
X0220465Y0121955D01*
X0220465Y0123356D01*
X0221166Y0124056D01*
X0223968Y0124056D01*
X0224669Y0123356D01*
X0224669Y0121955D01*
X0223968Y0121254D01*
X0223267Y0121254D01*
X0222567Y0121955D01*
X0222567Y0124056D01*
X0220465Y0125858D02*
X0224669Y0128660D01*
X0224669Y0130462D02*
X0224669Y0133264D01*
X0224669Y0131863D02*
X0220465Y0131863D01*
X0220465Y0135066D02*
X0224669Y0137868D01*
X0224669Y0135066D02*
X0220465Y0137868D01*
X0204669Y0135066D02*
X0200465Y0135066D01*
X0184669Y0135766D02*
X0183968Y0135066D01*
X0183267Y0135066D01*
X0182567Y0135766D01*
X0182567Y0137167D01*
X0181866Y0137868D01*
X0181166Y0137868D01*
X0180465Y0137167D01*
X0180465Y0135766D01*
X0181166Y0135066D01*
X0184669Y0135766D02*
X0184669Y0137167D01*
X0183968Y0137868D01*
X0183968Y0139670D02*
X0181166Y0139670D01*
X0180465Y0140370D01*
X0180465Y0141771D01*
X0181166Y0142472D01*
X0181866Y0144274D02*
X0184669Y0147076D01*
X0184669Y0144274D02*
X0180465Y0144274D01*
X0182567Y0144974D02*
X0180465Y0147076D01*
X0183968Y0142472D02*
X0184669Y0141771D01*
X0184669Y0140370D01*
X0183968Y0139670D01*
X0184669Y0133264D02*
X0180465Y0130462D01*
X0181166Y0128660D02*
X0180465Y0127960D01*
X0180465Y0126558D01*
X0181166Y0125858D01*
X0180465Y0124056D02*
X0180465Y0121254D01*
X0180465Y0122655D02*
X0184669Y0122655D01*
X0183267Y0121254D01*
X0183968Y0119452D02*
X0184669Y0118752D01*
X0184669Y0116650D01*
X0180465Y0116650D01*
X0180465Y0118752D01*
X0181166Y0119452D01*
X0183968Y0119452D01*
X0183968Y0125858D02*
X0184669Y0126558D01*
X0184669Y0127960D01*
X0183968Y0128660D01*
X0183267Y0128660D01*
X0182567Y0127960D01*
X0181866Y0128660D01*
X0181166Y0128660D01*
X0182567Y0127960D02*
X0182567Y0127259D01*
X0174669Y0124056D02*
X0174669Y0121254D01*
X0172567Y0121254D01*
X0173267Y0122655D01*
X0173267Y0123356D01*
X0172567Y0124056D01*
X0171166Y0124056D01*
X0170465Y0123356D01*
X0170465Y0121955D01*
X0171166Y0121254D01*
X0170465Y0119452D02*
X0173267Y0119452D01*
X0174669Y0118051D01*
X0173267Y0116650D01*
X0170465Y0116650D01*
X0172567Y0116650D02*
X0172567Y0119452D01*
X0164669Y0118051D02*
X0163267Y0119452D01*
X0160465Y0119452D01*
X0162567Y0119452D02*
X0162567Y0116650D01*
X0163267Y0116650D02*
X0164669Y0118051D01*
X0163267Y0116650D02*
X0160465Y0116650D01*
X0162567Y0121254D02*
X0162567Y0124056D01*
X0164669Y0123356D02*
X0162567Y0121254D01*
X0160465Y0123356D02*
X0164669Y0123356D01*
X0154669Y0123356D02*
X0153968Y0124056D01*
X0153267Y0124056D01*
X0152567Y0123356D01*
X0151866Y0124056D01*
X0151166Y0124056D01*
X0150465Y0123356D01*
X0150465Y0121955D01*
X0151166Y0121254D01*
X0150465Y0119452D02*
X0153267Y0119452D01*
X0154669Y0118051D01*
X0153267Y0116650D01*
X0150465Y0116650D01*
X0152567Y0116650D02*
X0152567Y0119452D01*
X0153968Y0121254D02*
X0154669Y0121955D01*
X0154669Y0123356D01*
X0152567Y0123356D02*
X0152567Y0122655D01*
X0144669Y0121955D02*
X0143968Y0121254D01*
X0144669Y0121955D02*
X0144669Y0123356D01*
X0143968Y0124056D01*
X0143267Y0124056D01*
X0140465Y0121254D01*
X0140465Y0124056D01*
X0140465Y0119452D02*
X0143267Y0119452D01*
X0144669Y0118051D01*
X0143267Y0116650D01*
X0140465Y0116650D01*
X0142567Y0116650D02*
X0142567Y0119452D01*
X0134669Y0118051D02*
X0133267Y0119452D01*
X0130465Y0119452D01*
X0130465Y0121254D02*
X0130465Y0124056D01*
X0130465Y0122655D02*
X0134669Y0122655D01*
X0133267Y0121254D01*
X0132567Y0119452D02*
X0132567Y0116650D01*
X0133267Y0116650D02*
X0134669Y0118051D01*
X0133267Y0116650D02*
X0130465Y0116650D01*
X0124669Y0118051D02*
X0123267Y0119452D01*
X0120465Y0119452D01*
X0121166Y0121254D02*
X0123968Y0124056D01*
X0121166Y0124056D01*
X0120465Y0123356D01*
X0120465Y0121955D01*
X0121166Y0121254D01*
X0123968Y0121254D01*
X0124669Y0121955D01*
X0124669Y0123356D01*
X0123968Y0124056D01*
X0122567Y0119452D02*
X0122567Y0116650D01*
X0123267Y0116650D02*
X0124669Y0118051D01*
X0123267Y0116650D02*
X0120465Y0116650D01*
X0114669Y0117351D02*
X0113968Y0116650D01*
X0111166Y0116650D01*
X0110465Y0117351D01*
X0110465Y0118752D01*
X0111166Y0119452D01*
X0112567Y0119452D01*
X0112567Y0118051D01*
X0113968Y0119452D02*
X0114669Y0118752D01*
X0114669Y0117351D01*
X0114669Y0121254D02*
X0110465Y0124056D01*
X0114669Y0124056D01*
X0114669Y0125858D02*
X0114669Y0127960D01*
X0113968Y0128660D01*
X0111166Y0128660D01*
X0110465Y0127960D01*
X0110465Y0125858D01*
X0114669Y0125858D01*
X0114669Y0121254D02*
X0110465Y0121254D01*
X0104669Y0121254D02*
X0104669Y0123356D01*
X0103968Y0124056D01*
X0101166Y0124056D01*
X0100465Y0123356D01*
X0100465Y0121254D01*
X0104669Y0121254D01*
X0104669Y0119452D02*
X0100465Y0119452D01*
X0100465Y0116650D02*
X0104669Y0116650D01*
X0103267Y0118051D01*
X0104669Y0119452D01*
X0094669Y0118752D02*
X0093968Y0119452D01*
X0093267Y0119452D01*
X0092567Y0118752D01*
X0091866Y0119452D01*
X0091166Y0119452D01*
X0090465Y0118752D01*
X0090465Y0117351D01*
X0091166Y0116650D01*
X0092567Y0118051D02*
X0092567Y0118752D01*
X0094669Y0118752D02*
X0094669Y0117351D01*
X0093968Y0116650D01*
X0093267Y0121254D02*
X0090465Y0122655D01*
X0093267Y0124056D01*
X0093968Y0125858D02*
X0094669Y0126558D01*
X0094669Y0127960D01*
X0093968Y0128660D01*
X0093267Y0128660D01*
X0092567Y0127960D01*
X0091866Y0128660D01*
X0091166Y0128660D01*
X0090465Y0127960D01*
X0090465Y0126558D01*
X0091166Y0125858D01*
X0092567Y0127259D02*
X0092567Y0127960D01*
X0084669Y0128660D02*
X0084669Y0125858D01*
X0084669Y0127259D02*
X0080465Y0127259D01*
X0081166Y0124056D02*
X0080465Y0123356D01*
X0080465Y0121955D01*
X0081166Y0121254D01*
X0082567Y0121955D02*
X0083267Y0121254D01*
X0083968Y0121254D01*
X0084669Y0121955D01*
X0084669Y0123356D01*
X0083968Y0124056D01*
X0082567Y0123356D02*
X0081866Y0124056D01*
X0081166Y0124056D01*
X0082567Y0123356D02*
X0082567Y0121955D01*
X0082567Y0119452D02*
X0081866Y0118752D01*
X0081866Y0116650D01*
X0080465Y0116650D02*
X0084669Y0116650D01*
X0084669Y0118752D01*
X0083968Y0119452D01*
X0082567Y0119452D01*
X0081866Y0118051D02*
X0080465Y0119452D01*
X0084720Y0134862D02*
X0070941Y0134862D01*
X0070941Y0138012D01*
X0080783Y0138012D01*
X0080783Y0142736D01*
X0100469Y0142736D02*
X0100469Y0158484D01*
X0084720Y0166358D02*
X0070941Y0166358D01*
X0070941Y0163209D01*
X0080783Y0163209D01*
X0080783Y0158484D01*
X0120465Y0174088D02*
X0120465Y0176190D01*
X0121166Y0176891D01*
X0121866Y0176891D01*
X0122567Y0176190D01*
X0122567Y0174088D01*
X0124669Y0174088D02*
X0124669Y0176190D01*
X0123968Y0176891D01*
X0123267Y0176891D01*
X0122567Y0176190D01*
X0122567Y0178692D02*
X0122567Y0181495D01*
X0123267Y0181495D02*
X0120465Y0181495D01*
X0123267Y0181495D02*
X0124669Y0180093D01*
X0123267Y0178692D01*
X0120465Y0178692D01*
X0124669Y0183296D02*
X0124669Y0186098D01*
X0124669Y0184697D02*
X0120465Y0184697D01*
X0130465Y0184848D02*
X0134669Y0182046D01*
X0130465Y0182046D01*
X0130465Y0180245D02*
X0130465Y0177442D01*
X0134669Y0177442D01*
X0134669Y0180245D01*
X0132567Y0178843D02*
X0132567Y0177442D01*
X0140465Y0178143D02*
X0141166Y0177442D01*
X0140465Y0178143D02*
X0140465Y0179544D01*
X0141166Y0180245D01*
X0141866Y0180245D01*
X0142567Y0179544D01*
X0142567Y0178143D01*
X0143267Y0177442D01*
X0143968Y0177442D01*
X0144669Y0178143D01*
X0144669Y0179544D01*
X0143968Y0180245D01*
X0144669Y0182046D02*
X0144669Y0184148D01*
X0143968Y0184848D01*
X0143267Y0184848D01*
X0142567Y0184148D01*
X0142567Y0182046D01*
X0140465Y0182046D02*
X0144669Y0182046D01*
X0142567Y0184148D02*
X0141866Y0184848D01*
X0141166Y0184848D01*
X0140465Y0184148D01*
X0140465Y0182046D01*
X0134669Y0184848D02*
X0130465Y0184848D01*
X0124669Y0174088D02*
X0120465Y0174088D01*
X0140465Y0173539D02*
X0141166Y0172838D01*
X0144669Y0172838D01*
X0144669Y0175641D02*
X0141166Y0175641D01*
X0140465Y0174940D01*
X0140465Y0173539D01*
X0150465Y0177442D02*
X0150465Y0179544D01*
X0151166Y0180245D01*
X0153968Y0180245D01*
X0154669Y0179544D01*
X0154669Y0177442D01*
X0150465Y0177442D01*
X0151166Y0182046D02*
X0151866Y0182046D01*
X0152567Y0182747D01*
X0152567Y0184148D01*
X0151866Y0184848D01*
X0151166Y0184848D01*
X0150465Y0184148D01*
X0150465Y0182747D01*
X0151166Y0182046D01*
X0152567Y0182747D02*
X0153267Y0182046D01*
X0153968Y0182046D01*
X0154669Y0182747D01*
X0154669Y0184148D01*
X0153968Y0184848D01*
X0153267Y0184848D01*
X0152567Y0184148D01*
X0160465Y0182046D02*
X0161166Y0182046D01*
X0163968Y0184848D01*
X0164669Y0184848D01*
X0164669Y0182046D01*
X0163968Y0180245D02*
X0164669Y0179544D01*
X0164669Y0177442D01*
X0160465Y0177442D01*
X0160465Y0179544D01*
X0161166Y0180245D01*
X0163968Y0180245D01*
X0170465Y0179544D02*
X0170465Y0177442D01*
X0174669Y0177442D01*
X0174669Y0179544D01*
X0173968Y0180245D01*
X0171166Y0180245D01*
X0170465Y0179544D01*
X0171166Y0182046D02*
X0170465Y0182747D01*
X0170465Y0184148D01*
X0171166Y0184848D01*
X0171866Y0184848D01*
X0172567Y0184148D01*
X0172567Y0182046D01*
X0171166Y0182046D01*
X0172567Y0182046D02*
X0173968Y0183447D01*
X0174669Y0184848D01*
X0180465Y0184148D02*
X0180465Y0182747D01*
X0181166Y0182046D01*
X0182567Y0182046D02*
X0183267Y0183447D01*
X0183267Y0184148D01*
X0182567Y0184848D01*
X0181166Y0184848D01*
X0180465Y0184148D01*
X0182567Y0182046D02*
X0184669Y0182046D01*
X0184669Y0184848D01*
X0183968Y0180245D02*
X0184669Y0179544D01*
X0184669Y0177442D01*
X0180465Y0177442D01*
X0180465Y0179544D01*
X0181166Y0180245D01*
X0183968Y0180245D01*
X0190465Y0179544D02*
X0190465Y0177442D01*
X0194669Y0177442D01*
X0194669Y0179544D01*
X0193968Y0180245D01*
X0191166Y0180245D01*
X0190465Y0179544D01*
X0192567Y0182046D02*
X0192567Y0184848D01*
X0194669Y0184148D02*
X0192567Y0182046D01*
X0190465Y0184148D02*
X0194669Y0184148D01*
X0200465Y0184148D02*
X0200465Y0182747D01*
X0201166Y0182046D01*
X0201166Y0180245D02*
X0203968Y0180245D01*
X0204669Y0179544D01*
X0204669Y0177442D01*
X0200465Y0177442D01*
X0200465Y0179544D01*
X0201166Y0180245D01*
X0203968Y0182046D02*
X0204669Y0182747D01*
X0204669Y0184148D01*
X0203968Y0184848D01*
X0203267Y0184848D01*
X0202567Y0184148D01*
X0201866Y0184848D01*
X0201166Y0184848D01*
X0200465Y0184148D01*
X0202567Y0184148D02*
X0202567Y0183447D01*
X0210465Y0182046D02*
X0213267Y0184848D01*
X0213968Y0184848D01*
X0214669Y0184148D01*
X0214669Y0182747D01*
X0213968Y0182046D01*
X0213968Y0180245D02*
X0214669Y0179544D01*
X0214669Y0177442D01*
X0210465Y0177442D01*
X0210465Y0179544D01*
X0211166Y0180245D01*
X0213968Y0180245D01*
X0210465Y0182046D02*
X0210465Y0184848D01*
X0220465Y0184848D02*
X0220465Y0182046D01*
X0224669Y0182046D01*
X0223968Y0180244D02*
X0224669Y0179544D01*
X0224669Y0178143D01*
X0223968Y0177442D01*
X0221166Y0177442D01*
X0220465Y0178143D01*
X0220465Y0179544D01*
X0221166Y0180244D01*
X0221166Y0175641D02*
X0220465Y0174940D01*
X0220465Y0173539D01*
X0221166Y0172838D01*
X0222567Y0173539D02*
X0223267Y0172838D01*
X0223968Y0172838D01*
X0224669Y0173539D01*
X0224669Y0174940D01*
X0223968Y0175641D01*
X0222567Y0174940D02*
X0221866Y0175641D01*
X0221166Y0175641D01*
X0222567Y0174940D02*
X0222567Y0173539D01*
X0224669Y0171037D02*
X0220465Y0168234D01*
X0220465Y0166433D02*
X0220465Y0163630D01*
X0220465Y0165032D02*
X0224669Y0165032D01*
X0223267Y0163630D01*
X0223968Y0161829D02*
X0224669Y0161128D01*
X0224669Y0159026D01*
X0220465Y0159026D01*
X0220465Y0161128D01*
X0221166Y0161829D01*
X0223968Y0161829D01*
X0230465Y0161128D02*
X0230465Y0159026D01*
X0234669Y0159026D01*
X0234669Y0161128D01*
X0233968Y0161829D01*
X0231166Y0161829D01*
X0230465Y0161128D01*
X0231166Y0163630D02*
X0233968Y0166433D01*
X0231166Y0166433D01*
X0230465Y0165732D01*
X0230465Y0164331D01*
X0231166Y0163630D01*
X0233968Y0163630D01*
X0234669Y0164331D01*
X0234669Y0165732D01*
X0233968Y0166433D01*
X0230465Y0168234D02*
X0234669Y0171037D01*
X0233968Y0172838D02*
X0233267Y0172838D01*
X0232567Y0173539D01*
X0232567Y0174940D01*
X0231866Y0175641D01*
X0231166Y0175641D01*
X0230465Y0174940D01*
X0230465Y0173539D01*
X0231166Y0172838D01*
X0233968Y0172838D02*
X0234669Y0173539D01*
X0234669Y0174940D01*
X0233968Y0175641D01*
X0234669Y0177442D02*
X0234669Y0179544D01*
X0233968Y0180244D01*
X0231166Y0180244D01*
X0230465Y0179544D01*
X0230465Y0177442D01*
X0234669Y0177442D01*
X0233267Y0182046D02*
X0234669Y0183447D01*
X0233267Y0184848D01*
X0230465Y0184848D01*
X0232567Y0184848D02*
X0232567Y0182046D01*
X0233267Y0182046D02*
X0230465Y0182046D01*
X0322399Y0181464D02*
X0322399Y0178661D01*
X0323800Y0177260D01*
X0325201Y0178661D01*
X0325201Y0181464D01*
X0327002Y0180763D02*
X0327703Y0181464D01*
X0329104Y0181464D01*
X0329805Y0180763D01*
X0327002Y0180763D02*
X0327002Y0180063D01*
X0329805Y0177260D01*
X0327002Y0177260D01*
X0331606Y0177260D02*
X0334409Y0177260D01*
X0333008Y0177260D02*
X0333008Y0181464D01*
X0334409Y0180063D01*
X0336210Y0179362D02*
X0339013Y0179362D01*
X0340814Y0179362D02*
X0340814Y0177961D01*
X0341515Y0177260D01*
X0342916Y0177260D01*
X0343617Y0177961D01*
X0343617Y0179362D02*
X0342215Y0180063D01*
X0341515Y0180063D01*
X0340814Y0179362D01*
X0340814Y0181464D02*
X0343617Y0181464D01*
X0343617Y0179362D01*
X0349822Y0179362D02*
X0350523Y0179362D01*
X0350523Y0180063D01*
X0349822Y0180063D01*
X0349822Y0179362D01*
X0349822Y0177961D02*
X0349822Y0177260D01*
X0350523Y0177260D01*
X0350523Y0177961D01*
X0349822Y0177961D01*
X0352324Y0177260D02*
X0355126Y0177260D01*
X0352324Y0180063D01*
X0352324Y0180763D01*
X0353025Y0181464D01*
X0354426Y0181464D01*
X0355126Y0180763D01*
X0355126Y0184760D02*
X0352324Y0184760D01*
X0353725Y0184760D02*
X0353725Y0188964D01*
X0355126Y0187563D01*
X0350523Y0187563D02*
X0350523Y0186862D01*
X0349822Y0186862D01*
X0349822Y0187563D01*
X0350523Y0187563D01*
X0350523Y0185461D02*
X0349822Y0185461D01*
X0349822Y0184760D01*
X0350523Y0184760D01*
X0350523Y0185461D01*
X0343617Y0185461D02*
X0342916Y0184760D01*
X0341515Y0184760D01*
X0340814Y0185461D01*
X0340814Y0186862D01*
X0341515Y0187563D01*
X0342215Y0187563D01*
X0343617Y0186862D01*
X0343617Y0188964D01*
X0340814Y0188964D01*
X0339013Y0186862D02*
X0336210Y0186862D01*
X0334409Y0187563D02*
X0333008Y0188964D01*
X0333008Y0184760D01*
X0334409Y0184760D02*
X0331606Y0184760D01*
X0329805Y0184760D02*
X0327002Y0187563D01*
X0327002Y0188263D01*
X0327703Y0188964D01*
X0329104Y0188964D01*
X0329805Y0188263D01*
X0329805Y0184760D02*
X0327002Y0184760D01*
X0325201Y0186161D02*
X0325201Y0188964D01*
X0322399Y0188964D02*
X0322399Y0186161D01*
X0323800Y0184760D01*
X0325201Y0186161D01*
X0340814Y0173263D02*
X0340814Y0172563D01*
X0341515Y0171862D01*
X0343617Y0171862D01*
X0343617Y0169760D02*
X0341515Y0169760D01*
X0340814Y0170461D01*
X0340814Y0171161D01*
X0341515Y0171862D01*
X0340814Y0173263D02*
X0341515Y0173964D01*
X0343617Y0173964D01*
X0343617Y0169760D01*
X0343617Y0166464D02*
X0341515Y0166464D01*
X0340814Y0165763D01*
X0340814Y0165063D01*
X0341515Y0164362D01*
X0343617Y0164362D01*
X0343617Y0162260D02*
X0341515Y0162260D01*
X0340814Y0162961D01*
X0340814Y0163661D01*
X0341515Y0164362D01*
X0343617Y0162260D02*
X0343617Y0166464D01*
X0349822Y0165063D02*
X0349822Y0164362D01*
X0350523Y0164362D01*
X0350523Y0165063D01*
X0349822Y0165063D01*
X0349822Y0162961D02*
X0349822Y0162260D01*
X0350523Y0162260D01*
X0350523Y0162961D01*
X0349822Y0162961D01*
X0352324Y0164362D02*
X0355126Y0164362D01*
X0353025Y0166464D01*
X0353025Y0162260D01*
X0352324Y0158964D02*
X0355126Y0158964D01*
X0355126Y0156862D01*
X0353725Y0157563D01*
X0353025Y0157563D01*
X0352324Y0156862D01*
X0352324Y0155461D01*
X0353025Y0154760D01*
X0354426Y0154760D01*
X0355126Y0155461D01*
X0350523Y0155461D02*
X0350523Y0154760D01*
X0349822Y0154760D01*
X0349822Y0155461D01*
X0350523Y0155461D01*
X0350523Y0156862D02*
X0349822Y0156862D01*
X0349822Y0157563D01*
X0350523Y0157563D01*
X0350523Y0156862D01*
X0352324Y0151464D02*
X0353725Y0150763D01*
X0355126Y0149362D01*
X0353025Y0149362D01*
X0352324Y0148661D01*
X0352324Y0147961D01*
X0353025Y0147260D01*
X0354426Y0147260D01*
X0355126Y0147961D01*
X0355126Y0149362D01*
X0350523Y0149362D02*
X0350523Y0150063D01*
X0349822Y0150063D01*
X0349822Y0149362D01*
X0350523Y0149362D01*
X0350523Y0147961D02*
X0349822Y0147961D01*
X0349822Y0147260D01*
X0350523Y0147260D01*
X0350523Y0147961D01*
X0352324Y0143964D02*
X0352324Y0143263D01*
X0355126Y0140461D01*
X0355126Y0139760D01*
X0354426Y0136464D02*
X0353025Y0136464D01*
X0352324Y0135763D01*
X0352324Y0135063D01*
X0353025Y0134362D01*
X0354426Y0134362D01*
X0355126Y0135063D01*
X0355126Y0135763D01*
X0354426Y0136464D01*
X0354426Y0134362D02*
X0355126Y0133661D01*
X0355126Y0132961D01*
X0354426Y0132260D01*
X0353025Y0132260D01*
X0352324Y0132961D01*
X0352324Y0133661D01*
X0353025Y0134362D01*
X0350523Y0134362D02*
X0350523Y0135063D01*
X0349822Y0135063D01*
X0349822Y0134362D01*
X0350523Y0134362D01*
X0350523Y0132961D02*
X0350523Y0132260D01*
X0349822Y0132260D01*
X0349822Y0132961D01*
X0350523Y0132961D01*
X0350523Y0139760D02*
X0349822Y0139760D01*
X0349822Y0140461D01*
X0350523Y0140461D01*
X0350523Y0139760D01*
X0350523Y0141862D02*
X0349822Y0141862D01*
X0349822Y0142563D01*
X0350523Y0142563D01*
X0350523Y0141862D01*
X0352324Y0143964D02*
X0355126Y0143964D01*
X0361532Y0141862D02*
X0361532Y0139760D01*
X0361532Y0141862D02*
X0362232Y0142563D01*
X0364334Y0142563D01*
X0364334Y0139760D01*
X0366002Y0139760D02*
X0367404Y0139760D01*
X0366703Y0139760D02*
X0366703Y0142563D01*
X0367404Y0142563D01*
X0366703Y0143964D02*
X0366703Y0144664D01*
X0366703Y0147260D02*
X0366703Y0150063D01*
X0367404Y0150063D01*
X0366703Y0151464D02*
X0366703Y0152164D01*
X0366703Y0154760D02*
X0366703Y0157563D01*
X0367404Y0157563D01*
X0366703Y0158964D02*
X0366703Y0159664D01*
X0366703Y0162260D02*
X0366703Y0165063D01*
X0367404Y0165063D01*
X0366703Y0166464D02*
X0366703Y0167164D01*
X0366703Y0169760D02*
X0366703Y0172563D01*
X0367404Y0172563D01*
X0366703Y0173964D02*
X0366703Y0174664D01*
X0366703Y0177260D02*
X0366703Y0180063D01*
X0367404Y0180063D01*
X0366703Y0181464D02*
X0366703Y0182164D01*
X0366703Y0184760D02*
X0366703Y0187563D01*
X0367404Y0187563D01*
X0366703Y0188964D02*
X0366703Y0189664D01*
X0369205Y0188263D02*
X0369205Y0186862D01*
X0369906Y0186161D01*
X0372007Y0186161D01*
X0372007Y0184760D02*
X0372007Y0188964D01*
X0369906Y0188964D01*
X0369205Y0188263D01*
X0367404Y0184760D02*
X0366002Y0184760D01*
X0364334Y0184760D02*
X0364334Y0187563D01*
X0362232Y0187563D01*
X0361532Y0186862D01*
X0361532Y0184760D01*
X0369205Y0180763D02*
X0369906Y0181464D01*
X0372007Y0181464D01*
X0372007Y0177260D01*
X0372007Y0178661D02*
X0369906Y0178661D01*
X0369205Y0179362D01*
X0369205Y0180763D01*
X0367404Y0177260D02*
X0366002Y0177260D01*
X0364334Y0177260D02*
X0364334Y0180063D01*
X0362232Y0180063D01*
X0361532Y0179362D01*
X0361532Y0177260D01*
X0369205Y0173263D02*
X0369205Y0171862D01*
X0369906Y0171161D01*
X0372007Y0171161D01*
X0372007Y0169760D02*
X0372007Y0173964D01*
X0369906Y0173964D01*
X0369205Y0173263D01*
X0364334Y0172563D02*
X0362232Y0172563D01*
X0361532Y0171862D01*
X0361532Y0169760D01*
X0364334Y0169760D02*
X0364334Y0172563D01*
X0366002Y0169760D02*
X0367404Y0169760D01*
X0369906Y0166464D02*
X0369205Y0165763D01*
X0369205Y0164362D01*
X0369906Y0163661D01*
X0372007Y0163661D01*
X0372007Y0162260D02*
X0372007Y0166464D01*
X0369906Y0166464D01*
X0367404Y0162260D02*
X0366002Y0162260D01*
X0364334Y0162260D02*
X0364334Y0165063D01*
X0362232Y0165063D01*
X0361532Y0164362D01*
X0361532Y0162260D01*
X0362232Y0157563D02*
X0361532Y0156862D01*
X0361532Y0154760D01*
X0364334Y0154760D02*
X0364334Y0157563D01*
X0362232Y0157563D01*
X0366002Y0154760D02*
X0367404Y0154760D01*
X0369205Y0156862D02*
X0369906Y0156161D01*
X0372007Y0156161D01*
X0372007Y0154760D02*
X0372007Y0158964D01*
X0369906Y0158964D01*
X0369205Y0158263D01*
X0369205Y0156862D01*
X0369906Y0151464D02*
X0369205Y0150763D01*
X0369205Y0149362D01*
X0369906Y0148661D01*
X0372007Y0148661D01*
X0372007Y0147260D02*
X0372007Y0151464D01*
X0369906Y0151464D01*
X0364334Y0150063D02*
X0362232Y0150063D01*
X0361532Y0149362D01*
X0361532Y0147260D01*
X0364334Y0147260D02*
X0364334Y0150063D01*
X0366002Y0147260D02*
X0367404Y0147260D01*
X0369906Y0143964D02*
X0369205Y0143263D01*
X0369205Y0141862D01*
X0369906Y0141161D01*
X0372007Y0141161D01*
X0372007Y0139760D02*
X0372007Y0143964D01*
X0369906Y0143964D01*
X0369906Y0136464D02*
X0369205Y0135763D01*
X0369205Y0134362D01*
X0369906Y0133661D01*
X0372007Y0133661D01*
X0372007Y0132260D02*
X0372007Y0136464D01*
X0369906Y0136464D01*
X0367404Y0135063D02*
X0366703Y0135063D01*
X0366703Y0132260D01*
X0367404Y0132260D02*
X0366002Y0132260D01*
X0364334Y0132260D02*
X0364334Y0135063D01*
X0362232Y0135063D01*
X0361532Y0134362D01*
X0361532Y0132260D01*
X0366703Y0136464D02*
X0366703Y0137164D01*
X0343617Y0135763D02*
X0343617Y0132961D01*
X0342916Y0132260D01*
X0341515Y0132260D01*
X0340814Y0132961D01*
X0340814Y0134362D01*
X0342215Y0134362D01*
X0340814Y0135763D02*
X0341515Y0136464D01*
X0342916Y0136464D01*
X0343617Y0135763D01*
X0342916Y0139760D02*
X0341515Y0139760D01*
X0340814Y0140461D01*
X0340814Y0141862D01*
X0342215Y0141862D01*
X0340814Y0143263D02*
X0341515Y0143964D01*
X0342916Y0143964D01*
X0343617Y0143263D01*
X0343617Y0140461D01*
X0342916Y0139760D01*
X0339013Y0139760D02*
X0339013Y0143964D01*
X0336210Y0139760D01*
X0336210Y0143964D01*
X0334409Y0143964D02*
X0332307Y0143964D01*
X0331606Y0143263D01*
X0331606Y0140461D01*
X0332307Y0139760D01*
X0334409Y0139760D01*
X0334409Y0143964D01*
X0340814Y0147260D02*
X0340814Y0150063D01*
X0342215Y0151464D01*
X0343617Y0150063D01*
X0343617Y0147260D01*
X0343617Y0149362D02*
X0340814Y0149362D01*
X0340814Y0154760D02*
X0340814Y0157563D01*
X0342215Y0158964D01*
X0343617Y0157563D01*
X0343617Y0154760D01*
X0343617Y0156862D02*
X0340814Y0156862D01*
X0349822Y0169760D02*
X0350523Y0169760D01*
X0350523Y0170461D01*
X0349822Y0170461D01*
X0349822Y0169760D01*
X0349822Y0171862D02*
X0350523Y0171862D01*
X0350523Y0172563D01*
X0349822Y0172563D01*
X0349822Y0171862D01*
X0352324Y0171161D02*
X0352324Y0170461D01*
X0353025Y0169760D01*
X0354426Y0169760D01*
X0355126Y0170461D01*
X0353725Y0171862D02*
X0353025Y0171862D01*
X0352324Y0171161D01*
X0353025Y0171862D02*
X0352324Y0172563D01*
X0352324Y0173263D01*
X0353025Y0173964D01*
X0354426Y0173964D01*
X0355126Y0173263D01*
X0339013Y0136464D02*
X0336210Y0132260D01*
X0336210Y0136464D01*
X0334409Y0136464D02*
X0332307Y0136464D01*
X0331606Y0135763D01*
X0331606Y0132961D01*
X0332307Y0132260D01*
X0334409Y0132260D01*
X0334409Y0136464D01*
X0339013Y0136464D02*
X0339013Y0132260D01*
X0373198Y0078964D02*
X0375300Y0078964D01*
X0375300Y0074760D01*
X0373198Y0074760D01*
X0372497Y0075461D01*
X0372497Y0078263D01*
X0373198Y0078964D01*
X0377101Y0078964D02*
X0377101Y0074760D01*
X0379904Y0078964D01*
X0379904Y0074760D01*
X0381705Y0075461D02*
X0381705Y0076862D01*
X0383106Y0076862D01*
X0381705Y0075461D02*
X0382406Y0074760D01*
X0383807Y0074760D01*
X0384507Y0075461D01*
X0384507Y0078263D01*
X0383807Y0078964D01*
X0382406Y0078964D01*
X0381705Y0078263D01*
X0268257Y0066264D02*
X0268257Y0065463D01*
X0267457Y0064662D01*
X0265855Y0064662D01*
X0265055Y0063862D01*
X0265055Y0063061D01*
X0265855Y0062260D01*
X0267457Y0062260D01*
X0268257Y0063061D01*
X0268257Y0066264D02*
X0267457Y0067064D01*
X0265855Y0067064D01*
X0265055Y0066264D01*
X0263101Y0064662D02*
X0262300Y0065463D01*
X0260699Y0065463D01*
X0259898Y0064662D01*
X0259898Y0063862D01*
X0263101Y0063862D01*
X0263101Y0064662D02*
X0263101Y0063061D01*
X0262300Y0062260D01*
X0260699Y0062260D01*
X0257945Y0062260D02*
X0257945Y0065463D01*
X0257945Y0063862D02*
X0256343Y0065463D01*
X0255543Y0065463D01*
X0253648Y0065463D02*
X0252847Y0065463D01*
X0252847Y0062260D01*
X0253648Y0062260D02*
X0252046Y0062260D01*
X0250210Y0063061D02*
X0249409Y0063862D01*
X0247007Y0063862D01*
X0247007Y0064662D02*
X0247007Y0062260D01*
X0249409Y0062260D01*
X0250210Y0063061D01*
X0249409Y0065463D02*
X0247808Y0065463D01*
X0247007Y0064662D01*
X0245054Y0062260D02*
X0243452Y0062260D01*
X0244253Y0062260D02*
X0244253Y0067064D01*
X0245054Y0067064D01*
X0252847Y0067064D02*
X0252847Y0067865D01*
X0241660Y0091010D02*
X0241660Y0095214D01*
X0240960Y0093813D02*
X0239558Y0093813D01*
X0238858Y0093112D01*
X0238858Y0091010D01*
X0236356Y0091711D02*
X0235655Y0091010D01*
X0236356Y0091711D02*
X0236356Y0094513D01*
X0237056Y0093813D02*
X0235655Y0093813D01*
X0233987Y0093813D02*
X0232586Y0093813D01*
X0233286Y0094513D02*
X0233286Y0091711D01*
X0232586Y0091010D01*
X0230918Y0091010D02*
X0228816Y0091010D01*
X0228115Y0091711D01*
X0228115Y0093112D01*
X0228816Y0093813D01*
X0230918Y0093813D01*
X0230918Y0089609D01*
X0226314Y0091010D02*
X0226314Y0091711D01*
X0225613Y0091711D01*
X0225613Y0091010D01*
X0226314Y0091010D01*
X0226314Y0093112D02*
X0226314Y0093813D01*
X0225613Y0093813D01*
X0225613Y0093112D01*
X0226314Y0093112D01*
X0224012Y0091010D02*
X0221209Y0095214D01*
X0219408Y0091010D02*
X0216605Y0095214D01*
X0214804Y0093813D02*
X0213403Y0093813D01*
X0214103Y0094513D02*
X0214103Y0091711D01*
X0213403Y0091010D01*
X0211735Y0091010D02*
X0211735Y0095214D01*
X0211034Y0093813D02*
X0209633Y0093813D01*
X0208932Y0093112D01*
X0208932Y0091010D01*
X0207131Y0091010D02*
X0205730Y0091010D01*
X0206430Y0091010D02*
X0206430Y0093813D01*
X0207131Y0093813D01*
X0206430Y0095214D02*
X0206430Y0095914D01*
X0204061Y0093813D02*
X0201960Y0093813D01*
X0201259Y0093112D01*
X0201259Y0091010D01*
X0199458Y0091711D02*
X0199458Y0093112D01*
X0198757Y0093813D01*
X0196655Y0093813D01*
X0196655Y0090310D01*
X0197356Y0089609D01*
X0198056Y0089609D01*
X0198757Y0091010D02*
X0196655Y0091010D01*
X0194854Y0091711D02*
X0194854Y0093813D01*
X0194854Y0091711D02*
X0194153Y0091010D01*
X0192051Y0091010D01*
X0192051Y0090310D02*
X0192752Y0089609D01*
X0193452Y0089609D01*
X0192051Y0090310D02*
X0192051Y0093813D01*
X0190250Y0093112D02*
X0189549Y0093813D01*
X0187447Y0093813D01*
X0188148Y0092411D02*
X0189549Y0092411D01*
X0190250Y0093112D01*
X0190250Y0091010D02*
X0188148Y0091010D01*
X0187447Y0091711D01*
X0188148Y0092411D01*
X0185646Y0093813D02*
X0184245Y0093813D01*
X0184945Y0094513D02*
X0184945Y0091711D01*
X0184245Y0091010D01*
X0182577Y0091010D02*
X0181175Y0091010D01*
X0181876Y0091010D02*
X0181876Y0093813D01*
X0182577Y0093813D01*
X0181876Y0095214D02*
X0181876Y0095914D01*
X0179507Y0093112D02*
X0179507Y0091711D01*
X0178807Y0091010D01*
X0176705Y0091010D01*
X0174903Y0091010D02*
X0174903Y0095214D01*
X0176705Y0093813D02*
X0178807Y0093813D01*
X0179507Y0093112D01*
X0174903Y0092411D02*
X0172802Y0091010D01*
X0171067Y0091010D02*
X0168965Y0091010D01*
X0168264Y0091711D01*
X0168965Y0092411D01*
X0170366Y0092411D01*
X0171067Y0093112D01*
X0170366Y0093813D01*
X0168264Y0093813D01*
X0166463Y0091711D02*
X0165762Y0091711D01*
X0165762Y0091010D01*
X0166463Y0091010D01*
X0166463Y0091711D01*
X0164161Y0091711D02*
X0164161Y0093112D01*
X0163460Y0093813D01*
X0161358Y0093813D01*
X0159557Y0093112D02*
X0159557Y0091711D01*
X0158856Y0091010D01*
X0157455Y0091010D01*
X0156755Y0091711D01*
X0156755Y0093112D01*
X0157455Y0093813D01*
X0158856Y0093813D01*
X0159557Y0093112D01*
X0161358Y0091010D02*
X0163460Y0091010D01*
X0164161Y0091711D01*
X0172802Y0093813D02*
X0174903Y0092411D01*
X0154953Y0091010D02*
X0154953Y0093813D01*
X0154252Y0093813D01*
X0153552Y0093112D01*
X0152851Y0093813D01*
X0152151Y0093112D01*
X0152151Y0091010D01*
X0153552Y0091010D02*
X0153552Y0093112D01*
X0150349Y0091010D02*
X0147547Y0095214D01*
X0145745Y0094513D02*
X0145745Y0093813D01*
X0145045Y0093112D01*
X0143643Y0093112D01*
X0142943Y0092411D01*
X0142943Y0091711D01*
X0143643Y0091010D01*
X0145045Y0091010D01*
X0145745Y0091711D01*
X0145745Y0094513D02*
X0145045Y0095214D01*
X0143643Y0095214D01*
X0142943Y0094513D01*
X0141141Y0093112D02*
X0141141Y0091711D01*
X0140441Y0091010D01*
X0139039Y0091010D01*
X0138339Y0091711D01*
X0138339Y0093112D01*
X0139039Y0093813D01*
X0140441Y0093813D01*
X0141141Y0093112D01*
X0136537Y0091010D02*
X0135136Y0091010D01*
X0135837Y0091010D02*
X0135837Y0095214D01*
X0136537Y0095214D01*
X0132767Y0093813D02*
X0131366Y0093813D01*
X0130666Y0093112D01*
X0130666Y0091010D01*
X0132767Y0091010D01*
X0133468Y0091711D01*
X0132767Y0092411D01*
X0130666Y0092411D01*
X0128864Y0092411D02*
X0127463Y0093813D01*
X0126762Y0093813D01*
X0128864Y0093813D02*
X0128864Y0091010D01*
X0125027Y0091010D02*
X0125027Y0095214D01*
X0122926Y0095214D01*
X0122225Y0094513D01*
X0122225Y0093112D01*
X0122926Y0092411D01*
X0125027Y0092411D01*
X0123626Y0092411D02*
X0122225Y0091010D01*
X0120424Y0091711D02*
X0119723Y0091010D01*
X0118322Y0091010D01*
X0117621Y0091711D01*
X0117621Y0092411D01*
X0118322Y0093112D01*
X0119723Y0093112D01*
X0120424Y0093813D01*
X0120424Y0094513D01*
X0119723Y0095214D01*
X0118322Y0095214D01*
X0117621Y0094513D01*
X0115820Y0093112D02*
X0113017Y0093112D01*
X0111216Y0092411D02*
X0110515Y0093112D01*
X0109114Y0093112D01*
X0108413Y0092411D01*
X0108413Y0091711D01*
X0109114Y0091010D01*
X0110515Y0091010D01*
X0111216Y0091711D01*
X0111216Y0092411D01*
X0110515Y0093112D02*
X0111216Y0093813D01*
X0111216Y0094513D01*
X0110515Y0095214D01*
X0109114Y0095214D01*
X0108413Y0094513D01*
X0108413Y0093813D01*
X0109114Y0093112D01*
X0106612Y0093112D02*
X0105211Y0093813D01*
X0104510Y0093813D01*
X0103809Y0093112D01*
X0103809Y0091711D01*
X0104510Y0091010D01*
X0105911Y0091010D01*
X0106612Y0091711D01*
X0106612Y0093112D02*
X0106612Y0095214D01*
X0103809Y0095214D01*
X0113718Y0095214D02*
X0113718Y0091010D01*
X0115820Y0093112D02*
X0113718Y0095214D01*
X0137730Y0067064D02*
X0136929Y0066264D01*
X0140132Y0063061D01*
X0139331Y0062260D01*
X0137730Y0062260D01*
X0136929Y0063061D01*
X0136929Y0066264D01*
X0137730Y0067064D02*
X0139331Y0067064D01*
X0140132Y0066264D01*
X0140132Y0063061D01*
X0142086Y0062260D02*
X0142086Y0065463D01*
X0143687Y0067064D01*
X0145288Y0065463D01*
X0145288Y0062260D01*
X0145288Y0064662D02*
X0142086Y0064662D01*
X0147242Y0067064D02*
X0150445Y0062260D01*
X0152398Y0062260D02*
X0155601Y0062260D01*
X0154000Y0062260D02*
X0154000Y0067064D01*
X0155601Y0065463D01*
X0157555Y0065463D02*
X0157555Y0062260D01*
X0157555Y0064662D02*
X0160757Y0064662D01*
X0160757Y0065463D02*
X0160757Y0062260D01*
X0160757Y0065463D02*
X0159156Y0067064D01*
X0157555Y0065463D01*
X0198757Y0091010D02*
X0199458Y0091711D01*
X0204061Y0091010D02*
X0204061Y0093813D01*
X0211034Y0093813D02*
X0211735Y0093112D01*
X0240960Y0093813D02*
X0241660Y0093112D01*
X0234669Y0116650D02*
X0230465Y0119452D01*
X0234669Y0119452D01*
X0233968Y0121254D02*
X0231166Y0121254D01*
X0230465Y0121955D01*
X0230465Y0123356D01*
X0231166Y0124056D01*
X0233968Y0124056D02*
X0234669Y0123356D01*
X0234669Y0121955D01*
X0233968Y0121254D01*
X0234669Y0116650D02*
X0230465Y0116650D01*
X0191207Y0236010D02*
X0189605Y0236010D01*
X0188805Y0236811D01*
X0188805Y0237612D01*
X0189605Y0238412D01*
X0191207Y0238412D01*
X0192007Y0239213D01*
X0192007Y0240014D01*
X0191207Y0240814D01*
X0189605Y0240814D01*
X0188805Y0240014D01*
X0186851Y0238412D02*
X0186050Y0239213D01*
X0184449Y0239213D01*
X0183648Y0238412D01*
X0183648Y0237612D01*
X0186851Y0237612D01*
X0186851Y0238412D02*
X0186851Y0236811D01*
X0186050Y0236010D01*
X0184449Y0236010D01*
X0181695Y0236010D02*
X0181695Y0239213D01*
X0181695Y0237612D02*
X0180093Y0239213D01*
X0179293Y0239213D01*
X0177398Y0239213D02*
X0176597Y0239213D01*
X0176597Y0236010D01*
X0177398Y0236010D02*
X0175796Y0236010D01*
X0173960Y0236811D02*
X0173159Y0237612D01*
X0170757Y0237612D01*
X0170757Y0238412D02*
X0170757Y0236010D01*
X0173159Y0236010D01*
X0173960Y0236811D01*
X0173159Y0239213D02*
X0171558Y0239213D01*
X0170757Y0238412D01*
X0168804Y0236010D02*
X0167202Y0236010D01*
X0168003Y0236010D02*
X0168003Y0240814D01*
X0168804Y0240814D01*
X0160210Y0240014D02*
X0159409Y0240814D01*
X0157808Y0240814D01*
X0157007Y0240014D01*
X0157007Y0239213D01*
X0160210Y0236010D01*
X0157007Y0236010D01*
X0176597Y0240814D02*
X0176597Y0241615D01*
X0191207Y0236010D02*
X0192007Y0236811D01*
X0275211Y0236811D02*
X0276011Y0236010D01*
X0277613Y0236010D01*
X0278413Y0236811D01*
X0278413Y0240014D01*
X0277613Y0240814D01*
X0276011Y0240814D01*
X0275211Y0240014D01*
X0280367Y0240014D02*
X0281168Y0240814D01*
X0282769Y0240814D01*
X0283570Y0240014D01*
X0285406Y0240814D02*
X0287007Y0240814D01*
X0286207Y0240814D02*
X0286207Y0236010D01*
X0287007Y0236010D02*
X0285406Y0236010D01*
X0283570Y0236010D02*
X0280367Y0239213D01*
X0280367Y0240014D01*
X0280367Y0236010D02*
X0283570Y0236010D01*
D13*
X0253357Y0232496D02*
X0253357Y0231929D01*
X0252790Y0231362D01*
X0251656Y0231362D01*
X0251089Y0230795D01*
X0251089Y0230227D01*
X0251656Y0229660D01*
X0252790Y0229660D01*
X0253357Y0230227D01*
X0253357Y0232496D02*
X0252790Y0233063D01*
X0251656Y0233063D01*
X0251089Y0232496D01*
X0249674Y0232496D02*
X0249674Y0230227D01*
X0249107Y0229660D01*
X0247973Y0229660D01*
X0247406Y0230227D01*
X0245991Y0229660D02*
X0243723Y0229660D01*
X0245991Y0229660D02*
X0245991Y0233063D01*
X0247406Y0232496D02*
X0247973Y0233063D01*
X0249107Y0233063D01*
X0249674Y0232496D01*
X0233357Y0232496D02*
X0233357Y0230227D01*
X0232790Y0229660D01*
X0231656Y0229660D01*
X0231089Y0230227D01*
X0231089Y0231362D01*
X0232223Y0231362D01*
X0231089Y0232496D02*
X0231656Y0233063D01*
X0232790Y0233063D01*
X0233357Y0232496D01*
X0229674Y0233063D02*
X0227406Y0229660D01*
X0227406Y0233063D01*
X0225991Y0233063D02*
X0224290Y0233063D01*
X0223723Y0232496D01*
X0223723Y0230227D01*
X0224290Y0229660D01*
X0225991Y0229660D01*
X0225991Y0233063D01*
X0229674Y0233063D02*
X0229674Y0229660D01*
X0234656Y0219063D02*
X0233522Y0217929D01*
X0233522Y0215660D01*
X0233522Y0217362D02*
X0235791Y0217362D01*
X0235791Y0217929D02*
X0234656Y0219063D01*
X0235791Y0217929D02*
X0235791Y0215660D01*
X0237205Y0216227D02*
X0237772Y0215660D01*
X0239474Y0215660D01*
X0239474Y0219063D01*
X0237772Y0219063D01*
X0237205Y0218496D01*
X0237205Y0216227D01*
X0240888Y0216227D02*
X0241455Y0215660D01*
X0242590Y0215660D01*
X0243157Y0216227D01*
X0242590Y0217362D02*
X0241455Y0217362D01*
X0240888Y0216795D01*
X0240888Y0216227D01*
X0242590Y0217362D02*
X0243157Y0217929D01*
X0243157Y0218496D01*
X0242590Y0219063D01*
X0241455Y0219063D01*
X0240888Y0218496D01*
X0220724Y0219063D02*
X0220724Y0217362D01*
X0219589Y0217929D01*
X0219022Y0217929D01*
X0218455Y0217362D01*
X0218455Y0216227D01*
X0219022Y0215660D01*
X0220157Y0215660D01*
X0220724Y0216227D01*
X0220724Y0219063D02*
X0218455Y0219063D01*
X0217041Y0217929D02*
X0215906Y0215660D01*
X0214772Y0217929D01*
X0212790Y0229660D02*
X0213357Y0230227D01*
X0212790Y0229660D02*
X0211656Y0229660D01*
X0211089Y0230227D01*
X0211089Y0230795D01*
X0211656Y0231362D01*
X0212223Y0231362D01*
X0211656Y0231362D02*
X0211089Y0231929D01*
X0211089Y0232496D01*
X0211656Y0233063D01*
X0212790Y0233063D01*
X0213357Y0232496D01*
X0209674Y0231929D02*
X0208540Y0229660D01*
X0207406Y0231929D01*
X0205991Y0232496D02*
X0205424Y0233063D01*
X0204290Y0233063D01*
X0203723Y0232496D01*
X0203723Y0231929D01*
X0204290Y0231362D01*
X0203723Y0230795D01*
X0203723Y0230227D01*
X0204290Y0229660D01*
X0205424Y0229660D01*
X0205991Y0230227D01*
X0204857Y0231362D02*
X0204290Y0231362D01*
X0317957Y0231611D02*
X0318525Y0231044D01*
X0319092Y0231044D01*
X0319659Y0231611D01*
X0319659Y0232745D01*
X0319092Y0233313D01*
X0318525Y0233313D01*
X0317957Y0232745D01*
X0317957Y0231611D01*
X0319659Y0231611D02*
X0320226Y0231044D01*
X0320793Y0231044D01*
X0321360Y0231611D01*
X0321360Y0232745D01*
X0320793Y0233313D01*
X0320226Y0233313D01*
X0319659Y0232745D01*
X0319659Y0234727D02*
X0320226Y0235861D01*
X0320226Y0236429D01*
X0319659Y0236996D01*
X0318525Y0236996D01*
X0317957Y0236429D01*
X0317957Y0235294D01*
X0318525Y0234727D01*
X0319659Y0234727D02*
X0321360Y0234727D01*
X0321360Y0236996D01*
X0329957Y0232178D02*
X0330525Y0231611D01*
X0332793Y0231611D01*
X0332226Y0231044D02*
X0332226Y0232178D01*
X0332226Y0229629D02*
X0332226Y0227928D01*
X0331659Y0227361D01*
X0330525Y0227361D01*
X0329957Y0227928D01*
X0329957Y0229629D01*
X0331092Y0225946D02*
X0331092Y0223678D01*
X0331659Y0223678D02*
X0332226Y0224245D01*
X0332226Y0225379D01*
X0331659Y0225946D01*
X0331092Y0225946D01*
X0329957Y0225379D02*
X0329957Y0224245D01*
X0330525Y0223678D01*
X0331659Y0223678D01*
X0331659Y0222263D02*
X0329957Y0222263D01*
X0331659Y0222263D02*
X0332226Y0221696D01*
X0332226Y0219994D01*
X0329957Y0219994D01*
X0329957Y0218580D02*
X0331659Y0218580D01*
X0332226Y0218013D01*
X0332226Y0216311D01*
X0329957Y0216311D01*
X0330525Y0214897D02*
X0329957Y0214330D01*
X0329957Y0213195D01*
X0330525Y0212628D01*
X0331659Y0212628D01*
X0332226Y0213195D01*
X0332226Y0214330D01*
X0331659Y0214897D01*
X0330525Y0214897D01*
X0330525Y0211214D02*
X0329957Y0210647D01*
X0329957Y0209512D01*
X0330525Y0208945D01*
X0332793Y0208945D01*
X0333360Y0209512D01*
X0333360Y0210647D01*
X0332793Y0211214D01*
X0327360Y0210079D02*
X0326793Y0209512D01*
X0323957Y0209512D01*
X0325659Y0208945D02*
X0325659Y0210079D01*
X0325659Y0211400D02*
X0324525Y0211400D01*
X0323957Y0211968D01*
X0323957Y0213102D01*
X0324525Y0213669D01*
X0325659Y0213669D01*
X0326226Y0213102D01*
X0326226Y0211968D01*
X0325659Y0211400D01*
X0326226Y0215084D02*
X0323957Y0215084D01*
X0325092Y0215084D02*
X0326226Y0216218D01*
X0326226Y0216785D01*
X0321360Y0214897D02*
X0319092Y0214897D01*
X0317957Y0213762D01*
X0319092Y0212628D01*
X0321360Y0212628D01*
X0321360Y0211214D02*
X0321360Y0208945D01*
X0319659Y0208945D01*
X0320226Y0210079D01*
X0320226Y0210647D01*
X0319659Y0211214D01*
X0318525Y0211214D01*
X0317957Y0210647D01*
X0317957Y0209512D01*
X0318525Y0208945D01*
X0319092Y0219994D02*
X0319092Y0221696D01*
X0319659Y0222263D01*
X0320793Y0222263D01*
X0321360Y0221696D01*
X0321360Y0219994D01*
X0317957Y0219994D01*
X0319092Y0221129D02*
X0317957Y0222263D01*
X0318525Y0223678D02*
X0317957Y0224245D01*
X0317957Y0225379D01*
X0318525Y0225946D01*
X0319092Y0225946D01*
X0319659Y0225379D01*
X0319659Y0224245D01*
X0320226Y0223678D01*
X0320793Y0223678D01*
X0321360Y0224245D01*
X0321360Y0225379D01*
X0320793Y0225946D01*
X0319659Y0227361D02*
X0319659Y0229629D01*
X0321360Y0229062D02*
X0319659Y0227361D01*
X0321360Y0229062D02*
X0317957Y0229062D01*
X0228720Y0103380D02*
X0228720Y0102813D01*
X0228720Y0101679D02*
X0228720Y0099410D01*
X0229287Y0099410D02*
X0228153Y0099410D01*
X0226265Y0099977D02*
X0225698Y0099410D01*
X0226265Y0099977D02*
X0226265Y0102246D01*
X0226832Y0101679D02*
X0225698Y0101679D01*
X0224377Y0101112D02*
X0223809Y0101679D01*
X0222675Y0101679D01*
X0222108Y0101112D01*
X0222108Y0099410D01*
X0220694Y0099977D02*
X0220126Y0099410D01*
X0218425Y0099410D01*
X0218425Y0101679D01*
X0217010Y0101679D02*
X0215309Y0101679D01*
X0214742Y0101112D01*
X0214742Y0099977D01*
X0215309Y0099410D01*
X0217010Y0099410D01*
X0217010Y0102813D01*
X0220694Y0101679D02*
X0220694Y0099977D01*
X0224377Y0099410D02*
X0224377Y0102813D01*
X0228720Y0101679D02*
X0229287Y0101679D01*
X0230702Y0101679D02*
X0230702Y0098843D01*
X0231269Y0098276D01*
X0231836Y0098276D01*
X0232403Y0099410D02*
X0230702Y0099410D01*
X0232403Y0099410D02*
X0232971Y0099977D01*
X0232971Y0101112D01*
X0232403Y0101679D01*
X0230702Y0101679D01*
X0213327Y0099977D02*
X0212760Y0099977D01*
X0212760Y0099410D01*
X0213327Y0099410D01*
X0213327Y0099977D01*
X0211486Y0099977D02*
X0210918Y0099410D01*
X0209217Y0099410D01*
X0207802Y0099977D02*
X0207235Y0099410D01*
X0206101Y0099410D01*
X0205534Y0099977D01*
X0205534Y0101112D01*
X0206101Y0101679D01*
X0207235Y0101679D01*
X0207802Y0101112D01*
X0207802Y0099977D01*
X0209217Y0101679D02*
X0210918Y0101679D01*
X0211486Y0101112D01*
X0211486Y0099977D01*
X0204119Y0099410D02*
X0204119Y0101679D01*
X0203552Y0101679D01*
X0202985Y0101112D01*
X0202418Y0101679D01*
X0201851Y0101112D01*
X0201851Y0099410D01*
X0202985Y0099410D02*
X0202985Y0101112D01*
X0200436Y0099410D02*
X0198168Y0102813D01*
X0196753Y0101679D02*
X0195619Y0101679D01*
X0196186Y0102246D02*
X0196186Y0099977D01*
X0195619Y0099410D01*
X0194298Y0099410D02*
X0194298Y0102813D01*
X0193730Y0101679D02*
X0192596Y0101679D01*
X0192029Y0101112D01*
X0192029Y0099410D01*
X0190614Y0099410D02*
X0189480Y0099410D01*
X0190047Y0099410D02*
X0190047Y0101679D01*
X0190614Y0101679D01*
X0190047Y0102813D02*
X0190047Y0103380D01*
X0188159Y0101679D02*
X0186458Y0101679D01*
X0185890Y0101112D01*
X0185890Y0099410D01*
X0184476Y0099977D02*
X0184476Y0101112D01*
X0183909Y0101679D01*
X0182207Y0101679D01*
X0182207Y0098843D01*
X0182774Y0098276D01*
X0183342Y0098276D01*
X0183909Y0099410D02*
X0182207Y0099410D01*
X0180793Y0099977D02*
X0180226Y0099410D01*
X0178524Y0099410D01*
X0178524Y0098843D02*
X0179091Y0098276D01*
X0179658Y0098276D01*
X0178524Y0098843D02*
X0178524Y0101679D01*
X0177110Y0101112D02*
X0176542Y0101679D01*
X0174841Y0101679D01*
X0175408Y0100545D02*
X0174841Y0099977D01*
X0175408Y0099410D01*
X0177110Y0099410D01*
X0176542Y0100545D02*
X0177110Y0101112D01*
X0176542Y0100545D02*
X0175408Y0100545D01*
X0173426Y0101679D02*
X0172292Y0101679D01*
X0172859Y0102246D02*
X0172859Y0099977D01*
X0172292Y0099410D01*
X0170971Y0099410D02*
X0169837Y0099410D01*
X0170404Y0099410D02*
X0170404Y0101679D01*
X0170971Y0101679D01*
X0170404Y0102813D02*
X0170404Y0103380D01*
X0168516Y0101112D02*
X0168516Y0099977D01*
X0167948Y0099410D01*
X0166247Y0099410D01*
X0164832Y0099410D02*
X0164832Y0102813D01*
X0166247Y0101679D02*
X0167948Y0101679D01*
X0168516Y0101112D01*
X0164832Y0100545D02*
X0163131Y0099410D01*
X0161763Y0099410D02*
X0160062Y0099410D01*
X0159495Y0099977D01*
X0160062Y0100545D01*
X0161196Y0100545D01*
X0161763Y0101112D01*
X0161196Y0101679D01*
X0159495Y0101679D01*
X0158080Y0099410D02*
X0155811Y0102813D01*
X0154397Y0102246D02*
X0154397Y0101679D01*
X0153830Y0101112D01*
X0152695Y0101112D01*
X0152128Y0100545D01*
X0152128Y0099977D01*
X0152695Y0099410D01*
X0153830Y0099410D01*
X0154397Y0099977D01*
X0154397Y0102246D02*
X0153830Y0102813D01*
X0152695Y0102813D01*
X0152128Y0102246D01*
X0150714Y0101112D02*
X0150714Y0099977D01*
X0150147Y0099410D01*
X0149012Y0099410D01*
X0148445Y0099977D01*
X0148445Y0101112D01*
X0149012Y0101679D01*
X0150147Y0101679D01*
X0150714Y0101112D01*
X0147031Y0102813D02*
X0146463Y0102813D01*
X0146463Y0099410D01*
X0145896Y0099410D02*
X0147031Y0099410D01*
X0144575Y0099977D02*
X0144008Y0100545D01*
X0142307Y0100545D01*
X0142307Y0101112D02*
X0142307Y0099410D01*
X0144008Y0099410D01*
X0144575Y0099977D01*
X0144008Y0101679D02*
X0142874Y0101679D01*
X0142307Y0101112D01*
X0140892Y0101679D02*
X0140892Y0099410D01*
X0140892Y0100545D02*
X0139758Y0101679D01*
X0139191Y0101679D01*
X0137823Y0102813D02*
X0137823Y0099410D01*
X0137823Y0100545D02*
X0136121Y0100545D01*
X0135554Y0101112D01*
X0135554Y0102246D01*
X0136121Y0102813D01*
X0137823Y0102813D01*
X0136688Y0100545D02*
X0135554Y0099410D01*
X0134140Y0099977D02*
X0133572Y0099410D01*
X0132438Y0099410D01*
X0131871Y0099977D01*
X0131871Y0100545D01*
X0132438Y0101112D01*
X0133572Y0101112D01*
X0134140Y0101679D01*
X0134140Y0102246D01*
X0133572Y0102813D01*
X0132438Y0102813D01*
X0131871Y0102246D01*
X0130456Y0101112D02*
X0128188Y0101112D01*
X0126773Y0101679D02*
X0126773Y0102246D01*
X0126206Y0102813D01*
X0125072Y0102813D01*
X0124505Y0102246D01*
X0124505Y0101679D01*
X0125072Y0101112D01*
X0126206Y0101112D01*
X0126773Y0101679D01*
X0126206Y0101112D02*
X0126773Y0100545D01*
X0126773Y0099977D01*
X0126206Y0099410D01*
X0125072Y0099410D01*
X0124505Y0099977D01*
X0124505Y0100545D01*
X0125072Y0101112D01*
X0123090Y0101112D02*
X0121956Y0101679D01*
X0121389Y0101679D01*
X0120822Y0101112D01*
X0120822Y0099977D01*
X0121389Y0099410D01*
X0122523Y0099410D01*
X0123090Y0099977D01*
X0123090Y0101112D02*
X0123090Y0102813D01*
X0120822Y0102813D01*
X0117138Y0102813D02*
X0119407Y0099410D01*
X0115724Y0100545D02*
X0114590Y0099410D01*
X0113455Y0100545D01*
X0113455Y0102813D01*
X0112041Y0102246D02*
X0111474Y0102813D01*
X0110339Y0102813D01*
X0109772Y0102246D01*
X0109772Y0101679D01*
X0112041Y0099410D01*
X0109772Y0099410D01*
X0115724Y0100545D02*
X0115724Y0102813D01*
X0128755Y0102813D02*
X0128755Y0099410D01*
X0130456Y0101112D02*
X0128755Y0102813D01*
X0163131Y0101679D02*
X0164832Y0100545D01*
X0180793Y0099977D02*
X0180793Y0101679D01*
X0183909Y0099410D02*
X0184476Y0099977D01*
X0188159Y0099410D02*
X0188159Y0101679D01*
X0193730Y0101679D02*
X0194298Y0101112D01*
X0226457Y0083161D02*
X0226457Y0082027D01*
X0226457Y0082594D02*
X0229860Y0082594D01*
X0229860Y0082027D02*
X0229860Y0083161D01*
X0229293Y0080612D02*
X0228159Y0080612D01*
X0227592Y0080045D01*
X0227592Y0078343D01*
X0226457Y0078343D02*
X0229860Y0078343D01*
X0229860Y0080045D01*
X0229293Y0080612D01*
X0229293Y0076929D02*
X0229860Y0076362D01*
X0229860Y0075227D01*
X0229293Y0074660D01*
X0228726Y0074660D01*
X0228159Y0075227D01*
X0228159Y0076362D01*
X0227592Y0076929D01*
X0227025Y0076929D01*
X0226457Y0076362D01*
X0226457Y0075227D01*
X0227025Y0074660D01*
X0223357Y0072496D02*
X0223357Y0070227D01*
X0222790Y0069660D01*
X0221656Y0069660D01*
X0221089Y0070227D01*
X0221089Y0071362D01*
X0222223Y0071362D01*
X0221089Y0072496D02*
X0221656Y0073063D01*
X0222790Y0073063D01*
X0223357Y0072496D01*
X0219674Y0073063D02*
X0217406Y0069660D01*
X0217406Y0073063D01*
X0215991Y0073063D02*
X0214290Y0073063D01*
X0213723Y0072496D01*
X0213723Y0070227D01*
X0214290Y0069660D01*
X0215991Y0069660D01*
X0215991Y0073063D01*
X0219674Y0073063D02*
X0219674Y0069660D01*
X0215857Y0066813D02*
X0214723Y0065679D01*
X0213589Y0066813D01*
X0213589Y0063410D01*
X0212174Y0063977D02*
X0211607Y0063410D01*
X0210473Y0063410D01*
X0209906Y0063977D01*
X0209906Y0066246D01*
X0210473Y0066813D01*
X0211607Y0066813D01*
X0212174Y0066246D01*
X0212174Y0063977D01*
X0208491Y0063977D02*
X0207924Y0063410D01*
X0206790Y0063410D01*
X0206223Y0063977D01*
X0206223Y0064545D01*
X0206790Y0065112D01*
X0207924Y0065112D01*
X0208491Y0065679D01*
X0208491Y0066246D01*
X0207924Y0066813D01*
X0206790Y0066813D01*
X0206223Y0066246D01*
X0204808Y0066813D02*
X0203674Y0066813D01*
X0204241Y0066813D02*
X0204241Y0063410D01*
X0204808Y0063410D02*
X0203674Y0063410D01*
X0204607Y0069660D02*
X0204607Y0073063D01*
X0203473Y0071929D01*
X0202339Y0073063D01*
X0202339Y0069660D01*
X0200924Y0069660D02*
X0199790Y0069660D01*
X0200357Y0069660D02*
X0200357Y0073063D01*
X0200924Y0073063D02*
X0199790Y0073063D01*
X0198469Y0072496D02*
X0197902Y0073063D01*
X0196767Y0073063D01*
X0196200Y0072496D01*
X0196767Y0071362D02*
X0196200Y0070795D01*
X0196200Y0070227D01*
X0196767Y0069660D01*
X0197902Y0069660D01*
X0198469Y0070227D01*
X0197902Y0071362D02*
X0196767Y0071362D01*
X0197902Y0071362D02*
X0198469Y0071929D01*
X0198469Y0072496D01*
X0194786Y0072496D02*
X0194786Y0070227D01*
X0194219Y0069660D01*
X0193084Y0069660D01*
X0192517Y0070227D01*
X0192517Y0072496D01*
X0193084Y0073063D01*
X0194219Y0073063D01*
X0194786Y0072496D01*
X0191540Y0066813D02*
X0192107Y0066246D01*
X0192107Y0065679D01*
X0191540Y0065112D01*
X0190406Y0065112D01*
X0189839Y0064545D01*
X0189839Y0063977D01*
X0190406Y0063410D01*
X0191540Y0063410D01*
X0192107Y0063977D01*
X0191540Y0066813D02*
X0190406Y0066813D01*
X0189839Y0066246D01*
X0188424Y0066246D02*
X0188424Y0063977D01*
X0187857Y0063410D01*
X0186723Y0063410D01*
X0186156Y0063977D01*
X0184741Y0063410D02*
X0184741Y0066813D01*
X0186156Y0066246D02*
X0186723Y0066813D01*
X0187857Y0066813D01*
X0188424Y0066246D01*
X0184741Y0064545D02*
X0182473Y0066813D01*
X0184174Y0065112D02*
X0182473Y0063410D01*
X0182790Y0069660D02*
X0183357Y0070227D01*
X0182790Y0069660D02*
X0181656Y0069660D01*
X0181089Y0070227D01*
X0181089Y0070795D01*
X0181656Y0071362D01*
X0182223Y0071362D01*
X0181656Y0071362D02*
X0181089Y0071929D01*
X0181089Y0072496D01*
X0181656Y0073063D01*
X0182790Y0073063D01*
X0183357Y0072496D01*
X0179674Y0071929D02*
X0178540Y0069660D01*
X0177406Y0071929D01*
X0175991Y0072496D02*
X0175424Y0073063D01*
X0174290Y0073063D01*
X0173723Y0072496D01*
X0173723Y0071929D01*
X0174290Y0071362D01*
X0173723Y0070795D01*
X0173723Y0070227D01*
X0174290Y0069660D01*
X0175424Y0069660D01*
X0175991Y0070227D01*
X0174857Y0071362D02*
X0174290Y0071362D01*
X0215857Y0066813D02*
X0215857Y0063410D01*
D14*
X0240203Y0071144D02*
X0240203Y0072478D01*
X0240537Y0072812D01*
X0241538Y0072812D01*
X0241538Y0070810D01*
X0240537Y0070810D01*
X0240203Y0071144D01*
X0242413Y0070810D02*
X0242413Y0072812D01*
X0243748Y0072812D02*
X0242413Y0070810D01*
X0243748Y0070810D02*
X0243748Y0072812D01*
X0244623Y0072478D02*
X0244957Y0072812D01*
X0245624Y0072812D01*
X0245957Y0072478D01*
X0245957Y0071144D01*
X0245624Y0070810D01*
X0244957Y0070810D01*
X0244623Y0071144D01*
X0244623Y0071811D01*
X0245290Y0071811D01*
X0247703Y0071144D02*
X0248037Y0070810D01*
X0248704Y0070810D01*
X0249038Y0071144D01*
X0249038Y0072478D01*
X0248704Y0072812D01*
X0248037Y0072812D01*
X0247703Y0072478D01*
X0249913Y0072478D02*
X0250247Y0072812D01*
X0250914Y0072812D01*
X0251248Y0072478D01*
X0251248Y0071144D01*
X0250914Y0070810D01*
X0250247Y0070810D01*
X0249913Y0071144D01*
X0252123Y0071477D02*
X0252123Y0072812D01*
X0253457Y0072812D02*
X0253457Y0071477D01*
X0252790Y0070810D01*
X0252123Y0071477D01*
X0257413Y0070810D02*
X0258748Y0072812D01*
X0259623Y0072812D02*
X0260957Y0072812D01*
X0260290Y0072812D02*
X0260290Y0070810D01*
X0258748Y0070810D02*
X0257413Y0072812D01*
X0264913Y0072812D02*
X0266248Y0070810D01*
X0267123Y0070810D02*
X0267790Y0071477D01*
X0267457Y0071477D02*
X0268457Y0071477D01*
X0268457Y0070810D02*
X0268457Y0072812D01*
X0267457Y0072812D01*
X0267123Y0072478D01*
X0267123Y0071811D01*
X0267457Y0071477D01*
X0266248Y0072812D02*
X0264913Y0070810D01*
X0162207Y0070810D02*
X0162207Y0072145D01*
X0161540Y0072812D01*
X0160873Y0072145D01*
X0160873Y0070810D01*
X0159998Y0071144D02*
X0158663Y0072478D01*
X0158663Y0071144D01*
X0158997Y0070810D01*
X0159664Y0070810D01*
X0159998Y0071144D01*
X0159998Y0072478D01*
X0159664Y0072812D01*
X0158997Y0072812D01*
X0158663Y0072478D01*
X0160873Y0071811D02*
X0162207Y0071811D01*
X0154707Y0071811D02*
X0153373Y0071811D01*
X0153373Y0072145D02*
X0153373Y0070810D01*
X0152498Y0070810D02*
X0151163Y0070810D01*
X0151830Y0070810D02*
X0151830Y0072812D01*
X0152498Y0072145D01*
X0153373Y0072145D02*
X0154040Y0072812D01*
X0154707Y0072145D01*
X0154707Y0070810D01*
X0147207Y0071477D02*
X0146540Y0070810D01*
X0145873Y0071477D01*
X0145873Y0072812D01*
X0144998Y0072478D02*
X0144998Y0071144D01*
X0144664Y0070810D01*
X0143997Y0070810D01*
X0143663Y0071144D01*
X0142788Y0071144D02*
X0142454Y0070810D01*
X0141787Y0070810D01*
X0141453Y0071144D01*
X0141453Y0072478D02*
X0141787Y0072812D01*
X0142454Y0072812D01*
X0142788Y0072478D01*
X0142788Y0071144D01*
X0143663Y0072478D02*
X0143997Y0072812D01*
X0144664Y0072812D01*
X0144998Y0072478D01*
X0147207Y0072812D02*
X0147207Y0071477D01*
X0139707Y0071144D02*
X0139374Y0070810D01*
X0138707Y0070810D01*
X0138373Y0071144D01*
X0138373Y0071811D01*
X0139040Y0071811D01*
X0138373Y0072478D02*
X0138707Y0072812D01*
X0139374Y0072812D01*
X0139707Y0072478D01*
X0139707Y0071144D01*
X0137498Y0070810D02*
X0137498Y0072812D01*
X0136163Y0070810D01*
X0136163Y0072812D01*
X0135288Y0072812D02*
X0134287Y0072812D01*
X0133953Y0072478D01*
X0133953Y0071144D01*
X0134287Y0070810D01*
X0135288Y0070810D01*
X0135288Y0072812D01*
X0162413Y0215810D02*
X0163748Y0217812D01*
X0164623Y0217478D02*
X0164623Y0216811D01*
X0164957Y0216477D01*
X0165957Y0216477D01*
X0165290Y0216477D02*
X0164623Y0215810D01*
X0163748Y0215810D02*
X0162413Y0217812D01*
X0164623Y0217478D02*
X0164957Y0217812D01*
X0165957Y0217812D01*
X0165957Y0215810D01*
X0167413Y0215810D02*
X0168748Y0217812D01*
X0169623Y0217812D02*
X0170957Y0217812D01*
X0170290Y0217812D02*
X0170290Y0215810D01*
X0168748Y0215810D02*
X0167413Y0217812D01*
X0168997Y0230810D02*
X0168997Y0232812D01*
X0169998Y0231811D01*
X0168663Y0231811D01*
X0170873Y0231144D02*
X0170873Y0232478D01*
X0171207Y0232812D01*
X0172207Y0232812D01*
X0172207Y0230810D01*
X0171207Y0230810D01*
X0170873Y0231144D01*
X0175203Y0231144D02*
X0175537Y0230810D01*
X0176204Y0230810D01*
X0176538Y0231144D01*
X0176538Y0232478D01*
X0176204Y0232812D01*
X0175537Y0232812D01*
X0175203Y0232478D01*
X0177413Y0232478D02*
X0177747Y0232812D01*
X0178414Y0232812D01*
X0178748Y0232478D01*
X0178748Y0231144D01*
X0178414Y0230810D01*
X0177747Y0230810D01*
X0177413Y0231144D01*
X0179623Y0231477D02*
X0179623Y0232812D01*
X0180957Y0232812D02*
X0180957Y0231477D01*
X0180290Y0230810D01*
X0179623Y0231477D01*
X0182703Y0231144D02*
X0182703Y0232478D01*
X0183037Y0232812D01*
X0184038Y0232812D01*
X0184038Y0230810D01*
X0183037Y0230810D01*
X0182703Y0231144D01*
X0184913Y0230810D02*
X0184913Y0232812D01*
X0186248Y0232812D02*
X0184913Y0230810D01*
X0186248Y0230810D02*
X0186248Y0232812D01*
X0187123Y0232478D02*
X0187457Y0232812D01*
X0188124Y0232812D01*
X0188457Y0232478D01*
X0188457Y0231144D01*
X0188124Y0230810D01*
X0187457Y0230810D01*
X0187123Y0231144D01*
X0187123Y0231811D01*
X0187790Y0231811D01*
X0164707Y0230810D02*
X0163707Y0230810D01*
X0163373Y0231144D01*
X0163373Y0232478D01*
X0163707Y0232812D01*
X0164707Y0232812D01*
X0164707Y0230810D01*
X0162498Y0231144D02*
X0162164Y0230810D01*
X0161497Y0230810D01*
X0161163Y0231144D01*
X0161163Y0231811D01*
X0161497Y0232145D01*
X0161830Y0232145D01*
X0162498Y0231811D01*
X0162498Y0232812D01*
X0161163Y0232812D01*
X0267703Y0230810D02*
X0269038Y0230810D01*
X0269038Y0232812D01*
X0269913Y0232478D02*
X0270247Y0232812D01*
X0270914Y0232812D01*
X0271248Y0232478D01*
X0271248Y0231144D01*
X0270914Y0230810D01*
X0270247Y0230810D01*
X0269913Y0231144D01*
X0272123Y0231144D02*
X0272457Y0230810D01*
X0273124Y0230810D01*
X0273457Y0231144D01*
X0273124Y0231811D02*
X0272457Y0231811D01*
X0272123Y0231477D01*
X0272123Y0231144D01*
X0273124Y0231811D02*
X0273457Y0232145D01*
X0273457Y0232478D01*
X0273124Y0232812D01*
X0272457Y0232812D01*
X0272123Y0232478D01*
X0276453Y0232145D02*
X0276453Y0230810D01*
X0276453Y0231811D02*
X0277788Y0231811D01*
X0277788Y0232145D02*
X0277120Y0232812D01*
X0276453Y0232145D01*
X0277788Y0232145D02*
X0277788Y0230810D01*
X0278663Y0231144D02*
X0278663Y0232478D01*
X0278997Y0232812D01*
X0279998Y0232812D01*
X0279998Y0230810D01*
X0278997Y0230810D01*
X0278663Y0231144D01*
X0280873Y0231144D02*
X0281207Y0230810D01*
X0281874Y0230810D01*
X0282207Y0231144D01*
X0281874Y0231811D02*
X0281207Y0231811D01*
X0280873Y0231477D01*
X0280873Y0231144D01*
X0281874Y0231811D02*
X0282207Y0232145D01*
X0282207Y0232478D01*
X0281874Y0232812D01*
X0281207Y0232812D01*
X0280873Y0232478D01*
X0283953Y0232478D02*
X0284287Y0232812D01*
X0284954Y0232812D01*
X0285288Y0232478D01*
X0285288Y0231144D01*
X0284954Y0230810D01*
X0284287Y0230810D01*
X0283953Y0231144D01*
X0286163Y0231144D02*
X0286497Y0230810D01*
X0287164Y0230810D01*
X0287498Y0231144D01*
X0287498Y0232478D01*
X0287164Y0232812D01*
X0286497Y0232812D01*
X0286163Y0232478D01*
X0288373Y0232812D02*
X0288373Y0231477D01*
X0289040Y0230810D01*
X0289707Y0231477D01*
X0289707Y0232812D01*
X0291453Y0232478D02*
X0291453Y0231144D01*
X0291787Y0230810D01*
X0292788Y0230810D01*
X0292788Y0232812D01*
X0291787Y0232812D01*
X0291453Y0232478D01*
X0293663Y0232812D02*
X0293663Y0230810D01*
X0294998Y0232812D01*
X0294998Y0230810D01*
X0295873Y0231144D02*
X0295873Y0231811D01*
X0296540Y0231811D01*
X0295873Y0231144D02*
X0296207Y0230810D01*
X0296874Y0230810D01*
X0297207Y0231144D01*
X0297207Y0232478D01*
X0296874Y0232812D01*
X0296207Y0232812D01*
X0295873Y0232478D01*
X0423406Y0196762D02*
X0423406Y0195427D01*
X0424073Y0194760D01*
X0424740Y0195427D01*
X0424740Y0196762D01*
X0425616Y0196428D02*
X0425949Y0196762D01*
X0426617Y0196762D01*
X0426950Y0196428D01*
X0425616Y0196428D02*
X0425616Y0196095D01*
X0426950Y0194760D01*
X0425616Y0194760D01*
X0425949Y0193162D02*
X0426617Y0193162D01*
X0426950Y0192828D01*
X0425949Y0193162D02*
X0425616Y0192828D01*
X0425616Y0192495D01*
X0426950Y0191160D01*
X0425616Y0191160D01*
X0424740Y0191827D02*
X0424740Y0193162D01*
X0423406Y0193162D02*
X0423406Y0191827D01*
X0424073Y0191160D01*
X0424740Y0191827D01*
X0427826Y0191160D02*
X0429160Y0191160D01*
X0428493Y0191160D02*
X0428493Y0193162D01*
X0429160Y0192495D01*
X0430036Y0192161D02*
X0431370Y0192161D01*
X0432245Y0192161D02*
X0432245Y0191494D01*
X0432579Y0191160D01*
X0433246Y0191160D01*
X0433580Y0191494D01*
X0433580Y0192161D02*
X0432913Y0192495D01*
X0432579Y0192495D01*
X0432245Y0192161D01*
X0432245Y0193162D02*
X0433580Y0193162D01*
X0433580Y0192161D01*
X0433580Y0189562D02*
X0432579Y0189562D01*
X0432245Y0189228D01*
X0432245Y0188895D01*
X0432579Y0188561D01*
X0433580Y0188561D01*
X0433580Y0187560D02*
X0432579Y0187560D01*
X0432245Y0187894D01*
X0432245Y0188227D01*
X0432579Y0188561D01*
X0433580Y0187560D02*
X0433580Y0189562D01*
X0436561Y0188895D02*
X0436561Y0188561D01*
X0436895Y0188561D01*
X0436895Y0188895D01*
X0436561Y0188895D01*
X0436561Y0187894D02*
X0436561Y0187560D01*
X0436895Y0187560D01*
X0436895Y0187894D01*
X0436561Y0187894D01*
X0437770Y0187894D02*
X0438104Y0187560D01*
X0438771Y0187560D01*
X0439105Y0187894D01*
X0438437Y0188561D02*
X0438104Y0188561D01*
X0437770Y0188227D01*
X0437770Y0187894D01*
X0438104Y0188561D02*
X0437770Y0188895D01*
X0437770Y0189228D01*
X0438104Y0189562D01*
X0438771Y0189562D01*
X0439105Y0189228D01*
X0439105Y0191160D02*
X0437770Y0192495D01*
X0437770Y0192828D01*
X0438104Y0193162D01*
X0438771Y0193162D01*
X0439105Y0192828D01*
X0439105Y0191160D02*
X0437770Y0191160D01*
X0436895Y0191160D02*
X0436895Y0191494D01*
X0436561Y0191494D01*
X0436561Y0191160D01*
X0436895Y0191160D01*
X0436895Y0192161D02*
X0436895Y0192495D01*
X0436561Y0192495D01*
X0436561Y0192161D01*
X0436895Y0192161D01*
X0436895Y0194760D02*
X0436895Y0195094D01*
X0436561Y0195094D01*
X0436561Y0194760D01*
X0436895Y0194760D01*
X0437770Y0194760D02*
X0439105Y0194760D01*
X0438437Y0194760D02*
X0438437Y0196762D01*
X0439105Y0196095D01*
X0436895Y0196095D02*
X0436895Y0195761D01*
X0436561Y0195761D01*
X0436561Y0196095D01*
X0436895Y0196095D01*
X0433580Y0195761D02*
X0432913Y0196095D01*
X0432579Y0196095D01*
X0432245Y0195761D01*
X0432245Y0195094D01*
X0432579Y0194760D01*
X0433246Y0194760D01*
X0433580Y0195094D01*
X0433580Y0195761D02*
X0433580Y0196762D01*
X0432245Y0196762D01*
X0431370Y0195761D02*
X0430036Y0195761D01*
X0429160Y0196095D02*
X0428493Y0196762D01*
X0428493Y0194760D01*
X0429160Y0194760D02*
X0427826Y0194760D01*
X0442190Y0194760D02*
X0442190Y0195761D01*
X0442523Y0196095D01*
X0443524Y0196095D01*
X0443524Y0194760D01*
X0444330Y0194760D02*
X0444998Y0194760D01*
X0444664Y0194760D02*
X0444664Y0196095D01*
X0444998Y0196095D01*
X0444664Y0196762D02*
X0444664Y0197096D01*
X0445873Y0196428D02*
X0445873Y0195761D01*
X0446207Y0195427D01*
X0447207Y0195427D01*
X0447207Y0194760D02*
X0447207Y0196762D01*
X0446207Y0196762D01*
X0445873Y0196428D01*
X0444664Y0193496D02*
X0444664Y0193162D01*
X0444664Y0192495D02*
X0444664Y0191160D01*
X0444998Y0191160D02*
X0444330Y0191160D01*
X0443524Y0191160D02*
X0443524Y0192495D01*
X0442523Y0192495D01*
X0442190Y0192161D01*
X0442190Y0191160D01*
X0442523Y0188895D02*
X0442190Y0188561D01*
X0442190Y0187560D01*
X0443524Y0187560D02*
X0443524Y0188895D01*
X0442523Y0188895D01*
X0444664Y0188895D02*
X0444664Y0187560D01*
X0444998Y0187560D02*
X0444330Y0187560D01*
X0444664Y0186296D02*
X0444664Y0185962D01*
X0444664Y0185295D02*
X0444664Y0183960D01*
X0444998Y0183960D02*
X0444330Y0183960D01*
X0443524Y0183960D02*
X0443524Y0185295D01*
X0442523Y0185295D01*
X0442190Y0184961D01*
X0442190Y0183960D01*
X0442523Y0181695D02*
X0442190Y0181361D01*
X0442190Y0180360D01*
X0443524Y0180360D02*
X0443524Y0181695D01*
X0442523Y0181695D01*
X0444664Y0181695D02*
X0444664Y0180360D01*
X0444998Y0180360D02*
X0444330Y0180360D01*
X0444664Y0179096D02*
X0444664Y0178762D01*
X0444664Y0178095D02*
X0444664Y0176760D01*
X0444998Y0176760D02*
X0444330Y0176760D01*
X0443524Y0176760D02*
X0443524Y0178095D01*
X0442523Y0178095D01*
X0442190Y0177761D01*
X0442190Y0176760D01*
X0442523Y0174495D02*
X0442190Y0174161D01*
X0442190Y0173160D01*
X0443524Y0173160D02*
X0443524Y0174495D01*
X0442523Y0174495D01*
X0444664Y0174495D02*
X0444664Y0173160D01*
X0444998Y0173160D02*
X0444330Y0173160D01*
X0444664Y0171896D02*
X0444664Y0171562D01*
X0444664Y0170895D02*
X0444664Y0169560D01*
X0444998Y0169560D02*
X0444330Y0169560D01*
X0443524Y0169560D02*
X0443524Y0170895D01*
X0442523Y0170895D01*
X0442190Y0170561D01*
X0442190Y0169560D01*
X0444664Y0170895D02*
X0444998Y0170895D01*
X0445873Y0171228D02*
X0445873Y0170561D01*
X0446207Y0170227D01*
X0447207Y0170227D01*
X0447207Y0169560D02*
X0447207Y0171562D01*
X0446207Y0171562D01*
X0445873Y0171228D01*
X0447207Y0173160D02*
X0447207Y0175162D01*
X0446207Y0175162D01*
X0445873Y0174828D01*
X0445873Y0174161D01*
X0446207Y0173827D01*
X0447207Y0173827D01*
X0444998Y0174495D02*
X0444664Y0174495D01*
X0444664Y0175162D02*
X0444664Y0175496D01*
X0446207Y0177427D02*
X0447207Y0177427D01*
X0447207Y0176760D02*
X0447207Y0178762D01*
X0446207Y0178762D01*
X0445873Y0178428D01*
X0445873Y0177761D01*
X0446207Y0177427D01*
X0444998Y0178095D02*
X0444664Y0178095D01*
X0446207Y0181027D02*
X0447207Y0181027D01*
X0447207Y0180360D02*
X0447207Y0182362D01*
X0446207Y0182362D01*
X0445873Y0182028D01*
X0445873Y0181361D01*
X0446207Y0181027D01*
X0444998Y0181695D02*
X0444664Y0181695D01*
X0444664Y0182362D02*
X0444664Y0182696D01*
X0446207Y0184627D02*
X0447207Y0184627D01*
X0447207Y0183960D02*
X0447207Y0185962D01*
X0446207Y0185962D01*
X0445873Y0185628D01*
X0445873Y0184961D01*
X0446207Y0184627D01*
X0444998Y0185295D02*
X0444664Y0185295D01*
X0446207Y0188227D02*
X0447207Y0188227D01*
X0447207Y0187560D02*
X0447207Y0189562D01*
X0446207Y0189562D01*
X0445873Y0189228D01*
X0445873Y0188561D01*
X0446207Y0188227D01*
X0444998Y0188895D02*
X0444664Y0188895D01*
X0444664Y0189562D02*
X0444664Y0189896D01*
X0446207Y0191827D02*
X0445873Y0192161D01*
X0445873Y0192828D01*
X0446207Y0193162D01*
X0447207Y0193162D01*
X0447207Y0191160D01*
X0447207Y0191827D02*
X0446207Y0191827D01*
X0444998Y0192495D02*
X0444664Y0192495D01*
X0438104Y0185962D02*
X0439105Y0184961D01*
X0437770Y0184961D01*
X0436895Y0184961D02*
X0436895Y0185295D01*
X0436561Y0185295D01*
X0436561Y0184961D01*
X0436895Y0184961D01*
X0436895Y0184294D02*
X0436895Y0183960D01*
X0436561Y0183960D01*
X0436561Y0184294D01*
X0436895Y0184294D01*
X0438104Y0183960D02*
X0438104Y0185962D01*
X0437770Y0182362D02*
X0439105Y0182362D01*
X0439105Y0181361D01*
X0438437Y0181695D01*
X0438104Y0181695D01*
X0437770Y0181361D01*
X0437770Y0180694D01*
X0438104Y0180360D01*
X0438771Y0180360D01*
X0439105Y0180694D01*
X0436895Y0180694D02*
X0436895Y0180360D01*
X0436561Y0180360D01*
X0436561Y0180694D01*
X0436895Y0180694D01*
X0436895Y0181361D02*
X0436895Y0181695D01*
X0436561Y0181695D01*
X0436561Y0181361D01*
X0436895Y0181361D01*
X0437770Y0178762D02*
X0438437Y0178428D01*
X0439105Y0177761D01*
X0438104Y0177761D01*
X0437770Y0177427D01*
X0437770Y0177094D01*
X0438104Y0176760D01*
X0438771Y0176760D01*
X0439105Y0177094D01*
X0439105Y0177761D01*
X0436895Y0177761D02*
X0436895Y0178095D01*
X0436561Y0178095D01*
X0436561Y0177761D01*
X0436895Y0177761D01*
X0436895Y0177094D02*
X0436895Y0176760D01*
X0436561Y0176760D01*
X0436561Y0177094D01*
X0436895Y0177094D01*
X0437770Y0175162D02*
X0437770Y0174828D01*
X0439105Y0173494D01*
X0439105Y0173160D01*
X0438771Y0171562D02*
X0438104Y0171562D01*
X0437770Y0171228D01*
X0437770Y0170895D01*
X0438104Y0170561D01*
X0438771Y0170561D01*
X0439105Y0170895D01*
X0439105Y0171228D01*
X0438771Y0171562D01*
X0438771Y0170561D02*
X0439105Y0170227D01*
X0439105Y0169894D01*
X0438771Y0169560D01*
X0438104Y0169560D01*
X0437770Y0169894D01*
X0437770Y0170227D01*
X0438104Y0170561D01*
X0436895Y0170561D02*
X0436895Y0170895D01*
X0436561Y0170895D01*
X0436561Y0170561D01*
X0436895Y0170561D01*
X0436895Y0169894D02*
X0436895Y0169560D01*
X0436561Y0169560D01*
X0436561Y0169894D01*
X0436895Y0169894D01*
X0433580Y0169894D02*
X0433580Y0171228D01*
X0433246Y0171562D01*
X0432579Y0171562D01*
X0432245Y0171228D01*
X0432245Y0170561D02*
X0432913Y0170561D01*
X0432245Y0170561D02*
X0432245Y0169894D01*
X0432579Y0169560D01*
X0433246Y0169560D01*
X0433580Y0169894D01*
X0431370Y0169560D02*
X0431370Y0171562D01*
X0430036Y0169560D01*
X0430036Y0171562D01*
X0429160Y0171562D02*
X0428159Y0171562D01*
X0427826Y0171228D01*
X0427826Y0169894D01*
X0428159Y0169560D01*
X0429160Y0169560D01*
X0429160Y0171562D01*
X0429160Y0173160D02*
X0428159Y0173160D01*
X0427826Y0173494D01*
X0427826Y0174828D01*
X0428159Y0175162D01*
X0429160Y0175162D01*
X0429160Y0173160D01*
X0430036Y0173160D02*
X0430036Y0175162D01*
X0431370Y0175162D02*
X0430036Y0173160D01*
X0431370Y0173160D02*
X0431370Y0175162D01*
X0432245Y0174828D02*
X0432579Y0175162D01*
X0433246Y0175162D01*
X0433580Y0174828D01*
X0433580Y0173494D01*
X0433246Y0173160D01*
X0432579Y0173160D01*
X0432245Y0173494D01*
X0432245Y0174161D01*
X0432913Y0174161D01*
X0433580Y0176760D02*
X0433580Y0178095D01*
X0432913Y0178762D01*
X0432245Y0178095D01*
X0432245Y0176760D01*
X0432245Y0177761D02*
X0433580Y0177761D01*
X0433580Y0180360D02*
X0433580Y0181695D01*
X0432913Y0182362D01*
X0432245Y0181695D01*
X0432245Y0180360D01*
X0432245Y0181361D02*
X0433580Y0181361D01*
X0433580Y0183960D02*
X0432579Y0183960D01*
X0432245Y0184294D01*
X0432245Y0184627D01*
X0432579Y0184961D01*
X0433580Y0184961D01*
X0433580Y0183960D02*
X0433580Y0185962D01*
X0432579Y0185962D01*
X0432245Y0185628D01*
X0432245Y0185295D01*
X0432579Y0184961D01*
X0437770Y0175162D02*
X0439105Y0175162D01*
X0436895Y0174495D02*
X0436895Y0174161D01*
X0436561Y0174161D01*
X0436561Y0174495D01*
X0436895Y0174495D01*
X0436895Y0173494D02*
X0436895Y0173160D01*
X0436561Y0173160D01*
X0436561Y0173494D01*
X0436895Y0173494D01*
X0434830Y0133012D02*
X0434830Y0132011D01*
X0434163Y0132345D01*
X0433829Y0132345D01*
X0433495Y0132011D01*
X0433495Y0131344D01*
X0433829Y0131010D01*
X0434496Y0131010D01*
X0434830Y0131344D01*
X0434830Y0133012D02*
X0433495Y0133012D01*
X0432620Y0132011D02*
X0431286Y0132011D01*
X0430410Y0132345D02*
X0429743Y0133012D01*
X0429743Y0131010D01*
X0430410Y0131010D02*
X0429076Y0131010D01*
X0428200Y0131010D02*
X0426866Y0132345D01*
X0426866Y0132678D01*
X0427199Y0133012D01*
X0427867Y0133012D01*
X0428200Y0132678D01*
X0428200Y0131010D02*
X0426866Y0131010D01*
X0425990Y0131677D02*
X0425323Y0131010D01*
X0424656Y0131677D01*
X0424656Y0133012D01*
X0425990Y0133012D02*
X0425990Y0131677D01*
X0425990Y0129412D02*
X0425990Y0128077D01*
X0425323Y0127410D01*
X0424656Y0128077D01*
X0424656Y0129412D01*
X0426866Y0129078D02*
X0427199Y0129412D01*
X0427867Y0129412D01*
X0428200Y0129078D01*
X0426866Y0129078D02*
X0426866Y0128745D01*
X0428200Y0127410D01*
X0426866Y0127410D01*
X0429076Y0127410D02*
X0430410Y0127410D01*
X0429743Y0127410D02*
X0429743Y0129412D01*
X0430410Y0128745D01*
X0431286Y0128411D02*
X0432620Y0128411D01*
X0433495Y0128411D02*
X0433495Y0127744D01*
X0433829Y0127410D01*
X0434496Y0127410D01*
X0434830Y0127744D01*
X0434830Y0128411D02*
X0434163Y0128745D01*
X0433829Y0128745D01*
X0433495Y0128411D01*
X0433495Y0129412D02*
X0434830Y0129412D01*
X0434830Y0128411D01*
X0434830Y0125812D02*
X0433829Y0125812D01*
X0433495Y0125478D01*
X0433495Y0125145D01*
X0433829Y0124811D01*
X0434830Y0124811D01*
X0434830Y0123810D02*
X0434830Y0125812D01*
X0433829Y0124811D02*
X0433495Y0124477D01*
X0433495Y0124144D01*
X0433829Y0123810D01*
X0434830Y0123810D01*
X0434830Y0122212D02*
X0433829Y0122212D01*
X0433495Y0121878D01*
X0433495Y0121545D01*
X0433829Y0121211D01*
X0434830Y0121211D01*
X0434830Y0120210D02*
X0433829Y0120210D01*
X0433495Y0120544D01*
X0433495Y0120877D01*
X0433829Y0121211D01*
X0434830Y0120210D02*
X0434830Y0122212D01*
X0437811Y0121545D02*
X0437811Y0121211D01*
X0438145Y0121211D01*
X0438145Y0121545D01*
X0437811Y0121545D01*
X0437811Y0120544D02*
X0437811Y0120210D01*
X0438145Y0120210D01*
X0438145Y0120544D01*
X0437811Y0120544D01*
X0439020Y0121211D02*
X0440355Y0121211D01*
X0439354Y0122212D01*
X0439354Y0120210D01*
X0439020Y0118612D02*
X0440355Y0118612D01*
X0440355Y0117611D01*
X0439687Y0117945D01*
X0439354Y0117945D01*
X0439020Y0117611D01*
X0439020Y0116944D01*
X0439354Y0116610D01*
X0440021Y0116610D01*
X0440355Y0116944D01*
X0438145Y0116944D02*
X0438145Y0116610D01*
X0437811Y0116610D01*
X0437811Y0116944D01*
X0438145Y0116944D01*
X0438145Y0117611D02*
X0438145Y0117945D01*
X0437811Y0117945D01*
X0437811Y0117611D01*
X0438145Y0117611D01*
X0439020Y0115012D02*
X0439687Y0114678D01*
X0440355Y0114011D01*
X0439354Y0114011D01*
X0439020Y0113677D01*
X0439020Y0113344D01*
X0439354Y0113010D01*
X0440021Y0113010D01*
X0440355Y0113344D01*
X0440355Y0114011D01*
X0438145Y0114011D02*
X0438145Y0114345D01*
X0437811Y0114345D01*
X0437811Y0114011D01*
X0438145Y0114011D01*
X0438145Y0113344D02*
X0438145Y0113010D01*
X0437811Y0113010D01*
X0437811Y0113344D01*
X0438145Y0113344D01*
X0439020Y0111412D02*
X0439020Y0111078D01*
X0440355Y0109744D01*
X0440355Y0109410D01*
X0440021Y0107812D02*
X0439354Y0107812D01*
X0439020Y0107478D01*
X0439020Y0107145D01*
X0439354Y0106811D01*
X0440021Y0106811D01*
X0440355Y0107145D01*
X0440355Y0107478D01*
X0440021Y0107812D01*
X0440021Y0106811D02*
X0440355Y0106477D01*
X0440355Y0106144D01*
X0440021Y0105810D01*
X0439354Y0105810D01*
X0439020Y0106144D01*
X0439020Y0106477D01*
X0439354Y0106811D01*
X0438145Y0106811D02*
X0438145Y0107145D01*
X0437811Y0107145D01*
X0437811Y0106811D01*
X0438145Y0106811D01*
X0438145Y0106144D02*
X0438145Y0105810D01*
X0437811Y0105810D01*
X0437811Y0106144D01*
X0438145Y0106144D01*
X0438145Y0109410D02*
X0438145Y0109744D01*
X0437811Y0109744D01*
X0437811Y0109410D01*
X0438145Y0109410D01*
X0438145Y0110411D02*
X0438145Y0110745D01*
X0437811Y0110745D01*
X0437811Y0110411D01*
X0438145Y0110411D01*
X0439020Y0111412D02*
X0440355Y0111412D01*
X0443440Y0110411D02*
X0443440Y0109410D01*
X0443440Y0110411D02*
X0443773Y0110745D01*
X0444774Y0110745D01*
X0444774Y0109410D01*
X0445580Y0109410D02*
X0446248Y0109410D01*
X0445914Y0109410D02*
X0445914Y0110745D01*
X0446248Y0110745D01*
X0445914Y0111412D02*
X0445914Y0111746D01*
X0445914Y0113010D02*
X0445914Y0114345D01*
X0446248Y0114345D01*
X0445914Y0115012D02*
X0445914Y0115346D01*
X0445914Y0116610D02*
X0445914Y0117945D01*
X0446248Y0117945D01*
X0445914Y0118612D02*
X0445914Y0118946D01*
X0445914Y0120210D02*
X0445914Y0121545D01*
X0446248Y0121545D01*
X0445914Y0122212D02*
X0445914Y0122546D01*
X0445914Y0123810D02*
X0445914Y0125145D01*
X0446248Y0125145D01*
X0445914Y0125812D02*
X0445914Y0126146D01*
X0445914Y0127410D02*
X0445914Y0128745D01*
X0446248Y0128745D01*
X0445914Y0129412D02*
X0445914Y0129746D01*
X0445914Y0131010D02*
X0445914Y0132345D01*
X0446248Y0132345D01*
X0445914Y0133012D02*
X0445914Y0133346D01*
X0447123Y0132678D02*
X0447123Y0132011D01*
X0447457Y0131677D01*
X0448457Y0131677D01*
X0448457Y0131010D02*
X0448457Y0133012D01*
X0447457Y0133012D01*
X0447123Y0132678D01*
X0446248Y0131010D02*
X0445580Y0131010D01*
X0444774Y0131010D02*
X0444774Y0132345D01*
X0443773Y0132345D01*
X0443440Y0132011D01*
X0443440Y0131010D01*
X0443773Y0128745D02*
X0443440Y0128411D01*
X0443440Y0127410D01*
X0444774Y0127410D02*
X0444774Y0128745D01*
X0443773Y0128745D01*
X0445580Y0127410D02*
X0446248Y0127410D01*
X0447123Y0128411D02*
X0447457Y0128077D01*
X0448457Y0128077D01*
X0448457Y0127410D02*
X0448457Y0129412D01*
X0447457Y0129412D01*
X0447123Y0129078D01*
X0447123Y0128411D01*
X0447457Y0125812D02*
X0447123Y0125478D01*
X0447123Y0124811D01*
X0447457Y0124477D01*
X0448457Y0124477D01*
X0448457Y0123810D02*
X0448457Y0125812D01*
X0447457Y0125812D01*
X0446248Y0123810D02*
X0445580Y0123810D01*
X0444774Y0123810D02*
X0444774Y0125145D01*
X0443773Y0125145D01*
X0443440Y0124811D01*
X0443440Y0123810D01*
X0443773Y0121545D02*
X0443440Y0121211D01*
X0443440Y0120210D01*
X0444774Y0120210D02*
X0444774Y0121545D01*
X0443773Y0121545D01*
X0445580Y0120210D02*
X0446248Y0120210D01*
X0447123Y0121211D02*
X0447457Y0120877D01*
X0448457Y0120877D01*
X0448457Y0120210D02*
X0448457Y0122212D01*
X0447457Y0122212D01*
X0447123Y0121878D01*
X0447123Y0121211D01*
X0447457Y0118612D02*
X0447123Y0118278D01*
X0447123Y0117611D01*
X0447457Y0117277D01*
X0448457Y0117277D01*
X0448457Y0116610D02*
X0448457Y0118612D01*
X0447457Y0118612D01*
X0446248Y0116610D02*
X0445580Y0116610D01*
X0444774Y0116610D02*
X0444774Y0117945D01*
X0443773Y0117945D01*
X0443440Y0117611D01*
X0443440Y0116610D01*
X0443773Y0114345D02*
X0443440Y0114011D01*
X0443440Y0113010D01*
X0444774Y0113010D02*
X0444774Y0114345D01*
X0443773Y0114345D01*
X0445580Y0113010D02*
X0446248Y0113010D01*
X0447123Y0114011D02*
X0447457Y0113677D01*
X0448457Y0113677D01*
X0448457Y0113010D02*
X0448457Y0115012D01*
X0447457Y0115012D01*
X0447123Y0114678D01*
X0447123Y0114011D01*
X0447457Y0111412D02*
X0447123Y0111078D01*
X0447123Y0110411D01*
X0447457Y0110077D01*
X0448457Y0110077D01*
X0448457Y0109410D02*
X0448457Y0111412D01*
X0447457Y0111412D01*
X0445914Y0108146D02*
X0445914Y0107812D01*
X0445914Y0107145D02*
X0445914Y0105810D01*
X0446248Y0105810D02*
X0445580Y0105810D01*
X0444774Y0105810D02*
X0444774Y0107145D01*
X0443773Y0107145D01*
X0443440Y0106811D01*
X0443440Y0105810D01*
X0445914Y0107145D02*
X0446248Y0107145D01*
X0447123Y0107478D02*
X0447123Y0106811D01*
X0447457Y0106477D01*
X0448457Y0106477D01*
X0448457Y0105810D02*
X0448457Y0107812D01*
X0447457Y0107812D01*
X0447123Y0107478D01*
X0434830Y0107478D02*
X0434830Y0106144D01*
X0434496Y0105810D01*
X0433829Y0105810D01*
X0433495Y0106144D01*
X0433495Y0106811D01*
X0434163Y0106811D01*
X0434830Y0107478D02*
X0434496Y0107812D01*
X0433829Y0107812D01*
X0433495Y0107478D01*
X0432620Y0107812D02*
X0431286Y0105810D01*
X0431286Y0107812D01*
X0430410Y0107812D02*
X0429409Y0107812D01*
X0429076Y0107478D01*
X0429076Y0106144D01*
X0429409Y0105810D01*
X0430410Y0105810D01*
X0430410Y0107812D01*
X0430410Y0109410D02*
X0429409Y0109410D01*
X0429076Y0109744D01*
X0429076Y0111078D01*
X0429409Y0111412D01*
X0430410Y0111412D01*
X0430410Y0109410D01*
X0431286Y0109410D02*
X0431286Y0111412D01*
X0432620Y0111412D02*
X0431286Y0109410D01*
X0432620Y0109410D02*
X0432620Y0111412D01*
X0433495Y0111078D02*
X0433829Y0111412D01*
X0434496Y0111412D01*
X0434830Y0111078D01*
X0434830Y0109744D01*
X0434496Y0109410D01*
X0433829Y0109410D01*
X0433495Y0109744D01*
X0433495Y0110411D01*
X0434163Y0110411D01*
X0434830Y0113010D02*
X0434830Y0114345D01*
X0434163Y0115012D01*
X0433495Y0114345D01*
X0433495Y0113010D01*
X0433495Y0114011D02*
X0434830Y0114011D01*
X0434830Y0116610D02*
X0434830Y0117945D01*
X0434163Y0118612D01*
X0433495Y0117945D01*
X0433495Y0116610D01*
X0433495Y0117611D02*
X0434830Y0117611D01*
X0437811Y0123810D02*
X0438145Y0123810D01*
X0438145Y0124144D01*
X0437811Y0124144D01*
X0437811Y0123810D01*
X0437811Y0124811D02*
X0438145Y0124811D01*
X0438145Y0125145D01*
X0437811Y0125145D01*
X0437811Y0124811D01*
X0439020Y0124477D02*
X0439020Y0124144D01*
X0439354Y0123810D01*
X0440021Y0123810D01*
X0440355Y0124144D01*
X0439687Y0124811D02*
X0439354Y0124811D01*
X0439020Y0124477D01*
X0439354Y0124811D02*
X0439020Y0125145D01*
X0439020Y0125478D01*
X0439354Y0125812D01*
X0440021Y0125812D01*
X0440355Y0125478D01*
X0440355Y0127410D02*
X0439020Y0128745D01*
X0439020Y0129078D01*
X0439354Y0129412D01*
X0440021Y0129412D01*
X0440355Y0129078D01*
X0440355Y0127410D02*
X0439020Y0127410D01*
X0438145Y0127410D02*
X0438145Y0127744D01*
X0437811Y0127744D01*
X0437811Y0127410D01*
X0438145Y0127410D01*
X0438145Y0128411D02*
X0438145Y0128745D01*
X0437811Y0128745D01*
X0437811Y0128411D01*
X0438145Y0128411D01*
X0438145Y0131010D02*
X0438145Y0131344D01*
X0437811Y0131344D01*
X0437811Y0131010D01*
X0438145Y0131010D01*
X0439020Y0131010D02*
X0440355Y0131010D01*
X0439687Y0131010D02*
X0439687Y0133012D01*
X0440355Y0132345D01*
X0438145Y0132345D02*
X0438145Y0132011D01*
X0437811Y0132011D01*
X0437811Y0132345D01*
X0438145Y0132345D01*
X0432620Y0107812D02*
X0432620Y0105810D01*
D15*
X0386657Y0117610D02*
X0380986Y0123282D01*
X0380986Y0124700D01*
X0382404Y0126118D01*
X0385240Y0126118D01*
X0386657Y0124700D01*
X0386657Y0117610D02*
X0380986Y0117610D01*
X0380986Y0178860D02*
X0386657Y0178860D01*
X0383822Y0178860D02*
X0383822Y0187368D01*
X0386657Y0184532D01*
X0066657Y0164364D02*
X0060986Y0164364D01*
X0063822Y0167200D02*
X0063822Y0161528D01*
D16*
X0299907Y0206860D02*
X0299907Y0236860D01*
X0302407Y0239360D01*
X0332407Y0239360D01*
X0334907Y0236860D01*
X0334907Y0206860D01*
X0332407Y0204360D01*
X0302407Y0204360D01*
X0299907Y0206860D01*
D17*
X0413087Y0056634D02*
X0098126Y0056634D01*
X0097936Y0056636D01*
X0097746Y0056643D01*
X0097556Y0056655D01*
X0097366Y0056671D01*
X0097177Y0056691D01*
X0096988Y0056717D01*
X0096800Y0056746D01*
X0096613Y0056781D01*
X0096427Y0056820D01*
X0096242Y0056863D01*
X0096057Y0056911D01*
X0095874Y0056963D01*
X0095693Y0057019D01*
X0095513Y0057080D01*
X0095334Y0057146D01*
X0095157Y0057215D01*
X0094981Y0057289D01*
X0094808Y0057367D01*
X0094636Y0057450D01*
X0094467Y0057536D01*
X0094299Y0057626D01*
X0094134Y0057721D01*
X0093971Y0057819D01*
X0093811Y0057922D01*
X0093653Y0058028D01*
X0093498Y0058138D01*
X0093345Y0058251D01*
X0093195Y0058369D01*
X0093049Y0058490D01*
X0092905Y0058614D01*
X0092764Y0058742D01*
X0092626Y0058873D01*
X0092491Y0059008D01*
X0092360Y0059146D01*
X0092232Y0059287D01*
X0092108Y0059431D01*
X0091987Y0059577D01*
X0091869Y0059727D01*
X0091756Y0059880D01*
X0091646Y0060035D01*
X0091540Y0060193D01*
X0091437Y0060353D01*
X0091339Y0060516D01*
X0091244Y0060681D01*
X0091154Y0060849D01*
X0091068Y0061018D01*
X0090985Y0061190D01*
X0090907Y0061363D01*
X0090833Y0061539D01*
X0090764Y0061716D01*
X0090698Y0061895D01*
X0090637Y0062075D01*
X0090581Y0062256D01*
X0090529Y0062439D01*
X0090481Y0062624D01*
X0090438Y0062809D01*
X0090399Y0062995D01*
X0090364Y0063182D01*
X0090335Y0063370D01*
X0090309Y0063559D01*
X0090289Y0063748D01*
X0090273Y0063938D01*
X0090261Y0064128D01*
X0090254Y0064318D01*
X0090252Y0064508D01*
X0090252Y0076319D01*
X0090250Y0076509D01*
X0090243Y0076699D01*
X0090231Y0076889D01*
X0090215Y0077079D01*
X0090195Y0077268D01*
X0090169Y0077457D01*
X0090140Y0077645D01*
X0090105Y0077832D01*
X0090066Y0078018D01*
X0090023Y0078203D01*
X0089975Y0078388D01*
X0089923Y0078571D01*
X0089867Y0078752D01*
X0089806Y0078932D01*
X0089740Y0079111D01*
X0089671Y0079288D01*
X0089597Y0079464D01*
X0089519Y0079637D01*
X0089436Y0079809D01*
X0089350Y0079978D01*
X0089260Y0080146D01*
X0089165Y0080311D01*
X0089067Y0080474D01*
X0088964Y0080634D01*
X0088858Y0080792D01*
X0088748Y0080947D01*
X0088635Y0081100D01*
X0088517Y0081250D01*
X0088396Y0081396D01*
X0088272Y0081540D01*
X0088144Y0081681D01*
X0088013Y0081819D01*
X0087878Y0081954D01*
X0087740Y0082085D01*
X0087599Y0082213D01*
X0087455Y0082337D01*
X0087309Y0082458D01*
X0087159Y0082576D01*
X0087006Y0082689D01*
X0086851Y0082799D01*
X0086693Y0082905D01*
X0086533Y0083008D01*
X0086370Y0083106D01*
X0086205Y0083201D01*
X0086037Y0083291D01*
X0085868Y0083377D01*
X0085696Y0083460D01*
X0085523Y0083538D01*
X0085347Y0083612D01*
X0085170Y0083681D01*
X0084991Y0083747D01*
X0084811Y0083808D01*
X0084630Y0083864D01*
X0084447Y0083916D01*
X0084262Y0083964D01*
X0084077Y0084007D01*
X0083891Y0084046D01*
X0083704Y0084081D01*
X0083516Y0084110D01*
X0083327Y0084136D01*
X0083138Y0084156D01*
X0082948Y0084172D01*
X0082758Y0084184D01*
X0082568Y0084191D01*
X0082378Y0084193D01*
X0066630Y0084193D01*
X0066440Y0084195D01*
X0066250Y0084202D01*
X0066060Y0084214D01*
X0065870Y0084230D01*
X0065681Y0084250D01*
X0065492Y0084276D01*
X0065304Y0084305D01*
X0065117Y0084340D01*
X0064931Y0084379D01*
X0064746Y0084422D01*
X0064561Y0084470D01*
X0064378Y0084522D01*
X0064197Y0084578D01*
X0064017Y0084639D01*
X0063838Y0084705D01*
X0063661Y0084774D01*
X0063485Y0084848D01*
X0063312Y0084926D01*
X0063140Y0085009D01*
X0062971Y0085095D01*
X0062803Y0085185D01*
X0062638Y0085280D01*
X0062475Y0085378D01*
X0062315Y0085481D01*
X0062157Y0085587D01*
X0062002Y0085697D01*
X0061849Y0085810D01*
X0061699Y0085928D01*
X0061553Y0086049D01*
X0061409Y0086173D01*
X0061268Y0086301D01*
X0061130Y0086432D01*
X0060995Y0086567D01*
X0060864Y0086705D01*
X0060736Y0086846D01*
X0060612Y0086990D01*
X0060491Y0087136D01*
X0060373Y0087286D01*
X0060260Y0087439D01*
X0060150Y0087594D01*
X0060044Y0087752D01*
X0059941Y0087912D01*
X0059843Y0088075D01*
X0059748Y0088240D01*
X0059658Y0088408D01*
X0059572Y0088577D01*
X0059489Y0088749D01*
X0059411Y0088922D01*
X0059337Y0089098D01*
X0059268Y0089275D01*
X0059202Y0089454D01*
X0059141Y0089634D01*
X0059085Y0089815D01*
X0059033Y0089998D01*
X0058985Y0090183D01*
X0058942Y0090368D01*
X0058903Y0090554D01*
X0058868Y0090741D01*
X0058839Y0090929D01*
X0058813Y0091118D01*
X0058793Y0091307D01*
X0058777Y0091497D01*
X0058765Y0091687D01*
X0058758Y0091877D01*
X0058756Y0092067D01*
X0058756Y0210177D01*
X0058758Y0210367D01*
X0058765Y0210557D01*
X0058777Y0210747D01*
X0058793Y0210937D01*
X0058813Y0211126D01*
X0058839Y0211315D01*
X0058868Y0211503D01*
X0058903Y0211690D01*
X0058942Y0211876D01*
X0058985Y0212061D01*
X0059033Y0212246D01*
X0059085Y0212429D01*
X0059141Y0212610D01*
X0059202Y0212790D01*
X0059268Y0212969D01*
X0059337Y0213146D01*
X0059411Y0213322D01*
X0059489Y0213495D01*
X0059572Y0213667D01*
X0059658Y0213836D01*
X0059748Y0214004D01*
X0059843Y0214169D01*
X0059941Y0214332D01*
X0060044Y0214492D01*
X0060150Y0214650D01*
X0060260Y0214805D01*
X0060373Y0214958D01*
X0060491Y0215108D01*
X0060612Y0215254D01*
X0060736Y0215398D01*
X0060864Y0215539D01*
X0060995Y0215677D01*
X0061130Y0215812D01*
X0061268Y0215943D01*
X0061409Y0216071D01*
X0061553Y0216195D01*
X0061699Y0216316D01*
X0061849Y0216434D01*
X0062002Y0216547D01*
X0062157Y0216657D01*
X0062315Y0216763D01*
X0062475Y0216866D01*
X0062638Y0216964D01*
X0062803Y0217059D01*
X0062971Y0217149D01*
X0063140Y0217235D01*
X0063312Y0217318D01*
X0063485Y0217396D01*
X0063661Y0217470D01*
X0063838Y0217539D01*
X0064017Y0217605D01*
X0064197Y0217666D01*
X0064378Y0217722D01*
X0064561Y0217774D01*
X0064746Y0217822D01*
X0064931Y0217865D01*
X0065117Y0217904D01*
X0065304Y0217939D01*
X0065492Y0217968D01*
X0065681Y0217994D01*
X0065870Y0218014D01*
X0066060Y0218030D01*
X0066250Y0218042D01*
X0066440Y0218049D01*
X0066630Y0218051D01*
X0082378Y0218051D01*
X0082568Y0218053D01*
X0082758Y0218060D01*
X0082948Y0218072D01*
X0083138Y0218088D01*
X0083327Y0218108D01*
X0083516Y0218134D01*
X0083704Y0218163D01*
X0083891Y0218198D01*
X0084077Y0218237D01*
X0084262Y0218280D01*
X0084447Y0218328D01*
X0084630Y0218380D01*
X0084811Y0218436D01*
X0084991Y0218497D01*
X0085170Y0218563D01*
X0085347Y0218632D01*
X0085523Y0218706D01*
X0085696Y0218784D01*
X0085868Y0218867D01*
X0086037Y0218953D01*
X0086205Y0219043D01*
X0086370Y0219138D01*
X0086533Y0219236D01*
X0086693Y0219339D01*
X0086851Y0219445D01*
X0087006Y0219555D01*
X0087159Y0219668D01*
X0087309Y0219786D01*
X0087455Y0219907D01*
X0087599Y0220031D01*
X0087740Y0220159D01*
X0087878Y0220290D01*
X0088013Y0220425D01*
X0088144Y0220563D01*
X0088272Y0220704D01*
X0088396Y0220848D01*
X0088517Y0220994D01*
X0088635Y0221144D01*
X0088748Y0221297D01*
X0088858Y0221452D01*
X0088964Y0221610D01*
X0089067Y0221770D01*
X0089165Y0221933D01*
X0089260Y0222098D01*
X0089350Y0222266D01*
X0089436Y0222435D01*
X0089519Y0222607D01*
X0089597Y0222780D01*
X0089671Y0222956D01*
X0089740Y0223133D01*
X0089806Y0223312D01*
X0089867Y0223492D01*
X0089923Y0223673D01*
X0089975Y0223856D01*
X0090023Y0224041D01*
X0090066Y0224226D01*
X0090105Y0224412D01*
X0090140Y0224599D01*
X0090169Y0224787D01*
X0090195Y0224976D01*
X0090215Y0225165D01*
X0090231Y0225355D01*
X0090243Y0225545D01*
X0090250Y0225735D01*
X0090252Y0225925D01*
X0090252Y0237736D01*
X0090254Y0237926D01*
X0090261Y0238116D01*
X0090273Y0238306D01*
X0090289Y0238496D01*
X0090309Y0238685D01*
X0090335Y0238874D01*
X0090364Y0239062D01*
X0090399Y0239249D01*
X0090438Y0239435D01*
X0090481Y0239620D01*
X0090529Y0239805D01*
X0090581Y0239988D01*
X0090637Y0240169D01*
X0090698Y0240349D01*
X0090764Y0240528D01*
X0090833Y0240705D01*
X0090907Y0240881D01*
X0090985Y0241054D01*
X0091068Y0241226D01*
X0091154Y0241395D01*
X0091244Y0241563D01*
X0091339Y0241728D01*
X0091437Y0241891D01*
X0091540Y0242051D01*
X0091646Y0242209D01*
X0091756Y0242364D01*
X0091869Y0242517D01*
X0091987Y0242667D01*
X0092108Y0242813D01*
X0092232Y0242957D01*
X0092360Y0243098D01*
X0092491Y0243236D01*
X0092626Y0243371D01*
X0092764Y0243502D01*
X0092905Y0243630D01*
X0093049Y0243754D01*
X0093195Y0243875D01*
X0093345Y0243993D01*
X0093498Y0244106D01*
X0093653Y0244216D01*
X0093811Y0244322D01*
X0093971Y0244425D01*
X0094134Y0244523D01*
X0094299Y0244618D01*
X0094467Y0244708D01*
X0094636Y0244794D01*
X0094808Y0244877D01*
X0094981Y0244955D01*
X0095157Y0245029D01*
X0095334Y0245098D01*
X0095513Y0245164D01*
X0095693Y0245225D01*
X0095874Y0245281D01*
X0096057Y0245333D01*
X0096242Y0245381D01*
X0096427Y0245424D01*
X0096613Y0245463D01*
X0096800Y0245498D01*
X0096988Y0245527D01*
X0097177Y0245553D01*
X0097366Y0245573D01*
X0097556Y0245589D01*
X0097746Y0245601D01*
X0097936Y0245608D01*
X0098126Y0245610D01*
X0413087Y0245610D01*
X0413277Y0245608D01*
X0413467Y0245601D01*
X0413657Y0245589D01*
X0413847Y0245573D01*
X0414036Y0245553D01*
X0414225Y0245527D01*
X0414413Y0245498D01*
X0414600Y0245463D01*
X0414786Y0245424D01*
X0414971Y0245381D01*
X0415156Y0245333D01*
X0415339Y0245281D01*
X0415520Y0245225D01*
X0415700Y0245164D01*
X0415879Y0245098D01*
X0416056Y0245029D01*
X0416232Y0244955D01*
X0416405Y0244877D01*
X0416577Y0244794D01*
X0416746Y0244708D01*
X0416914Y0244618D01*
X0417079Y0244523D01*
X0417242Y0244425D01*
X0417402Y0244322D01*
X0417560Y0244216D01*
X0417715Y0244106D01*
X0417868Y0243993D01*
X0418018Y0243875D01*
X0418164Y0243754D01*
X0418308Y0243630D01*
X0418449Y0243502D01*
X0418587Y0243371D01*
X0418722Y0243236D01*
X0418853Y0243098D01*
X0418981Y0242957D01*
X0419105Y0242813D01*
X0419226Y0242667D01*
X0419344Y0242517D01*
X0419457Y0242364D01*
X0419567Y0242209D01*
X0419673Y0242051D01*
X0419776Y0241891D01*
X0419874Y0241728D01*
X0419969Y0241563D01*
X0420059Y0241395D01*
X0420145Y0241226D01*
X0420228Y0241054D01*
X0420306Y0240881D01*
X0420380Y0240705D01*
X0420449Y0240528D01*
X0420515Y0240349D01*
X0420576Y0240169D01*
X0420632Y0239988D01*
X0420684Y0239805D01*
X0420732Y0239620D01*
X0420775Y0239435D01*
X0420814Y0239249D01*
X0420849Y0239062D01*
X0420878Y0238874D01*
X0420904Y0238685D01*
X0420924Y0238496D01*
X0420940Y0238306D01*
X0420952Y0238116D01*
X0420959Y0237926D01*
X0420961Y0237736D01*
X0420961Y0225925D01*
X0420963Y0225735D01*
X0420970Y0225545D01*
X0420982Y0225355D01*
X0420998Y0225165D01*
X0421018Y0224976D01*
X0421044Y0224787D01*
X0421073Y0224599D01*
X0421108Y0224412D01*
X0421147Y0224226D01*
X0421190Y0224041D01*
X0421238Y0223856D01*
X0421290Y0223673D01*
X0421346Y0223492D01*
X0421407Y0223312D01*
X0421473Y0223133D01*
X0421542Y0222956D01*
X0421616Y0222780D01*
X0421694Y0222607D01*
X0421777Y0222435D01*
X0421863Y0222266D01*
X0421953Y0222098D01*
X0422048Y0221933D01*
X0422146Y0221770D01*
X0422249Y0221610D01*
X0422355Y0221452D01*
X0422465Y0221297D01*
X0422578Y0221144D01*
X0422696Y0220994D01*
X0422817Y0220848D01*
X0422941Y0220704D01*
X0423069Y0220563D01*
X0423200Y0220425D01*
X0423335Y0220290D01*
X0423473Y0220159D01*
X0423614Y0220031D01*
X0423758Y0219907D01*
X0423904Y0219786D01*
X0424054Y0219668D01*
X0424207Y0219555D01*
X0424362Y0219445D01*
X0424520Y0219339D01*
X0424680Y0219236D01*
X0424843Y0219138D01*
X0425008Y0219043D01*
X0425176Y0218953D01*
X0425345Y0218867D01*
X0425517Y0218784D01*
X0425690Y0218706D01*
X0425866Y0218632D01*
X0426043Y0218563D01*
X0426222Y0218497D01*
X0426402Y0218436D01*
X0426583Y0218380D01*
X0426766Y0218328D01*
X0426951Y0218280D01*
X0427136Y0218237D01*
X0427322Y0218198D01*
X0427509Y0218163D01*
X0427697Y0218134D01*
X0427886Y0218108D01*
X0428075Y0218088D01*
X0428265Y0218072D01*
X0428455Y0218060D01*
X0428645Y0218053D01*
X0428835Y0218051D01*
X0444583Y0218051D01*
X0444773Y0218049D01*
X0444963Y0218042D01*
X0445153Y0218030D01*
X0445343Y0218014D01*
X0445532Y0217994D01*
X0445721Y0217968D01*
X0445909Y0217939D01*
X0446096Y0217904D01*
X0446282Y0217865D01*
X0446467Y0217822D01*
X0446652Y0217774D01*
X0446835Y0217722D01*
X0447016Y0217666D01*
X0447196Y0217605D01*
X0447375Y0217539D01*
X0447552Y0217470D01*
X0447728Y0217396D01*
X0447901Y0217318D01*
X0448073Y0217235D01*
X0448242Y0217149D01*
X0448410Y0217059D01*
X0448575Y0216964D01*
X0448738Y0216866D01*
X0448898Y0216763D01*
X0449056Y0216657D01*
X0449211Y0216547D01*
X0449364Y0216434D01*
X0449514Y0216316D01*
X0449660Y0216195D01*
X0449804Y0216071D01*
X0449945Y0215943D01*
X0450083Y0215812D01*
X0450218Y0215677D01*
X0450349Y0215539D01*
X0450477Y0215398D01*
X0450601Y0215254D01*
X0450722Y0215108D01*
X0450840Y0214958D01*
X0450953Y0214805D01*
X0451063Y0214650D01*
X0451169Y0214492D01*
X0451272Y0214332D01*
X0451370Y0214169D01*
X0451465Y0214004D01*
X0451555Y0213836D01*
X0451641Y0213667D01*
X0451724Y0213495D01*
X0451802Y0213322D01*
X0451876Y0213146D01*
X0451945Y0212969D01*
X0452011Y0212790D01*
X0452072Y0212610D01*
X0452128Y0212429D01*
X0452180Y0212246D01*
X0452228Y0212061D01*
X0452271Y0211876D01*
X0452310Y0211690D01*
X0452345Y0211503D01*
X0452374Y0211315D01*
X0452400Y0211126D01*
X0452420Y0210937D01*
X0452436Y0210747D01*
X0452448Y0210557D01*
X0452455Y0210367D01*
X0452457Y0210177D01*
X0452457Y0092067D01*
X0452455Y0091877D01*
X0452448Y0091687D01*
X0452436Y0091497D01*
X0452420Y0091307D01*
X0452400Y0091118D01*
X0452374Y0090929D01*
X0452345Y0090741D01*
X0452310Y0090554D01*
X0452271Y0090368D01*
X0452228Y0090183D01*
X0452180Y0089998D01*
X0452128Y0089815D01*
X0452072Y0089634D01*
X0452011Y0089454D01*
X0451945Y0089275D01*
X0451876Y0089098D01*
X0451802Y0088922D01*
X0451724Y0088749D01*
X0451641Y0088577D01*
X0451555Y0088408D01*
X0451465Y0088240D01*
X0451370Y0088075D01*
X0451272Y0087912D01*
X0451169Y0087752D01*
X0451063Y0087594D01*
X0450953Y0087439D01*
X0450840Y0087286D01*
X0450722Y0087136D01*
X0450601Y0086990D01*
X0450477Y0086846D01*
X0450349Y0086705D01*
X0450218Y0086567D01*
X0450083Y0086432D01*
X0449945Y0086301D01*
X0449804Y0086173D01*
X0449660Y0086049D01*
X0449514Y0085928D01*
X0449364Y0085810D01*
X0449211Y0085697D01*
X0449056Y0085587D01*
X0448898Y0085481D01*
X0448738Y0085378D01*
X0448575Y0085280D01*
X0448410Y0085185D01*
X0448242Y0085095D01*
X0448073Y0085009D01*
X0447901Y0084926D01*
X0447728Y0084848D01*
X0447552Y0084774D01*
X0447375Y0084705D01*
X0447196Y0084639D01*
X0447016Y0084578D01*
X0446835Y0084522D01*
X0446652Y0084470D01*
X0446467Y0084422D01*
X0446282Y0084379D01*
X0446096Y0084340D01*
X0445909Y0084305D01*
X0445721Y0084276D01*
X0445532Y0084250D01*
X0445343Y0084230D01*
X0445153Y0084214D01*
X0444963Y0084202D01*
X0444773Y0084195D01*
X0444583Y0084193D01*
X0428835Y0084193D01*
X0428645Y0084191D01*
X0428455Y0084184D01*
X0428265Y0084172D01*
X0428075Y0084156D01*
X0427886Y0084136D01*
X0427697Y0084110D01*
X0427509Y0084081D01*
X0427322Y0084046D01*
X0427136Y0084007D01*
X0426951Y0083964D01*
X0426766Y0083916D01*
X0426583Y0083864D01*
X0426402Y0083808D01*
X0426222Y0083747D01*
X0426043Y0083681D01*
X0425866Y0083612D01*
X0425690Y0083538D01*
X0425517Y0083460D01*
X0425345Y0083377D01*
X0425176Y0083291D01*
X0425008Y0083201D01*
X0424843Y0083106D01*
X0424680Y0083008D01*
X0424520Y0082905D01*
X0424362Y0082799D01*
X0424207Y0082689D01*
X0424054Y0082576D01*
X0423904Y0082458D01*
X0423758Y0082337D01*
X0423614Y0082213D01*
X0423473Y0082085D01*
X0423335Y0081954D01*
X0423200Y0081819D01*
X0423069Y0081681D01*
X0422941Y0081540D01*
X0422817Y0081396D01*
X0422696Y0081250D01*
X0422578Y0081100D01*
X0422465Y0080947D01*
X0422355Y0080792D01*
X0422249Y0080634D01*
X0422146Y0080474D01*
X0422048Y0080311D01*
X0421953Y0080146D01*
X0421863Y0079978D01*
X0421777Y0079809D01*
X0421694Y0079637D01*
X0421616Y0079464D01*
X0421542Y0079288D01*
X0421473Y0079111D01*
X0421407Y0078932D01*
X0421346Y0078752D01*
X0421290Y0078571D01*
X0421238Y0078388D01*
X0421190Y0078203D01*
X0421147Y0078018D01*
X0421108Y0077832D01*
X0421073Y0077645D01*
X0421044Y0077457D01*
X0421018Y0077268D01*
X0420998Y0077079D01*
X0420982Y0076889D01*
X0420970Y0076699D01*
X0420963Y0076509D01*
X0420961Y0076319D01*
X0420961Y0064508D01*
X0420959Y0064318D01*
X0420952Y0064128D01*
X0420940Y0063938D01*
X0420924Y0063748D01*
X0420904Y0063559D01*
X0420878Y0063370D01*
X0420849Y0063182D01*
X0420814Y0062995D01*
X0420775Y0062809D01*
X0420732Y0062624D01*
X0420684Y0062439D01*
X0420632Y0062256D01*
X0420576Y0062075D01*
X0420515Y0061895D01*
X0420449Y0061716D01*
X0420380Y0061539D01*
X0420306Y0061363D01*
X0420228Y0061190D01*
X0420145Y0061018D01*
X0420059Y0060849D01*
X0419969Y0060681D01*
X0419874Y0060516D01*
X0419776Y0060353D01*
X0419673Y0060193D01*
X0419567Y0060035D01*
X0419457Y0059880D01*
X0419344Y0059727D01*
X0419226Y0059577D01*
X0419105Y0059431D01*
X0418981Y0059287D01*
X0418853Y0059146D01*
X0418722Y0059008D01*
X0418587Y0058873D01*
X0418449Y0058742D01*
X0418308Y0058614D01*
X0418164Y0058490D01*
X0418018Y0058369D01*
X0417868Y0058251D01*
X0417715Y0058138D01*
X0417560Y0058028D01*
X0417402Y0057922D01*
X0417242Y0057819D01*
X0417079Y0057721D01*
X0416914Y0057626D01*
X0416746Y0057536D01*
X0416577Y0057450D01*
X0416405Y0057367D01*
X0416232Y0057289D01*
X0416056Y0057215D01*
X0415879Y0057146D01*
X0415700Y0057080D01*
X0415520Y0057019D01*
X0415339Y0056963D01*
X0415156Y0056911D01*
X0414971Y0056863D01*
X0414786Y0056820D01*
X0414600Y0056781D01*
X0414413Y0056746D01*
X0414225Y0056717D01*
X0414036Y0056691D01*
X0413847Y0056671D01*
X0413657Y0056655D01*
X0413467Y0056643D01*
X0413277Y0056636D01*
X0413087Y0056634D01*
X0397732Y0072382D02*
X0397734Y0072530D01*
X0397740Y0072678D01*
X0397750Y0072826D01*
X0397764Y0072973D01*
X0397782Y0073120D01*
X0397803Y0073266D01*
X0397829Y0073412D01*
X0397859Y0073557D01*
X0397892Y0073701D01*
X0397930Y0073844D01*
X0397971Y0073986D01*
X0398016Y0074127D01*
X0398064Y0074267D01*
X0398117Y0074406D01*
X0398173Y0074543D01*
X0398233Y0074678D01*
X0398296Y0074812D01*
X0398363Y0074944D01*
X0398434Y0075074D01*
X0398508Y0075202D01*
X0398585Y0075328D01*
X0398666Y0075452D01*
X0398750Y0075574D01*
X0398837Y0075693D01*
X0398928Y0075810D01*
X0399022Y0075925D01*
X0399118Y0076037D01*
X0399218Y0076147D01*
X0399320Y0076253D01*
X0399426Y0076357D01*
X0399534Y0076458D01*
X0399645Y0076556D01*
X0399758Y0076652D01*
X0399874Y0076744D01*
X0399992Y0076833D01*
X0400113Y0076918D01*
X0400236Y0077001D01*
X0400361Y0077080D01*
X0400488Y0077156D01*
X0400617Y0077228D01*
X0400748Y0077297D01*
X0400881Y0077362D01*
X0401016Y0077423D01*
X0401152Y0077481D01*
X0401289Y0077536D01*
X0401428Y0077586D01*
X0401569Y0077633D01*
X0401710Y0077676D01*
X0401853Y0077716D01*
X0401997Y0077751D01*
X0402141Y0077783D01*
X0402287Y0077810D01*
X0402433Y0077834D01*
X0402580Y0077854D01*
X0402727Y0077870D01*
X0402874Y0077882D01*
X0403022Y0077890D01*
X0403170Y0077894D01*
X0403318Y0077894D01*
X0403466Y0077890D01*
X0403614Y0077882D01*
X0403761Y0077870D01*
X0403908Y0077854D01*
X0404055Y0077834D01*
X0404201Y0077810D01*
X0404347Y0077783D01*
X0404491Y0077751D01*
X0404635Y0077716D01*
X0404778Y0077676D01*
X0404919Y0077633D01*
X0405060Y0077586D01*
X0405199Y0077536D01*
X0405336Y0077481D01*
X0405472Y0077423D01*
X0405607Y0077362D01*
X0405740Y0077297D01*
X0405871Y0077228D01*
X0406000Y0077156D01*
X0406127Y0077080D01*
X0406252Y0077001D01*
X0406375Y0076918D01*
X0406496Y0076833D01*
X0406614Y0076744D01*
X0406730Y0076652D01*
X0406843Y0076556D01*
X0406954Y0076458D01*
X0407062Y0076357D01*
X0407168Y0076253D01*
X0407270Y0076147D01*
X0407370Y0076037D01*
X0407466Y0075925D01*
X0407560Y0075810D01*
X0407651Y0075693D01*
X0407738Y0075574D01*
X0407822Y0075452D01*
X0407903Y0075328D01*
X0407980Y0075202D01*
X0408054Y0075074D01*
X0408125Y0074944D01*
X0408192Y0074812D01*
X0408255Y0074678D01*
X0408315Y0074543D01*
X0408371Y0074406D01*
X0408424Y0074267D01*
X0408472Y0074127D01*
X0408517Y0073986D01*
X0408558Y0073844D01*
X0408596Y0073701D01*
X0408629Y0073557D01*
X0408659Y0073412D01*
X0408685Y0073266D01*
X0408706Y0073120D01*
X0408724Y0072973D01*
X0408738Y0072826D01*
X0408748Y0072678D01*
X0408754Y0072530D01*
X0408756Y0072382D01*
X0408754Y0072234D01*
X0408748Y0072086D01*
X0408738Y0071938D01*
X0408724Y0071791D01*
X0408706Y0071644D01*
X0408685Y0071498D01*
X0408659Y0071352D01*
X0408629Y0071207D01*
X0408596Y0071063D01*
X0408558Y0070920D01*
X0408517Y0070778D01*
X0408472Y0070637D01*
X0408424Y0070497D01*
X0408371Y0070358D01*
X0408315Y0070221D01*
X0408255Y0070086D01*
X0408192Y0069952D01*
X0408125Y0069820D01*
X0408054Y0069690D01*
X0407980Y0069562D01*
X0407903Y0069436D01*
X0407822Y0069312D01*
X0407738Y0069190D01*
X0407651Y0069071D01*
X0407560Y0068954D01*
X0407466Y0068839D01*
X0407370Y0068727D01*
X0407270Y0068617D01*
X0407168Y0068511D01*
X0407062Y0068407D01*
X0406954Y0068306D01*
X0406843Y0068208D01*
X0406730Y0068112D01*
X0406614Y0068020D01*
X0406496Y0067931D01*
X0406375Y0067846D01*
X0406252Y0067763D01*
X0406127Y0067684D01*
X0406000Y0067608D01*
X0405871Y0067536D01*
X0405740Y0067467D01*
X0405607Y0067402D01*
X0405472Y0067341D01*
X0405336Y0067283D01*
X0405199Y0067228D01*
X0405060Y0067178D01*
X0404919Y0067131D01*
X0404778Y0067088D01*
X0404635Y0067048D01*
X0404491Y0067013D01*
X0404347Y0066981D01*
X0404201Y0066954D01*
X0404055Y0066930D01*
X0403908Y0066910D01*
X0403761Y0066894D01*
X0403614Y0066882D01*
X0403466Y0066874D01*
X0403318Y0066870D01*
X0403170Y0066870D01*
X0403022Y0066874D01*
X0402874Y0066882D01*
X0402727Y0066894D01*
X0402580Y0066910D01*
X0402433Y0066930D01*
X0402287Y0066954D01*
X0402141Y0066981D01*
X0401997Y0067013D01*
X0401853Y0067048D01*
X0401710Y0067088D01*
X0401569Y0067131D01*
X0401428Y0067178D01*
X0401289Y0067228D01*
X0401152Y0067283D01*
X0401016Y0067341D01*
X0400881Y0067402D01*
X0400748Y0067467D01*
X0400617Y0067536D01*
X0400488Y0067608D01*
X0400361Y0067684D01*
X0400236Y0067763D01*
X0400113Y0067846D01*
X0399992Y0067931D01*
X0399874Y0068020D01*
X0399758Y0068112D01*
X0399645Y0068208D01*
X0399534Y0068306D01*
X0399426Y0068407D01*
X0399320Y0068511D01*
X0399218Y0068617D01*
X0399118Y0068727D01*
X0399022Y0068839D01*
X0398928Y0068954D01*
X0398837Y0069071D01*
X0398750Y0069190D01*
X0398666Y0069312D01*
X0398585Y0069436D01*
X0398508Y0069562D01*
X0398434Y0069690D01*
X0398363Y0069820D01*
X0398296Y0069952D01*
X0398233Y0070086D01*
X0398173Y0070221D01*
X0398117Y0070358D01*
X0398064Y0070497D01*
X0398016Y0070637D01*
X0397971Y0070778D01*
X0397930Y0070920D01*
X0397892Y0071063D01*
X0397859Y0071207D01*
X0397829Y0071352D01*
X0397803Y0071498D01*
X0397782Y0071644D01*
X0397764Y0071791D01*
X0397750Y0071938D01*
X0397740Y0072086D01*
X0397734Y0072234D01*
X0397732Y0072382D01*
X0426108Y0096860D02*
X0426110Y0097018D01*
X0426116Y0097176D01*
X0426126Y0097334D01*
X0426140Y0097492D01*
X0426158Y0097649D01*
X0426179Y0097806D01*
X0426205Y0097962D01*
X0426235Y0098118D01*
X0426268Y0098273D01*
X0426306Y0098426D01*
X0426347Y0098579D01*
X0426392Y0098731D01*
X0426441Y0098882D01*
X0426494Y0099031D01*
X0426550Y0099179D01*
X0426610Y0099325D01*
X0426674Y0099470D01*
X0426742Y0099613D01*
X0426813Y0099755D01*
X0426887Y0099895D01*
X0426965Y0100032D01*
X0427047Y0100168D01*
X0427131Y0100302D01*
X0427220Y0100433D01*
X0427311Y0100562D01*
X0427406Y0100689D01*
X0427503Y0100814D01*
X0427604Y0100936D01*
X0427708Y0101055D01*
X0427815Y0101172D01*
X0427925Y0101286D01*
X0428038Y0101397D01*
X0428153Y0101506D01*
X0428271Y0101611D01*
X0428392Y0101713D01*
X0428515Y0101813D01*
X0428641Y0101909D01*
X0428769Y0102002D01*
X0428899Y0102092D01*
X0429032Y0102178D01*
X0429167Y0102262D01*
X0429303Y0102341D01*
X0429442Y0102418D01*
X0429583Y0102490D01*
X0429725Y0102560D01*
X0429869Y0102625D01*
X0430015Y0102687D01*
X0430162Y0102745D01*
X0430311Y0102800D01*
X0430461Y0102851D01*
X0430612Y0102898D01*
X0430764Y0102941D01*
X0430917Y0102980D01*
X0431072Y0103016D01*
X0431227Y0103047D01*
X0431383Y0103075D01*
X0431539Y0103099D01*
X0431696Y0103119D01*
X0431854Y0103135D01*
X0432011Y0103147D01*
X0432170Y0103155D01*
X0432328Y0103159D01*
X0432486Y0103159D01*
X0432644Y0103155D01*
X0432803Y0103147D01*
X0432960Y0103135D01*
X0433118Y0103119D01*
X0433275Y0103099D01*
X0433431Y0103075D01*
X0433587Y0103047D01*
X0433742Y0103016D01*
X0433897Y0102980D01*
X0434050Y0102941D01*
X0434202Y0102898D01*
X0434353Y0102851D01*
X0434503Y0102800D01*
X0434652Y0102745D01*
X0434799Y0102687D01*
X0434945Y0102625D01*
X0435089Y0102560D01*
X0435231Y0102490D01*
X0435372Y0102418D01*
X0435511Y0102341D01*
X0435647Y0102262D01*
X0435782Y0102178D01*
X0435915Y0102092D01*
X0436045Y0102002D01*
X0436173Y0101909D01*
X0436299Y0101813D01*
X0436422Y0101713D01*
X0436543Y0101611D01*
X0436661Y0101506D01*
X0436776Y0101397D01*
X0436889Y0101286D01*
X0436999Y0101172D01*
X0437106Y0101055D01*
X0437210Y0100936D01*
X0437311Y0100814D01*
X0437408Y0100689D01*
X0437503Y0100562D01*
X0437594Y0100433D01*
X0437683Y0100302D01*
X0437767Y0100168D01*
X0437849Y0100032D01*
X0437927Y0099895D01*
X0438001Y0099755D01*
X0438072Y0099613D01*
X0438140Y0099470D01*
X0438204Y0099325D01*
X0438264Y0099179D01*
X0438320Y0099031D01*
X0438373Y0098882D01*
X0438422Y0098731D01*
X0438467Y0098579D01*
X0438508Y0098426D01*
X0438546Y0098273D01*
X0438579Y0098118D01*
X0438609Y0097962D01*
X0438635Y0097806D01*
X0438656Y0097649D01*
X0438674Y0097492D01*
X0438688Y0097334D01*
X0438698Y0097176D01*
X0438704Y0097018D01*
X0438706Y0096860D01*
X0438704Y0096702D01*
X0438698Y0096544D01*
X0438688Y0096386D01*
X0438674Y0096228D01*
X0438656Y0096071D01*
X0438635Y0095914D01*
X0438609Y0095758D01*
X0438579Y0095602D01*
X0438546Y0095447D01*
X0438508Y0095294D01*
X0438467Y0095141D01*
X0438422Y0094989D01*
X0438373Y0094838D01*
X0438320Y0094689D01*
X0438264Y0094541D01*
X0438204Y0094395D01*
X0438140Y0094250D01*
X0438072Y0094107D01*
X0438001Y0093965D01*
X0437927Y0093825D01*
X0437849Y0093688D01*
X0437767Y0093552D01*
X0437683Y0093418D01*
X0437594Y0093287D01*
X0437503Y0093158D01*
X0437408Y0093031D01*
X0437311Y0092906D01*
X0437210Y0092784D01*
X0437106Y0092665D01*
X0436999Y0092548D01*
X0436889Y0092434D01*
X0436776Y0092323D01*
X0436661Y0092214D01*
X0436543Y0092109D01*
X0436422Y0092007D01*
X0436299Y0091907D01*
X0436173Y0091811D01*
X0436045Y0091718D01*
X0435915Y0091628D01*
X0435782Y0091542D01*
X0435647Y0091458D01*
X0435511Y0091379D01*
X0435372Y0091302D01*
X0435231Y0091230D01*
X0435089Y0091160D01*
X0434945Y0091095D01*
X0434799Y0091033D01*
X0434652Y0090975D01*
X0434503Y0090920D01*
X0434353Y0090869D01*
X0434202Y0090822D01*
X0434050Y0090779D01*
X0433897Y0090740D01*
X0433742Y0090704D01*
X0433587Y0090673D01*
X0433431Y0090645D01*
X0433275Y0090621D01*
X0433118Y0090601D01*
X0432960Y0090585D01*
X0432803Y0090573D01*
X0432644Y0090565D01*
X0432486Y0090561D01*
X0432328Y0090561D01*
X0432170Y0090565D01*
X0432011Y0090573D01*
X0431854Y0090585D01*
X0431696Y0090601D01*
X0431539Y0090621D01*
X0431383Y0090645D01*
X0431227Y0090673D01*
X0431072Y0090704D01*
X0430917Y0090740D01*
X0430764Y0090779D01*
X0430612Y0090822D01*
X0430461Y0090869D01*
X0430311Y0090920D01*
X0430162Y0090975D01*
X0430015Y0091033D01*
X0429869Y0091095D01*
X0429725Y0091160D01*
X0429583Y0091230D01*
X0429442Y0091302D01*
X0429303Y0091379D01*
X0429167Y0091458D01*
X0429032Y0091542D01*
X0428899Y0091628D01*
X0428769Y0091718D01*
X0428641Y0091811D01*
X0428515Y0091907D01*
X0428392Y0092007D01*
X0428271Y0092109D01*
X0428153Y0092214D01*
X0428038Y0092323D01*
X0427925Y0092434D01*
X0427815Y0092548D01*
X0427708Y0092665D01*
X0427604Y0092784D01*
X0427503Y0092906D01*
X0427406Y0093031D01*
X0427311Y0093158D01*
X0427220Y0093287D01*
X0427131Y0093418D01*
X0427047Y0093552D01*
X0426965Y0093688D01*
X0426887Y0093825D01*
X0426813Y0093965D01*
X0426742Y0094107D01*
X0426674Y0094250D01*
X0426610Y0094395D01*
X0426550Y0094541D01*
X0426494Y0094689D01*
X0426441Y0094838D01*
X0426392Y0094989D01*
X0426347Y0095141D01*
X0426306Y0095294D01*
X0426268Y0095447D01*
X0426235Y0095602D01*
X0426205Y0095758D01*
X0426179Y0095914D01*
X0426158Y0096071D01*
X0426140Y0096228D01*
X0426126Y0096386D01*
X0426116Y0096544D01*
X0426110Y0096702D01*
X0426108Y0096860D01*
X0371202Y0104984D02*
X0371204Y0105115D01*
X0371210Y0105247D01*
X0371220Y0105378D01*
X0371234Y0105509D01*
X0371252Y0105639D01*
X0371274Y0105768D01*
X0371299Y0105897D01*
X0371329Y0106025D01*
X0371363Y0106152D01*
X0371400Y0106279D01*
X0371441Y0106403D01*
X0371486Y0106527D01*
X0371535Y0106649D01*
X0371587Y0106770D01*
X0371643Y0106888D01*
X0371703Y0107006D01*
X0371766Y0107121D01*
X0371833Y0107234D01*
X0371903Y0107346D01*
X0371976Y0107455D01*
X0372052Y0107561D01*
X0372132Y0107666D01*
X0372215Y0107768D01*
X0372301Y0107867D01*
X0372390Y0107964D01*
X0372482Y0108058D01*
X0372577Y0108149D01*
X0372674Y0108238D01*
X0372774Y0108323D01*
X0372877Y0108405D01*
X0372982Y0108484D01*
X0373089Y0108560D01*
X0373199Y0108632D01*
X0373311Y0108701D01*
X0373425Y0108767D01*
X0373540Y0108829D01*
X0373658Y0108888D01*
X0373777Y0108943D01*
X0373898Y0108995D01*
X0374021Y0109042D01*
X0374145Y0109086D01*
X0374270Y0109127D01*
X0374396Y0109163D01*
X0374524Y0109196D01*
X0374652Y0109224D01*
X0374781Y0109249D01*
X0374911Y0109270D01*
X0375041Y0109287D01*
X0375172Y0109300D01*
X0375303Y0109309D01*
X0375434Y0109314D01*
X0375566Y0109315D01*
X0375697Y0109312D01*
X0375829Y0109305D01*
X0375960Y0109294D01*
X0376090Y0109279D01*
X0376220Y0109260D01*
X0376350Y0109237D01*
X0376478Y0109211D01*
X0376606Y0109180D01*
X0376733Y0109145D01*
X0376859Y0109107D01*
X0376983Y0109065D01*
X0377107Y0109019D01*
X0377228Y0108969D01*
X0377348Y0108916D01*
X0377467Y0108859D01*
X0377584Y0108799D01*
X0377698Y0108735D01*
X0377811Y0108667D01*
X0377922Y0108596D01*
X0378031Y0108522D01*
X0378137Y0108445D01*
X0378241Y0108364D01*
X0378342Y0108281D01*
X0378441Y0108194D01*
X0378537Y0108104D01*
X0378630Y0108011D01*
X0378721Y0107916D01*
X0378808Y0107818D01*
X0378893Y0107717D01*
X0378974Y0107614D01*
X0379052Y0107508D01*
X0379127Y0107400D01*
X0379199Y0107290D01*
X0379267Y0107178D01*
X0379332Y0107064D01*
X0379393Y0106947D01*
X0379451Y0106829D01*
X0379505Y0106709D01*
X0379556Y0106588D01*
X0379603Y0106465D01*
X0379646Y0106341D01*
X0379685Y0106216D01*
X0379721Y0106089D01*
X0379752Y0105961D01*
X0379780Y0105833D01*
X0379804Y0105704D01*
X0379824Y0105574D01*
X0379840Y0105443D01*
X0379852Y0105312D01*
X0379860Y0105181D01*
X0379864Y0105050D01*
X0379864Y0104918D01*
X0379860Y0104787D01*
X0379852Y0104656D01*
X0379840Y0104525D01*
X0379824Y0104394D01*
X0379804Y0104264D01*
X0379780Y0104135D01*
X0379752Y0104007D01*
X0379721Y0103879D01*
X0379685Y0103752D01*
X0379646Y0103627D01*
X0379603Y0103503D01*
X0379556Y0103380D01*
X0379505Y0103259D01*
X0379451Y0103139D01*
X0379393Y0103021D01*
X0379332Y0102904D01*
X0379267Y0102790D01*
X0379199Y0102678D01*
X0379127Y0102568D01*
X0379052Y0102460D01*
X0378974Y0102354D01*
X0378893Y0102251D01*
X0378808Y0102150D01*
X0378721Y0102052D01*
X0378630Y0101957D01*
X0378537Y0101864D01*
X0378441Y0101774D01*
X0378342Y0101687D01*
X0378241Y0101604D01*
X0378137Y0101523D01*
X0378031Y0101446D01*
X0377922Y0101372D01*
X0377811Y0101301D01*
X0377699Y0101233D01*
X0377584Y0101169D01*
X0377467Y0101109D01*
X0377348Y0101052D01*
X0377228Y0100999D01*
X0377107Y0100949D01*
X0376983Y0100903D01*
X0376859Y0100861D01*
X0376733Y0100823D01*
X0376606Y0100788D01*
X0376478Y0100757D01*
X0376350Y0100731D01*
X0376220Y0100708D01*
X0376090Y0100689D01*
X0375960Y0100674D01*
X0375829Y0100663D01*
X0375697Y0100656D01*
X0375566Y0100653D01*
X0375434Y0100654D01*
X0375303Y0100659D01*
X0375172Y0100668D01*
X0375041Y0100681D01*
X0374911Y0100698D01*
X0374781Y0100719D01*
X0374652Y0100744D01*
X0374524Y0100772D01*
X0374396Y0100805D01*
X0374270Y0100841D01*
X0374145Y0100882D01*
X0374021Y0100926D01*
X0373898Y0100973D01*
X0373777Y0101025D01*
X0373658Y0101080D01*
X0373540Y0101139D01*
X0373425Y0101201D01*
X0373311Y0101267D01*
X0373199Y0101336D01*
X0373089Y0101408D01*
X0372982Y0101484D01*
X0372877Y0101563D01*
X0372774Y0101645D01*
X0372674Y0101730D01*
X0372577Y0101819D01*
X0372482Y0101910D01*
X0372390Y0102004D01*
X0372301Y0102101D01*
X0372215Y0102200D01*
X0372132Y0102302D01*
X0372052Y0102407D01*
X0371976Y0102513D01*
X0371903Y0102622D01*
X0371833Y0102734D01*
X0371766Y0102847D01*
X0371703Y0102962D01*
X0371643Y0103080D01*
X0371587Y0103198D01*
X0371535Y0103319D01*
X0371486Y0103441D01*
X0371441Y0103565D01*
X0371400Y0103689D01*
X0371363Y0103816D01*
X0371329Y0103943D01*
X0371299Y0104071D01*
X0371274Y0104200D01*
X0371252Y0104329D01*
X0371234Y0104459D01*
X0371220Y0104590D01*
X0371210Y0104721D01*
X0371204Y0104853D01*
X0371202Y0104984D01*
X0326364Y0076860D02*
X0326366Y0076978D01*
X0326372Y0077097D01*
X0326382Y0077215D01*
X0326396Y0077332D01*
X0326413Y0077449D01*
X0326435Y0077566D01*
X0326461Y0077681D01*
X0326490Y0077796D01*
X0326523Y0077910D01*
X0326560Y0078022D01*
X0326601Y0078133D01*
X0326645Y0078243D01*
X0326693Y0078351D01*
X0326745Y0078458D01*
X0326800Y0078563D01*
X0326859Y0078666D01*
X0326921Y0078766D01*
X0326986Y0078865D01*
X0327055Y0078962D01*
X0327126Y0079056D01*
X0327201Y0079147D01*
X0327279Y0079237D01*
X0327360Y0079323D01*
X0327444Y0079407D01*
X0327530Y0079488D01*
X0327620Y0079566D01*
X0327711Y0079641D01*
X0327805Y0079712D01*
X0327902Y0079781D01*
X0328001Y0079846D01*
X0328101Y0079908D01*
X0328204Y0079967D01*
X0328309Y0080022D01*
X0328416Y0080074D01*
X0328524Y0080122D01*
X0328634Y0080166D01*
X0328745Y0080207D01*
X0328857Y0080244D01*
X0328971Y0080277D01*
X0329086Y0080306D01*
X0329201Y0080332D01*
X0329318Y0080354D01*
X0329435Y0080371D01*
X0329552Y0080385D01*
X0329670Y0080395D01*
X0329789Y0080401D01*
X0329907Y0080403D01*
X0330025Y0080401D01*
X0330144Y0080395D01*
X0330262Y0080385D01*
X0330379Y0080371D01*
X0330496Y0080354D01*
X0330613Y0080332D01*
X0330728Y0080306D01*
X0330843Y0080277D01*
X0330957Y0080244D01*
X0331069Y0080207D01*
X0331180Y0080166D01*
X0331290Y0080122D01*
X0331398Y0080074D01*
X0331505Y0080022D01*
X0331610Y0079967D01*
X0331713Y0079908D01*
X0331813Y0079846D01*
X0331912Y0079781D01*
X0332009Y0079712D01*
X0332103Y0079641D01*
X0332194Y0079566D01*
X0332284Y0079488D01*
X0332370Y0079407D01*
X0332454Y0079323D01*
X0332535Y0079237D01*
X0332613Y0079147D01*
X0332688Y0079056D01*
X0332759Y0078962D01*
X0332828Y0078865D01*
X0332893Y0078766D01*
X0332955Y0078666D01*
X0333014Y0078563D01*
X0333069Y0078458D01*
X0333121Y0078351D01*
X0333169Y0078243D01*
X0333213Y0078133D01*
X0333254Y0078022D01*
X0333291Y0077910D01*
X0333324Y0077796D01*
X0333353Y0077681D01*
X0333379Y0077566D01*
X0333401Y0077449D01*
X0333418Y0077332D01*
X0333432Y0077215D01*
X0333442Y0077097D01*
X0333448Y0076978D01*
X0333450Y0076860D01*
X0333448Y0076742D01*
X0333442Y0076623D01*
X0333432Y0076505D01*
X0333418Y0076388D01*
X0333401Y0076271D01*
X0333379Y0076154D01*
X0333353Y0076039D01*
X0333324Y0075924D01*
X0333291Y0075810D01*
X0333254Y0075698D01*
X0333213Y0075587D01*
X0333169Y0075477D01*
X0333121Y0075369D01*
X0333069Y0075262D01*
X0333014Y0075157D01*
X0332955Y0075054D01*
X0332893Y0074954D01*
X0332828Y0074855D01*
X0332759Y0074758D01*
X0332688Y0074664D01*
X0332613Y0074573D01*
X0332535Y0074483D01*
X0332454Y0074397D01*
X0332370Y0074313D01*
X0332284Y0074232D01*
X0332194Y0074154D01*
X0332103Y0074079D01*
X0332009Y0074008D01*
X0331912Y0073939D01*
X0331813Y0073874D01*
X0331713Y0073812D01*
X0331610Y0073753D01*
X0331505Y0073698D01*
X0331398Y0073646D01*
X0331290Y0073598D01*
X0331180Y0073554D01*
X0331069Y0073513D01*
X0330957Y0073476D01*
X0330843Y0073443D01*
X0330728Y0073414D01*
X0330613Y0073388D01*
X0330496Y0073366D01*
X0330379Y0073349D01*
X0330262Y0073335D01*
X0330144Y0073325D01*
X0330025Y0073319D01*
X0329907Y0073317D01*
X0329789Y0073319D01*
X0329670Y0073325D01*
X0329552Y0073335D01*
X0329435Y0073349D01*
X0329318Y0073366D01*
X0329201Y0073388D01*
X0329086Y0073414D01*
X0328971Y0073443D01*
X0328857Y0073476D01*
X0328745Y0073513D01*
X0328634Y0073554D01*
X0328524Y0073598D01*
X0328416Y0073646D01*
X0328309Y0073698D01*
X0328204Y0073753D01*
X0328101Y0073812D01*
X0328001Y0073874D01*
X0327902Y0073939D01*
X0327805Y0074008D01*
X0327711Y0074079D01*
X0327620Y0074154D01*
X0327530Y0074232D01*
X0327444Y0074313D01*
X0327360Y0074397D01*
X0327279Y0074483D01*
X0327201Y0074573D01*
X0327126Y0074664D01*
X0327055Y0074758D01*
X0326986Y0074855D01*
X0326921Y0074954D01*
X0326859Y0075054D01*
X0326800Y0075157D01*
X0326745Y0075262D01*
X0326693Y0075369D01*
X0326645Y0075477D01*
X0326601Y0075587D01*
X0326560Y0075698D01*
X0326523Y0075810D01*
X0326490Y0075924D01*
X0326461Y0076039D01*
X0326435Y0076154D01*
X0326413Y0076271D01*
X0326396Y0076388D01*
X0326382Y0076505D01*
X0326372Y0076623D01*
X0326366Y0076742D01*
X0326364Y0076860D01*
X0277502Y0104984D02*
X0277504Y0105115D01*
X0277510Y0105247D01*
X0277520Y0105378D01*
X0277534Y0105509D01*
X0277552Y0105639D01*
X0277574Y0105768D01*
X0277599Y0105897D01*
X0277629Y0106025D01*
X0277663Y0106152D01*
X0277700Y0106279D01*
X0277741Y0106403D01*
X0277786Y0106527D01*
X0277835Y0106649D01*
X0277887Y0106770D01*
X0277943Y0106888D01*
X0278003Y0107006D01*
X0278066Y0107121D01*
X0278133Y0107234D01*
X0278203Y0107346D01*
X0278276Y0107455D01*
X0278352Y0107561D01*
X0278432Y0107666D01*
X0278515Y0107768D01*
X0278601Y0107867D01*
X0278690Y0107964D01*
X0278782Y0108058D01*
X0278877Y0108149D01*
X0278974Y0108238D01*
X0279074Y0108323D01*
X0279177Y0108405D01*
X0279282Y0108484D01*
X0279389Y0108560D01*
X0279499Y0108632D01*
X0279611Y0108701D01*
X0279725Y0108767D01*
X0279840Y0108829D01*
X0279958Y0108888D01*
X0280077Y0108943D01*
X0280198Y0108995D01*
X0280321Y0109042D01*
X0280445Y0109086D01*
X0280570Y0109127D01*
X0280696Y0109163D01*
X0280824Y0109196D01*
X0280952Y0109224D01*
X0281081Y0109249D01*
X0281211Y0109270D01*
X0281341Y0109287D01*
X0281472Y0109300D01*
X0281603Y0109309D01*
X0281734Y0109314D01*
X0281866Y0109315D01*
X0281997Y0109312D01*
X0282129Y0109305D01*
X0282260Y0109294D01*
X0282390Y0109279D01*
X0282520Y0109260D01*
X0282650Y0109237D01*
X0282778Y0109211D01*
X0282906Y0109180D01*
X0283033Y0109145D01*
X0283159Y0109107D01*
X0283283Y0109065D01*
X0283407Y0109019D01*
X0283528Y0108969D01*
X0283648Y0108916D01*
X0283767Y0108859D01*
X0283884Y0108799D01*
X0283998Y0108735D01*
X0284111Y0108667D01*
X0284222Y0108596D01*
X0284331Y0108522D01*
X0284437Y0108445D01*
X0284541Y0108364D01*
X0284642Y0108281D01*
X0284741Y0108194D01*
X0284837Y0108104D01*
X0284930Y0108011D01*
X0285021Y0107916D01*
X0285108Y0107818D01*
X0285193Y0107717D01*
X0285274Y0107614D01*
X0285352Y0107508D01*
X0285427Y0107400D01*
X0285499Y0107290D01*
X0285567Y0107178D01*
X0285632Y0107064D01*
X0285693Y0106947D01*
X0285751Y0106829D01*
X0285805Y0106709D01*
X0285856Y0106588D01*
X0285903Y0106465D01*
X0285946Y0106341D01*
X0285985Y0106216D01*
X0286021Y0106089D01*
X0286052Y0105961D01*
X0286080Y0105833D01*
X0286104Y0105704D01*
X0286124Y0105574D01*
X0286140Y0105443D01*
X0286152Y0105312D01*
X0286160Y0105181D01*
X0286164Y0105050D01*
X0286164Y0104918D01*
X0286160Y0104787D01*
X0286152Y0104656D01*
X0286140Y0104525D01*
X0286124Y0104394D01*
X0286104Y0104264D01*
X0286080Y0104135D01*
X0286052Y0104007D01*
X0286021Y0103879D01*
X0285985Y0103752D01*
X0285946Y0103627D01*
X0285903Y0103503D01*
X0285856Y0103380D01*
X0285805Y0103259D01*
X0285751Y0103139D01*
X0285693Y0103021D01*
X0285632Y0102904D01*
X0285567Y0102790D01*
X0285499Y0102678D01*
X0285427Y0102568D01*
X0285352Y0102460D01*
X0285274Y0102354D01*
X0285193Y0102251D01*
X0285108Y0102150D01*
X0285021Y0102052D01*
X0284930Y0101957D01*
X0284837Y0101864D01*
X0284741Y0101774D01*
X0284642Y0101687D01*
X0284541Y0101604D01*
X0284437Y0101523D01*
X0284331Y0101446D01*
X0284222Y0101372D01*
X0284111Y0101301D01*
X0283999Y0101233D01*
X0283884Y0101169D01*
X0283767Y0101109D01*
X0283648Y0101052D01*
X0283528Y0100999D01*
X0283407Y0100949D01*
X0283283Y0100903D01*
X0283159Y0100861D01*
X0283033Y0100823D01*
X0282906Y0100788D01*
X0282778Y0100757D01*
X0282650Y0100731D01*
X0282520Y0100708D01*
X0282390Y0100689D01*
X0282260Y0100674D01*
X0282129Y0100663D01*
X0281997Y0100656D01*
X0281866Y0100653D01*
X0281734Y0100654D01*
X0281603Y0100659D01*
X0281472Y0100668D01*
X0281341Y0100681D01*
X0281211Y0100698D01*
X0281081Y0100719D01*
X0280952Y0100744D01*
X0280824Y0100772D01*
X0280696Y0100805D01*
X0280570Y0100841D01*
X0280445Y0100882D01*
X0280321Y0100926D01*
X0280198Y0100973D01*
X0280077Y0101025D01*
X0279958Y0101080D01*
X0279840Y0101139D01*
X0279725Y0101201D01*
X0279611Y0101267D01*
X0279499Y0101336D01*
X0279389Y0101408D01*
X0279282Y0101484D01*
X0279177Y0101563D01*
X0279074Y0101645D01*
X0278974Y0101730D01*
X0278877Y0101819D01*
X0278782Y0101910D01*
X0278690Y0102004D01*
X0278601Y0102101D01*
X0278515Y0102200D01*
X0278432Y0102302D01*
X0278352Y0102407D01*
X0278276Y0102513D01*
X0278203Y0102622D01*
X0278133Y0102734D01*
X0278066Y0102847D01*
X0278003Y0102962D01*
X0277943Y0103080D01*
X0277887Y0103198D01*
X0277835Y0103319D01*
X0277786Y0103441D01*
X0277741Y0103565D01*
X0277700Y0103689D01*
X0277663Y0103816D01*
X0277629Y0103943D01*
X0277599Y0104071D01*
X0277574Y0104200D01*
X0277552Y0104329D01*
X0277534Y0104459D01*
X0277520Y0104590D01*
X0277510Y0104721D01*
X0277504Y0104853D01*
X0277502Y0104984D01*
X0242565Y0116250D02*
X0242567Y0116391D01*
X0242573Y0116532D01*
X0242583Y0116672D01*
X0242597Y0116812D01*
X0242615Y0116952D01*
X0242636Y0117091D01*
X0242662Y0117230D01*
X0242691Y0117368D01*
X0242725Y0117504D01*
X0242762Y0117640D01*
X0242803Y0117775D01*
X0242848Y0117909D01*
X0242897Y0118041D01*
X0242949Y0118172D01*
X0243005Y0118301D01*
X0243065Y0118428D01*
X0243128Y0118554D01*
X0243194Y0118678D01*
X0243265Y0118801D01*
X0243338Y0118921D01*
X0243415Y0119039D01*
X0243495Y0119155D01*
X0243579Y0119268D01*
X0243665Y0119379D01*
X0243755Y0119488D01*
X0243848Y0119594D01*
X0243943Y0119697D01*
X0244042Y0119798D01*
X0244143Y0119896D01*
X0244247Y0119991D01*
X0244354Y0120083D01*
X0244463Y0120172D01*
X0244575Y0120257D01*
X0244689Y0120340D01*
X0244805Y0120420D01*
X0244924Y0120496D01*
X0245045Y0120568D01*
X0245167Y0120638D01*
X0245292Y0120703D01*
X0245418Y0120766D01*
X0245546Y0120824D01*
X0245676Y0120879D01*
X0245807Y0120931D01*
X0245940Y0120978D01*
X0246074Y0121022D01*
X0246209Y0121063D01*
X0246345Y0121099D01*
X0246482Y0121131D01*
X0246620Y0121160D01*
X0246758Y0121185D01*
X0246898Y0121205D01*
X0247038Y0121222D01*
X0247178Y0121235D01*
X0247319Y0121244D01*
X0247459Y0121249D01*
X0247600Y0121250D01*
X0247741Y0121247D01*
X0247882Y0121240D01*
X0248022Y0121229D01*
X0248162Y0121214D01*
X0248302Y0121195D01*
X0248441Y0121173D01*
X0248579Y0121146D01*
X0248717Y0121116D01*
X0248853Y0121081D01*
X0248989Y0121043D01*
X0249123Y0121001D01*
X0249257Y0120955D01*
X0249389Y0120906D01*
X0249519Y0120852D01*
X0249648Y0120795D01*
X0249775Y0120735D01*
X0249901Y0120671D01*
X0250024Y0120603D01*
X0250146Y0120532D01*
X0250266Y0120458D01*
X0250383Y0120380D01*
X0250498Y0120299D01*
X0250611Y0120215D01*
X0250722Y0120128D01*
X0250830Y0120037D01*
X0250935Y0119944D01*
X0251038Y0119847D01*
X0251138Y0119748D01*
X0251235Y0119646D01*
X0251329Y0119541D01*
X0251420Y0119434D01*
X0251508Y0119324D01*
X0251593Y0119212D01*
X0251675Y0119097D01*
X0251754Y0118980D01*
X0251829Y0118861D01*
X0251901Y0118740D01*
X0251969Y0118617D01*
X0252034Y0118492D01*
X0252096Y0118365D01*
X0252153Y0118236D01*
X0252208Y0118106D01*
X0252258Y0117975D01*
X0252305Y0117842D01*
X0252348Y0117708D01*
X0252387Y0117572D01*
X0252422Y0117436D01*
X0252454Y0117299D01*
X0252481Y0117161D01*
X0252505Y0117022D01*
X0252525Y0116882D01*
X0252541Y0116742D01*
X0252553Y0116602D01*
X0252561Y0116461D01*
X0252565Y0116320D01*
X0252565Y0116180D01*
X0252561Y0116039D01*
X0252553Y0115898D01*
X0252541Y0115758D01*
X0252525Y0115618D01*
X0252505Y0115478D01*
X0252481Y0115339D01*
X0252454Y0115201D01*
X0252422Y0115064D01*
X0252387Y0114928D01*
X0252348Y0114792D01*
X0252305Y0114658D01*
X0252258Y0114525D01*
X0252208Y0114394D01*
X0252153Y0114264D01*
X0252096Y0114135D01*
X0252034Y0114008D01*
X0251969Y0113883D01*
X0251901Y0113760D01*
X0251829Y0113639D01*
X0251754Y0113520D01*
X0251675Y0113403D01*
X0251593Y0113288D01*
X0251508Y0113176D01*
X0251420Y0113066D01*
X0251329Y0112959D01*
X0251235Y0112854D01*
X0251138Y0112752D01*
X0251038Y0112653D01*
X0250935Y0112556D01*
X0250830Y0112463D01*
X0250722Y0112372D01*
X0250611Y0112285D01*
X0250498Y0112201D01*
X0250383Y0112120D01*
X0250266Y0112042D01*
X0250146Y0111968D01*
X0250024Y0111897D01*
X0249901Y0111829D01*
X0249775Y0111765D01*
X0249648Y0111705D01*
X0249519Y0111648D01*
X0249389Y0111594D01*
X0249257Y0111545D01*
X0249123Y0111499D01*
X0248989Y0111457D01*
X0248853Y0111419D01*
X0248717Y0111384D01*
X0248579Y0111354D01*
X0248441Y0111327D01*
X0248302Y0111305D01*
X0248162Y0111286D01*
X0248022Y0111271D01*
X0247882Y0111260D01*
X0247741Y0111253D01*
X0247600Y0111250D01*
X0247459Y0111251D01*
X0247319Y0111256D01*
X0247178Y0111265D01*
X0247038Y0111278D01*
X0246898Y0111295D01*
X0246758Y0111315D01*
X0246620Y0111340D01*
X0246482Y0111369D01*
X0246345Y0111401D01*
X0246209Y0111437D01*
X0246074Y0111478D01*
X0245940Y0111522D01*
X0245807Y0111569D01*
X0245676Y0111621D01*
X0245546Y0111676D01*
X0245418Y0111734D01*
X0245292Y0111797D01*
X0245167Y0111862D01*
X0245045Y0111932D01*
X0244924Y0112004D01*
X0244805Y0112080D01*
X0244689Y0112160D01*
X0244575Y0112243D01*
X0244463Y0112328D01*
X0244354Y0112417D01*
X0244247Y0112509D01*
X0244143Y0112604D01*
X0244042Y0112702D01*
X0243943Y0112803D01*
X0243848Y0112906D01*
X0243755Y0113012D01*
X0243665Y0113121D01*
X0243579Y0113232D01*
X0243495Y0113345D01*
X0243415Y0113461D01*
X0243338Y0113579D01*
X0243265Y0113699D01*
X0243194Y0113822D01*
X0243128Y0113946D01*
X0243065Y0114072D01*
X0243005Y0114199D01*
X0242949Y0114328D01*
X0242897Y0114459D01*
X0242848Y0114591D01*
X0242803Y0114725D01*
X0242762Y0114860D01*
X0242725Y0114996D01*
X0242691Y0115132D01*
X0242662Y0115270D01*
X0242636Y0115409D01*
X0242615Y0115548D01*
X0242597Y0115688D01*
X0242583Y0115828D01*
X0242573Y0115968D01*
X0242567Y0116109D01*
X0242565Y0116250D01*
X0242565Y0186250D02*
X0242567Y0186391D01*
X0242573Y0186532D01*
X0242583Y0186672D01*
X0242597Y0186812D01*
X0242615Y0186952D01*
X0242636Y0187091D01*
X0242662Y0187230D01*
X0242691Y0187368D01*
X0242725Y0187504D01*
X0242762Y0187640D01*
X0242803Y0187775D01*
X0242848Y0187909D01*
X0242897Y0188041D01*
X0242949Y0188172D01*
X0243005Y0188301D01*
X0243065Y0188428D01*
X0243128Y0188554D01*
X0243194Y0188678D01*
X0243265Y0188801D01*
X0243338Y0188921D01*
X0243415Y0189039D01*
X0243495Y0189155D01*
X0243579Y0189268D01*
X0243665Y0189379D01*
X0243755Y0189488D01*
X0243848Y0189594D01*
X0243943Y0189697D01*
X0244042Y0189798D01*
X0244143Y0189896D01*
X0244247Y0189991D01*
X0244354Y0190083D01*
X0244463Y0190172D01*
X0244575Y0190257D01*
X0244689Y0190340D01*
X0244805Y0190420D01*
X0244924Y0190496D01*
X0245045Y0190568D01*
X0245167Y0190638D01*
X0245292Y0190703D01*
X0245418Y0190766D01*
X0245546Y0190824D01*
X0245676Y0190879D01*
X0245807Y0190931D01*
X0245940Y0190978D01*
X0246074Y0191022D01*
X0246209Y0191063D01*
X0246345Y0191099D01*
X0246482Y0191131D01*
X0246620Y0191160D01*
X0246758Y0191185D01*
X0246898Y0191205D01*
X0247038Y0191222D01*
X0247178Y0191235D01*
X0247319Y0191244D01*
X0247459Y0191249D01*
X0247600Y0191250D01*
X0247741Y0191247D01*
X0247882Y0191240D01*
X0248022Y0191229D01*
X0248162Y0191214D01*
X0248302Y0191195D01*
X0248441Y0191173D01*
X0248579Y0191146D01*
X0248717Y0191116D01*
X0248853Y0191081D01*
X0248989Y0191043D01*
X0249123Y0191001D01*
X0249257Y0190955D01*
X0249389Y0190906D01*
X0249519Y0190852D01*
X0249648Y0190795D01*
X0249775Y0190735D01*
X0249901Y0190671D01*
X0250024Y0190603D01*
X0250146Y0190532D01*
X0250266Y0190458D01*
X0250383Y0190380D01*
X0250498Y0190299D01*
X0250611Y0190215D01*
X0250722Y0190128D01*
X0250830Y0190037D01*
X0250935Y0189944D01*
X0251038Y0189847D01*
X0251138Y0189748D01*
X0251235Y0189646D01*
X0251329Y0189541D01*
X0251420Y0189434D01*
X0251508Y0189324D01*
X0251593Y0189212D01*
X0251675Y0189097D01*
X0251754Y0188980D01*
X0251829Y0188861D01*
X0251901Y0188740D01*
X0251969Y0188617D01*
X0252034Y0188492D01*
X0252096Y0188365D01*
X0252153Y0188236D01*
X0252208Y0188106D01*
X0252258Y0187975D01*
X0252305Y0187842D01*
X0252348Y0187708D01*
X0252387Y0187572D01*
X0252422Y0187436D01*
X0252454Y0187299D01*
X0252481Y0187161D01*
X0252505Y0187022D01*
X0252525Y0186882D01*
X0252541Y0186742D01*
X0252553Y0186602D01*
X0252561Y0186461D01*
X0252565Y0186320D01*
X0252565Y0186180D01*
X0252561Y0186039D01*
X0252553Y0185898D01*
X0252541Y0185758D01*
X0252525Y0185618D01*
X0252505Y0185478D01*
X0252481Y0185339D01*
X0252454Y0185201D01*
X0252422Y0185064D01*
X0252387Y0184928D01*
X0252348Y0184792D01*
X0252305Y0184658D01*
X0252258Y0184525D01*
X0252208Y0184394D01*
X0252153Y0184264D01*
X0252096Y0184135D01*
X0252034Y0184008D01*
X0251969Y0183883D01*
X0251901Y0183760D01*
X0251829Y0183639D01*
X0251754Y0183520D01*
X0251675Y0183403D01*
X0251593Y0183288D01*
X0251508Y0183176D01*
X0251420Y0183066D01*
X0251329Y0182959D01*
X0251235Y0182854D01*
X0251138Y0182752D01*
X0251038Y0182653D01*
X0250935Y0182556D01*
X0250830Y0182463D01*
X0250722Y0182372D01*
X0250611Y0182285D01*
X0250498Y0182201D01*
X0250383Y0182120D01*
X0250266Y0182042D01*
X0250146Y0181968D01*
X0250024Y0181897D01*
X0249901Y0181829D01*
X0249775Y0181765D01*
X0249648Y0181705D01*
X0249519Y0181648D01*
X0249389Y0181594D01*
X0249257Y0181545D01*
X0249123Y0181499D01*
X0248989Y0181457D01*
X0248853Y0181419D01*
X0248717Y0181384D01*
X0248579Y0181354D01*
X0248441Y0181327D01*
X0248302Y0181305D01*
X0248162Y0181286D01*
X0248022Y0181271D01*
X0247882Y0181260D01*
X0247741Y0181253D01*
X0247600Y0181250D01*
X0247459Y0181251D01*
X0247319Y0181256D01*
X0247178Y0181265D01*
X0247038Y0181278D01*
X0246898Y0181295D01*
X0246758Y0181315D01*
X0246620Y0181340D01*
X0246482Y0181369D01*
X0246345Y0181401D01*
X0246209Y0181437D01*
X0246074Y0181478D01*
X0245940Y0181522D01*
X0245807Y0181569D01*
X0245676Y0181621D01*
X0245546Y0181676D01*
X0245418Y0181734D01*
X0245292Y0181797D01*
X0245167Y0181862D01*
X0245045Y0181932D01*
X0244924Y0182004D01*
X0244805Y0182080D01*
X0244689Y0182160D01*
X0244575Y0182243D01*
X0244463Y0182328D01*
X0244354Y0182417D01*
X0244247Y0182509D01*
X0244143Y0182604D01*
X0244042Y0182702D01*
X0243943Y0182803D01*
X0243848Y0182906D01*
X0243755Y0183012D01*
X0243665Y0183121D01*
X0243579Y0183232D01*
X0243495Y0183345D01*
X0243415Y0183461D01*
X0243338Y0183579D01*
X0243265Y0183699D01*
X0243194Y0183822D01*
X0243128Y0183946D01*
X0243065Y0184072D01*
X0243005Y0184199D01*
X0242949Y0184328D01*
X0242897Y0184459D01*
X0242848Y0184591D01*
X0242803Y0184725D01*
X0242762Y0184860D01*
X0242725Y0184996D01*
X0242691Y0185132D01*
X0242662Y0185270D01*
X0242636Y0185409D01*
X0242615Y0185548D01*
X0242597Y0185688D01*
X0242583Y0185828D01*
X0242573Y0185968D01*
X0242567Y0186109D01*
X0242565Y0186250D01*
X0277502Y0196717D02*
X0277504Y0196848D01*
X0277510Y0196980D01*
X0277520Y0197111D01*
X0277534Y0197242D01*
X0277552Y0197372D01*
X0277574Y0197501D01*
X0277599Y0197630D01*
X0277629Y0197758D01*
X0277663Y0197885D01*
X0277700Y0198012D01*
X0277741Y0198136D01*
X0277786Y0198260D01*
X0277835Y0198382D01*
X0277887Y0198503D01*
X0277943Y0198621D01*
X0278003Y0198739D01*
X0278066Y0198854D01*
X0278133Y0198967D01*
X0278203Y0199079D01*
X0278276Y0199188D01*
X0278352Y0199294D01*
X0278432Y0199399D01*
X0278515Y0199501D01*
X0278601Y0199600D01*
X0278690Y0199697D01*
X0278782Y0199791D01*
X0278877Y0199882D01*
X0278974Y0199971D01*
X0279074Y0200056D01*
X0279177Y0200138D01*
X0279282Y0200217D01*
X0279389Y0200293D01*
X0279499Y0200365D01*
X0279611Y0200434D01*
X0279725Y0200500D01*
X0279840Y0200562D01*
X0279958Y0200621D01*
X0280077Y0200676D01*
X0280198Y0200728D01*
X0280321Y0200775D01*
X0280445Y0200819D01*
X0280570Y0200860D01*
X0280696Y0200896D01*
X0280824Y0200929D01*
X0280952Y0200957D01*
X0281081Y0200982D01*
X0281211Y0201003D01*
X0281341Y0201020D01*
X0281472Y0201033D01*
X0281603Y0201042D01*
X0281734Y0201047D01*
X0281866Y0201048D01*
X0281997Y0201045D01*
X0282129Y0201038D01*
X0282260Y0201027D01*
X0282390Y0201012D01*
X0282520Y0200993D01*
X0282650Y0200970D01*
X0282778Y0200944D01*
X0282906Y0200913D01*
X0283033Y0200878D01*
X0283159Y0200840D01*
X0283283Y0200798D01*
X0283407Y0200752D01*
X0283528Y0200702D01*
X0283648Y0200649D01*
X0283767Y0200592D01*
X0283884Y0200532D01*
X0283998Y0200468D01*
X0284111Y0200400D01*
X0284222Y0200329D01*
X0284331Y0200255D01*
X0284437Y0200178D01*
X0284541Y0200097D01*
X0284642Y0200014D01*
X0284741Y0199927D01*
X0284837Y0199837D01*
X0284930Y0199744D01*
X0285021Y0199649D01*
X0285108Y0199551D01*
X0285193Y0199450D01*
X0285274Y0199347D01*
X0285352Y0199241D01*
X0285427Y0199133D01*
X0285499Y0199023D01*
X0285567Y0198911D01*
X0285632Y0198797D01*
X0285693Y0198680D01*
X0285751Y0198562D01*
X0285805Y0198442D01*
X0285856Y0198321D01*
X0285903Y0198198D01*
X0285946Y0198074D01*
X0285985Y0197949D01*
X0286021Y0197822D01*
X0286052Y0197694D01*
X0286080Y0197566D01*
X0286104Y0197437D01*
X0286124Y0197307D01*
X0286140Y0197176D01*
X0286152Y0197045D01*
X0286160Y0196914D01*
X0286164Y0196783D01*
X0286164Y0196651D01*
X0286160Y0196520D01*
X0286152Y0196389D01*
X0286140Y0196258D01*
X0286124Y0196127D01*
X0286104Y0195997D01*
X0286080Y0195868D01*
X0286052Y0195740D01*
X0286021Y0195612D01*
X0285985Y0195485D01*
X0285946Y0195360D01*
X0285903Y0195236D01*
X0285856Y0195113D01*
X0285805Y0194992D01*
X0285751Y0194872D01*
X0285693Y0194754D01*
X0285632Y0194637D01*
X0285567Y0194523D01*
X0285499Y0194411D01*
X0285427Y0194301D01*
X0285352Y0194193D01*
X0285274Y0194087D01*
X0285193Y0193984D01*
X0285108Y0193883D01*
X0285021Y0193785D01*
X0284930Y0193690D01*
X0284837Y0193597D01*
X0284741Y0193507D01*
X0284642Y0193420D01*
X0284541Y0193337D01*
X0284437Y0193256D01*
X0284331Y0193179D01*
X0284222Y0193105D01*
X0284111Y0193034D01*
X0283999Y0192966D01*
X0283884Y0192902D01*
X0283767Y0192842D01*
X0283648Y0192785D01*
X0283528Y0192732D01*
X0283407Y0192682D01*
X0283283Y0192636D01*
X0283159Y0192594D01*
X0283033Y0192556D01*
X0282906Y0192521D01*
X0282778Y0192490D01*
X0282650Y0192464D01*
X0282520Y0192441D01*
X0282390Y0192422D01*
X0282260Y0192407D01*
X0282129Y0192396D01*
X0281997Y0192389D01*
X0281866Y0192386D01*
X0281734Y0192387D01*
X0281603Y0192392D01*
X0281472Y0192401D01*
X0281341Y0192414D01*
X0281211Y0192431D01*
X0281081Y0192452D01*
X0280952Y0192477D01*
X0280824Y0192505D01*
X0280696Y0192538D01*
X0280570Y0192574D01*
X0280445Y0192615D01*
X0280321Y0192659D01*
X0280198Y0192706D01*
X0280077Y0192758D01*
X0279958Y0192813D01*
X0279840Y0192872D01*
X0279725Y0192934D01*
X0279611Y0193000D01*
X0279499Y0193069D01*
X0279389Y0193141D01*
X0279282Y0193217D01*
X0279177Y0193296D01*
X0279074Y0193378D01*
X0278974Y0193463D01*
X0278877Y0193552D01*
X0278782Y0193643D01*
X0278690Y0193737D01*
X0278601Y0193834D01*
X0278515Y0193933D01*
X0278432Y0194035D01*
X0278352Y0194140D01*
X0278276Y0194246D01*
X0278203Y0194355D01*
X0278133Y0194467D01*
X0278066Y0194580D01*
X0278003Y0194695D01*
X0277943Y0194813D01*
X0277887Y0194931D01*
X0277835Y0195052D01*
X0277786Y0195174D01*
X0277741Y0195298D01*
X0277700Y0195422D01*
X0277663Y0195549D01*
X0277629Y0195676D01*
X0277599Y0195804D01*
X0277574Y0195933D01*
X0277552Y0196062D01*
X0277534Y0196192D01*
X0277520Y0196323D01*
X0277510Y0196454D01*
X0277504Y0196586D01*
X0277502Y0196717D01*
X0371202Y0196717D02*
X0371204Y0196848D01*
X0371210Y0196980D01*
X0371220Y0197111D01*
X0371234Y0197242D01*
X0371252Y0197372D01*
X0371274Y0197501D01*
X0371299Y0197630D01*
X0371329Y0197758D01*
X0371363Y0197885D01*
X0371400Y0198012D01*
X0371441Y0198136D01*
X0371486Y0198260D01*
X0371535Y0198382D01*
X0371587Y0198503D01*
X0371643Y0198621D01*
X0371703Y0198739D01*
X0371766Y0198854D01*
X0371833Y0198967D01*
X0371903Y0199079D01*
X0371976Y0199188D01*
X0372052Y0199294D01*
X0372132Y0199399D01*
X0372215Y0199501D01*
X0372301Y0199600D01*
X0372390Y0199697D01*
X0372482Y0199791D01*
X0372577Y0199882D01*
X0372674Y0199971D01*
X0372774Y0200056D01*
X0372877Y0200138D01*
X0372982Y0200217D01*
X0373089Y0200293D01*
X0373199Y0200365D01*
X0373311Y0200434D01*
X0373425Y0200500D01*
X0373540Y0200562D01*
X0373658Y0200621D01*
X0373777Y0200676D01*
X0373898Y0200728D01*
X0374021Y0200775D01*
X0374145Y0200819D01*
X0374270Y0200860D01*
X0374396Y0200896D01*
X0374524Y0200929D01*
X0374652Y0200957D01*
X0374781Y0200982D01*
X0374911Y0201003D01*
X0375041Y0201020D01*
X0375172Y0201033D01*
X0375303Y0201042D01*
X0375434Y0201047D01*
X0375566Y0201048D01*
X0375697Y0201045D01*
X0375829Y0201038D01*
X0375960Y0201027D01*
X0376090Y0201012D01*
X0376220Y0200993D01*
X0376350Y0200970D01*
X0376478Y0200944D01*
X0376606Y0200913D01*
X0376733Y0200878D01*
X0376859Y0200840D01*
X0376983Y0200798D01*
X0377107Y0200752D01*
X0377228Y0200702D01*
X0377348Y0200649D01*
X0377467Y0200592D01*
X0377584Y0200532D01*
X0377698Y0200468D01*
X0377811Y0200400D01*
X0377922Y0200329D01*
X0378031Y0200255D01*
X0378137Y0200178D01*
X0378241Y0200097D01*
X0378342Y0200014D01*
X0378441Y0199927D01*
X0378537Y0199837D01*
X0378630Y0199744D01*
X0378721Y0199649D01*
X0378808Y0199551D01*
X0378893Y0199450D01*
X0378974Y0199347D01*
X0379052Y0199241D01*
X0379127Y0199133D01*
X0379199Y0199023D01*
X0379267Y0198911D01*
X0379332Y0198797D01*
X0379393Y0198680D01*
X0379451Y0198562D01*
X0379505Y0198442D01*
X0379556Y0198321D01*
X0379603Y0198198D01*
X0379646Y0198074D01*
X0379685Y0197949D01*
X0379721Y0197822D01*
X0379752Y0197694D01*
X0379780Y0197566D01*
X0379804Y0197437D01*
X0379824Y0197307D01*
X0379840Y0197176D01*
X0379852Y0197045D01*
X0379860Y0196914D01*
X0379864Y0196783D01*
X0379864Y0196651D01*
X0379860Y0196520D01*
X0379852Y0196389D01*
X0379840Y0196258D01*
X0379824Y0196127D01*
X0379804Y0195997D01*
X0379780Y0195868D01*
X0379752Y0195740D01*
X0379721Y0195612D01*
X0379685Y0195485D01*
X0379646Y0195360D01*
X0379603Y0195236D01*
X0379556Y0195113D01*
X0379505Y0194992D01*
X0379451Y0194872D01*
X0379393Y0194754D01*
X0379332Y0194637D01*
X0379267Y0194523D01*
X0379199Y0194411D01*
X0379127Y0194301D01*
X0379052Y0194193D01*
X0378974Y0194087D01*
X0378893Y0193984D01*
X0378808Y0193883D01*
X0378721Y0193785D01*
X0378630Y0193690D01*
X0378537Y0193597D01*
X0378441Y0193507D01*
X0378342Y0193420D01*
X0378241Y0193337D01*
X0378137Y0193256D01*
X0378031Y0193179D01*
X0377922Y0193105D01*
X0377811Y0193034D01*
X0377699Y0192966D01*
X0377584Y0192902D01*
X0377467Y0192842D01*
X0377348Y0192785D01*
X0377228Y0192732D01*
X0377107Y0192682D01*
X0376983Y0192636D01*
X0376859Y0192594D01*
X0376733Y0192556D01*
X0376606Y0192521D01*
X0376478Y0192490D01*
X0376350Y0192464D01*
X0376220Y0192441D01*
X0376090Y0192422D01*
X0375960Y0192407D01*
X0375829Y0192396D01*
X0375697Y0192389D01*
X0375566Y0192386D01*
X0375434Y0192387D01*
X0375303Y0192392D01*
X0375172Y0192401D01*
X0375041Y0192414D01*
X0374911Y0192431D01*
X0374781Y0192452D01*
X0374652Y0192477D01*
X0374524Y0192505D01*
X0374396Y0192538D01*
X0374270Y0192574D01*
X0374145Y0192615D01*
X0374021Y0192659D01*
X0373898Y0192706D01*
X0373777Y0192758D01*
X0373658Y0192813D01*
X0373540Y0192872D01*
X0373425Y0192934D01*
X0373311Y0193000D01*
X0373199Y0193069D01*
X0373089Y0193141D01*
X0372982Y0193217D01*
X0372877Y0193296D01*
X0372774Y0193378D01*
X0372674Y0193463D01*
X0372577Y0193552D01*
X0372482Y0193643D01*
X0372390Y0193737D01*
X0372301Y0193834D01*
X0372215Y0193933D01*
X0372132Y0194035D01*
X0372052Y0194140D01*
X0371976Y0194246D01*
X0371903Y0194355D01*
X0371833Y0194467D01*
X0371766Y0194580D01*
X0371703Y0194695D01*
X0371643Y0194813D01*
X0371587Y0194931D01*
X0371535Y0195052D01*
X0371486Y0195174D01*
X0371441Y0195298D01*
X0371400Y0195422D01*
X0371363Y0195549D01*
X0371329Y0195676D01*
X0371299Y0195804D01*
X0371274Y0195933D01*
X0371252Y0196062D01*
X0371234Y0196192D01*
X0371220Y0196323D01*
X0371210Y0196454D01*
X0371204Y0196586D01*
X0371202Y0196717D01*
X0426108Y0205610D02*
X0426110Y0205768D01*
X0426116Y0205926D01*
X0426126Y0206084D01*
X0426140Y0206242D01*
X0426158Y0206399D01*
X0426179Y0206556D01*
X0426205Y0206712D01*
X0426235Y0206868D01*
X0426268Y0207023D01*
X0426306Y0207176D01*
X0426347Y0207329D01*
X0426392Y0207481D01*
X0426441Y0207632D01*
X0426494Y0207781D01*
X0426550Y0207929D01*
X0426610Y0208075D01*
X0426674Y0208220D01*
X0426742Y0208363D01*
X0426813Y0208505D01*
X0426887Y0208645D01*
X0426965Y0208782D01*
X0427047Y0208918D01*
X0427131Y0209052D01*
X0427220Y0209183D01*
X0427311Y0209312D01*
X0427406Y0209439D01*
X0427503Y0209564D01*
X0427604Y0209686D01*
X0427708Y0209805D01*
X0427815Y0209922D01*
X0427925Y0210036D01*
X0428038Y0210147D01*
X0428153Y0210256D01*
X0428271Y0210361D01*
X0428392Y0210463D01*
X0428515Y0210563D01*
X0428641Y0210659D01*
X0428769Y0210752D01*
X0428899Y0210842D01*
X0429032Y0210928D01*
X0429167Y0211012D01*
X0429303Y0211091D01*
X0429442Y0211168D01*
X0429583Y0211240D01*
X0429725Y0211310D01*
X0429869Y0211375D01*
X0430015Y0211437D01*
X0430162Y0211495D01*
X0430311Y0211550D01*
X0430461Y0211601D01*
X0430612Y0211648D01*
X0430764Y0211691D01*
X0430917Y0211730D01*
X0431072Y0211766D01*
X0431227Y0211797D01*
X0431383Y0211825D01*
X0431539Y0211849D01*
X0431696Y0211869D01*
X0431854Y0211885D01*
X0432011Y0211897D01*
X0432170Y0211905D01*
X0432328Y0211909D01*
X0432486Y0211909D01*
X0432644Y0211905D01*
X0432803Y0211897D01*
X0432960Y0211885D01*
X0433118Y0211869D01*
X0433275Y0211849D01*
X0433431Y0211825D01*
X0433587Y0211797D01*
X0433742Y0211766D01*
X0433897Y0211730D01*
X0434050Y0211691D01*
X0434202Y0211648D01*
X0434353Y0211601D01*
X0434503Y0211550D01*
X0434652Y0211495D01*
X0434799Y0211437D01*
X0434945Y0211375D01*
X0435089Y0211310D01*
X0435231Y0211240D01*
X0435372Y0211168D01*
X0435511Y0211091D01*
X0435647Y0211012D01*
X0435782Y0210928D01*
X0435915Y0210842D01*
X0436045Y0210752D01*
X0436173Y0210659D01*
X0436299Y0210563D01*
X0436422Y0210463D01*
X0436543Y0210361D01*
X0436661Y0210256D01*
X0436776Y0210147D01*
X0436889Y0210036D01*
X0436999Y0209922D01*
X0437106Y0209805D01*
X0437210Y0209686D01*
X0437311Y0209564D01*
X0437408Y0209439D01*
X0437503Y0209312D01*
X0437594Y0209183D01*
X0437683Y0209052D01*
X0437767Y0208918D01*
X0437849Y0208782D01*
X0437927Y0208645D01*
X0438001Y0208505D01*
X0438072Y0208363D01*
X0438140Y0208220D01*
X0438204Y0208075D01*
X0438264Y0207929D01*
X0438320Y0207781D01*
X0438373Y0207632D01*
X0438422Y0207481D01*
X0438467Y0207329D01*
X0438508Y0207176D01*
X0438546Y0207023D01*
X0438579Y0206868D01*
X0438609Y0206712D01*
X0438635Y0206556D01*
X0438656Y0206399D01*
X0438674Y0206242D01*
X0438688Y0206084D01*
X0438698Y0205926D01*
X0438704Y0205768D01*
X0438706Y0205610D01*
X0438704Y0205452D01*
X0438698Y0205294D01*
X0438688Y0205136D01*
X0438674Y0204978D01*
X0438656Y0204821D01*
X0438635Y0204664D01*
X0438609Y0204508D01*
X0438579Y0204352D01*
X0438546Y0204197D01*
X0438508Y0204044D01*
X0438467Y0203891D01*
X0438422Y0203739D01*
X0438373Y0203588D01*
X0438320Y0203439D01*
X0438264Y0203291D01*
X0438204Y0203145D01*
X0438140Y0203000D01*
X0438072Y0202857D01*
X0438001Y0202715D01*
X0437927Y0202575D01*
X0437849Y0202438D01*
X0437767Y0202302D01*
X0437683Y0202168D01*
X0437594Y0202037D01*
X0437503Y0201908D01*
X0437408Y0201781D01*
X0437311Y0201656D01*
X0437210Y0201534D01*
X0437106Y0201415D01*
X0436999Y0201298D01*
X0436889Y0201184D01*
X0436776Y0201073D01*
X0436661Y0200964D01*
X0436543Y0200859D01*
X0436422Y0200757D01*
X0436299Y0200657D01*
X0436173Y0200561D01*
X0436045Y0200468D01*
X0435915Y0200378D01*
X0435782Y0200292D01*
X0435647Y0200208D01*
X0435511Y0200129D01*
X0435372Y0200052D01*
X0435231Y0199980D01*
X0435089Y0199910D01*
X0434945Y0199845D01*
X0434799Y0199783D01*
X0434652Y0199725D01*
X0434503Y0199670D01*
X0434353Y0199619D01*
X0434202Y0199572D01*
X0434050Y0199529D01*
X0433897Y0199490D01*
X0433742Y0199454D01*
X0433587Y0199423D01*
X0433431Y0199395D01*
X0433275Y0199371D01*
X0433118Y0199351D01*
X0432960Y0199335D01*
X0432803Y0199323D01*
X0432644Y0199315D01*
X0432486Y0199311D01*
X0432328Y0199311D01*
X0432170Y0199315D01*
X0432011Y0199323D01*
X0431854Y0199335D01*
X0431696Y0199351D01*
X0431539Y0199371D01*
X0431383Y0199395D01*
X0431227Y0199423D01*
X0431072Y0199454D01*
X0430917Y0199490D01*
X0430764Y0199529D01*
X0430612Y0199572D01*
X0430461Y0199619D01*
X0430311Y0199670D01*
X0430162Y0199725D01*
X0430015Y0199783D01*
X0429869Y0199845D01*
X0429725Y0199910D01*
X0429583Y0199980D01*
X0429442Y0200052D01*
X0429303Y0200129D01*
X0429167Y0200208D01*
X0429032Y0200292D01*
X0428899Y0200378D01*
X0428769Y0200468D01*
X0428641Y0200561D01*
X0428515Y0200657D01*
X0428392Y0200757D01*
X0428271Y0200859D01*
X0428153Y0200964D01*
X0428038Y0201073D01*
X0427925Y0201184D01*
X0427815Y0201298D01*
X0427708Y0201415D01*
X0427604Y0201534D01*
X0427503Y0201656D01*
X0427406Y0201781D01*
X0427311Y0201908D01*
X0427220Y0202037D01*
X0427131Y0202168D01*
X0427047Y0202302D01*
X0426965Y0202438D01*
X0426887Y0202575D01*
X0426813Y0202715D01*
X0426742Y0202857D01*
X0426674Y0203000D01*
X0426610Y0203145D01*
X0426550Y0203291D01*
X0426494Y0203439D01*
X0426441Y0203588D01*
X0426392Y0203739D01*
X0426347Y0203891D01*
X0426306Y0204044D01*
X0426268Y0204197D01*
X0426235Y0204352D01*
X0426205Y0204508D01*
X0426179Y0204664D01*
X0426158Y0204821D01*
X0426140Y0204978D01*
X0426126Y0205136D01*
X0426116Y0205294D01*
X0426110Y0205452D01*
X0426108Y0205610D01*
X0397732Y0229862D02*
X0397734Y0230010D01*
X0397740Y0230158D01*
X0397750Y0230306D01*
X0397764Y0230453D01*
X0397782Y0230600D01*
X0397803Y0230746D01*
X0397829Y0230892D01*
X0397859Y0231037D01*
X0397892Y0231181D01*
X0397930Y0231324D01*
X0397971Y0231466D01*
X0398016Y0231607D01*
X0398064Y0231747D01*
X0398117Y0231886D01*
X0398173Y0232023D01*
X0398233Y0232158D01*
X0398296Y0232292D01*
X0398363Y0232424D01*
X0398434Y0232554D01*
X0398508Y0232682D01*
X0398585Y0232808D01*
X0398666Y0232932D01*
X0398750Y0233054D01*
X0398837Y0233173D01*
X0398928Y0233290D01*
X0399022Y0233405D01*
X0399118Y0233517D01*
X0399218Y0233627D01*
X0399320Y0233733D01*
X0399426Y0233837D01*
X0399534Y0233938D01*
X0399645Y0234036D01*
X0399758Y0234132D01*
X0399874Y0234224D01*
X0399992Y0234313D01*
X0400113Y0234398D01*
X0400236Y0234481D01*
X0400361Y0234560D01*
X0400488Y0234636D01*
X0400617Y0234708D01*
X0400748Y0234777D01*
X0400881Y0234842D01*
X0401016Y0234903D01*
X0401152Y0234961D01*
X0401289Y0235016D01*
X0401428Y0235066D01*
X0401569Y0235113D01*
X0401710Y0235156D01*
X0401853Y0235196D01*
X0401997Y0235231D01*
X0402141Y0235263D01*
X0402287Y0235290D01*
X0402433Y0235314D01*
X0402580Y0235334D01*
X0402727Y0235350D01*
X0402874Y0235362D01*
X0403022Y0235370D01*
X0403170Y0235374D01*
X0403318Y0235374D01*
X0403466Y0235370D01*
X0403614Y0235362D01*
X0403761Y0235350D01*
X0403908Y0235334D01*
X0404055Y0235314D01*
X0404201Y0235290D01*
X0404347Y0235263D01*
X0404491Y0235231D01*
X0404635Y0235196D01*
X0404778Y0235156D01*
X0404919Y0235113D01*
X0405060Y0235066D01*
X0405199Y0235016D01*
X0405336Y0234961D01*
X0405472Y0234903D01*
X0405607Y0234842D01*
X0405740Y0234777D01*
X0405871Y0234708D01*
X0406000Y0234636D01*
X0406127Y0234560D01*
X0406252Y0234481D01*
X0406375Y0234398D01*
X0406496Y0234313D01*
X0406614Y0234224D01*
X0406730Y0234132D01*
X0406843Y0234036D01*
X0406954Y0233938D01*
X0407062Y0233837D01*
X0407168Y0233733D01*
X0407270Y0233627D01*
X0407370Y0233517D01*
X0407466Y0233405D01*
X0407560Y0233290D01*
X0407651Y0233173D01*
X0407738Y0233054D01*
X0407822Y0232932D01*
X0407903Y0232808D01*
X0407980Y0232682D01*
X0408054Y0232554D01*
X0408125Y0232424D01*
X0408192Y0232292D01*
X0408255Y0232158D01*
X0408315Y0232023D01*
X0408371Y0231886D01*
X0408424Y0231747D01*
X0408472Y0231607D01*
X0408517Y0231466D01*
X0408558Y0231324D01*
X0408596Y0231181D01*
X0408629Y0231037D01*
X0408659Y0230892D01*
X0408685Y0230746D01*
X0408706Y0230600D01*
X0408724Y0230453D01*
X0408738Y0230306D01*
X0408748Y0230158D01*
X0408754Y0230010D01*
X0408756Y0229862D01*
X0408754Y0229714D01*
X0408748Y0229566D01*
X0408738Y0229418D01*
X0408724Y0229271D01*
X0408706Y0229124D01*
X0408685Y0228978D01*
X0408659Y0228832D01*
X0408629Y0228687D01*
X0408596Y0228543D01*
X0408558Y0228400D01*
X0408517Y0228258D01*
X0408472Y0228117D01*
X0408424Y0227977D01*
X0408371Y0227838D01*
X0408315Y0227701D01*
X0408255Y0227566D01*
X0408192Y0227432D01*
X0408125Y0227300D01*
X0408054Y0227170D01*
X0407980Y0227042D01*
X0407903Y0226916D01*
X0407822Y0226792D01*
X0407738Y0226670D01*
X0407651Y0226551D01*
X0407560Y0226434D01*
X0407466Y0226319D01*
X0407370Y0226207D01*
X0407270Y0226097D01*
X0407168Y0225991D01*
X0407062Y0225887D01*
X0406954Y0225786D01*
X0406843Y0225688D01*
X0406730Y0225592D01*
X0406614Y0225500D01*
X0406496Y0225411D01*
X0406375Y0225326D01*
X0406252Y0225243D01*
X0406127Y0225164D01*
X0406000Y0225088D01*
X0405871Y0225016D01*
X0405740Y0224947D01*
X0405607Y0224882D01*
X0405472Y0224821D01*
X0405336Y0224763D01*
X0405199Y0224708D01*
X0405060Y0224658D01*
X0404919Y0224611D01*
X0404778Y0224568D01*
X0404635Y0224528D01*
X0404491Y0224493D01*
X0404347Y0224461D01*
X0404201Y0224434D01*
X0404055Y0224410D01*
X0403908Y0224390D01*
X0403761Y0224374D01*
X0403614Y0224362D01*
X0403466Y0224354D01*
X0403318Y0224350D01*
X0403170Y0224350D01*
X0403022Y0224354D01*
X0402874Y0224362D01*
X0402727Y0224374D01*
X0402580Y0224390D01*
X0402433Y0224410D01*
X0402287Y0224434D01*
X0402141Y0224461D01*
X0401997Y0224493D01*
X0401853Y0224528D01*
X0401710Y0224568D01*
X0401569Y0224611D01*
X0401428Y0224658D01*
X0401289Y0224708D01*
X0401152Y0224763D01*
X0401016Y0224821D01*
X0400881Y0224882D01*
X0400748Y0224947D01*
X0400617Y0225016D01*
X0400488Y0225088D01*
X0400361Y0225164D01*
X0400236Y0225243D01*
X0400113Y0225326D01*
X0399992Y0225411D01*
X0399874Y0225500D01*
X0399758Y0225592D01*
X0399645Y0225688D01*
X0399534Y0225786D01*
X0399426Y0225887D01*
X0399320Y0225991D01*
X0399218Y0226097D01*
X0399118Y0226207D01*
X0399022Y0226319D01*
X0398928Y0226434D01*
X0398837Y0226551D01*
X0398750Y0226670D01*
X0398666Y0226792D01*
X0398585Y0226916D01*
X0398508Y0227042D01*
X0398434Y0227170D01*
X0398363Y0227300D01*
X0398296Y0227432D01*
X0398233Y0227566D01*
X0398173Y0227701D01*
X0398117Y0227838D01*
X0398064Y0227977D01*
X0398016Y0228117D01*
X0397971Y0228258D01*
X0397930Y0228400D01*
X0397892Y0228543D01*
X0397859Y0228687D01*
X0397829Y0228832D01*
X0397803Y0228978D01*
X0397782Y0229124D01*
X0397764Y0229271D01*
X0397750Y0229418D01*
X0397740Y0229566D01*
X0397734Y0229714D01*
X0397732Y0229862D01*
X0426108Y0160610D02*
X0426110Y0160768D01*
X0426116Y0160926D01*
X0426126Y0161084D01*
X0426140Y0161242D01*
X0426158Y0161399D01*
X0426179Y0161556D01*
X0426205Y0161712D01*
X0426235Y0161868D01*
X0426268Y0162023D01*
X0426306Y0162176D01*
X0426347Y0162329D01*
X0426392Y0162481D01*
X0426441Y0162632D01*
X0426494Y0162781D01*
X0426550Y0162929D01*
X0426610Y0163075D01*
X0426674Y0163220D01*
X0426742Y0163363D01*
X0426813Y0163505D01*
X0426887Y0163645D01*
X0426965Y0163782D01*
X0427047Y0163918D01*
X0427131Y0164052D01*
X0427220Y0164183D01*
X0427311Y0164312D01*
X0427406Y0164439D01*
X0427503Y0164564D01*
X0427604Y0164686D01*
X0427708Y0164805D01*
X0427815Y0164922D01*
X0427925Y0165036D01*
X0428038Y0165147D01*
X0428153Y0165256D01*
X0428271Y0165361D01*
X0428392Y0165463D01*
X0428515Y0165563D01*
X0428641Y0165659D01*
X0428769Y0165752D01*
X0428899Y0165842D01*
X0429032Y0165928D01*
X0429167Y0166012D01*
X0429303Y0166091D01*
X0429442Y0166168D01*
X0429583Y0166240D01*
X0429725Y0166310D01*
X0429869Y0166375D01*
X0430015Y0166437D01*
X0430162Y0166495D01*
X0430311Y0166550D01*
X0430461Y0166601D01*
X0430612Y0166648D01*
X0430764Y0166691D01*
X0430917Y0166730D01*
X0431072Y0166766D01*
X0431227Y0166797D01*
X0431383Y0166825D01*
X0431539Y0166849D01*
X0431696Y0166869D01*
X0431854Y0166885D01*
X0432011Y0166897D01*
X0432170Y0166905D01*
X0432328Y0166909D01*
X0432486Y0166909D01*
X0432644Y0166905D01*
X0432803Y0166897D01*
X0432960Y0166885D01*
X0433118Y0166869D01*
X0433275Y0166849D01*
X0433431Y0166825D01*
X0433587Y0166797D01*
X0433742Y0166766D01*
X0433897Y0166730D01*
X0434050Y0166691D01*
X0434202Y0166648D01*
X0434353Y0166601D01*
X0434503Y0166550D01*
X0434652Y0166495D01*
X0434799Y0166437D01*
X0434945Y0166375D01*
X0435089Y0166310D01*
X0435231Y0166240D01*
X0435372Y0166168D01*
X0435511Y0166091D01*
X0435647Y0166012D01*
X0435782Y0165928D01*
X0435915Y0165842D01*
X0436045Y0165752D01*
X0436173Y0165659D01*
X0436299Y0165563D01*
X0436422Y0165463D01*
X0436543Y0165361D01*
X0436661Y0165256D01*
X0436776Y0165147D01*
X0436889Y0165036D01*
X0436999Y0164922D01*
X0437106Y0164805D01*
X0437210Y0164686D01*
X0437311Y0164564D01*
X0437408Y0164439D01*
X0437503Y0164312D01*
X0437594Y0164183D01*
X0437683Y0164052D01*
X0437767Y0163918D01*
X0437849Y0163782D01*
X0437927Y0163645D01*
X0438001Y0163505D01*
X0438072Y0163363D01*
X0438140Y0163220D01*
X0438204Y0163075D01*
X0438264Y0162929D01*
X0438320Y0162781D01*
X0438373Y0162632D01*
X0438422Y0162481D01*
X0438467Y0162329D01*
X0438508Y0162176D01*
X0438546Y0162023D01*
X0438579Y0161868D01*
X0438609Y0161712D01*
X0438635Y0161556D01*
X0438656Y0161399D01*
X0438674Y0161242D01*
X0438688Y0161084D01*
X0438698Y0160926D01*
X0438704Y0160768D01*
X0438706Y0160610D01*
X0438704Y0160452D01*
X0438698Y0160294D01*
X0438688Y0160136D01*
X0438674Y0159978D01*
X0438656Y0159821D01*
X0438635Y0159664D01*
X0438609Y0159508D01*
X0438579Y0159352D01*
X0438546Y0159197D01*
X0438508Y0159044D01*
X0438467Y0158891D01*
X0438422Y0158739D01*
X0438373Y0158588D01*
X0438320Y0158439D01*
X0438264Y0158291D01*
X0438204Y0158145D01*
X0438140Y0158000D01*
X0438072Y0157857D01*
X0438001Y0157715D01*
X0437927Y0157575D01*
X0437849Y0157438D01*
X0437767Y0157302D01*
X0437683Y0157168D01*
X0437594Y0157037D01*
X0437503Y0156908D01*
X0437408Y0156781D01*
X0437311Y0156656D01*
X0437210Y0156534D01*
X0437106Y0156415D01*
X0436999Y0156298D01*
X0436889Y0156184D01*
X0436776Y0156073D01*
X0436661Y0155964D01*
X0436543Y0155859D01*
X0436422Y0155757D01*
X0436299Y0155657D01*
X0436173Y0155561D01*
X0436045Y0155468D01*
X0435915Y0155378D01*
X0435782Y0155292D01*
X0435647Y0155208D01*
X0435511Y0155129D01*
X0435372Y0155052D01*
X0435231Y0154980D01*
X0435089Y0154910D01*
X0434945Y0154845D01*
X0434799Y0154783D01*
X0434652Y0154725D01*
X0434503Y0154670D01*
X0434353Y0154619D01*
X0434202Y0154572D01*
X0434050Y0154529D01*
X0433897Y0154490D01*
X0433742Y0154454D01*
X0433587Y0154423D01*
X0433431Y0154395D01*
X0433275Y0154371D01*
X0433118Y0154351D01*
X0432960Y0154335D01*
X0432803Y0154323D01*
X0432644Y0154315D01*
X0432486Y0154311D01*
X0432328Y0154311D01*
X0432170Y0154315D01*
X0432011Y0154323D01*
X0431854Y0154335D01*
X0431696Y0154351D01*
X0431539Y0154371D01*
X0431383Y0154395D01*
X0431227Y0154423D01*
X0431072Y0154454D01*
X0430917Y0154490D01*
X0430764Y0154529D01*
X0430612Y0154572D01*
X0430461Y0154619D01*
X0430311Y0154670D01*
X0430162Y0154725D01*
X0430015Y0154783D01*
X0429869Y0154845D01*
X0429725Y0154910D01*
X0429583Y0154980D01*
X0429442Y0155052D01*
X0429303Y0155129D01*
X0429167Y0155208D01*
X0429032Y0155292D01*
X0428899Y0155378D01*
X0428769Y0155468D01*
X0428641Y0155561D01*
X0428515Y0155657D01*
X0428392Y0155757D01*
X0428271Y0155859D01*
X0428153Y0155964D01*
X0428038Y0156073D01*
X0427925Y0156184D01*
X0427815Y0156298D01*
X0427708Y0156415D01*
X0427604Y0156534D01*
X0427503Y0156656D01*
X0427406Y0156781D01*
X0427311Y0156908D01*
X0427220Y0157037D01*
X0427131Y0157168D01*
X0427047Y0157302D01*
X0426965Y0157438D01*
X0426887Y0157575D01*
X0426813Y0157715D01*
X0426742Y0157857D01*
X0426674Y0158000D01*
X0426610Y0158145D01*
X0426550Y0158291D01*
X0426494Y0158439D01*
X0426441Y0158588D01*
X0426392Y0158739D01*
X0426347Y0158891D01*
X0426306Y0159044D01*
X0426268Y0159197D01*
X0426235Y0159352D01*
X0426205Y0159508D01*
X0426179Y0159664D01*
X0426158Y0159821D01*
X0426140Y0159978D01*
X0426126Y0160136D01*
X0426116Y0160294D01*
X0426110Y0160452D01*
X0426108Y0160610D01*
X0426108Y0141860D02*
X0426110Y0142018D01*
X0426116Y0142176D01*
X0426126Y0142334D01*
X0426140Y0142492D01*
X0426158Y0142649D01*
X0426179Y0142806D01*
X0426205Y0142962D01*
X0426235Y0143118D01*
X0426268Y0143273D01*
X0426306Y0143426D01*
X0426347Y0143579D01*
X0426392Y0143731D01*
X0426441Y0143882D01*
X0426494Y0144031D01*
X0426550Y0144179D01*
X0426610Y0144325D01*
X0426674Y0144470D01*
X0426742Y0144613D01*
X0426813Y0144755D01*
X0426887Y0144895D01*
X0426965Y0145032D01*
X0427047Y0145168D01*
X0427131Y0145302D01*
X0427220Y0145433D01*
X0427311Y0145562D01*
X0427406Y0145689D01*
X0427503Y0145814D01*
X0427604Y0145936D01*
X0427708Y0146055D01*
X0427815Y0146172D01*
X0427925Y0146286D01*
X0428038Y0146397D01*
X0428153Y0146506D01*
X0428271Y0146611D01*
X0428392Y0146713D01*
X0428515Y0146813D01*
X0428641Y0146909D01*
X0428769Y0147002D01*
X0428899Y0147092D01*
X0429032Y0147178D01*
X0429167Y0147262D01*
X0429303Y0147341D01*
X0429442Y0147418D01*
X0429583Y0147490D01*
X0429725Y0147560D01*
X0429869Y0147625D01*
X0430015Y0147687D01*
X0430162Y0147745D01*
X0430311Y0147800D01*
X0430461Y0147851D01*
X0430612Y0147898D01*
X0430764Y0147941D01*
X0430917Y0147980D01*
X0431072Y0148016D01*
X0431227Y0148047D01*
X0431383Y0148075D01*
X0431539Y0148099D01*
X0431696Y0148119D01*
X0431854Y0148135D01*
X0432011Y0148147D01*
X0432170Y0148155D01*
X0432328Y0148159D01*
X0432486Y0148159D01*
X0432644Y0148155D01*
X0432803Y0148147D01*
X0432960Y0148135D01*
X0433118Y0148119D01*
X0433275Y0148099D01*
X0433431Y0148075D01*
X0433587Y0148047D01*
X0433742Y0148016D01*
X0433897Y0147980D01*
X0434050Y0147941D01*
X0434202Y0147898D01*
X0434353Y0147851D01*
X0434503Y0147800D01*
X0434652Y0147745D01*
X0434799Y0147687D01*
X0434945Y0147625D01*
X0435089Y0147560D01*
X0435231Y0147490D01*
X0435372Y0147418D01*
X0435511Y0147341D01*
X0435647Y0147262D01*
X0435782Y0147178D01*
X0435915Y0147092D01*
X0436045Y0147002D01*
X0436173Y0146909D01*
X0436299Y0146813D01*
X0436422Y0146713D01*
X0436543Y0146611D01*
X0436661Y0146506D01*
X0436776Y0146397D01*
X0436889Y0146286D01*
X0436999Y0146172D01*
X0437106Y0146055D01*
X0437210Y0145936D01*
X0437311Y0145814D01*
X0437408Y0145689D01*
X0437503Y0145562D01*
X0437594Y0145433D01*
X0437683Y0145302D01*
X0437767Y0145168D01*
X0437849Y0145032D01*
X0437927Y0144895D01*
X0438001Y0144755D01*
X0438072Y0144613D01*
X0438140Y0144470D01*
X0438204Y0144325D01*
X0438264Y0144179D01*
X0438320Y0144031D01*
X0438373Y0143882D01*
X0438422Y0143731D01*
X0438467Y0143579D01*
X0438508Y0143426D01*
X0438546Y0143273D01*
X0438579Y0143118D01*
X0438609Y0142962D01*
X0438635Y0142806D01*
X0438656Y0142649D01*
X0438674Y0142492D01*
X0438688Y0142334D01*
X0438698Y0142176D01*
X0438704Y0142018D01*
X0438706Y0141860D01*
X0438704Y0141702D01*
X0438698Y0141544D01*
X0438688Y0141386D01*
X0438674Y0141228D01*
X0438656Y0141071D01*
X0438635Y0140914D01*
X0438609Y0140758D01*
X0438579Y0140602D01*
X0438546Y0140447D01*
X0438508Y0140294D01*
X0438467Y0140141D01*
X0438422Y0139989D01*
X0438373Y0139838D01*
X0438320Y0139689D01*
X0438264Y0139541D01*
X0438204Y0139395D01*
X0438140Y0139250D01*
X0438072Y0139107D01*
X0438001Y0138965D01*
X0437927Y0138825D01*
X0437849Y0138688D01*
X0437767Y0138552D01*
X0437683Y0138418D01*
X0437594Y0138287D01*
X0437503Y0138158D01*
X0437408Y0138031D01*
X0437311Y0137906D01*
X0437210Y0137784D01*
X0437106Y0137665D01*
X0436999Y0137548D01*
X0436889Y0137434D01*
X0436776Y0137323D01*
X0436661Y0137214D01*
X0436543Y0137109D01*
X0436422Y0137007D01*
X0436299Y0136907D01*
X0436173Y0136811D01*
X0436045Y0136718D01*
X0435915Y0136628D01*
X0435782Y0136542D01*
X0435647Y0136458D01*
X0435511Y0136379D01*
X0435372Y0136302D01*
X0435231Y0136230D01*
X0435089Y0136160D01*
X0434945Y0136095D01*
X0434799Y0136033D01*
X0434652Y0135975D01*
X0434503Y0135920D01*
X0434353Y0135869D01*
X0434202Y0135822D01*
X0434050Y0135779D01*
X0433897Y0135740D01*
X0433742Y0135704D01*
X0433587Y0135673D01*
X0433431Y0135645D01*
X0433275Y0135621D01*
X0433118Y0135601D01*
X0432960Y0135585D01*
X0432803Y0135573D01*
X0432644Y0135565D01*
X0432486Y0135561D01*
X0432328Y0135561D01*
X0432170Y0135565D01*
X0432011Y0135573D01*
X0431854Y0135585D01*
X0431696Y0135601D01*
X0431539Y0135621D01*
X0431383Y0135645D01*
X0431227Y0135673D01*
X0431072Y0135704D01*
X0430917Y0135740D01*
X0430764Y0135779D01*
X0430612Y0135822D01*
X0430461Y0135869D01*
X0430311Y0135920D01*
X0430162Y0135975D01*
X0430015Y0136033D01*
X0429869Y0136095D01*
X0429725Y0136160D01*
X0429583Y0136230D01*
X0429442Y0136302D01*
X0429303Y0136379D01*
X0429167Y0136458D01*
X0429032Y0136542D01*
X0428899Y0136628D01*
X0428769Y0136718D01*
X0428641Y0136811D01*
X0428515Y0136907D01*
X0428392Y0137007D01*
X0428271Y0137109D01*
X0428153Y0137214D01*
X0428038Y0137323D01*
X0427925Y0137434D01*
X0427815Y0137548D01*
X0427708Y0137665D01*
X0427604Y0137784D01*
X0427503Y0137906D01*
X0427406Y0138031D01*
X0427311Y0138158D01*
X0427220Y0138287D01*
X0427131Y0138418D01*
X0427047Y0138552D01*
X0426965Y0138688D01*
X0426887Y0138825D01*
X0426813Y0138965D01*
X0426742Y0139107D01*
X0426674Y0139250D01*
X0426610Y0139395D01*
X0426550Y0139541D01*
X0426494Y0139689D01*
X0426441Y0139838D01*
X0426392Y0139989D01*
X0426347Y0140141D01*
X0426306Y0140294D01*
X0426268Y0140447D01*
X0426235Y0140602D01*
X0426205Y0140758D01*
X0426179Y0140914D01*
X0426158Y0141071D01*
X0426140Y0141228D01*
X0426126Y0141386D01*
X0426116Y0141544D01*
X0426110Y0141702D01*
X0426108Y0141860D01*
X0102457Y0072382D02*
X0102459Y0072530D01*
X0102465Y0072678D01*
X0102475Y0072826D01*
X0102489Y0072973D01*
X0102507Y0073120D01*
X0102528Y0073266D01*
X0102554Y0073412D01*
X0102584Y0073557D01*
X0102617Y0073701D01*
X0102655Y0073844D01*
X0102696Y0073986D01*
X0102741Y0074127D01*
X0102789Y0074267D01*
X0102842Y0074406D01*
X0102898Y0074543D01*
X0102958Y0074678D01*
X0103021Y0074812D01*
X0103088Y0074944D01*
X0103159Y0075074D01*
X0103233Y0075202D01*
X0103310Y0075328D01*
X0103391Y0075452D01*
X0103475Y0075574D01*
X0103562Y0075693D01*
X0103653Y0075810D01*
X0103747Y0075925D01*
X0103843Y0076037D01*
X0103943Y0076147D01*
X0104045Y0076253D01*
X0104151Y0076357D01*
X0104259Y0076458D01*
X0104370Y0076556D01*
X0104483Y0076652D01*
X0104599Y0076744D01*
X0104717Y0076833D01*
X0104838Y0076918D01*
X0104961Y0077001D01*
X0105086Y0077080D01*
X0105213Y0077156D01*
X0105342Y0077228D01*
X0105473Y0077297D01*
X0105606Y0077362D01*
X0105741Y0077423D01*
X0105877Y0077481D01*
X0106014Y0077536D01*
X0106153Y0077586D01*
X0106294Y0077633D01*
X0106435Y0077676D01*
X0106578Y0077716D01*
X0106722Y0077751D01*
X0106866Y0077783D01*
X0107012Y0077810D01*
X0107158Y0077834D01*
X0107305Y0077854D01*
X0107452Y0077870D01*
X0107599Y0077882D01*
X0107747Y0077890D01*
X0107895Y0077894D01*
X0108043Y0077894D01*
X0108191Y0077890D01*
X0108339Y0077882D01*
X0108486Y0077870D01*
X0108633Y0077854D01*
X0108780Y0077834D01*
X0108926Y0077810D01*
X0109072Y0077783D01*
X0109216Y0077751D01*
X0109360Y0077716D01*
X0109503Y0077676D01*
X0109644Y0077633D01*
X0109785Y0077586D01*
X0109924Y0077536D01*
X0110061Y0077481D01*
X0110197Y0077423D01*
X0110332Y0077362D01*
X0110465Y0077297D01*
X0110596Y0077228D01*
X0110725Y0077156D01*
X0110852Y0077080D01*
X0110977Y0077001D01*
X0111100Y0076918D01*
X0111221Y0076833D01*
X0111339Y0076744D01*
X0111455Y0076652D01*
X0111568Y0076556D01*
X0111679Y0076458D01*
X0111787Y0076357D01*
X0111893Y0076253D01*
X0111995Y0076147D01*
X0112095Y0076037D01*
X0112191Y0075925D01*
X0112285Y0075810D01*
X0112376Y0075693D01*
X0112463Y0075574D01*
X0112547Y0075452D01*
X0112628Y0075328D01*
X0112705Y0075202D01*
X0112779Y0075074D01*
X0112850Y0074944D01*
X0112917Y0074812D01*
X0112980Y0074678D01*
X0113040Y0074543D01*
X0113096Y0074406D01*
X0113149Y0074267D01*
X0113197Y0074127D01*
X0113242Y0073986D01*
X0113283Y0073844D01*
X0113321Y0073701D01*
X0113354Y0073557D01*
X0113384Y0073412D01*
X0113410Y0073266D01*
X0113431Y0073120D01*
X0113449Y0072973D01*
X0113463Y0072826D01*
X0113473Y0072678D01*
X0113479Y0072530D01*
X0113481Y0072382D01*
X0113479Y0072234D01*
X0113473Y0072086D01*
X0113463Y0071938D01*
X0113449Y0071791D01*
X0113431Y0071644D01*
X0113410Y0071498D01*
X0113384Y0071352D01*
X0113354Y0071207D01*
X0113321Y0071063D01*
X0113283Y0070920D01*
X0113242Y0070778D01*
X0113197Y0070637D01*
X0113149Y0070497D01*
X0113096Y0070358D01*
X0113040Y0070221D01*
X0112980Y0070086D01*
X0112917Y0069952D01*
X0112850Y0069820D01*
X0112779Y0069690D01*
X0112705Y0069562D01*
X0112628Y0069436D01*
X0112547Y0069312D01*
X0112463Y0069190D01*
X0112376Y0069071D01*
X0112285Y0068954D01*
X0112191Y0068839D01*
X0112095Y0068727D01*
X0111995Y0068617D01*
X0111893Y0068511D01*
X0111787Y0068407D01*
X0111679Y0068306D01*
X0111568Y0068208D01*
X0111455Y0068112D01*
X0111339Y0068020D01*
X0111221Y0067931D01*
X0111100Y0067846D01*
X0110977Y0067763D01*
X0110852Y0067684D01*
X0110725Y0067608D01*
X0110596Y0067536D01*
X0110465Y0067467D01*
X0110332Y0067402D01*
X0110197Y0067341D01*
X0110061Y0067283D01*
X0109924Y0067228D01*
X0109785Y0067178D01*
X0109644Y0067131D01*
X0109503Y0067088D01*
X0109360Y0067048D01*
X0109216Y0067013D01*
X0109072Y0066981D01*
X0108926Y0066954D01*
X0108780Y0066930D01*
X0108633Y0066910D01*
X0108486Y0066894D01*
X0108339Y0066882D01*
X0108191Y0066874D01*
X0108043Y0066870D01*
X0107895Y0066870D01*
X0107747Y0066874D01*
X0107599Y0066882D01*
X0107452Y0066894D01*
X0107305Y0066910D01*
X0107158Y0066930D01*
X0107012Y0066954D01*
X0106866Y0066981D01*
X0106722Y0067013D01*
X0106578Y0067048D01*
X0106435Y0067088D01*
X0106294Y0067131D01*
X0106153Y0067178D01*
X0106014Y0067228D01*
X0105877Y0067283D01*
X0105741Y0067341D01*
X0105606Y0067402D01*
X0105473Y0067467D01*
X0105342Y0067536D01*
X0105213Y0067608D01*
X0105086Y0067684D01*
X0104961Y0067763D01*
X0104838Y0067846D01*
X0104717Y0067931D01*
X0104599Y0068020D01*
X0104483Y0068112D01*
X0104370Y0068208D01*
X0104259Y0068306D01*
X0104151Y0068407D01*
X0104045Y0068511D01*
X0103943Y0068617D01*
X0103843Y0068727D01*
X0103747Y0068839D01*
X0103653Y0068954D01*
X0103562Y0069071D01*
X0103475Y0069190D01*
X0103391Y0069312D01*
X0103310Y0069436D01*
X0103233Y0069562D01*
X0103159Y0069690D01*
X0103088Y0069820D01*
X0103021Y0069952D01*
X0102958Y0070086D01*
X0102898Y0070221D01*
X0102842Y0070358D01*
X0102789Y0070497D01*
X0102741Y0070637D01*
X0102696Y0070778D01*
X0102655Y0070920D01*
X0102617Y0071063D01*
X0102584Y0071207D01*
X0102554Y0071352D01*
X0102528Y0071498D01*
X0102507Y0071644D01*
X0102489Y0071791D01*
X0102475Y0071938D01*
X0102465Y0072086D01*
X0102459Y0072234D01*
X0102457Y0072382D01*
X0102457Y0229862D02*
X0102459Y0230010D01*
X0102465Y0230158D01*
X0102475Y0230306D01*
X0102489Y0230453D01*
X0102507Y0230600D01*
X0102528Y0230746D01*
X0102554Y0230892D01*
X0102584Y0231037D01*
X0102617Y0231181D01*
X0102655Y0231324D01*
X0102696Y0231466D01*
X0102741Y0231607D01*
X0102789Y0231747D01*
X0102842Y0231886D01*
X0102898Y0232023D01*
X0102958Y0232158D01*
X0103021Y0232292D01*
X0103088Y0232424D01*
X0103159Y0232554D01*
X0103233Y0232682D01*
X0103310Y0232808D01*
X0103391Y0232932D01*
X0103475Y0233054D01*
X0103562Y0233173D01*
X0103653Y0233290D01*
X0103747Y0233405D01*
X0103843Y0233517D01*
X0103943Y0233627D01*
X0104045Y0233733D01*
X0104151Y0233837D01*
X0104259Y0233938D01*
X0104370Y0234036D01*
X0104483Y0234132D01*
X0104599Y0234224D01*
X0104717Y0234313D01*
X0104838Y0234398D01*
X0104961Y0234481D01*
X0105086Y0234560D01*
X0105213Y0234636D01*
X0105342Y0234708D01*
X0105473Y0234777D01*
X0105606Y0234842D01*
X0105741Y0234903D01*
X0105877Y0234961D01*
X0106014Y0235016D01*
X0106153Y0235066D01*
X0106294Y0235113D01*
X0106435Y0235156D01*
X0106578Y0235196D01*
X0106722Y0235231D01*
X0106866Y0235263D01*
X0107012Y0235290D01*
X0107158Y0235314D01*
X0107305Y0235334D01*
X0107452Y0235350D01*
X0107599Y0235362D01*
X0107747Y0235370D01*
X0107895Y0235374D01*
X0108043Y0235374D01*
X0108191Y0235370D01*
X0108339Y0235362D01*
X0108486Y0235350D01*
X0108633Y0235334D01*
X0108780Y0235314D01*
X0108926Y0235290D01*
X0109072Y0235263D01*
X0109216Y0235231D01*
X0109360Y0235196D01*
X0109503Y0235156D01*
X0109644Y0235113D01*
X0109785Y0235066D01*
X0109924Y0235016D01*
X0110061Y0234961D01*
X0110197Y0234903D01*
X0110332Y0234842D01*
X0110465Y0234777D01*
X0110596Y0234708D01*
X0110725Y0234636D01*
X0110852Y0234560D01*
X0110977Y0234481D01*
X0111100Y0234398D01*
X0111221Y0234313D01*
X0111339Y0234224D01*
X0111455Y0234132D01*
X0111568Y0234036D01*
X0111679Y0233938D01*
X0111787Y0233837D01*
X0111893Y0233733D01*
X0111995Y0233627D01*
X0112095Y0233517D01*
X0112191Y0233405D01*
X0112285Y0233290D01*
X0112376Y0233173D01*
X0112463Y0233054D01*
X0112547Y0232932D01*
X0112628Y0232808D01*
X0112705Y0232682D01*
X0112779Y0232554D01*
X0112850Y0232424D01*
X0112917Y0232292D01*
X0112980Y0232158D01*
X0113040Y0232023D01*
X0113096Y0231886D01*
X0113149Y0231747D01*
X0113197Y0231607D01*
X0113242Y0231466D01*
X0113283Y0231324D01*
X0113321Y0231181D01*
X0113354Y0231037D01*
X0113384Y0230892D01*
X0113410Y0230746D01*
X0113431Y0230600D01*
X0113449Y0230453D01*
X0113463Y0230306D01*
X0113473Y0230158D01*
X0113479Y0230010D01*
X0113481Y0229862D01*
X0113479Y0229714D01*
X0113473Y0229566D01*
X0113463Y0229418D01*
X0113449Y0229271D01*
X0113431Y0229124D01*
X0113410Y0228978D01*
X0113384Y0228832D01*
X0113354Y0228687D01*
X0113321Y0228543D01*
X0113283Y0228400D01*
X0113242Y0228258D01*
X0113197Y0228117D01*
X0113149Y0227977D01*
X0113096Y0227838D01*
X0113040Y0227701D01*
X0112980Y0227566D01*
X0112917Y0227432D01*
X0112850Y0227300D01*
X0112779Y0227170D01*
X0112705Y0227042D01*
X0112628Y0226916D01*
X0112547Y0226792D01*
X0112463Y0226670D01*
X0112376Y0226551D01*
X0112285Y0226434D01*
X0112191Y0226319D01*
X0112095Y0226207D01*
X0111995Y0226097D01*
X0111893Y0225991D01*
X0111787Y0225887D01*
X0111679Y0225786D01*
X0111568Y0225688D01*
X0111455Y0225592D01*
X0111339Y0225500D01*
X0111221Y0225411D01*
X0111100Y0225326D01*
X0110977Y0225243D01*
X0110852Y0225164D01*
X0110725Y0225088D01*
X0110596Y0225016D01*
X0110465Y0224947D01*
X0110332Y0224882D01*
X0110197Y0224821D01*
X0110061Y0224763D01*
X0109924Y0224708D01*
X0109785Y0224658D01*
X0109644Y0224611D01*
X0109503Y0224568D01*
X0109360Y0224528D01*
X0109216Y0224493D01*
X0109072Y0224461D01*
X0108926Y0224434D01*
X0108780Y0224410D01*
X0108633Y0224390D01*
X0108486Y0224374D01*
X0108339Y0224362D01*
X0108191Y0224354D01*
X0108043Y0224350D01*
X0107895Y0224350D01*
X0107747Y0224354D01*
X0107599Y0224362D01*
X0107452Y0224374D01*
X0107305Y0224390D01*
X0107158Y0224410D01*
X0107012Y0224434D01*
X0106866Y0224461D01*
X0106722Y0224493D01*
X0106578Y0224528D01*
X0106435Y0224568D01*
X0106294Y0224611D01*
X0106153Y0224658D01*
X0106014Y0224708D01*
X0105877Y0224763D01*
X0105741Y0224821D01*
X0105606Y0224882D01*
X0105473Y0224947D01*
X0105342Y0225016D01*
X0105213Y0225088D01*
X0105086Y0225164D01*
X0104961Y0225243D01*
X0104838Y0225326D01*
X0104717Y0225411D01*
X0104599Y0225500D01*
X0104483Y0225592D01*
X0104370Y0225688D01*
X0104259Y0225786D01*
X0104151Y0225887D01*
X0104045Y0225991D01*
X0103943Y0226097D01*
X0103843Y0226207D01*
X0103747Y0226319D01*
X0103653Y0226434D01*
X0103562Y0226551D01*
X0103475Y0226670D01*
X0103391Y0226792D01*
X0103310Y0226916D01*
X0103233Y0227042D01*
X0103159Y0227170D01*
X0103088Y0227300D01*
X0103021Y0227432D01*
X0102958Y0227566D01*
X0102898Y0227701D01*
X0102842Y0227838D01*
X0102789Y0227977D01*
X0102741Y0228117D01*
X0102696Y0228258D01*
X0102655Y0228400D01*
X0102617Y0228543D01*
X0102584Y0228687D01*
X0102554Y0228832D01*
X0102528Y0228978D01*
X0102507Y0229124D01*
X0102489Y0229271D01*
X0102475Y0229418D01*
X0102465Y0229566D01*
X0102459Y0229714D01*
X0102457Y0229862D01*
D18*
X0097492Y0148838D02*
X0097809Y0148521D01*
X0097809Y0147887D01*
X0097492Y0147570D01*
X0097809Y0146628D02*
X0097809Y0145994D01*
X0097809Y0146311D02*
X0096224Y0146311D01*
X0095907Y0145994D01*
X0095907Y0145677D01*
X0096224Y0145360D01*
X0095907Y0147570D02*
X0097175Y0148838D01*
X0097492Y0148838D01*
X0095907Y0148838D02*
X0095907Y0147570D01*
X0340807Y0080860D02*
X0340807Y0072860D01*
M02*
