%
M48
M72
T01C0.02362
T02C0.02756
T03C0.03937
T04C0.04000
T05C0.07087
T06C0.08661
T07C0.09843
T08C0.10000
T09C0.11024
T10C0.12598
%
T01
X118657Y83110
X112407Y86860
X104907Y88110
X66157Y101860
X76157Y128110
X103657Y129360
X161157Y160610
X177407Y135610
X222407Y144360
X248657Y175610
X237407Y179360
X197407Y199360
X223657Y213110
X256157Y219360
X293657Y196860
X314907Y190610
X323657Y168110
X371157Y138110
X357407Y126860
X357407Y111860
X352407Y101860
X344907Y94360
X333657Y90610
X353657Y85610
X362407Y88110
X373657Y89360
X381157Y88110
X388657Y89360
X394907Y88110
X401157Y85610
X404907Y91860
X413657Y93110
X419907Y93110
X423657Y105610
X428657Y115610
X429907Y120610
X424907Y124360
X423657Y135610
X401157Y145610
X442407Y164360
X446157Y160610
X446157Y150610
X447407Y143110
X447407Y104360
X382407Y66860
X356157Y69360
X339907Y65610
X322407Y65610
X311157Y83110
X296157Y81860
X284907Y79360
X278657Y83110
X248657Y99360
X262407Y104360
X258657Y115610
X311157Y101860
X333657Y106860
X327407Y134360
X426157Y180610
X429907Y186860
X418657Y191860
X418657Y198110
X414907Y204360
X408657Y209360
X401157Y210610
X392407Y210610
X354907Y223110
X349907Y223110
X344907Y223110
X339907Y223110
X339907Y228110
X344907Y228110
X349907Y228110
X354907Y228110
X447407Y200610
X172407Y86860
X91157Y173110
X98657Y178110
X83657Y189360
X88657Y194360
X97407Y198110
X103657Y204360
X107407Y210610
X113657Y214360
X66157Y173110
T02
X137407Y214439
X137407Y224281
X161846Y224695
X169720Y224695
X177594Y224695
X185469Y224695
X270596Y224695
X278470Y224695
X286344Y224695
X294219Y224695
X266719Y79026
X258844Y79026
X250970Y79026
X243096Y79026
X160469Y79026
X152594Y79026
X144720Y79026
X136846Y79026
T03
X132565Y111250
X142565Y111250
X152565Y111250
X162565Y111250
X172565Y111250
X182565Y111250
X192565Y111250
X202565Y111250
X212565Y111250
X222565Y111250
X232565Y111250
X122565Y111250
X112565Y111250
X102565Y111250
X92565Y111250
X82565Y111250
X122565Y191250
X132565Y191250
X142565Y191250
X152565Y191250
X162565Y191250
X172565Y191250
X182565Y191250
X192565Y191250
X202565Y191250
X212565Y191250
X222565Y191250
X232565Y191250
X397407Y190610
X407407Y185610
X397407Y180610
X407407Y175610
X397407Y170610
X407407Y165610
X407407Y195610
X397407Y200610
X397407Y136860
X407407Y131860
X397407Y126860
X407407Y121860
X397407Y116860
X407407Y111860
X397407Y106860
X407407Y101860
T04
X367407Y76860
X279864Y135850
X279864Y145850
X279864Y155850
X279864Y165850
X311157Y220610
X311157Y230610
X248657Y224360
X238657Y224360
X228657Y224360
X218657Y224360
X208657Y224360
X208657Y79360
X198657Y79360
X188657Y79360
X178657Y79360
X218657Y79360
T05
X329907Y76860
T06
X375533Y104984
X281833Y104984
X281833Y196717
X375533Y196717
T07
X67565Y186250
X67565Y116250
T08
X247565Y116250
X247565Y186250
T09
X107969Y72382
X107969Y229862
X403244Y229862
X403244Y72382
T10
X432407Y96860
X432407Y141860
X432407Y160610
X432407Y205610
M30
