G75*
%MOIN*%
%OFA0B0*%
%FSLAX25Y25*%
%IPPOS*%
%LPD*%
%AMOC8*
5,1,8,0,0,1.08239X$1,22.5*
%
%ADD10C,0.10400*%
%ADD11C,0.15400*%
%ADD12C,0.07400*%
%ADD13C,0.11424*%
%ADD14C,0.07800*%
%ADD15C,0.06699*%
%ADD16C,0.09061*%
%ADD17C,0.06900*%
%ADD18R,0.06900X0.06900*%
%ADD19R,0.06306X0.06699*%
%ADD20C,0.07487*%
%ADD21R,0.07800X0.07800*%
%ADD22C,0.12998*%
%ADD23R,0.18510X0.04337*%
%ADD24R,0.13786X0.06699*%
D10*
X0247565Y0116250D03*
X0247565Y0186250D03*
D11*
X0067565Y0186250D03*
X0067565Y0116250D03*
D12*
X0082565Y0111250D03*
X0092565Y0111250D03*
X0102565Y0111250D03*
X0112565Y0111250D03*
X0122565Y0111250D03*
X0132565Y0111250D03*
X0142565Y0111250D03*
X0152565Y0111250D03*
X0162565Y0111250D03*
X0172565Y0111250D03*
X0182565Y0111250D03*
X0192565Y0111250D03*
X0202565Y0111250D03*
X0212565Y0111250D03*
X0222565Y0111250D03*
X0232565Y0111250D03*
X0232565Y0191250D03*
X0222565Y0191250D03*
X0212565Y0191250D03*
X0202565Y0191250D03*
X0192565Y0191250D03*
X0182565Y0191250D03*
X0172565Y0191250D03*
X0162565Y0191250D03*
X0152565Y0191250D03*
X0142565Y0191250D03*
X0132565Y0191250D03*
X0122565Y0191250D03*
D13*
X0107969Y0072382D03*
X0107969Y0229862D03*
X0403244Y0229862D03*
X0403244Y0072382D03*
D14*
X0367407Y0076860D03*
X0397407Y0106860D03*
X0407407Y0111860D03*
X0397407Y0116860D03*
X0407407Y0121860D03*
X0397407Y0126860D03*
X0407407Y0131860D03*
X0397407Y0136860D03*
X0397407Y0170610D03*
X0407407Y0175610D03*
X0397407Y0180610D03*
X0407407Y0185610D03*
X0397407Y0190610D03*
X0407407Y0195610D03*
X0397407Y0200610D03*
X0311157Y0220610D03*
X0311157Y0230610D03*
X0248657Y0224360D03*
X0238657Y0224360D03*
X0228657Y0224360D03*
X0218657Y0224360D03*
X0208657Y0224360D03*
X0279864Y0165850D03*
X0279864Y0155850D03*
X0279864Y0145850D03*
X0279864Y0135850D03*
X0218657Y0079360D03*
X0208657Y0079360D03*
X0198657Y0079360D03*
X0188657Y0079360D03*
X0178657Y0079360D03*
D15*
X0160469Y0079026D03*
X0152594Y0079026D03*
X0144720Y0079026D03*
X0136846Y0079026D03*
X0243096Y0079026D03*
X0250970Y0079026D03*
X0258844Y0079026D03*
X0266719Y0079026D03*
X0270596Y0224695D03*
X0278470Y0224695D03*
X0286344Y0224695D03*
X0294219Y0224695D03*
X0185469Y0224695D03*
X0177594Y0224695D03*
X0169720Y0224695D03*
X0161846Y0224695D03*
D16*
X0281833Y0196717D03*
X0375533Y0196717D03*
X0375533Y0104984D03*
X0281833Y0104984D03*
D17*
X0137407Y0224281D03*
D18*
X0137407Y0214439D03*
D19*
X0322821Y0076860D03*
X0336994Y0076860D03*
D20*
X0329907Y0076860D03*
D21*
X0407407Y0101860D03*
X0407407Y0165610D03*
D22*
X0432407Y0160610D03*
X0432407Y0141860D03*
X0432407Y0096860D03*
X0432407Y0205610D03*
D23*
X0074091Y0154547D03*
X0074091Y0146673D03*
D24*
X0094563Y0137224D03*
X0094563Y0163996D03*
M02*
