G75*
%MOIN*%
%OFA0B0*%
%FSLAX25Y25*%
%IPPOS*%
%LPD*%
%AMOC8*
5,1,8,0,0,1.08239X$1,22.5*
%
%ADD10C,0.15000*%
%ADD11C,0.07000*%
%ADD12R,0.03150X0.04724*%
%ADD13C,0.07400*%
%ADD14R,0.05000X0.05787*%
%ADD15R,0.06299X0.07087*%
%ADD16R,0.04724X0.02362*%
%ADD17C,0.06299*%
%ADD18C,0.06500*%
%ADD19R,0.06500X0.06500*%
%ADD20R,0.04724X0.03150*%
%ADD21R,0.06299X0.03937*%
%ADD22R,0.24409X0.21260*%
%ADD23C,0.05906*%
%ADD24R,0.04500X0.04000*%
%ADD25R,0.04724X0.05512*%
%ADD26R,0.07400X0.07400*%
%ADD27C,0.03562*%
%ADD28C,0.01600*%
%ADD29C,0.04000*%
%ADD30C,0.03200*%
%ADD31C,0.02400*%
%ADD32C,0.01200*%
%ADD33C,0.01000*%
D10*
X0067565Y0116250D03*
X0067565Y0186250D03*
D11*
X0122565Y0191250D03*
X0132565Y0191250D03*
X0142565Y0191250D03*
X0152565Y0191250D03*
X0162565Y0191250D03*
X0172565Y0191250D03*
X0182565Y0191250D03*
X0192565Y0191250D03*
X0202565Y0191250D03*
X0212565Y0191250D03*
X0222565Y0191250D03*
X0232565Y0191250D03*
X0232565Y0111250D03*
X0222565Y0111250D03*
X0212565Y0111250D03*
X0202565Y0111250D03*
X0192565Y0111250D03*
X0182565Y0111250D03*
X0172565Y0111250D03*
X0162565Y0111250D03*
X0152565Y0111250D03*
X0142565Y0111250D03*
X0132565Y0111250D03*
X0122565Y0111250D03*
X0112565Y0111250D03*
X0102565Y0111250D03*
X0092565Y0111250D03*
X0082565Y0111250D03*
D12*
X0301364Y0209360D03*
X0308451Y0209360D03*
X0323864Y0188110D03*
X0330951Y0188110D03*
X0340114Y0188110D03*
X0347201Y0188110D03*
X0313401Y0165960D03*
X0306314Y0165960D03*
X0306314Y0156060D03*
X0313401Y0156060D03*
X0343514Y0135160D03*
X0350601Y0135160D03*
X0347201Y0123110D03*
X0340114Y0123110D03*
X0340114Y0115610D03*
X0347201Y0115610D03*
X0330951Y0099360D03*
X0323864Y0099360D03*
X0378864Y0216860D03*
X0385951Y0216860D03*
D13*
X0397407Y0200610D03*
X0407407Y0195610D03*
X0397407Y0190610D03*
X0407407Y0185610D03*
X0397407Y0180610D03*
X0407407Y0175610D03*
X0397407Y0170610D03*
X0397407Y0136860D03*
X0407407Y0131860D03*
X0397407Y0126860D03*
X0407407Y0121860D03*
X0397407Y0116860D03*
X0407407Y0111860D03*
X0397407Y0106860D03*
X0367407Y0076860D03*
X0279864Y0135850D03*
X0279864Y0145850D03*
X0279864Y0155850D03*
X0279864Y0165850D03*
X0311157Y0220610D03*
X0311157Y0230610D03*
X0248657Y0224360D03*
X0238657Y0224360D03*
X0228657Y0224360D03*
X0218657Y0224360D03*
X0208657Y0224360D03*
X0208657Y0079360D03*
X0198657Y0079360D03*
X0188657Y0079360D03*
X0178657Y0079360D03*
X0218657Y0079360D03*
D14*
X0331443Y0176860D03*
X0348372Y0176860D03*
X0348372Y0198110D03*
X0331443Y0198110D03*
D15*
X0314169Y0198110D03*
X0303146Y0198110D03*
X0303146Y0180610D03*
X0314169Y0180610D03*
D16*
X0303884Y0125610D03*
X0303884Y0120610D03*
X0303884Y0115610D03*
X0303884Y0110610D03*
X0325931Y0110610D03*
X0325931Y0115610D03*
X0325931Y0120610D03*
X0325931Y0125610D03*
D17*
X0266719Y0079026D03*
X0258844Y0079026D03*
X0250970Y0079026D03*
X0243096Y0079026D03*
X0160469Y0079026D03*
X0152594Y0079026D03*
X0144720Y0079026D03*
X0136846Y0079026D03*
X0161846Y0224695D03*
X0169720Y0224695D03*
X0177594Y0224695D03*
X0185469Y0224695D03*
X0270596Y0224695D03*
X0278470Y0224695D03*
X0286344Y0224695D03*
X0294219Y0224695D03*
D18*
X0137407Y0224281D03*
D19*
X0137407Y0214439D03*
D20*
X0213657Y0162904D03*
X0213657Y0155817D03*
X0173407Y0134554D03*
X0173407Y0127467D03*
X0162407Y0127067D03*
X0162407Y0134154D03*
X0152407Y0134154D03*
X0152407Y0127067D03*
X0142407Y0127067D03*
X0142407Y0134154D03*
X0262407Y0173317D03*
X0262407Y0180404D03*
X0292407Y0180404D03*
X0292407Y0173317D03*
X0258657Y0199567D03*
X0258657Y0206654D03*
X0371157Y0167904D03*
X0371157Y0160817D03*
X0371157Y0154154D03*
X0371157Y0147067D03*
X0296157Y0091654D03*
X0296157Y0084567D03*
D21*
X0321010Y0216634D03*
X0321010Y0234587D03*
D22*
X0349750Y0225610D03*
D23*
X0328657Y0208110D03*
X0354907Y0198110D03*
X0356157Y0176860D03*
X0357407Y0150610D03*
X0337407Y0150610D03*
X0159907Y0204360D03*
X0083657Y0203110D03*
X0092407Y0096860D03*
D24*
X0357157Y0115860D03*
X0365157Y0119360D03*
X0357157Y0122860D03*
D25*
X0371502Y0226860D03*
X0383313Y0226860D03*
D26*
X0407407Y0165610D03*
X0407407Y0101860D03*
D27*
X0413657Y0093110D03*
X0419907Y0093110D03*
X0404907Y0091860D03*
X0401157Y0085610D03*
X0394907Y0088110D03*
X0388657Y0089360D03*
X0381157Y0088110D03*
X0373657Y0089360D03*
X0362407Y0088110D03*
X0353657Y0085610D03*
X0344907Y0094360D03*
X0333657Y0090610D03*
X0352407Y0101860D03*
X0357407Y0111860D03*
X0357407Y0126860D03*
X0371157Y0138110D03*
X0401157Y0145610D03*
X0423657Y0135610D03*
X0424907Y0124360D03*
X0429907Y0120610D03*
X0428657Y0115610D03*
X0423657Y0105610D03*
X0447407Y0104360D03*
X0447407Y0143110D03*
X0446157Y0150610D03*
X0446157Y0160610D03*
X0442407Y0164360D03*
X0426157Y0180610D03*
X0429907Y0186860D03*
X0418657Y0191860D03*
X0418657Y0198110D03*
X0414907Y0204360D03*
X0408657Y0209360D03*
X0401157Y0210610D03*
X0392407Y0210610D03*
X0354907Y0223110D03*
X0349907Y0223110D03*
X0344907Y0223110D03*
X0339907Y0223110D03*
X0339907Y0228110D03*
X0344907Y0228110D03*
X0349907Y0228110D03*
X0354907Y0228110D03*
X0293657Y0196860D03*
X0314907Y0190610D03*
X0323657Y0168110D03*
X0327407Y0134360D03*
X0333657Y0106860D03*
X0311157Y0101860D03*
X0311157Y0083110D03*
X0296157Y0081860D03*
X0284907Y0079360D03*
X0278657Y0083110D03*
X0248657Y0099360D03*
X0262407Y0104360D03*
X0258657Y0115610D03*
X0222407Y0144360D03*
X0177407Y0135610D03*
X0161157Y0160610D03*
X0103657Y0129360D03*
X0076157Y0128110D03*
X0066157Y0101860D03*
X0104907Y0088110D03*
X0112407Y0086860D03*
X0118657Y0083110D03*
X0172407Y0086860D03*
X0322407Y0065610D03*
X0339907Y0065610D03*
X0356157Y0069360D03*
X0382407Y0066860D03*
X0248657Y0175610D03*
X0237407Y0179360D03*
X0197407Y0199360D03*
X0223657Y0213110D03*
X0256157Y0219360D03*
X0113657Y0214360D03*
X0107407Y0210610D03*
X0103657Y0204360D03*
X0097407Y0198110D03*
X0088657Y0194360D03*
X0083657Y0189360D03*
X0098657Y0178110D03*
X0091157Y0173110D03*
X0066157Y0173110D03*
X0447407Y0200610D03*
D28*
X0097270Y0059101D02*
X0095641Y0059630D01*
X0094255Y0060637D01*
X0093249Y0062023D01*
X0092719Y0063652D01*
X0092652Y0064508D01*
X0092652Y0077946D01*
X0091646Y0081041D01*
X0091646Y0081041D01*
X0089733Y0083674D01*
X0087100Y0085587D01*
X0084005Y0086593D01*
X0066630Y0086593D01*
X0065774Y0086660D01*
X0064145Y0087190D01*
X0062759Y0088196D01*
X0061753Y0089582D01*
X0061223Y0091211D01*
X0061156Y0092067D01*
X0061156Y0108658D01*
X0061957Y0107857D01*
X0065596Y0106350D01*
X0069534Y0106350D01*
X0073173Y0107857D01*
X0075958Y0110642D01*
X0076665Y0112349D01*
X0076665Y0110076D01*
X0077563Y0107908D01*
X0079223Y0106248D01*
X0081391Y0105350D01*
X0083739Y0105350D01*
X0085907Y0106248D01*
X0087565Y0107906D01*
X0088165Y0107306D01*
X0088165Y0100188D01*
X0087870Y0099892D01*
X0087055Y0097925D01*
X0087055Y0095795D01*
X0087870Y0093828D01*
X0089375Y0092322D01*
X0091343Y0091507D01*
X0091352Y0091507D01*
X0091690Y0091368D01*
X0093440Y0091368D01*
X0095057Y0092038D01*
X0095273Y0092254D01*
X0095440Y0092322D01*
X0096377Y0093260D01*
X0119666Y0093260D01*
X0123807Y0089119D01*
X0123807Y0074894D01*
X0124356Y0073571D01*
X0125368Y0072558D01*
X0130368Y0067558D01*
X0131691Y0067010D01*
X0142285Y0067010D01*
X0142415Y0066880D01*
X0144032Y0066210D01*
X0145783Y0066210D01*
X0147400Y0066880D01*
X0147530Y0067010D01*
X0248982Y0067010D01*
X0249345Y0066647D01*
X0250521Y0066160D01*
X0312014Y0066160D01*
X0312249Y0066101D01*
X0312644Y0066160D01*
X0313044Y0066160D01*
X0313268Y0066253D01*
X0313508Y0066289D01*
X0313851Y0066494D01*
X0314220Y0066647D01*
X0314392Y0066819D01*
X0320101Y0070244D01*
X0320470Y0070397D01*
X0320642Y0070569D01*
X0320850Y0070694D01*
X0321088Y0071015D01*
X0321370Y0071298D01*
X0321463Y0071522D01*
X0321608Y0071717D01*
X0321704Y0072104D01*
X0321857Y0072474D01*
X0321857Y0072716D01*
X0321916Y0072952D01*
X0321857Y0073347D01*
X0321857Y0094598D01*
X0325916Y0094598D01*
X0326798Y0094963D01*
X0327474Y0095639D01*
X0327728Y0096253D01*
X0327936Y0095893D01*
X0328271Y0095558D01*
X0328681Y0095321D01*
X0329139Y0095198D01*
X0330951Y0095198D01*
X0332763Y0095198D01*
X0333220Y0095321D01*
X0333631Y0095558D01*
X0333966Y0095893D01*
X0334203Y0096303D01*
X0334326Y0096761D01*
X0334326Y0099360D01*
X0330951Y0099360D01*
X0330951Y0099360D01*
X0330951Y0095198D01*
X0330951Y0099360D01*
X0330951Y0099360D01*
X0334326Y0099360D01*
X0334326Y0101959D01*
X0334203Y0102417D01*
X0333966Y0102828D01*
X0333631Y0103163D01*
X0333220Y0103400D01*
X0332763Y0103522D01*
X0330951Y0103522D01*
X0330951Y0099360D01*
X0330951Y0099360D01*
X0330951Y0103522D01*
X0329139Y0103522D01*
X0328681Y0103400D01*
X0328271Y0103163D01*
X0327936Y0102828D01*
X0327728Y0102468D01*
X0327474Y0103082D01*
X0326798Y0103757D01*
X0325916Y0104122D01*
X0321857Y0104122D01*
X0321857Y0108862D01*
X0321892Y0108734D01*
X0322129Y0108324D01*
X0322464Y0107989D01*
X0322874Y0107752D01*
X0323332Y0107629D01*
X0325931Y0107629D01*
X0325931Y0110610D01*
X0325931Y0110610D01*
X0325931Y0107629D01*
X0328530Y0107629D01*
X0328988Y0107752D01*
X0329399Y0107989D01*
X0329734Y0108324D01*
X0329971Y0108734D01*
X0330093Y0109192D01*
X0330093Y0110610D01*
X0325931Y0110610D01*
X0325931Y0110610D01*
X0330093Y0110610D01*
X0330093Y0112028D01*
X0329991Y0112410D01*
X0336289Y0112410D01*
X0336505Y0111889D01*
X0337180Y0111213D01*
X0338062Y0110848D01*
X0342166Y0110848D01*
X0343048Y0111213D01*
X0343657Y0111822D01*
X0344266Y0111213D01*
X0345149Y0110848D01*
X0349253Y0110848D01*
X0350135Y0111213D01*
X0350810Y0111889D01*
X0351026Y0112410D01*
X0352963Y0112410D01*
X0353226Y0112147D01*
X0353226Y0111029D01*
X0353863Y0109492D01*
X0355039Y0108316D01*
X0356576Y0107679D01*
X0358239Y0107679D01*
X0359776Y0108316D01*
X0360952Y0109492D01*
X0361589Y0111029D01*
X0361589Y0112692D01*
X0361555Y0112773D01*
X0361807Y0113383D01*
X0361807Y0115917D01*
X0362213Y0115683D01*
X0362670Y0115560D01*
X0364957Y0115560D01*
X0364957Y0119160D01*
X0365357Y0119160D01*
X0365357Y0115560D01*
X0367644Y0115560D01*
X0368102Y0115683D01*
X0368513Y0115920D01*
X0368848Y0116255D01*
X0369085Y0116665D01*
X0369207Y0117123D01*
X0369207Y0119160D01*
X0365358Y0119160D01*
X0365358Y0119560D01*
X0369207Y0119560D01*
X0369207Y0121597D01*
X0369085Y0122055D01*
X0368848Y0122465D01*
X0368513Y0122801D01*
X0368102Y0123038D01*
X0367644Y0123160D01*
X0365357Y0123160D01*
X0365357Y0119560D01*
X0364957Y0119560D01*
X0364957Y0123160D01*
X0362670Y0123160D01*
X0362213Y0123038D01*
X0361807Y0122804D01*
X0361807Y0125338D01*
X0361555Y0125947D01*
X0361589Y0126029D01*
X0361589Y0127692D01*
X0360952Y0129229D01*
X0359776Y0130405D01*
X0358239Y0131041D01*
X0356576Y0131041D01*
X0355039Y0130405D01*
X0353863Y0129229D01*
X0353801Y0129079D01*
X0353801Y0131029D01*
X0354210Y0131439D01*
X0354576Y0132321D01*
X0354576Y0135174D01*
X0359845Y0142379D01*
X0360120Y0142654D01*
X0360217Y0142888D01*
X0360366Y0143092D01*
X0360458Y0143470D01*
X0360607Y0143830D01*
X0360607Y0144083D01*
X0360667Y0144329D01*
X0360607Y0144714D01*
X0360607Y0146240D01*
X0361945Y0147578D01*
X0362760Y0149545D01*
X0362760Y0151675D01*
X0361945Y0153642D01*
X0360440Y0155148D01*
X0358472Y0155963D01*
X0356343Y0155963D01*
X0354375Y0155148D01*
X0352870Y0153642D01*
X0352055Y0151675D01*
X0352055Y0149545D01*
X0352870Y0147578D01*
X0354207Y0146240D01*
X0354207Y0145512D01*
X0350119Y0139922D01*
X0348549Y0139922D01*
X0347666Y0139557D01*
X0347057Y0138948D01*
X0346448Y0139557D01*
X0345566Y0139922D01*
X0344195Y0139922D01*
X0340607Y0145332D01*
X0340607Y0146240D01*
X0341945Y0147578D01*
X0342760Y0149545D01*
X0342760Y0151675D01*
X0341945Y0153642D01*
X0340440Y0155148D01*
X0338472Y0155963D01*
X0336343Y0155963D01*
X0334375Y0155148D01*
X0332870Y0153642D01*
X0332055Y0151675D01*
X0332055Y0149545D01*
X0332870Y0147578D01*
X0334207Y0146240D01*
X0334207Y0144688D01*
X0334145Y0144378D01*
X0334207Y0144057D01*
X0334207Y0143730D01*
X0334328Y0143439D01*
X0334389Y0143129D01*
X0334570Y0142856D01*
X0334695Y0142554D01*
X0334918Y0142331D01*
X0339539Y0135364D01*
X0339539Y0132321D01*
X0339905Y0131439D01*
X0340580Y0130763D01*
X0340657Y0130731D01*
X0340657Y0127872D01*
X0338062Y0127872D01*
X0337180Y0127507D01*
X0336505Y0126832D01*
X0336289Y0126310D01*
X0335224Y0126310D01*
X0334911Y0126373D01*
X0334594Y0126310D01*
X0334271Y0126310D01*
X0333976Y0126188D01*
X0333662Y0126126D01*
X0333393Y0125947D01*
X0333095Y0125823D01*
X0332869Y0125597D01*
X0330693Y0124147D01*
X0330693Y0127269D01*
X0330328Y0128151D01*
X0329653Y0128826D01*
X0328771Y0129191D01*
X0323091Y0129191D01*
X0322209Y0128826D01*
X0322194Y0128810D01*
X0320521Y0128810D01*
X0319345Y0128323D01*
X0316845Y0125823D01*
X0315945Y0124923D01*
X0315457Y0123747D01*
X0315457Y0074922D01*
X0311521Y0072560D01*
X0305133Y0072560D01*
X0306370Y0073798D01*
X0306857Y0074974D01*
X0306857Y0107085D01*
X0307606Y0107395D01*
X0308281Y0108070D01*
X0308646Y0108952D01*
X0308646Y0112269D01*
X0308297Y0113110D01*
X0308646Y0113952D01*
X0308646Y0117269D01*
X0308505Y0117610D01*
X0310504Y0117610D01*
X0311607Y0118067D01*
X0312451Y0118911D01*
X0314951Y0121411D01*
X0315407Y0122513D01*
X0315407Y0129957D01*
X0314951Y0131060D01*
X0314107Y0131904D01*
X0313400Y0132610D01*
X0321754Y0132610D01*
X0322857Y0133067D01*
X0325357Y0135567D01*
X0326201Y0136411D01*
X0326657Y0137513D01*
X0326657Y0156868D01*
X0327400Y0157610D01*
X0367033Y0157610D01*
X0367158Y0157485D01*
X0366761Y0157088D01*
X0366395Y0156206D01*
X0366395Y0152101D01*
X0366761Y0151219D01*
X0367436Y0150544D01*
X0368050Y0150290D01*
X0367690Y0150082D01*
X0367355Y0149747D01*
X0367118Y0149337D01*
X0366995Y0148879D01*
X0366995Y0147067D01*
X0371157Y0147067D01*
X0371157Y0147067D01*
X0366995Y0147067D01*
X0366995Y0145255D01*
X0367118Y0144797D01*
X0367355Y0144387D01*
X0367690Y0144052D01*
X0368100Y0143815D01*
X0368558Y0143692D01*
X0371157Y0143692D01*
X0371157Y0147067D01*
X0371158Y0147067D01*
X0375320Y0147067D01*
X0375320Y0148879D01*
X0375197Y0149337D01*
X0374960Y0149747D01*
X0374625Y0150082D01*
X0374265Y0150290D01*
X0374879Y0150544D01*
X0375554Y0151219D01*
X0375920Y0152101D01*
X0375920Y0156206D01*
X0375554Y0157088D01*
X0375157Y0157485D01*
X0375554Y0157883D01*
X0375920Y0158765D01*
X0375920Y0162869D01*
X0375554Y0163751D01*
X0374945Y0164360D01*
X0375554Y0164969D01*
X0375920Y0165851D01*
X0375920Y0167860D01*
X0376784Y0167860D01*
X0380907Y0162912D01*
X0380907Y0111065D01*
X0381516Y0109594D01*
X0385266Y0105844D01*
X0386392Y0104719D01*
X0387862Y0104110D01*
X0391944Y0104110D01*
X0392236Y0103405D01*
X0393952Y0101689D01*
X0394754Y0101357D01*
X0396516Y0099594D01*
X0397642Y0098469D01*
X0399112Y0097860D01*
X0401307Y0097860D01*
X0401307Y0097683D01*
X0401673Y0096801D01*
X0402348Y0096126D01*
X0403230Y0095760D01*
X0411585Y0095760D01*
X0412467Y0096126D01*
X0413142Y0096801D01*
X0413507Y0097683D01*
X0413507Y0106038D01*
X0413142Y0106920D01*
X0412467Y0107595D01*
X0411973Y0107799D01*
X0412579Y0108405D01*
X0413507Y0110647D01*
X0413507Y0113074D01*
X0412579Y0115316D01*
X0411034Y0116860D01*
X0412579Y0118405D01*
X0412685Y0118660D01*
X0419294Y0118660D01*
X0420470Y0119147D01*
X0422620Y0121298D01*
X0423107Y0122474D01*
X0423107Y0183747D01*
X0422620Y0184923D01*
X0421720Y0185823D01*
X0419220Y0188323D01*
X0418044Y0188810D01*
X0412685Y0188810D01*
X0412579Y0189066D01*
X0410863Y0190782D01*
X0410389Y0190978D01*
X0410990Y0191415D01*
X0411603Y0192027D01*
X0412111Y0192728D01*
X0412505Y0193499D01*
X0412772Y0194322D01*
X0412907Y0195177D01*
X0412907Y0195426D01*
X0407592Y0195426D01*
X0407592Y0195794D01*
X0412907Y0195794D01*
X0412907Y0196043D01*
X0412772Y0196898D01*
X0412505Y0197721D01*
X0412111Y0198493D01*
X0411603Y0199193D01*
X0410990Y0199805D01*
X0410290Y0200314D01*
X0409519Y0200707D01*
X0408695Y0200975D01*
X0407840Y0201110D01*
X0407592Y0201110D01*
X0407592Y0195795D01*
X0407223Y0195795D01*
X0407223Y0201110D01*
X0406975Y0201110D01*
X0406120Y0200975D01*
X0405296Y0200707D01*
X0404525Y0200314D01*
X0403824Y0199805D01*
X0403212Y0199193D01*
X0402703Y0198493D01*
X0402310Y0197721D01*
X0402043Y0196898D01*
X0401907Y0196043D01*
X0401907Y0195794D01*
X0407223Y0195794D01*
X0407223Y0195426D01*
X0401907Y0195426D01*
X0401907Y0195177D01*
X0401990Y0194654D01*
X0400863Y0195782D01*
X0400389Y0195978D01*
X0400990Y0196415D01*
X0401603Y0197027D01*
X0402111Y0197728D01*
X0402505Y0198499D01*
X0402772Y0199322D01*
X0402907Y0200177D01*
X0402907Y0200426D01*
X0397592Y0200426D01*
X0397592Y0200794D01*
X0402907Y0200794D01*
X0402907Y0201043D01*
X0402772Y0201898D01*
X0402505Y0202721D01*
X0402111Y0203493D01*
X0401603Y0204193D01*
X0400990Y0204805D01*
X0400290Y0205314D01*
X0399519Y0205707D01*
X0398695Y0205975D01*
X0397840Y0206110D01*
X0397592Y0206110D01*
X0397592Y0200795D01*
X0397223Y0200795D01*
X0397223Y0206110D01*
X0396975Y0206110D01*
X0396120Y0205975D01*
X0395296Y0205707D01*
X0394525Y0205314D01*
X0393824Y0204805D01*
X0393212Y0204193D01*
X0392703Y0203493D01*
X0392310Y0202721D01*
X0392043Y0201898D01*
X0391907Y0201043D01*
X0391907Y0200794D01*
X0397223Y0200794D01*
X0397223Y0200426D01*
X0391907Y0200426D01*
X0391907Y0200177D01*
X0392043Y0199322D01*
X0392310Y0198499D01*
X0392703Y0197728D01*
X0393212Y0197027D01*
X0393824Y0196415D01*
X0394426Y0195978D01*
X0393952Y0195782D01*
X0392236Y0194066D01*
X0391307Y0191824D01*
X0391307Y0189397D01*
X0392236Y0187155D01*
X0393781Y0185610D01*
X0392236Y0184066D01*
X0391307Y0181824D01*
X0391307Y0179397D01*
X0391859Y0178066D01*
X0387049Y0182876D01*
X0385923Y0184001D01*
X0384453Y0184610D01*
X0371747Y0184610D01*
X0360260Y0198012D01*
X0360260Y0199175D01*
X0359445Y0201142D01*
X0357940Y0202648D01*
X0355972Y0203463D01*
X0353843Y0203463D01*
X0352403Y0202867D01*
X0352232Y0203039D01*
X0351349Y0203404D01*
X0345395Y0203404D01*
X0344513Y0203039D01*
X0343837Y0202363D01*
X0343472Y0201481D01*
X0343472Y0194739D01*
X0343837Y0193857D01*
X0344407Y0193287D01*
X0344407Y0193172D01*
X0344382Y0192555D01*
X0344266Y0192507D01*
X0343657Y0191898D01*
X0343048Y0192507D01*
X0342166Y0192872D01*
X0338062Y0192872D01*
X0337180Y0192507D01*
X0336505Y0191832D01*
X0336206Y0191110D01*
X0334859Y0191110D01*
X0334560Y0191832D01*
X0333885Y0192507D01*
X0333138Y0192817D01*
X0334420Y0192817D01*
X0335302Y0193182D01*
X0335978Y0193857D01*
X0336343Y0194739D01*
X0336343Y0201481D01*
X0335978Y0202363D01*
X0335302Y0203039D01*
X0334420Y0203404D01*
X0331283Y0203404D01*
X0331690Y0203572D01*
X0333027Y0204910D01*
X0369294Y0204910D01*
X0370470Y0205397D01*
X0371370Y0206298D01*
X0374215Y0209142D01*
X0374702Y0210318D01*
X0374702Y0221854D01*
X0375224Y0222070D01*
X0375899Y0222745D01*
X0376264Y0223627D01*
X0376264Y0230094D01*
X0375899Y0230976D01*
X0375224Y0231651D01*
X0374342Y0232016D01*
X0368662Y0232016D01*
X0367780Y0231651D01*
X0367105Y0230976D01*
X0366740Y0230094D01*
X0366740Y0223627D01*
X0367105Y0222745D01*
X0367780Y0222070D01*
X0368302Y0221854D01*
X0368302Y0212280D01*
X0367332Y0211310D01*
X0333027Y0211310D01*
X0332257Y0212080D01*
X0332257Y0233826D01*
X0331709Y0235149D01*
X0330085Y0236773D01*
X0329073Y0237786D01*
X0327750Y0238334D01*
X0325774Y0238334D01*
X0325519Y0238590D01*
X0324637Y0238955D01*
X0317383Y0238955D01*
X0316501Y0238590D01*
X0315871Y0237960D01*
X0312941Y0237960D01*
X0311618Y0237412D01*
X0310916Y0236710D01*
X0309944Y0236710D01*
X0307702Y0235782D01*
X0305986Y0234066D01*
X0305057Y0231824D01*
X0305057Y0229397D01*
X0305986Y0227155D01*
X0307531Y0225610D01*
X0305986Y0224066D01*
X0305057Y0221824D01*
X0305057Y0220634D01*
X0297050Y0220634D01*
X0297443Y0220920D01*
X0297994Y0221470D01*
X0298452Y0222101D01*
X0298805Y0222795D01*
X0299046Y0223536D01*
X0299168Y0224305D01*
X0299168Y0224695D01*
X0299168Y0225084D01*
X0299046Y0225854D01*
X0298805Y0226595D01*
X0298452Y0227289D01*
X0297994Y0227919D01*
X0297443Y0228470D01*
X0296813Y0228928D01*
X0296118Y0229282D01*
X0295378Y0229523D01*
X0294608Y0229644D01*
X0294219Y0229644D01*
X0294219Y0224695D01*
X0299168Y0224695D01*
X0294219Y0224695D01*
X0294219Y0224695D01*
X0294218Y0224695D01*
X0294218Y0229644D01*
X0293829Y0229644D01*
X0293059Y0229523D01*
X0292319Y0229282D01*
X0291624Y0228928D01*
X0290994Y0228470D01*
X0290706Y0228182D01*
X0290344Y0228543D01*
X0290344Y0233719D01*
X0290157Y0234170D01*
X0290157Y0235156D01*
X0289549Y0236626D01*
X0288423Y0237751D01*
X0286953Y0238360D01*
X0130362Y0238360D01*
X0128892Y0237751D01*
X0127766Y0236626D01*
X0124016Y0232876D01*
X0123407Y0231406D01*
X0123407Y0213447D01*
X0104536Y0193396D01*
X0104016Y0192876D01*
X0103992Y0192818D01*
X0103949Y0192772D01*
X0103689Y0192085D01*
X0103407Y0191406D01*
X0103407Y0191343D01*
X0103385Y0191284D01*
X0103407Y0190550D01*
X0103407Y0154610D01*
X0098019Y0154610D01*
X0096549Y0154001D01*
X0090299Y0147751D01*
X0089174Y0146626D01*
X0088565Y0145156D01*
X0088565Y0115594D01*
X0087565Y0114594D01*
X0085907Y0116252D01*
X0083739Y0117150D01*
X0081391Y0117150D01*
X0079223Y0116252D01*
X0077563Y0114592D01*
X0077465Y0114355D01*
X0077465Y0118219D01*
X0075958Y0121858D01*
X0073173Y0124643D01*
X0069534Y0126150D01*
X0065596Y0126150D01*
X0061957Y0124643D01*
X0061156Y0123842D01*
X0061156Y0178658D01*
X0061957Y0177857D01*
X0065596Y0176350D01*
X0069534Y0176350D01*
X0073173Y0177857D01*
X0075958Y0180642D01*
X0077465Y0184281D01*
X0077465Y0188219D01*
X0075958Y0191858D01*
X0073173Y0194643D01*
X0069534Y0196150D01*
X0065596Y0196150D01*
X0061957Y0194643D01*
X0061156Y0193842D01*
X0061156Y0210177D01*
X0061223Y0211033D01*
X0061753Y0212662D01*
X0062759Y0214048D01*
X0064145Y0215055D01*
X0065774Y0215584D01*
X0066630Y0215651D01*
X0084005Y0215651D01*
X0087100Y0216657D01*
X0087100Y0216657D01*
X0089733Y0218570D01*
X0091646Y0221203D01*
X0092652Y0224298D01*
X0092652Y0237736D01*
X0092719Y0238593D01*
X0093249Y0240221D01*
X0094255Y0241607D01*
X0095641Y0242614D01*
X0097270Y0243143D01*
X0098126Y0243210D01*
X0413087Y0243210D01*
X0413943Y0243143D01*
X0415572Y0242614D01*
X0416957Y0241607D01*
X0417964Y0240221D01*
X0418493Y0238593D01*
X0418561Y0237736D01*
X0418561Y0224298D01*
X0419566Y0221203D01*
X0419566Y0221203D01*
X0421479Y0218570D01*
X0421479Y0218570D01*
X0421479Y0218570D01*
X0424112Y0216657D01*
X0427207Y0215651D01*
X0444583Y0215651D01*
X0445439Y0215584D01*
X0447068Y0215055D01*
X0448453Y0214048D01*
X0449460Y0212662D01*
X0449989Y0211033D01*
X0450057Y0210177D01*
X0450057Y0092067D01*
X0449989Y0091211D01*
X0449460Y0089582D01*
X0448453Y0088196D01*
X0447068Y0087190D01*
X0445439Y0086660D01*
X0444583Y0086593D01*
X0427207Y0086593D01*
X0424112Y0085587D01*
X0421479Y0083674D01*
X0419566Y0081041D01*
X0418561Y0077946D01*
X0418561Y0064508D01*
X0418493Y0063652D01*
X0417964Y0062023D01*
X0416957Y0060637D01*
X0415572Y0059630D01*
X0413943Y0059101D01*
X0413087Y0059034D01*
X0098126Y0059034D01*
X0097270Y0059101D01*
X0094292Y0060610D02*
X0416920Y0060610D01*
X0418024Y0062209D02*
X0404728Y0062209D01*
X0404498Y0062147D02*
X0407111Y0062847D01*
X0409454Y0064200D01*
X0411367Y0066113D01*
X0412720Y0068456D01*
X0413420Y0071069D01*
X0413420Y0073774D01*
X0412720Y0076387D01*
X0411367Y0078730D01*
X0409454Y0080643D01*
X0407111Y0081995D01*
X0404498Y0082695D01*
X0401793Y0082695D01*
X0399180Y0081995D01*
X0396837Y0080643D01*
X0394924Y0078730D01*
X0393572Y0076387D01*
X0392872Y0073774D01*
X0392872Y0071069D01*
X0393572Y0068456D01*
X0394924Y0066113D01*
X0396837Y0064200D01*
X0399180Y0062847D01*
X0401793Y0062147D01*
X0404498Y0062147D01*
X0401564Y0062209D02*
X0109452Y0062209D01*
X0109223Y0062147D02*
X0111836Y0062847D01*
X0114178Y0064200D01*
X0116091Y0066113D01*
X0117444Y0068456D01*
X0118144Y0071069D01*
X0118144Y0073774D01*
X0117444Y0076387D01*
X0116091Y0078730D01*
X0114178Y0080643D01*
X0111836Y0081995D01*
X0109223Y0082695D01*
X0106517Y0082695D01*
X0103904Y0081995D01*
X0101562Y0080643D01*
X0099649Y0078730D01*
X0098296Y0076387D01*
X0097596Y0073774D01*
X0097596Y0071069D01*
X0098296Y0068456D01*
X0099649Y0066113D01*
X0101562Y0064200D01*
X0103904Y0062847D01*
X0106517Y0062147D01*
X0109223Y0062147D01*
X0106288Y0062209D02*
X0093188Y0062209D01*
X0092707Y0063807D02*
X0102242Y0063807D01*
X0100356Y0065406D02*
X0092652Y0065406D01*
X0092652Y0067004D02*
X0099134Y0067004D01*
X0098257Y0068603D02*
X0092652Y0068603D01*
X0092652Y0070201D02*
X0097828Y0070201D01*
X0097596Y0071800D02*
X0092652Y0071800D01*
X0092652Y0073398D02*
X0097596Y0073398D01*
X0097924Y0074997D02*
X0092652Y0074997D01*
X0092652Y0076595D02*
X0098417Y0076595D01*
X0099339Y0078194D02*
X0092571Y0078194D01*
X0092052Y0079792D02*
X0100712Y0079792D01*
X0102858Y0081391D02*
X0091392Y0081391D01*
X0090231Y0082989D02*
X0123807Y0082989D01*
X0123807Y0081391D02*
X0112882Y0081391D01*
X0115029Y0079792D02*
X0123807Y0079792D01*
X0123807Y0078194D02*
X0116401Y0078194D01*
X0117324Y0076595D02*
X0123807Y0076595D01*
X0123807Y0074997D02*
X0117816Y0074997D01*
X0118144Y0073398D02*
X0124528Y0073398D01*
X0126127Y0071800D02*
X0118144Y0071800D01*
X0117912Y0070201D02*
X0127725Y0070201D01*
X0129324Y0068603D02*
X0117483Y0068603D01*
X0116606Y0067004D02*
X0142291Y0067004D01*
X0147524Y0067004D02*
X0248988Y0067004D01*
X0251157Y0069360D02*
X0249282Y0071235D01*
X0251157Y0069360D02*
X0312407Y0069360D01*
X0318657Y0073110D01*
X0318657Y0099360D01*
X0323864Y0099360D01*
X0327531Y0095777D02*
X0328051Y0095777D01*
X0330951Y0095777D02*
X0330951Y0095777D01*
X0330951Y0097376D02*
X0330951Y0097376D01*
X0330951Y0098975D02*
X0330951Y0098975D01*
X0330951Y0100573D02*
X0330951Y0100573D01*
X0330951Y0102172D02*
X0330951Y0102172D01*
X0334269Y0102172D02*
X0369413Y0102172D01*
X0369827Y0101172D02*
X0371721Y0099278D01*
X0374195Y0098254D01*
X0376872Y0098254D01*
X0379346Y0099278D01*
X0381239Y0101172D01*
X0382264Y0103645D01*
X0382264Y0106323D01*
X0381239Y0108797D01*
X0379346Y0110690D01*
X0376872Y0111715D01*
X0374195Y0111715D01*
X0371721Y0110690D01*
X0369827Y0108797D01*
X0368803Y0106323D01*
X0368803Y0103645D01*
X0369827Y0101172D01*
X0370426Y0100573D02*
X0334326Y0100573D01*
X0334326Y0098975D02*
X0372454Y0098975D01*
X0378613Y0098975D02*
X0397136Y0098975D01*
X0395538Y0100573D02*
X0380641Y0100573D01*
X0381654Y0102172D02*
X0393469Y0102172D01*
X0392085Y0103770D02*
X0382264Y0103770D01*
X0382264Y0105369D02*
X0385742Y0105369D01*
X0384144Y0106967D02*
X0381997Y0106967D01*
X0382545Y0108566D02*
X0381335Y0108566D01*
X0381280Y0110164D02*
X0379872Y0110164D01*
X0380907Y0111763D02*
X0361589Y0111763D01*
X0361798Y0113361D02*
X0380907Y0113361D01*
X0380907Y0114960D02*
X0361807Y0114960D01*
X0364957Y0116558D02*
X0365357Y0116558D01*
X0365357Y0118157D02*
X0364957Y0118157D01*
X0364957Y0119755D02*
X0365357Y0119755D01*
X0365357Y0121354D02*
X0364957Y0121354D01*
X0364957Y0122952D02*
X0365357Y0122952D01*
X0368250Y0122952D02*
X0380907Y0122952D01*
X0380907Y0121354D02*
X0369207Y0121354D01*
X0369207Y0119755D02*
X0380907Y0119755D01*
X0380907Y0118157D02*
X0369207Y0118157D01*
X0369023Y0116558D02*
X0380907Y0116558D01*
X0388907Y0116558D02*
X0391307Y0116558D01*
X0391307Y0115647D02*
X0391307Y0118074D01*
X0392236Y0120316D01*
X0393781Y0121860D01*
X0392236Y0123405D01*
X0391307Y0125647D01*
X0391307Y0128074D01*
X0392236Y0130316D01*
X0393952Y0132032D01*
X0394426Y0132228D01*
X0393824Y0132665D01*
X0393212Y0133277D01*
X0392703Y0133978D01*
X0392310Y0134749D01*
X0392043Y0135572D01*
X0391907Y0136427D01*
X0391907Y0136676D01*
X0397223Y0136676D01*
X0397223Y0137044D01*
X0391907Y0137044D01*
X0391907Y0137293D01*
X0392043Y0138148D01*
X0392310Y0138971D01*
X0392703Y0139743D01*
X0393212Y0140443D01*
X0393824Y0141055D01*
X0394525Y0141564D01*
X0395296Y0141957D01*
X0396120Y0142225D01*
X0396975Y0142360D01*
X0397223Y0142360D01*
X0397223Y0137045D01*
X0397592Y0137045D01*
X0397592Y0142360D01*
X0397840Y0142360D01*
X0398695Y0142225D01*
X0399519Y0141957D01*
X0400290Y0141564D01*
X0400990Y0141055D01*
X0401603Y0140443D01*
X0402111Y0139743D01*
X0402505Y0138971D01*
X0402772Y0138148D01*
X0402907Y0137293D01*
X0402907Y0137044D01*
X0397592Y0137044D01*
X0397592Y0136676D01*
X0402907Y0136676D01*
X0402907Y0136427D01*
X0402772Y0135572D01*
X0402505Y0134749D01*
X0402111Y0133978D01*
X0401603Y0133277D01*
X0400990Y0132665D01*
X0400389Y0132228D01*
X0400863Y0132032D01*
X0401990Y0130904D01*
X0401907Y0131427D01*
X0401907Y0131676D01*
X0407223Y0131676D01*
X0407223Y0132044D01*
X0401907Y0132044D01*
X0401907Y0132293D01*
X0402043Y0133148D01*
X0402310Y0133971D01*
X0402703Y0134743D01*
X0403212Y0135443D01*
X0403824Y0136055D01*
X0404525Y0136564D01*
X0405296Y0136957D01*
X0406120Y0137225D01*
X0406975Y0137360D01*
X0407223Y0137360D01*
X0407223Y0132045D01*
X0407592Y0132045D01*
X0407592Y0137360D01*
X0407840Y0137360D01*
X0408695Y0137225D01*
X0409519Y0136957D01*
X0410290Y0136564D01*
X0410990Y0136055D01*
X0411603Y0135443D01*
X0412111Y0134743D01*
X0412505Y0133971D01*
X0412772Y0133148D01*
X0412907Y0132293D01*
X0412907Y0132044D01*
X0407592Y0132044D01*
X0407592Y0131676D01*
X0412907Y0131676D01*
X0412907Y0131427D01*
X0412772Y0130572D01*
X0412505Y0129749D01*
X0412111Y0128978D01*
X0411603Y0128277D01*
X0410990Y0127665D01*
X0410389Y0127228D01*
X0410863Y0127032D01*
X0412579Y0125316D01*
X0412685Y0125060D01*
X0416707Y0125060D01*
X0416707Y0181785D01*
X0416082Y0182410D01*
X0412685Y0182410D01*
X0412579Y0182155D01*
X0411034Y0180610D01*
X0412579Y0179066D01*
X0413507Y0176824D01*
X0413507Y0174397D01*
X0412579Y0172155D01*
X0411973Y0171549D01*
X0412467Y0171345D01*
X0413142Y0170670D01*
X0413507Y0169788D01*
X0413507Y0161433D01*
X0413142Y0160551D01*
X0412467Y0159876D01*
X0411585Y0159510D01*
X0403230Y0159510D01*
X0402348Y0159876D01*
X0401673Y0160551D01*
X0401307Y0161433D01*
X0401307Y0161736D01*
X0400142Y0162219D01*
X0397851Y0164510D01*
X0396194Y0164510D01*
X0393952Y0165439D01*
X0392723Y0166668D01*
X0391392Y0167219D01*
X0382001Y0176610D01*
X0370545Y0176610D01*
X0370394Y0176561D01*
X0369754Y0176610D01*
X0369112Y0176610D01*
X0368965Y0176671D01*
X0368807Y0176683D01*
X0368235Y0176973D01*
X0367642Y0177219D01*
X0367530Y0177331D01*
X0367388Y0177403D01*
X0366970Y0177890D01*
X0366516Y0178344D01*
X0366456Y0178491D01*
X0354227Y0192757D01*
X0353843Y0192757D01*
X0352403Y0193354D01*
X0352232Y0193182D01*
X0351349Y0192817D01*
X0350407Y0192817D01*
X0350407Y0192513D01*
X0350383Y0192454D01*
X0350375Y0192267D01*
X0350810Y0191832D01*
X0351176Y0190950D01*
X0351176Y0185271D01*
X0350810Y0184389D01*
X0350135Y0183713D01*
X0349253Y0183348D01*
X0345149Y0183348D01*
X0344266Y0183713D01*
X0343657Y0184322D01*
X0343048Y0183713D01*
X0342907Y0183655D01*
X0342907Y0163763D01*
X0342844Y0163610D01*
X0366702Y0163610D01*
X0366761Y0163751D01*
X0367370Y0164360D01*
X0366761Y0164969D01*
X0366395Y0165851D01*
X0366395Y0167860D01*
X0354112Y0167860D01*
X0352642Y0168469D01*
X0351516Y0169594D01*
X0349544Y0171567D01*
X0345395Y0171567D01*
X0344513Y0171932D01*
X0343837Y0172607D01*
X0343472Y0173489D01*
X0343472Y0180231D01*
X0343837Y0181113D01*
X0344513Y0181789D01*
X0345395Y0182154D01*
X0351349Y0182154D01*
X0352232Y0181789D01*
X0352874Y0181146D01*
X0353125Y0181398D01*
X0355093Y0182213D01*
X0357222Y0182213D01*
X0359190Y0181398D01*
X0360695Y0179892D01*
X0361510Y0177925D01*
X0361510Y0175860D01*
X0378049Y0175860D01*
X0378227Y0175916D01*
X0378839Y0175860D01*
X0379453Y0175860D01*
X0379626Y0175789D01*
X0379812Y0175772D01*
X0380356Y0175486D01*
X0380923Y0175251D01*
X0381055Y0175119D01*
X0381221Y0175032D01*
X0381614Y0174560D01*
X0382049Y0174126D01*
X0382120Y0173953D01*
X0387864Y0167060D01*
X0388299Y0166626D01*
X0388370Y0166453D01*
X0388490Y0166310D01*
X0388672Y0165723D01*
X0388907Y0165156D01*
X0388907Y0164969D01*
X0388963Y0164790D01*
X0388907Y0164179D01*
X0388907Y0113517D01*
X0390314Y0112110D01*
X0393531Y0112110D01*
X0392236Y0113405D01*
X0391307Y0115647D01*
X0391592Y0114960D02*
X0388907Y0114960D01*
X0389063Y0113361D02*
X0392280Y0113361D01*
X0391342Y0118157D02*
X0388907Y0118157D01*
X0388907Y0119755D02*
X0392004Y0119755D01*
X0393274Y0121354D02*
X0388907Y0121354D01*
X0388907Y0122952D02*
X0392689Y0122952D01*
X0391762Y0124551D02*
X0388907Y0124551D01*
X0388907Y0126149D02*
X0391307Y0126149D01*
X0391307Y0127748D02*
X0388907Y0127748D01*
X0388907Y0129346D02*
X0391835Y0129346D01*
X0392865Y0130945D02*
X0388907Y0130945D01*
X0388907Y0132543D02*
X0393992Y0132543D01*
X0392620Y0134142D02*
X0388907Y0134142D01*
X0388907Y0135740D02*
X0392016Y0135740D01*
X0391915Y0137339D02*
X0388907Y0137339D01*
X0388907Y0138937D02*
X0392299Y0138937D01*
X0393305Y0140536D02*
X0388907Y0140536D01*
X0388907Y0142134D02*
X0395841Y0142134D01*
X0397223Y0142134D02*
X0397592Y0142134D01*
X0398974Y0142134D02*
X0416707Y0142134D01*
X0416707Y0140536D02*
X0401510Y0140536D01*
X0402516Y0138937D02*
X0416707Y0138937D01*
X0416707Y0137339D02*
X0407976Y0137339D01*
X0407592Y0137339D02*
X0407223Y0137339D01*
X0406839Y0137339D02*
X0402900Y0137339D01*
X0402799Y0135740D02*
X0403509Y0135740D01*
X0402397Y0134142D02*
X0402195Y0134142D01*
X0401947Y0132543D02*
X0400823Y0132543D01*
X0401950Y0130945D02*
X0401984Y0130945D01*
X0407223Y0132543D02*
X0407592Y0132543D01*
X0407592Y0134142D02*
X0407223Y0134142D01*
X0407223Y0135740D02*
X0407592Y0135740D01*
X0411306Y0135740D02*
X0416707Y0135740D01*
X0416707Y0134142D02*
X0412418Y0134142D01*
X0412868Y0132543D02*
X0416707Y0132543D01*
X0416707Y0130945D02*
X0412831Y0130945D01*
X0412299Y0129346D02*
X0416707Y0129346D01*
X0416707Y0127748D02*
X0411073Y0127748D01*
X0411745Y0126149D02*
X0416707Y0126149D01*
X0419907Y0123110D02*
X0418657Y0121860D01*
X0407407Y0121860D01*
X0402407Y0121860D01*
X0397407Y0126860D01*
X0380907Y0126149D02*
X0361589Y0126149D01*
X0361565Y0127748D02*
X0380907Y0127748D01*
X0380907Y0129346D02*
X0360834Y0129346D01*
X0358472Y0130945D02*
X0380907Y0130945D01*
X0380907Y0132543D02*
X0354576Y0132543D01*
X0354576Y0134142D02*
X0380907Y0134142D01*
X0380907Y0135740D02*
X0354990Y0135740D01*
X0356159Y0137339D02*
X0380907Y0137339D01*
X0380907Y0138937D02*
X0357328Y0138937D01*
X0358497Y0140536D02*
X0380907Y0140536D01*
X0380907Y0142134D02*
X0359666Y0142134D01*
X0360567Y0143733D02*
X0368406Y0143733D01*
X0366995Y0145331D02*
X0360607Y0145331D01*
X0361297Y0146930D02*
X0366995Y0146930D01*
X0366995Y0148528D02*
X0362339Y0148528D01*
X0362760Y0150127D02*
X0367768Y0150127D01*
X0366551Y0151725D02*
X0362739Y0151725D01*
X0362077Y0153324D02*
X0366395Y0153324D01*
X0366395Y0154922D02*
X0360665Y0154922D01*
X0366526Y0156521D02*
X0326657Y0156521D01*
X0326657Y0154922D02*
X0334150Y0154922D01*
X0332738Y0153324D02*
X0326657Y0153324D01*
X0326657Y0151725D02*
X0332076Y0151725D01*
X0332055Y0150127D02*
X0326657Y0150127D01*
X0326657Y0148528D02*
X0332476Y0148528D01*
X0333518Y0146930D02*
X0326657Y0146930D01*
X0326657Y0145331D02*
X0334207Y0145331D01*
X0334207Y0143733D02*
X0326657Y0143733D01*
X0326657Y0142134D02*
X0335048Y0142134D01*
X0336109Y0140536D02*
X0326657Y0140536D01*
X0326657Y0138937D02*
X0337169Y0138937D01*
X0338229Y0137339D02*
X0326585Y0137339D01*
X0325530Y0135740D02*
X0339290Y0135740D01*
X0339539Y0134142D02*
X0323932Y0134142D01*
X0318769Y0127748D02*
X0315407Y0127748D01*
X0315407Y0129346D02*
X0340657Y0129346D01*
X0340399Y0130945D02*
X0314998Y0130945D01*
X0313467Y0132543D02*
X0339539Y0132543D01*
X0343514Y0134504D02*
X0343514Y0135160D01*
X0337407Y0144367D01*
X0337407Y0150610D01*
X0342339Y0148528D02*
X0352476Y0148528D01*
X0352055Y0150127D02*
X0342760Y0150127D01*
X0342739Y0151725D02*
X0352076Y0151725D01*
X0352738Y0153324D02*
X0342077Y0153324D01*
X0340665Y0154922D02*
X0354150Y0154922D01*
X0357407Y0150610D02*
X0357407Y0144467D01*
X0350601Y0135160D01*
X0350601Y0127210D01*
X0347201Y0123110D01*
X0355657Y0123110D01*
X0357157Y0122860D01*
X0357407Y0123110D01*
X0357407Y0126860D01*
X0353980Y0129346D02*
X0353801Y0129346D01*
X0353801Y0130945D02*
X0356343Y0130945D01*
X0361807Y0124551D02*
X0380907Y0124551D01*
X0362065Y0122952D02*
X0361807Y0122952D01*
X0357157Y0115860D02*
X0357157Y0112110D01*
X0357407Y0111860D01*
X0357157Y0115860D02*
X0355657Y0115610D01*
X0347201Y0115610D01*
X0346157Y0115610D01*
X0343717Y0111763D02*
X0343598Y0111763D01*
X0340114Y0115610D02*
X0325931Y0115610D01*
X0330093Y0111763D02*
X0336631Y0111763D01*
X0330093Y0110164D02*
X0353584Y0110164D01*
X0353226Y0111763D02*
X0350684Y0111763D01*
X0354789Y0108566D02*
X0329873Y0108566D01*
X0325931Y0108566D02*
X0325931Y0108566D01*
X0325931Y0110164D02*
X0325931Y0110164D01*
X0321989Y0108566D02*
X0321857Y0108566D01*
X0321857Y0106967D02*
X0369070Y0106967D01*
X0368803Y0105369D02*
X0321857Y0105369D01*
X0326767Y0103770D02*
X0368803Y0103770D01*
X0369732Y0108566D02*
X0360026Y0108566D01*
X0361230Y0110164D02*
X0371195Y0110164D01*
X0401435Y0097376D02*
X0334326Y0097376D01*
X0333851Y0095777D02*
X0403188Y0095777D01*
X0411627Y0095777D02*
X0423708Y0095777D01*
X0423708Y0095130D02*
X0425033Y0091933D01*
X0427480Y0089485D01*
X0430677Y0088161D01*
X0434138Y0088161D01*
X0437335Y0089485D01*
X0439782Y0091933D01*
X0441107Y0095130D01*
X0441107Y0098591D01*
X0439782Y0101788D01*
X0437335Y0104235D01*
X0434138Y0105559D01*
X0430677Y0105559D01*
X0427480Y0104235D01*
X0425033Y0101788D01*
X0423708Y0098591D01*
X0423708Y0095130D01*
X0424102Y0094179D02*
X0321857Y0094179D01*
X0321857Y0092580D02*
X0424764Y0092580D01*
X0425983Y0090982D02*
X0321857Y0090982D01*
X0321857Y0089383D02*
X0427726Y0089383D01*
X0425956Y0086186D02*
X0321857Y0086186D01*
X0321857Y0084588D02*
X0422737Y0084588D01*
X0421479Y0083674D02*
X0421479Y0083674D01*
X0421479Y0083674D01*
X0420982Y0082989D02*
X0321857Y0082989D01*
X0321857Y0081391D02*
X0326033Y0081391D01*
X0326541Y0081899D02*
X0324869Y0080227D01*
X0323964Y0078042D01*
X0323964Y0075678D01*
X0324869Y0073494D01*
X0326541Y0071822D01*
X0328725Y0070917D01*
X0331090Y0070917D01*
X0333274Y0071822D01*
X0334946Y0073494D01*
X0335851Y0075678D01*
X0335851Y0078042D01*
X0334946Y0080227D01*
X0333274Y0081899D01*
X0331090Y0082804D01*
X0328725Y0082804D01*
X0326541Y0081899D01*
X0324689Y0079792D02*
X0321857Y0079792D01*
X0321857Y0078194D02*
X0324027Y0078194D01*
X0323964Y0076595D02*
X0321857Y0076595D01*
X0321857Y0074997D02*
X0324246Y0074997D01*
X0324964Y0073398D02*
X0321857Y0073398D01*
X0321628Y0071800D02*
X0326594Y0071800D01*
X0333221Y0071800D02*
X0365224Y0071800D01*
X0365296Y0071763D02*
X0366120Y0071496D01*
X0366975Y0071360D01*
X0367207Y0071360D01*
X0367207Y0076660D01*
X0361907Y0076660D01*
X0361907Y0076427D01*
X0362043Y0075572D01*
X0362310Y0074749D01*
X0362703Y0073978D01*
X0363212Y0073277D01*
X0363824Y0072665D01*
X0364525Y0072156D01*
X0365296Y0071763D01*
X0367207Y0071800D02*
X0367607Y0071800D01*
X0367607Y0071360D02*
X0367840Y0071360D01*
X0368695Y0071496D01*
X0369519Y0071763D01*
X0370290Y0072156D01*
X0370990Y0072665D01*
X0371603Y0073277D01*
X0372111Y0073978D01*
X0372505Y0074749D01*
X0372772Y0075572D01*
X0372907Y0076427D01*
X0372907Y0076660D01*
X0367608Y0076660D01*
X0367608Y0077060D01*
X0372907Y0077060D01*
X0372907Y0077293D01*
X0372772Y0078148D01*
X0372505Y0078971D01*
X0372111Y0079743D01*
X0371603Y0080443D01*
X0370990Y0081055D01*
X0370290Y0081564D01*
X0369519Y0081957D01*
X0368695Y0082225D01*
X0367840Y0082360D01*
X0367607Y0082360D01*
X0367607Y0077060D01*
X0367207Y0077060D01*
X0367207Y0076660D01*
X0367607Y0076660D01*
X0367607Y0071360D01*
X0369591Y0071800D02*
X0392872Y0071800D01*
X0392872Y0073398D02*
X0371691Y0073398D01*
X0372585Y0074997D02*
X0393199Y0074997D01*
X0393692Y0076595D02*
X0372907Y0076595D01*
X0372757Y0078194D02*
X0394615Y0078194D01*
X0395987Y0079792D02*
X0372076Y0079792D01*
X0370529Y0081391D02*
X0398134Y0081391D01*
X0408158Y0081391D02*
X0419820Y0081391D01*
X0419566Y0081041D02*
X0419566Y0081041D01*
X0419161Y0079792D02*
X0410304Y0079792D01*
X0411676Y0078194D02*
X0418641Y0078194D01*
X0418561Y0076595D02*
X0412599Y0076595D01*
X0413092Y0074997D02*
X0418561Y0074997D01*
X0418561Y0073398D02*
X0413420Y0073398D01*
X0413420Y0071800D02*
X0418561Y0071800D01*
X0418561Y0070201D02*
X0413187Y0070201D01*
X0412759Y0068603D02*
X0418561Y0068603D01*
X0418561Y0067004D02*
X0411882Y0067004D01*
X0410660Y0065406D02*
X0418561Y0065406D01*
X0418505Y0063807D02*
X0408774Y0063807D01*
X0397518Y0063807D02*
X0113498Y0063807D01*
X0115384Y0065406D02*
X0395631Y0065406D01*
X0394410Y0067004D02*
X0314701Y0067004D01*
X0317365Y0068603D02*
X0393532Y0068603D01*
X0393104Y0070201D02*
X0320029Y0070201D01*
X0315457Y0074997D02*
X0306857Y0074997D01*
X0306857Y0076595D02*
X0315457Y0076595D01*
X0315457Y0078194D02*
X0306857Y0078194D01*
X0306857Y0079792D02*
X0315457Y0079792D01*
X0315457Y0081391D02*
X0306857Y0081391D01*
X0306857Y0082989D02*
X0315457Y0082989D01*
X0315457Y0084588D02*
X0306857Y0084588D01*
X0306857Y0086186D02*
X0315457Y0086186D01*
X0315457Y0087785D02*
X0306857Y0087785D01*
X0306857Y0089383D02*
X0315457Y0089383D01*
X0315457Y0090982D02*
X0306857Y0090982D01*
X0306857Y0092580D02*
X0315457Y0092580D01*
X0315457Y0094179D02*
X0306857Y0094179D01*
X0306857Y0095777D02*
X0315457Y0095777D01*
X0315457Y0097376D02*
X0306857Y0097376D01*
X0306857Y0098975D02*
X0315457Y0098975D01*
X0315457Y0100573D02*
X0306857Y0100573D01*
X0306857Y0102172D02*
X0315457Y0102172D01*
X0315457Y0103770D02*
X0306857Y0103770D01*
X0306857Y0105369D02*
X0315457Y0105369D01*
X0315457Y0106967D02*
X0306857Y0106967D01*
X0308486Y0108566D02*
X0315457Y0108566D01*
X0315457Y0110164D02*
X0308646Y0110164D01*
X0308646Y0111763D02*
X0315457Y0111763D01*
X0315457Y0113361D02*
X0308401Y0113361D01*
X0308646Y0114960D02*
X0315457Y0114960D01*
X0315457Y0116558D02*
X0308646Y0116558D01*
X0311697Y0118157D02*
X0315457Y0118157D01*
X0315457Y0119755D02*
X0313295Y0119755D01*
X0314894Y0121354D02*
X0315457Y0121354D01*
X0315407Y0122952D02*
X0315457Y0122952D01*
X0315407Y0124551D02*
X0315790Y0124551D01*
X0315407Y0126149D02*
X0317171Y0126149D01*
X0318657Y0123110D02*
X0318657Y0099360D01*
X0321857Y0087785D02*
X0447887Y0087785D01*
X0449316Y0089383D02*
X0437089Y0089383D01*
X0438832Y0090982D02*
X0449915Y0090982D01*
X0450057Y0092580D02*
X0440051Y0092580D01*
X0440713Y0094179D02*
X0450057Y0094179D01*
X0450057Y0095777D02*
X0441107Y0095777D01*
X0441107Y0097376D02*
X0450057Y0097376D01*
X0450057Y0098975D02*
X0440948Y0098975D01*
X0440286Y0100573D02*
X0450057Y0100573D01*
X0450057Y0102172D02*
X0439399Y0102172D01*
X0437800Y0103770D02*
X0450057Y0103770D01*
X0450057Y0105369D02*
X0434599Y0105369D01*
X0430216Y0105369D02*
X0413507Y0105369D01*
X0413507Y0103770D02*
X0427015Y0103770D01*
X0425416Y0102172D02*
X0413507Y0102172D01*
X0413507Y0100573D02*
X0424529Y0100573D01*
X0423867Y0098975D02*
X0413507Y0098975D01*
X0413380Y0097376D02*
X0423708Y0097376D01*
X0413095Y0106967D02*
X0450057Y0106967D01*
X0450057Y0108566D02*
X0412645Y0108566D01*
X0413307Y0110164D02*
X0450057Y0110164D01*
X0450057Y0111763D02*
X0413507Y0111763D01*
X0413388Y0113361D02*
X0450057Y0113361D01*
X0450057Y0114960D02*
X0412726Y0114960D01*
X0411336Y0116558D02*
X0450057Y0116558D01*
X0450057Y0118157D02*
X0412331Y0118157D01*
X0421078Y0119755D02*
X0450057Y0119755D01*
X0450057Y0121354D02*
X0422644Y0121354D01*
X0423107Y0122952D02*
X0450057Y0122952D01*
X0450057Y0124551D02*
X0423107Y0124551D01*
X0423107Y0126149D02*
X0450057Y0126149D01*
X0450057Y0127748D02*
X0423107Y0127748D01*
X0423107Y0129346D02*
X0450057Y0129346D01*
X0450057Y0130945D02*
X0423107Y0130945D01*
X0423107Y0132543D02*
X0450057Y0132543D01*
X0450057Y0134142D02*
X0436506Y0134142D01*
X0437335Y0134485D02*
X0439782Y0136933D01*
X0441107Y0140130D01*
X0441107Y0143591D01*
X0439782Y0146788D01*
X0437335Y0149235D01*
X0434138Y0150559D01*
X0430677Y0150559D01*
X0427480Y0149235D01*
X0425033Y0146788D01*
X0423708Y0143591D01*
X0423708Y0140130D01*
X0425033Y0136933D01*
X0427480Y0134485D01*
X0430677Y0133161D01*
X0434138Y0133161D01*
X0437335Y0134485D01*
X0438590Y0135740D02*
X0450057Y0135740D01*
X0450057Y0137339D02*
X0439951Y0137339D01*
X0440613Y0138937D02*
X0450057Y0138937D01*
X0450057Y0140536D02*
X0441107Y0140536D01*
X0441107Y0142134D02*
X0450057Y0142134D01*
X0450057Y0143733D02*
X0441048Y0143733D01*
X0440386Y0145331D02*
X0450057Y0145331D01*
X0450057Y0146930D02*
X0439640Y0146930D01*
X0438042Y0148528D02*
X0450057Y0148528D01*
X0450057Y0150127D02*
X0435182Y0150127D01*
X0434138Y0151911D02*
X0437335Y0153235D01*
X0439782Y0155683D01*
X0441107Y0158880D01*
X0441107Y0162341D01*
X0439782Y0165538D01*
X0437335Y0167985D01*
X0434138Y0169309D01*
X0430677Y0169309D01*
X0427480Y0167985D01*
X0425033Y0165538D01*
X0423708Y0162341D01*
X0423708Y0158880D01*
X0425033Y0155683D01*
X0427480Y0153235D01*
X0430677Y0151911D01*
X0434138Y0151911D01*
X0437424Y0153324D02*
X0450057Y0153324D01*
X0450057Y0154922D02*
X0439022Y0154922D01*
X0440130Y0156521D02*
X0450057Y0156521D01*
X0450057Y0158119D02*
X0440792Y0158119D01*
X0441107Y0159718D02*
X0450057Y0159718D01*
X0450057Y0161316D02*
X0441107Y0161316D01*
X0440869Y0162915D02*
X0450057Y0162915D01*
X0450057Y0164513D02*
X0440207Y0164513D01*
X0439208Y0166112D02*
X0450057Y0166112D01*
X0450057Y0167710D02*
X0437610Y0167710D01*
X0434139Y0169309D02*
X0450057Y0169309D01*
X0450057Y0170908D02*
X0423107Y0170908D01*
X0423107Y0172506D02*
X0450057Y0172506D01*
X0450057Y0174105D02*
X0423107Y0174105D01*
X0423107Y0175703D02*
X0450057Y0175703D01*
X0450057Y0177302D02*
X0423107Y0177302D01*
X0423107Y0178900D02*
X0450057Y0178900D01*
X0450057Y0180499D02*
X0423107Y0180499D01*
X0423107Y0182097D02*
X0450057Y0182097D01*
X0450057Y0183696D02*
X0423107Y0183696D01*
X0422249Y0185294D02*
X0450057Y0185294D01*
X0450057Y0186893D02*
X0420651Y0186893D01*
X0418814Y0188491D02*
X0450057Y0188491D01*
X0450057Y0190090D02*
X0411555Y0190090D01*
X0411264Y0191688D02*
X0450057Y0191688D01*
X0450057Y0193287D02*
X0412396Y0193287D01*
X0412861Y0194885D02*
X0450057Y0194885D01*
X0450057Y0196484D02*
X0412838Y0196484D01*
X0412321Y0198082D02*
X0427850Y0198082D01*
X0427480Y0198235D02*
X0430677Y0196911D01*
X0434138Y0196911D01*
X0437335Y0198235D01*
X0439782Y0200683D01*
X0441107Y0203880D01*
X0441107Y0207341D01*
X0439782Y0210538D01*
X0437335Y0212985D01*
X0434138Y0214309D01*
X0430677Y0214309D01*
X0427480Y0212985D01*
X0425033Y0210538D01*
X0423708Y0207341D01*
X0423708Y0203880D01*
X0425033Y0200683D01*
X0427480Y0198235D01*
X0426034Y0199681D02*
X0411115Y0199681D01*
X0407592Y0199681D02*
X0407223Y0199681D01*
X0407223Y0198082D02*
X0407592Y0198082D01*
X0407592Y0196484D02*
X0407223Y0196484D01*
X0403700Y0199681D02*
X0402829Y0199681D01*
X0402870Y0201279D02*
X0424785Y0201279D01*
X0424123Y0202878D02*
X0402425Y0202878D01*
X0401320Y0204476D02*
X0423708Y0204476D01*
X0423708Y0206075D02*
X0398064Y0206075D01*
X0397592Y0206075D02*
X0397223Y0206075D01*
X0396751Y0206075D02*
X0371147Y0206075D01*
X0372746Y0207673D02*
X0423846Y0207673D01*
X0424508Y0209272D02*
X0374269Y0209272D01*
X0374702Y0210870D02*
X0425365Y0210870D01*
X0426964Y0212469D02*
X0388890Y0212469D01*
X0388885Y0212463D02*
X0389560Y0213139D01*
X0389926Y0214021D01*
X0389926Y0219700D01*
X0389560Y0220582D01*
X0389285Y0220857D01*
X0389336Y0222423D01*
X0389357Y0222474D01*
X0389357Y0223057D01*
X0389377Y0223641D01*
X0389357Y0223692D01*
X0389357Y0223830D01*
X0389392Y0223931D01*
X0389357Y0224463D01*
X0389357Y0224997D01*
X0389317Y0225095D01*
X0389310Y0225201D01*
X0389074Y0225680D01*
X0388870Y0226173D01*
X0388795Y0226248D01*
X0388748Y0226344D01*
X0388347Y0226696D01*
X0388075Y0226968D01*
X0388075Y0230094D01*
X0387710Y0230976D01*
X0387035Y0231651D01*
X0386153Y0232016D01*
X0380473Y0232016D01*
X0379591Y0231651D01*
X0378916Y0230976D01*
X0378551Y0230094D01*
X0378551Y0223627D01*
X0378916Y0222745D01*
X0379591Y0222070D01*
X0380473Y0221704D01*
X0382909Y0221704D01*
X0382890Y0221131D01*
X0382341Y0220582D01*
X0382087Y0219968D01*
X0381879Y0220328D01*
X0381544Y0220663D01*
X0381134Y0220900D01*
X0380676Y0221022D01*
X0378864Y0221022D01*
X0377052Y0221022D01*
X0376595Y0220900D01*
X0376184Y0220663D01*
X0375849Y0220328D01*
X0375612Y0219917D01*
X0375489Y0219459D01*
X0375489Y0216860D01*
X0375489Y0214261D01*
X0375612Y0213803D01*
X0375849Y0213393D01*
X0376184Y0213058D01*
X0376595Y0212821D01*
X0377052Y0212698D01*
X0378864Y0212698D01*
X0378864Y0216860D01*
X0378864Y0216860D01*
X0375489Y0216860D01*
X0378864Y0216860D01*
X0378864Y0216860D01*
X0378864Y0212698D01*
X0380676Y0212698D01*
X0381134Y0212821D01*
X0381544Y0213058D01*
X0381879Y0213393D01*
X0382087Y0213753D01*
X0382341Y0213139D01*
X0383016Y0212463D01*
X0383899Y0212098D01*
X0388003Y0212098D01*
X0388885Y0212463D01*
X0389926Y0214067D02*
X0430093Y0214067D01*
X0427162Y0215666D02*
X0389926Y0215666D01*
X0389926Y0217264D02*
X0423276Y0217264D01*
X0421266Y0218863D02*
X0389926Y0218863D01*
X0389610Y0220461D02*
X0398949Y0220461D01*
X0399180Y0220328D02*
X0401793Y0219628D01*
X0404498Y0219628D01*
X0407111Y0220328D01*
X0409454Y0221680D01*
X0411367Y0223593D01*
X0412720Y0225936D01*
X0413420Y0228549D01*
X0413420Y0231254D01*
X0412720Y0233867D01*
X0411367Y0236210D01*
X0409454Y0238123D01*
X0407111Y0239475D01*
X0404498Y0240176D01*
X0401793Y0240176D01*
X0399180Y0239475D01*
X0396837Y0238123D01*
X0394924Y0236210D01*
X0393572Y0233867D01*
X0392872Y0231254D01*
X0392872Y0228549D01*
X0393572Y0225936D01*
X0394924Y0223593D01*
X0396837Y0221680D01*
X0399180Y0220328D01*
X0396458Y0222060D02*
X0389324Y0222060D01*
X0389370Y0223658D02*
X0394887Y0223658D01*
X0393964Y0225257D02*
X0389283Y0225257D01*
X0388188Y0226855D02*
X0393325Y0226855D01*
X0392897Y0228454D02*
X0388075Y0228454D01*
X0388075Y0230052D02*
X0392872Y0230052D01*
X0392978Y0231651D02*
X0387034Y0231651D01*
X0393406Y0233249D02*
X0363755Y0233249D01*
X0363755Y0231651D02*
X0367781Y0231651D01*
X0366740Y0230052D02*
X0363755Y0230052D01*
X0363755Y0228454D02*
X0366740Y0228454D01*
X0366740Y0226855D02*
X0363755Y0226855D01*
X0363755Y0226410D02*
X0363755Y0236477D01*
X0363632Y0236935D01*
X0363395Y0237345D01*
X0363060Y0237681D01*
X0362649Y0237917D01*
X0362192Y0238040D01*
X0350550Y0238040D01*
X0350550Y0226410D01*
X0363755Y0226410D01*
X0363755Y0224810D02*
X0363755Y0214743D01*
X0363632Y0214286D01*
X0363395Y0213875D01*
X0363060Y0213540D01*
X0362649Y0213303D01*
X0362192Y0213180D01*
X0350550Y0213180D01*
X0350550Y0224810D01*
X0348950Y0224810D01*
X0348950Y0213180D01*
X0337308Y0213180D01*
X0336850Y0213303D01*
X0336440Y0213540D01*
X0336105Y0213875D01*
X0335868Y0214286D01*
X0335745Y0214743D01*
X0335745Y0224810D01*
X0348950Y0224810D01*
X0348950Y0226410D01*
X0335745Y0226410D01*
X0335745Y0236477D01*
X0335868Y0236935D01*
X0336105Y0237345D01*
X0336440Y0237681D01*
X0336850Y0237917D01*
X0337308Y0238040D01*
X0348950Y0238040D01*
X0348950Y0226410D01*
X0350550Y0226410D01*
X0350550Y0224810D01*
X0363755Y0224810D01*
X0363755Y0223658D02*
X0366740Y0223658D01*
X0366740Y0225257D02*
X0350550Y0225257D01*
X0350550Y0226855D02*
X0348950Y0226855D01*
X0348950Y0225257D02*
X0332257Y0225257D01*
X0332257Y0226855D02*
X0335745Y0226855D01*
X0335745Y0228454D02*
X0332257Y0228454D01*
X0332257Y0230052D02*
X0335745Y0230052D01*
X0335745Y0231651D02*
X0332257Y0231651D01*
X0332257Y0233249D02*
X0335745Y0233249D01*
X0335745Y0234848D02*
X0331834Y0234848D01*
X0330412Y0236446D02*
X0335745Y0236446D01*
X0328448Y0238045D02*
X0396759Y0238045D01*
X0395161Y0236446D02*
X0363755Y0236446D01*
X0363755Y0234848D02*
X0394138Y0234848D01*
X0399807Y0239644D02*
X0111208Y0239644D01*
X0111836Y0239475D02*
X0109223Y0240176D01*
X0106517Y0240176D01*
X0103904Y0239475D01*
X0101562Y0238123D01*
X0099649Y0236210D01*
X0098296Y0233867D01*
X0097596Y0231254D01*
X0097596Y0228549D01*
X0098296Y0225936D01*
X0099649Y0223593D01*
X0101562Y0221680D01*
X0103904Y0220328D01*
X0106517Y0219628D01*
X0109223Y0219628D01*
X0111836Y0220328D01*
X0114178Y0221680D01*
X0116091Y0223593D01*
X0117444Y0225936D01*
X0118144Y0228549D01*
X0118144Y0231254D01*
X0117444Y0233867D01*
X0116091Y0236210D01*
X0114178Y0238123D01*
X0111836Y0239475D01*
X0114256Y0238045D02*
X0129601Y0238045D01*
X0127766Y0236626D02*
X0127766Y0236626D01*
X0127587Y0236446D02*
X0115855Y0236446D01*
X0116878Y0234848D02*
X0125988Y0234848D01*
X0124390Y0233249D02*
X0117609Y0233249D01*
X0118038Y0231651D02*
X0123509Y0231651D01*
X0123407Y0230052D02*
X0118144Y0230052D01*
X0118119Y0228454D02*
X0123407Y0228454D01*
X0123407Y0226855D02*
X0117690Y0226855D01*
X0117052Y0225257D02*
X0123407Y0225257D01*
X0123407Y0223658D02*
X0116129Y0223658D01*
X0114558Y0222060D02*
X0123407Y0222060D01*
X0123407Y0220461D02*
X0112067Y0220461D01*
X0103673Y0220461D02*
X0091108Y0220461D01*
X0091646Y0221203D02*
X0091646Y0221203D01*
X0091925Y0222060D02*
X0101182Y0222060D01*
X0099611Y0223658D02*
X0092444Y0223658D01*
X0092652Y0225257D02*
X0098688Y0225257D01*
X0098050Y0226855D02*
X0092652Y0226855D01*
X0092652Y0228454D02*
X0097622Y0228454D01*
X0097596Y0230052D02*
X0092652Y0230052D01*
X0092652Y0231651D02*
X0097702Y0231651D01*
X0098131Y0233249D02*
X0092652Y0233249D01*
X0092652Y0234848D02*
X0098862Y0234848D01*
X0099885Y0236446D02*
X0092652Y0236446D01*
X0092676Y0238045D02*
X0101484Y0238045D01*
X0104532Y0239644D02*
X0093061Y0239644D01*
X0093990Y0241242D02*
X0417222Y0241242D01*
X0418152Y0239644D02*
X0406484Y0239644D01*
X0409532Y0238045D02*
X0418536Y0238045D01*
X0418561Y0236446D02*
X0411130Y0236446D01*
X0412153Y0234848D02*
X0418561Y0234848D01*
X0418561Y0233249D02*
X0412885Y0233249D01*
X0413313Y0231651D02*
X0418561Y0231651D01*
X0418561Y0230052D02*
X0413420Y0230052D01*
X0413394Y0228454D02*
X0418561Y0228454D01*
X0418561Y0226855D02*
X0412966Y0226855D01*
X0412327Y0225257D02*
X0418561Y0225257D01*
X0418768Y0223658D02*
X0411405Y0223658D01*
X0409834Y0222060D02*
X0419288Y0222060D01*
X0420105Y0220461D02*
X0407343Y0220461D01*
X0386157Y0223110D02*
X0385951Y0216860D01*
X0382291Y0220461D02*
X0381746Y0220461D01*
X0379615Y0222060D02*
X0375200Y0222060D01*
X0374702Y0220461D02*
X0375983Y0220461D01*
X0375489Y0218863D02*
X0374702Y0218863D01*
X0374702Y0217264D02*
X0375489Y0217264D01*
X0375489Y0215666D02*
X0374702Y0215666D01*
X0374702Y0214067D02*
X0375541Y0214067D01*
X0374702Y0212469D02*
X0383011Y0212469D01*
X0378864Y0214067D02*
X0378864Y0214067D01*
X0378864Y0215666D02*
X0378864Y0215666D01*
X0378864Y0216860D02*
X0378864Y0221022D01*
X0378864Y0216860D01*
X0378864Y0216860D01*
X0378864Y0217264D02*
X0378864Y0217264D01*
X0378864Y0218863D02*
X0378864Y0218863D01*
X0378864Y0220461D02*
X0378864Y0220461D01*
X0378551Y0223658D02*
X0376264Y0223658D01*
X0376264Y0225257D02*
X0378551Y0225257D01*
X0378551Y0226855D02*
X0376264Y0226855D01*
X0376264Y0228454D02*
X0378551Y0228454D01*
X0378551Y0230052D02*
X0376264Y0230052D01*
X0375223Y0231651D02*
X0379592Y0231651D01*
X0383313Y0226860D02*
X0386157Y0224360D01*
X0386157Y0223110D01*
X0371502Y0226860D02*
X0371502Y0210955D01*
X0368657Y0208110D01*
X0328657Y0208110D01*
X0332257Y0212469D02*
X0368302Y0212469D01*
X0368302Y0214067D02*
X0363506Y0214067D01*
X0363755Y0215666D02*
X0368302Y0215666D01*
X0368302Y0217264D02*
X0363755Y0217264D01*
X0363755Y0218863D02*
X0368302Y0218863D01*
X0368302Y0220461D02*
X0363755Y0220461D01*
X0363755Y0222060D02*
X0367804Y0222060D01*
X0350550Y0222060D02*
X0348950Y0222060D01*
X0348950Y0223658D02*
X0350550Y0223658D01*
X0350550Y0220461D02*
X0348950Y0220461D01*
X0348950Y0218863D02*
X0350550Y0218863D01*
X0350550Y0217264D02*
X0348950Y0217264D01*
X0348950Y0215666D02*
X0350550Y0215666D01*
X0350550Y0214067D02*
X0348950Y0214067D01*
X0335994Y0214067D02*
X0332257Y0214067D01*
X0332257Y0215666D02*
X0335745Y0215666D01*
X0335745Y0217264D02*
X0332257Y0217264D01*
X0332257Y0218863D02*
X0335745Y0218863D01*
X0335745Y0220461D02*
X0332257Y0220461D01*
X0332257Y0222060D02*
X0335745Y0222060D01*
X0335745Y0223658D02*
X0332257Y0223658D01*
X0348950Y0228454D02*
X0350550Y0228454D01*
X0350550Y0230052D02*
X0348950Y0230052D01*
X0348950Y0231651D02*
X0350550Y0231651D01*
X0350550Y0233249D02*
X0348950Y0233249D01*
X0348950Y0234848D02*
X0350550Y0234848D01*
X0350550Y0236446D02*
X0348950Y0236446D01*
X0315956Y0238045D02*
X0287714Y0238045D01*
X0289623Y0236446D02*
X0309307Y0236446D01*
X0306769Y0234848D02*
X0290157Y0234848D01*
X0290344Y0233249D02*
X0305648Y0233249D01*
X0305057Y0231651D02*
X0290344Y0231651D01*
X0290344Y0230052D02*
X0305057Y0230052D01*
X0305448Y0228454D02*
X0297459Y0228454D01*
X0298673Y0226855D02*
X0306286Y0226855D01*
X0307177Y0225257D02*
X0299141Y0225257D01*
X0299066Y0223658D02*
X0305817Y0223658D01*
X0305155Y0222060D02*
X0298422Y0222060D01*
X0294219Y0225257D02*
X0294218Y0225257D01*
X0294218Y0226855D02*
X0294219Y0226855D01*
X0294218Y0228454D02*
X0294219Y0228454D01*
X0290978Y0228454D02*
X0290434Y0228454D01*
X0290706Y0221208D02*
X0289488Y0219990D01*
X0287448Y0219145D01*
X0285241Y0219145D01*
X0283201Y0219990D01*
X0282407Y0220784D01*
X0281614Y0219990D01*
X0279574Y0219145D01*
X0277367Y0219145D01*
X0275327Y0219990D01*
X0274533Y0220784D01*
X0273740Y0219990D01*
X0271700Y0219145D01*
X0269493Y0219145D01*
X0267453Y0219990D01*
X0266283Y0221160D01*
X0253935Y0221160D01*
X0253829Y0220905D01*
X0252113Y0219189D01*
X0251857Y0219083D01*
X0251857Y0218724D01*
X0251370Y0217548D01*
X0250470Y0216647D01*
X0244220Y0210397D01*
X0243044Y0209910D01*
X0226370Y0209910D01*
X0226026Y0209566D01*
X0224489Y0208929D01*
X0222826Y0208929D01*
X0222657Y0208999D01*
X0222657Y0208360D01*
X0245751Y0208360D01*
X0251516Y0214126D01*
X0251516Y0214126D01*
X0252642Y0215251D01*
X0254112Y0215860D01*
X0285751Y0215860D01*
X0289915Y0220025D01*
X0291385Y0220634D01*
X0291387Y0220634D01*
X0290994Y0220920D01*
X0290706Y0221208D01*
X0290969Y0220461D02*
X0289959Y0220461D01*
X0288753Y0218863D02*
X0251857Y0218863D01*
X0251087Y0217264D02*
X0287155Y0217264D01*
X0282730Y0220461D02*
X0282085Y0220461D01*
X0278470Y0224695D02*
X0278470Y0229547D01*
X0277407Y0230610D01*
X0239907Y0230610D01*
X0238657Y0229360D01*
X0238657Y0224360D01*
X0234124Y0228454D02*
X0232342Y0228454D01*
X0232240Y0228555D02*
X0231540Y0229064D01*
X0230769Y0229457D01*
X0229945Y0229725D01*
X0229090Y0229860D01*
X0228857Y0229860D01*
X0228857Y0224560D01*
X0228457Y0224560D01*
X0228457Y0229860D01*
X0228225Y0229860D01*
X0227370Y0229725D01*
X0226546Y0229457D01*
X0225775Y0229064D01*
X0225074Y0228555D01*
X0224462Y0227943D01*
X0224025Y0227342D01*
X0223829Y0227816D01*
X0222113Y0229532D01*
X0220112Y0230360D01*
X0235608Y0230360D01*
X0235457Y0229997D01*
X0235457Y0229637D01*
X0235202Y0229532D01*
X0233486Y0227816D01*
X0233290Y0227342D01*
X0232853Y0227943D01*
X0232240Y0228555D01*
X0228857Y0228454D02*
X0228457Y0228454D01*
X0228457Y0226855D02*
X0228857Y0226855D01*
X0228857Y0225257D02*
X0228457Y0225257D01*
X0228457Y0224160D02*
X0228857Y0224160D01*
X0228857Y0218860D01*
X0229090Y0218860D01*
X0229945Y0218996D01*
X0230769Y0219263D01*
X0231540Y0219656D01*
X0232240Y0220165D01*
X0232853Y0220777D01*
X0233290Y0221379D01*
X0233486Y0220905D01*
X0235202Y0219189D01*
X0237444Y0218260D01*
X0239871Y0218260D01*
X0242113Y0219189D01*
X0243657Y0220734D01*
X0244581Y0219810D01*
X0241082Y0216310D01*
X0226370Y0216310D01*
X0226026Y0216655D01*
X0224489Y0217291D01*
X0222826Y0217291D01*
X0222657Y0217222D01*
X0222657Y0219734D01*
X0223829Y0220905D01*
X0224025Y0221379D01*
X0224462Y0220777D01*
X0225074Y0220165D01*
X0225775Y0219656D01*
X0226546Y0219263D01*
X0227370Y0218996D01*
X0228225Y0218860D01*
X0228457Y0218860D01*
X0228457Y0224160D01*
X0228457Y0223658D02*
X0228857Y0223658D01*
X0228857Y0222060D02*
X0228457Y0222060D01*
X0228457Y0220461D02*
X0228857Y0220461D01*
X0228857Y0218863D02*
X0228457Y0218863D01*
X0228208Y0218863D02*
X0222657Y0218863D01*
X0222657Y0217264D02*
X0222761Y0217264D01*
X0224554Y0217264D02*
X0242036Y0217264D01*
X0241326Y0218863D02*
X0243635Y0218863D01*
X0243385Y0220461D02*
X0243930Y0220461D01*
X0248657Y0219360D02*
X0248657Y0224360D01*
X0270262Y0224360D01*
X0270596Y0224695D01*
X0266982Y0220461D02*
X0253385Y0220461D01*
X0248657Y0219360D02*
X0242407Y0213110D01*
X0223657Y0213110D01*
X0225316Y0209272D02*
X0246662Y0209272D01*
X0248261Y0210870D02*
X0244693Y0210870D01*
X0246292Y0212469D02*
X0249859Y0212469D01*
X0251458Y0214067D02*
X0247890Y0214067D01*
X0249489Y0215666D02*
X0253643Y0215666D01*
X0257407Y0211860D02*
X0258657Y0210610D01*
X0258657Y0206654D01*
X0263420Y0206075D02*
X0298244Y0206075D01*
X0298349Y0205893D02*
X0298684Y0205558D01*
X0299095Y0205321D01*
X0299552Y0205198D01*
X0301364Y0205198D01*
X0301364Y0209360D01*
X0301364Y0209360D01*
X0297989Y0209360D01*
X0297989Y0206761D01*
X0298112Y0206303D01*
X0298349Y0205893D01*
X0297989Y0207673D02*
X0263420Y0207673D01*
X0263420Y0207860D02*
X0288203Y0207860D01*
X0289673Y0208469D01*
X0290799Y0209594D01*
X0290799Y0209594D01*
X0293838Y0212634D01*
X0298237Y0212634D01*
X0298112Y0212417D01*
X0297989Y0211959D01*
X0297989Y0209360D01*
X0301364Y0209360D01*
X0301364Y0209360D01*
X0301364Y0205198D01*
X0302805Y0205198D01*
X0302326Y0204054D01*
X0299519Y0204054D01*
X0298637Y0203688D01*
X0297961Y0203013D01*
X0297596Y0202131D01*
X0297596Y0194090D01*
X0297961Y0193207D01*
X0298637Y0192532D01*
X0298746Y0192487D01*
X0298746Y0186233D01*
X0298637Y0186188D01*
X0297961Y0185513D01*
X0297596Y0184631D01*
X0297596Y0183404D01*
X0296739Y0183404D01*
X0296129Y0184013D01*
X0295247Y0184378D01*
X0289568Y0184378D01*
X0288686Y0184013D01*
X0288011Y0183338D01*
X0287645Y0182456D01*
X0287645Y0178351D01*
X0288011Y0177469D01*
X0288120Y0177360D01*
X0268061Y0177360D01*
X0266958Y0176904D01*
X0266555Y0176500D01*
X0266129Y0176926D01*
X0265515Y0177181D01*
X0265875Y0177388D01*
X0266210Y0177724D01*
X0266447Y0178134D01*
X0266570Y0178592D01*
X0266570Y0180403D01*
X0262408Y0180403D01*
X0262408Y0180404D01*
X0266570Y0180404D01*
X0266570Y0182215D01*
X0266447Y0182673D01*
X0266210Y0183084D01*
X0265875Y0183419D01*
X0265464Y0183656D01*
X0265007Y0183778D01*
X0262408Y0183778D01*
X0262408Y0180404D01*
X0262407Y0180404D01*
X0262407Y0183778D01*
X0259808Y0183778D01*
X0259350Y0183656D01*
X0258940Y0183419D01*
X0258605Y0183084D01*
X0258368Y0182673D01*
X0258245Y0182215D01*
X0258245Y0180404D01*
X0262407Y0180404D01*
X0262407Y0180403D01*
X0258245Y0180403D01*
X0258245Y0178592D01*
X0258368Y0178134D01*
X0258605Y0177724D01*
X0258940Y0177388D01*
X0259300Y0177181D01*
X0258686Y0176926D01*
X0258011Y0176251D01*
X0257645Y0175369D01*
X0257645Y0171265D01*
X0258011Y0170383D01*
X0258686Y0169708D01*
X0259568Y0169342D01*
X0265247Y0169342D01*
X0266129Y0169708D01*
X0266739Y0170317D01*
X0268211Y0170317D01*
X0269314Y0170774D01*
X0269900Y0171360D01*
X0277226Y0171360D01*
X0276409Y0171022D01*
X0274693Y0169306D01*
X0274587Y0169050D01*
X0272011Y0169050D01*
X0270835Y0168563D01*
X0267342Y0165070D01*
X0238503Y0165290D01*
X0235607Y0168186D01*
X0235607Y0186124D01*
X0235907Y0186248D01*
X0237567Y0187908D01*
X0238465Y0190076D01*
X0238465Y0192424D01*
X0237567Y0194592D01*
X0235907Y0196252D01*
X0233739Y0197150D01*
X0231391Y0197150D01*
X0229223Y0196252D01*
X0227565Y0194594D01*
X0225907Y0196252D01*
X0223739Y0197150D01*
X0221391Y0197150D01*
X0219223Y0196252D01*
X0217565Y0194594D01*
X0215907Y0196252D01*
X0213739Y0197150D01*
X0211391Y0197150D01*
X0209223Y0196252D01*
X0207565Y0194594D01*
X0205907Y0196252D01*
X0203739Y0197150D01*
X0201391Y0197150D01*
X0199223Y0196252D01*
X0197565Y0194594D01*
X0195907Y0196252D01*
X0193739Y0197150D01*
X0191391Y0197150D01*
X0189223Y0196252D01*
X0187565Y0194594D01*
X0185907Y0196252D01*
X0183739Y0197150D01*
X0181391Y0197150D01*
X0179223Y0196252D01*
X0177565Y0194594D01*
X0175907Y0196252D01*
X0173739Y0197150D01*
X0171391Y0197150D01*
X0169223Y0196252D01*
X0167565Y0194594D01*
X0165907Y0196252D01*
X0163739Y0197150D01*
X0161391Y0197150D01*
X0159223Y0196252D01*
X0157565Y0194594D01*
X0155907Y0196252D01*
X0153739Y0197150D01*
X0151391Y0197150D01*
X0149223Y0196252D01*
X0147565Y0194594D01*
X0146407Y0195751D01*
X0146407Y0200360D01*
X0156338Y0200360D01*
X0156875Y0199822D01*
X0158843Y0199007D01*
X0160972Y0199007D01*
X0162940Y0199822D01*
X0163477Y0200360D01*
X0248203Y0200360D01*
X0249673Y0200969D01*
X0250799Y0202094D01*
X0253895Y0205191D01*
X0253895Y0204601D01*
X0254261Y0203719D01*
X0254936Y0203044D01*
X0255550Y0202790D01*
X0255190Y0202582D01*
X0254855Y0202247D01*
X0254618Y0201837D01*
X0254495Y0201379D01*
X0254495Y0199567D01*
X0258657Y0199567D01*
X0258657Y0199567D01*
X0254495Y0199567D01*
X0254495Y0197755D01*
X0254618Y0197297D01*
X0254855Y0196887D01*
X0255190Y0196552D01*
X0255600Y0196315D01*
X0256058Y0196192D01*
X0258657Y0196192D01*
X0258657Y0199567D01*
X0258658Y0199567D01*
X0262820Y0199567D01*
X0262820Y0201379D01*
X0262697Y0201837D01*
X0262460Y0202247D01*
X0262125Y0202582D01*
X0261765Y0202790D01*
X0262379Y0203044D01*
X0263054Y0203719D01*
X0263420Y0204601D01*
X0263420Y0207860D01*
X0263368Y0204476D02*
X0302503Y0204476D01*
X0301364Y0206075D02*
X0301364Y0206075D01*
X0301364Y0207673D02*
X0301364Y0207673D01*
X0301364Y0209272D02*
X0301364Y0209272D01*
X0297989Y0209272D02*
X0290476Y0209272D01*
X0292074Y0210870D02*
X0297989Y0210870D01*
X0298142Y0212469D02*
X0293673Y0212469D01*
X0297905Y0202878D02*
X0284546Y0202878D01*
X0285645Y0202423D02*
X0283171Y0203447D01*
X0280494Y0203447D01*
X0278020Y0202423D01*
X0276127Y0200529D01*
X0275102Y0198055D01*
X0275102Y0195378D01*
X0276127Y0192904D01*
X0278020Y0191011D01*
X0280494Y0189986D01*
X0283171Y0189986D01*
X0285645Y0191011D01*
X0287539Y0192904D01*
X0288563Y0195378D01*
X0288563Y0198055D01*
X0287539Y0200529D01*
X0285645Y0202423D01*
X0286789Y0201279D02*
X0297596Y0201279D01*
X0297596Y0199681D02*
X0287890Y0199681D01*
X0288552Y0198082D02*
X0297596Y0198082D01*
X0297596Y0196484D02*
X0288563Y0196484D01*
X0288359Y0194885D02*
X0297596Y0194885D01*
X0297929Y0193287D02*
X0287697Y0193287D01*
X0286323Y0191688D02*
X0298746Y0191688D01*
X0298746Y0190090D02*
X0283422Y0190090D01*
X0280243Y0190090D02*
X0253984Y0190090D01*
X0253838Y0190442D02*
X0251757Y0192523D01*
X0249037Y0193650D01*
X0246093Y0193650D01*
X0243373Y0192523D01*
X0241292Y0190442D01*
X0240165Y0187722D01*
X0240165Y0184778D01*
X0241292Y0182058D01*
X0243373Y0179977D01*
X0246093Y0178850D01*
X0249037Y0178850D01*
X0251757Y0179977D01*
X0253838Y0182058D01*
X0254965Y0184778D01*
X0254965Y0187722D01*
X0253838Y0190442D01*
X0252592Y0191688D02*
X0277342Y0191688D01*
X0275968Y0193287D02*
X0249914Y0193287D01*
X0245216Y0193287D02*
X0238107Y0193287D01*
X0238465Y0191688D02*
X0242538Y0191688D01*
X0241146Y0190090D02*
X0238465Y0190090D01*
X0237808Y0188491D02*
X0240484Y0188491D01*
X0240165Y0186893D02*
X0236551Y0186893D01*
X0235607Y0185294D02*
X0240165Y0185294D01*
X0240613Y0183696D02*
X0235607Y0183696D01*
X0235607Y0182097D02*
X0241275Y0182097D01*
X0242851Y0180499D02*
X0235607Y0180499D01*
X0235607Y0178900D02*
X0245972Y0178900D01*
X0249158Y0178900D02*
X0258245Y0178900D01*
X0258245Y0180499D02*
X0252279Y0180499D01*
X0253854Y0182097D02*
X0258245Y0182097D01*
X0259500Y0183696D02*
X0254517Y0183696D01*
X0254965Y0185294D02*
X0297871Y0185294D01*
X0297596Y0183696D02*
X0296447Y0183696D01*
X0298746Y0186893D02*
X0254965Y0186893D01*
X0254646Y0188491D02*
X0298746Y0188491D01*
X0307546Y0188491D02*
X0320489Y0188491D01*
X0320489Y0188110D02*
X0323864Y0188110D01*
X0323864Y0188110D01*
X0323864Y0183948D01*
X0322052Y0183948D01*
X0321595Y0184071D01*
X0321184Y0184308D01*
X0320849Y0184643D01*
X0320612Y0185053D01*
X0320489Y0185511D01*
X0320489Y0188110D01*
X0323864Y0188110D01*
X0323864Y0188110D01*
X0323864Y0183948D01*
X0325676Y0183948D01*
X0326134Y0184071D01*
X0326544Y0184308D01*
X0326879Y0184643D01*
X0327087Y0185003D01*
X0327341Y0184389D01*
X0328016Y0183713D01*
X0328899Y0183348D01*
X0333003Y0183348D01*
X0333885Y0183713D01*
X0334560Y0184389D01*
X0334859Y0185110D01*
X0336206Y0185110D01*
X0336505Y0184389D01*
X0336907Y0183986D01*
X0336907Y0166110D01*
X0323061Y0166110D01*
X0321958Y0165654D01*
X0321657Y0165353D01*
X0321657Y0171207D01*
X0321201Y0172310D01*
X0320357Y0173154D01*
X0319107Y0174404D01*
X0318134Y0174807D01*
X0318678Y0175032D01*
X0319000Y0175354D01*
X0321030Y0173831D01*
X0321392Y0173469D01*
X0321661Y0173358D01*
X0321894Y0173183D01*
X0322389Y0173056D01*
X0322862Y0172860D01*
X0323153Y0172860D01*
X0323436Y0172788D01*
X0323942Y0172860D01*
X0326803Y0172860D01*
X0326908Y0172607D01*
X0327583Y0171932D01*
X0328466Y0171567D01*
X0334420Y0171567D01*
X0335302Y0171932D01*
X0335978Y0172607D01*
X0336343Y0173489D01*
X0336343Y0180231D01*
X0335978Y0181113D01*
X0335302Y0181789D01*
X0334420Y0182154D01*
X0328466Y0182154D01*
X0327583Y0181789D01*
X0326908Y0181113D01*
X0326803Y0180860D01*
X0324991Y0180860D01*
X0321285Y0183640D01*
X0320923Y0184001D01*
X0320654Y0184113D01*
X0320421Y0184288D01*
X0319926Y0184415D01*
X0319719Y0184500D01*
X0319719Y0184631D01*
X0319354Y0185513D01*
X0318678Y0186188D01*
X0317796Y0186554D01*
X0310542Y0186554D01*
X0309660Y0186188D01*
X0308985Y0185513D01*
X0308657Y0184722D01*
X0308330Y0185513D01*
X0307655Y0186188D01*
X0307546Y0186233D01*
X0307546Y0192487D01*
X0307655Y0192532D01*
X0308330Y0193207D01*
X0308657Y0193998D01*
X0308985Y0193207D01*
X0309660Y0192532D01*
X0310542Y0192167D01*
X0317796Y0192167D01*
X0318678Y0192532D01*
X0319354Y0193207D01*
X0319719Y0194090D01*
X0319719Y0194110D01*
X0326803Y0194110D01*
X0326908Y0193857D01*
X0327583Y0193182D01*
X0328466Y0192817D01*
X0328764Y0192817D01*
X0328016Y0192507D01*
X0327341Y0191832D01*
X0327087Y0191218D01*
X0326879Y0191578D01*
X0326544Y0191913D01*
X0326134Y0192150D01*
X0325676Y0192272D01*
X0323864Y0192272D01*
X0322052Y0192272D01*
X0321595Y0192150D01*
X0321184Y0191913D01*
X0320849Y0191578D01*
X0320612Y0191167D01*
X0320489Y0190709D01*
X0320489Y0188110D01*
X0320489Y0186893D02*
X0307546Y0186893D01*
X0308421Y0185294D02*
X0308894Y0185294D01*
X0307546Y0190090D02*
X0320489Y0190090D01*
X0320960Y0191688D02*
X0307546Y0191688D01*
X0308363Y0193287D02*
X0308952Y0193287D01*
X0319386Y0193287D02*
X0327479Y0193287D01*
X0327282Y0191688D02*
X0326769Y0191688D01*
X0323864Y0191688D02*
X0323864Y0191688D01*
X0323864Y0192272D02*
X0323864Y0188110D01*
X0323864Y0188110D01*
X0323864Y0192272D01*
X0323864Y0190090D02*
X0323864Y0190090D01*
X0323864Y0188491D02*
X0323864Y0188491D01*
X0323864Y0186893D02*
X0323864Y0186893D01*
X0323864Y0185294D02*
X0323864Y0185294D01*
X0321229Y0183696D02*
X0328059Y0183696D01*
X0328328Y0182097D02*
X0323342Y0182097D01*
X0320547Y0185294D02*
X0319444Y0185294D01*
X0333842Y0183696D02*
X0336907Y0183696D01*
X0336907Y0182097D02*
X0334558Y0182097D01*
X0336232Y0180499D02*
X0336907Y0180499D01*
X0336907Y0178900D02*
X0336343Y0178900D01*
X0336343Y0177302D02*
X0336907Y0177302D01*
X0336907Y0175703D02*
X0336343Y0175703D01*
X0336343Y0174105D02*
X0336907Y0174105D01*
X0336907Y0172506D02*
X0335877Y0172506D01*
X0336907Y0170908D02*
X0321657Y0170908D01*
X0321657Y0169309D02*
X0336907Y0169309D01*
X0336907Y0167710D02*
X0321657Y0167710D01*
X0321657Y0166112D02*
X0336907Y0166112D01*
X0342907Y0166112D02*
X0366395Y0166112D01*
X0366395Y0167710D02*
X0342907Y0167710D01*
X0342907Y0169309D02*
X0351802Y0169309D01*
X0350203Y0170908D02*
X0342907Y0170908D01*
X0342907Y0172506D02*
X0343938Y0172506D01*
X0343472Y0174105D02*
X0342907Y0174105D01*
X0342907Y0175703D02*
X0343472Y0175703D01*
X0343472Y0177302D02*
X0342907Y0177302D01*
X0342907Y0178900D02*
X0343472Y0178900D01*
X0343583Y0180499D02*
X0342907Y0180499D01*
X0342907Y0182097D02*
X0345257Y0182097D01*
X0344309Y0183696D02*
X0343005Y0183696D01*
X0350092Y0183696D02*
X0361995Y0183696D01*
X0360624Y0185294D02*
X0351176Y0185294D01*
X0351176Y0186893D02*
X0359254Y0186893D01*
X0357884Y0188491D02*
X0351176Y0188491D01*
X0351176Y0190090D02*
X0356514Y0190090D01*
X0355144Y0191688D02*
X0350870Y0191688D01*
X0352336Y0193287D02*
X0352565Y0193287D01*
X0344407Y0193287D02*
X0335407Y0193287D01*
X0334620Y0191688D02*
X0336445Y0191688D01*
X0336343Y0194885D02*
X0343472Y0194885D01*
X0343472Y0196484D02*
X0336343Y0196484D01*
X0336343Y0198082D02*
X0343472Y0198082D01*
X0343472Y0199681D02*
X0336343Y0199681D01*
X0336343Y0201279D02*
X0343472Y0201279D01*
X0344352Y0202878D02*
X0335463Y0202878D01*
X0332593Y0204476D02*
X0393495Y0204476D01*
X0392390Y0202878D02*
X0378247Y0202878D01*
X0379346Y0202423D02*
X0376872Y0203447D01*
X0374195Y0203447D01*
X0371721Y0202423D01*
X0369827Y0200529D01*
X0368803Y0198055D01*
X0368803Y0195378D01*
X0369827Y0192904D01*
X0371721Y0191011D01*
X0374195Y0189986D01*
X0376872Y0189986D01*
X0379346Y0191011D01*
X0381239Y0192904D01*
X0382264Y0195378D01*
X0382264Y0198055D01*
X0381239Y0200529D01*
X0379346Y0202423D01*
X0380489Y0201279D02*
X0391945Y0201279D01*
X0391986Y0199681D02*
X0381591Y0199681D01*
X0382253Y0198082D02*
X0392523Y0198082D01*
X0393756Y0196484D02*
X0382264Y0196484D01*
X0382060Y0194885D02*
X0393056Y0194885D01*
X0391914Y0193287D02*
X0381398Y0193287D01*
X0380024Y0191688D02*
X0391307Y0191688D01*
X0391307Y0190090D02*
X0377123Y0190090D01*
X0373944Y0190090D02*
X0367051Y0190090D01*
X0368421Y0188491D02*
X0391683Y0188491D01*
X0392498Y0186893D02*
X0369791Y0186893D01*
X0371161Y0185294D02*
X0393465Y0185294D01*
X0392083Y0183696D02*
X0386229Y0183696D01*
X0387049Y0182876D02*
X0387049Y0182876D01*
X0387827Y0182097D02*
X0391421Y0182097D01*
X0391307Y0180499D02*
X0389426Y0180499D01*
X0391024Y0178900D02*
X0391513Y0178900D01*
X0384506Y0174105D02*
X0382057Y0174105D01*
X0382908Y0175703D02*
X0379943Y0175703D01*
X0383326Y0172506D02*
X0386105Y0172506D01*
X0384658Y0170908D02*
X0387703Y0170908D01*
X0389302Y0169309D02*
X0385990Y0169309D01*
X0387322Y0167710D02*
X0390900Y0167710D01*
X0388551Y0166112D02*
X0393279Y0166112D01*
X0396186Y0164513D02*
X0388938Y0164513D01*
X0388907Y0162915D02*
X0399446Y0162915D01*
X0401356Y0161316D02*
X0388907Y0161316D01*
X0388907Y0159718D02*
X0402729Y0159718D01*
X0412086Y0159718D02*
X0416707Y0159718D01*
X0416707Y0161316D02*
X0413459Y0161316D01*
X0413507Y0162915D02*
X0416707Y0162915D01*
X0416707Y0164513D02*
X0413507Y0164513D01*
X0413507Y0166112D02*
X0416707Y0166112D01*
X0416707Y0167710D02*
X0413507Y0167710D01*
X0413507Y0169309D02*
X0416707Y0169309D01*
X0416707Y0170908D02*
X0412904Y0170908D01*
X0412724Y0172506D02*
X0416707Y0172506D01*
X0416707Y0174105D02*
X0413386Y0174105D01*
X0413507Y0175703D02*
X0416707Y0175703D01*
X0416707Y0177302D02*
X0413309Y0177302D01*
X0412647Y0178900D02*
X0416707Y0178900D01*
X0416707Y0180499D02*
X0411146Y0180499D01*
X0412521Y0182097D02*
X0416395Y0182097D01*
X0419907Y0183110D02*
X0419907Y0123110D01*
X0423107Y0134142D02*
X0428309Y0134142D01*
X0426225Y0135740D02*
X0423107Y0135740D01*
X0423107Y0137339D02*
X0424864Y0137339D01*
X0424202Y0138937D02*
X0423107Y0138937D01*
X0423107Y0140536D02*
X0423708Y0140536D01*
X0423708Y0142134D02*
X0423107Y0142134D01*
X0423107Y0143733D02*
X0423767Y0143733D01*
X0423107Y0145331D02*
X0424429Y0145331D01*
X0425175Y0146930D02*
X0423107Y0146930D01*
X0423107Y0148528D02*
X0426773Y0148528D01*
X0429633Y0150127D02*
X0423107Y0150127D01*
X0423107Y0151725D02*
X0450057Y0151725D01*
X0427391Y0153324D02*
X0423107Y0153324D01*
X0423107Y0154922D02*
X0425793Y0154922D01*
X0424685Y0156521D02*
X0423107Y0156521D01*
X0423107Y0158119D02*
X0424023Y0158119D01*
X0423708Y0159718D02*
X0423107Y0159718D01*
X0423107Y0161316D02*
X0423708Y0161316D01*
X0423946Y0162915D02*
X0423107Y0162915D01*
X0423107Y0164513D02*
X0424608Y0164513D01*
X0425607Y0166112D02*
X0423107Y0166112D01*
X0423107Y0167710D02*
X0427205Y0167710D01*
X0430676Y0169309D02*
X0423107Y0169309D01*
X0416707Y0158119D02*
X0388907Y0158119D01*
X0388907Y0156521D02*
X0416707Y0156521D01*
X0416707Y0154922D02*
X0388907Y0154922D01*
X0388907Y0153324D02*
X0416707Y0153324D01*
X0416707Y0151725D02*
X0388907Y0151725D01*
X0388907Y0150127D02*
X0416707Y0150127D01*
X0416707Y0148528D02*
X0388907Y0148528D01*
X0388907Y0146930D02*
X0416707Y0146930D01*
X0416707Y0145331D02*
X0388907Y0145331D01*
X0388907Y0143733D02*
X0416707Y0143733D01*
X0397592Y0140536D02*
X0397223Y0140536D01*
X0397223Y0138937D02*
X0397592Y0138937D01*
X0397592Y0137339D02*
X0397223Y0137339D01*
X0380907Y0143733D02*
X0373909Y0143733D01*
X0373757Y0143692D02*
X0374214Y0143815D01*
X0374625Y0144052D01*
X0374960Y0144387D01*
X0375197Y0144797D01*
X0375320Y0145255D01*
X0375320Y0147067D01*
X0371158Y0147067D01*
X0371158Y0147067D01*
X0371158Y0143692D01*
X0373757Y0143692D01*
X0375320Y0145331D02*
X0380907Y0145331D01*
X0380907Y0146930D02*
X0375320Y0146930D01*
X0375320Y0148528D02*
X0380907Y0148528D01*
X0380907Y0150127D02*
X0374547Y0150127D01*
X0375764Y0151725D02*
X0380907Y0151725D01*
X0380907Y0153324D02*
X0375920Y0153324D01*
X0375920Y0154922D02*
X0380907Y0154922D01*
X0380907Y0156521D02*
X0375789Y0156521D01*
X0375652Y0158119D02*
X0380907Y0158119D01*
X0380907Y0159718D02*
X0375920Y0159718D01*
X0375920Y0161316D02*
X0380907Y0161316D01*
X0380905Y0162915D02*
X0375901Y0162915D01*
X0375099Y0164513D02*
X0379573Y0164513D01*
X0378241Y0166112D02*
X0375920Y0166112D01*
X0375920Y0167710D02*
X0376909Y0167710D01*
X0367216Y0164513D02*
X0342907Y0164513D01*
X0327009Y0172506D02*
X0321004Y0172506D01*
X0320357Y0173154D02*
X0320357Y0173154D01*
X0320665Y0174105D02*
X0319406Y0174105D01*
X0313401Y0165960D02*
X0313401Y0156060D01*
X0313401Y0150354D01*
X0308657Y0146860D01*
X0282124Y0146860D01*
X0279864Y0145850D01*
X0285560Y0143660D02*
X0285035Y0142395D01*
X0283320Y0140679D01*
X0282845Y0140483D01*
X0283447Y0140046D01*
X0284059Y0139433D01*
X0284568Y0138733D01*
X0284961Y0137962D01*
X0285229Y0137138D01*
X0285364Y0136283D01*
X0285364Y0136050D01*
X0280064Y0136050D01*
X0280064Y0135650D01*
X0285364Y0135650D01*
X0285364Y0135418D01*
X0285229Y0134562D01*
X0284961Y0133739D01*
X0284896Y0133610D01*
X0286165Y0133610D01*
X0296215Y0143660D01*
X0285560Y0143660D01*
X0284775Y0142134D02*
X0294689Y0142134D01*
X0293090Y0140536D02*
X0282974Y0140536D01*
X0284420Y0138937D02*
X0291492Y0138937D01*
X0289893Y0137339D02*
X0285164Y0137339D01*
X0285092Y0134142D02*
X0286696Y0134142D01*
X0288295Y0135740D02*
X0280064Y0135740D01*
X0279664Y0135740D02*
X0269020Y0135740D01*
X0270619Y0134142D02*
X0274636Y0134142D01*
X0274767Y0133739D02*
X0274833Y0133610D01*
X0271150Y0133610D01*
X0262451Y0142310D01*
X0261607Y0143154D01*
X0260504Y0143610D01*
X0187400Y0143610D01*
X0186201Y0144810D01*
X0185357Y0145654D01*
X0184254Y0146110D01*
X0144311Y0146110D01*
X0143208Y0145654D01*
X0140708Y0143154D01*
X0139864Y0142310D01*
X0139407Y0141207D01*
X0139407Y0138062D01*
X0138686Y0137763D01*
X0138011Y0137088D01*
X0137645Y0136206D01*
X0137645Y0132101D01*
X0138011Y0131219D01*
X0138620Y0130610D01*
X0138011Y0130001D01*
X0137645Y0129119D01*
X0137645Y0125015D01*
X0138011Y0124133D01*
X0138686Y0123458D01*
X0139407Y0123159D01*
X0139407Y0120636D01*
X0137970Y0122073D01*
X0136794Y0122560D01*
X0123021Y0122560D01*
X0121845Y0122073D01*
X0120945Y0121173D01*
X0119852Y0120080D01*
X0119365Y0118904D01*
X0119365Y0116311D01*
X0119223Y0116252D01*
X0117563Y0114592D01*
X0117226Y0113777D01*
X0117098Y0114028D01*
X0116608Y0114703D01*
X0116018Y0115293D01*
X0115343Y0115783D01*
X0114599Y0116162D01*
X0113806Y0116419D01*
X0112982Y0116550D01*
X0112749Y0116550D01*
X0112749Y0111434D01*
X0112381Y0111434D01*
X0112381Y0116550D01*
X0112148Y0116550D01*
X0111324Y0116419D01*
X0110530Y0116162D01*
X0109787Y0115783D01*
X0109112Y0115293D01*
X0108522Y0114703D01*
X0108032Y0114028D01*
X0107904Y0113777D01*
X0107567Y0114592D01*
X0105907Y0116252D01*
X0103739Y0117150D01*
X0101391Y0117150D01*
X0099223Y0116252D01*
X0097565Y0114594D01*
X0096565Y0115594D01*
X0096565Y0142703D01*
X0100472Y0146610D01*
X0272300Y0146610D01*
X0273764Y0145488D01*
X0273764Y0144637D01*
X0274693Y0142395D01*
X0276409Y0140679D01*
X0276883Y0140483D01*
X0276281Y0140046D01*
X0275669Y0139433D01*
X0275160Y0138733D01*
X0274767Y0137962D01*
X0274500Y0137138D01*
X0274364Y0136283D01*
X0274364Y0136050D01*
X0279664Y0136050D01*
X0279664Y0135650D01*
X0274364Y0135650D01*
X0274364Y0135418D01*
X0274500Y0134562D01*
X0274767Y0133739D01*
X0274565Y0137339D02*
X0267422Y0137339D01*
X0265823Y0138937D02*
X0275309Y0138937D01*
X0276755Y0140536D02*
X0264225Y0140536D01*
X0262626Y0142134D02*
X0274954Y0142134D01*
X0274139Y0143733D02*
X0187278Y0143733D01*
X0185679Y0145331D02*
X0273764Y0145331D01*
X0279864Y0155850D02*
X0228417Y0155850D01*
X0222407Y0161860D01*
X0222407Y0191093D01*
X0222565Y0191250D01*
X0218578Y0186893D02*
X0216551Y0186893D01*
X0215907Y0186248D02*
X0217565Y0187906D01*
X0219207Y0186264D01*
X0219207Y0161224D01*
X0219695Y0160048D01*
X0220595Y0159147D01*
X0225132Y0154610D01*
X0218420Y0154610D01*
X0218420Y0157869D01*
X0218054Y0158751D01*
X0217379Y0159426D01*
X0216765Y0159681D01*
X0217125Y0159888D01*
X0217460Y0160224D01*
X0217697Y0160634D01*
X0217820Y0161092D01*
X0217820Y0162903D01*
X0213658Y0162903D01*
X0213658Y0162904D01*
X0217820Y0162904D01*
X0217820Y0164715D01*
X0217697Y0165173D01*
X0217460Y0165584D01*
X0217125Y0165919D01*
X0216714Y0166156D01*
X0216257Y0166278D01*
X0213658Y0166278D01*
X0213658Y0162904D01*
X0213657Y0162904D01*
X0213657Y0166278D01*
X0211058Y0166278D01*
X0210600Y0166156D01*
X0210190Y0165919D01*
X0209855Y0165584D01*
X0209618Y0165173D01*
X0209495Y0164715D01*
X0209495Y0162904D01*
X0213657Y0162904D01*
X0213657Y0162903D01*
X0209495Y0162903D01*
X0209495Y0161092D01*
X0209618Y0160634D01*
X0209855Y0160224D01*
X0210190Y0159888D01*
X0210550Y0159681D01*
X0209936Y0159426D01*
X0209261Y0158751D01*
X0208895Y0157869D01*
X0208895Y0154610D01*
X0111407Y0154610D01*
X0111407Y0189024D01*
X0130279Y0209075D01*
X0130799Y0209594D01*
X0130823Y0209652D01*
X0130866Y0209698D01*
X0131126Y0210385D01*
X0131407Y0211065D01*
X0131407Y0211127D01*
X0131430Y0211186D01*
X0131407Y0211921D01*
X0131407Y0228953D01*
X0132814Y0230360D01*
X0173594Y0230360D01*
X0173594Y0228669D01*
X0172864Y0229400D01*
X0170824Y0230244D01*
X0168617Y0230244D01*
X0166577Y0229400D01*
X0165783Y0228606D01*
X0164990Y0229400D01*
X0162950Y0230244D01*
X0160743Y0230244D01*
X0158703Y0229400D01*
X0157142Y0227838D01*
X0156297Y0225799D01*
X0156297Y0223591D01*
X0157142Y0221551D01*
X0158703Y0219990D01*
X0160743Y0219145D01*
X0162950Y0219145D01*
X0164990Y0219990D01*
X0165783Y0220784D01*
X0166577Y0219990D01*
X0168617Y0219145D01*
X0170824Y0219145D01*
X0172864Y0219990D01*
X0173657Y0220784D01*
X0174451Y0219990D01*
X0176491Y0219145D01*
X0178698Y0219145D01*
X0180738Y0219990D01*
X0181956Y0221208D01*
X0182244Y0220920D01*
X0182874Y0220462D01*
X0183569Y0220108D01*
X0184309Y0219867D01*
X0185079Y0219745D01*
X0185468Y0219745D01*
X0185468Y0224695D01*
X0185468Y0229644D01*
X0185079Y0229644D01*
X0184309Y0229523D01*
X0183569Y0229282D01*
X0182874Y0228928D01*
X0182244Y0228470D01*
X0181956Y0228182D01*
X0181594Y0228543D01*
X0181594Y0230360D01*
X0204657Y0230360D01*
X0204657Y0228987D01*
X0203486Y0227816D01*
X0202557Y0225574D01*
X0202557Y0223147D01*
X0203486Y0220905D01*
X0205202Y0219189D01*
X0207444Y0218260D01*
X0209871Y0218260D01*
X0212113Y0219189D01*
X0213657Y0220734D01*
X0214657Y0219734D01*
X0214657Y0208360D01*
X0163477Y0208360D01*
X0162940Y0208898D01*
X0160972Y0209713D01*
X0158843Y0209713D01*
X0156875Y0208898D01*
X0156338Y0208360D01*
X0146407Y0208360D01*
X0146407Y0210156D01*
X0145799Y0211626D01*
X0144673Y0212751D01*
X0143057Y0214367D01*
X0143057Y0218166D01*
X0142692Y0219048D01*
X0142017Y0219724D01*
X0141135Y0220089D01*
X0140229Y0220089D01*
X0140697Y0220430D01*
X0141259Y0220992D01*
X0141727Y0221635D01*
X0142087Y0222343D01*
X0142333Y0223099D01*
X0142457Y0223884D01*
X0142457Y0224281D01*
X0137408Y0224281D01*
X0137408Y0224282D01*
X0142457Y0224282D01*
X0142457Y0224679D01*
X0142333Y0225464D01*
X0142087Y0226220D01*
X0141727Y0226928D01*
X0141259Y0227571D01*
X0140697Y0228133D01*
X0140054Y0228601D01*
X0139346Y0228962D01*
X0138590Y0229207D01*
X0137805Y0229331D01*
X0137408Y0229331D01*
X0137408Y0224282D01*
X0137407Y0224282D01*
X0137407Y0229331D01*
X0137010Y0229331D01*
X0136225Y0229207D01*
X0135469Y0228962D01*
X0134761Y0228601D01*
X0134118Y0228133D01*
X0133556Y0227571D01*
X0133088Y0226928D01*
X0132727Y0226220D01*
X0132482Y0225464D01*
X0132357Y0224679D01*
X0132357Y0224282D01*
X0137407Y0224282D01*
X0137407Y0224281D01*
X0132357Y0224281D01*
X0132357Y0223884D01*
X0132482Y0223099D01*
X0132727Y0222343D01*
X0133088Y0221635D01*
X0133556Y0220992D01*
X0134118Y0220430D01*
X0134586Y0220089D01*
X0133680Y0220089D01*
X0132798Y0219724D01*
X0132123Y0219048D01*
X0131757Y0218166D01*
X0131757Y0210712D01*
X0132123Y0209829D01*
X0132798Y0209154D01*
X0133680Y0208789D01*
X0137322Y0208789D01*
X0138407Y0207703D01*
X0138407Y0195436D01*
X0137565Y0194594D01*
X0135907Y0196252D01*
X0133739Y0197150D01*
X0131391Y0197150D01*
X0129223Y0196252D01*
X0127565Y0194594D01*
X0125907Y0196252D01*
X0123739Y0197150D01*
X0121391Y0197150D01*
X0119223Y0196252D01*
X0117563Y0194592D01*
X0116665Y0192424D01*
X0116665Y0190076D01*
X0117563Y0187908D01*
X0119223Y0186248D01*
X0121391Y0185350D01*
X0123739Y0185350D01*
X0125907Y0186248D01*
X0127565Y0187906D01*
X0129223Y0186248D01*
X0131391Y0185350D01*
X0133739Y0185350D01*
X0135907Y0186248D01*
X0137565Y0187906D01*
X0139223Y0186248D01*
X0141391Y0185350D01*
X0143739Y0185350D01*
X0145907Y0186248D01*
X0147565Y0187906D01*
X0149223Y0186248D01*
X0151391Y0185350D01*
X0153739Y0185350D01*
X0155907Y0186248D01*
X0157565Y0187906D01*
X0159223Y0186248D01*
X0161391Y0185350D01*
X0163739Y0185350D01*
X0165907Y0186248D01*
X0167565Y0187906D01*
X0169223Y0186248D01*
X0171391Y0185350D01*
X0173739Y0185350D01*
X0175907Y0186248D01*
X0177565Y0187906D01*
X0179223Y0186248D01*
X0181391Y0185350D01*
X0183739Y0185350D01*
X0185907Y0186248D01*
X0187565Y0187906D01*
X0189223Y0186248D01*
X0191391Y0185350D01*
X0193739Y0185350D01*
X0195907Y0186248D01*
X0197565Y0187906D01*
X0199223Y0186248D01*
X0201391Y0185350D01*
X0203739Y0185350D01*
X0205907Y0186248D01*
X0207565Y0187906D01*
X0209223Y0186248D01*
X0211391Y0185350D01*
X0213739Y0185350D01*
X0215907Y0186248D01*
X0219207Y0185294D02*
X0111407Y0185294D01*
X0111407Y0183696D02*
X0219207Y0183696D01*
X0219207Y0182097D02*
X0111407Y0182097D01*
X0111407Y0180499D02*
X0219207Y0180499D01*
X0219207Y0178900D02*
X0111407Y0178900D01*
X0111407Y0177302D02*
X0219207Y0177302D01*
X0219207Y0175703D02*
X0111407Y0175703D01*
X0111407Y0174105D02*
X0219207Y0174105D01*
X0219207Y0172506D02*
X0111407Y0172506D01*
X0111407Y0170908D02*
X0219207Y0170908D01*
X0219207Y0169309D02*
X0111407Y0169309D01*
X0111407Y0167710D02*
X0219207Y0167710D01*
X0219207Y0166112D02*
X0216790Y0166112D01*
X0217820Y0164513D02*
X0219207Y0164513D01*
X0219207Y0162915D02*
X0217820Y0162915D01*
X0217820Y0161316D02*
X0219207Y0161316D01*
X0220024Y0159718D02*
X0216830Y0159718D01*
X0218316Y0158119D02*
X0221623Y0158119D01*
X0223221Y0156521D02*
X0218420Y0156521D01*
X0218420Y0154922D02*
X0224820Y0154922D01*
X0210485Y0159718D02*
X0111407Y0159718D01*
X0111407Y0161316D02*
X0209495Y0161316D01*
X0209495Y0162915D02*
X0111407Y0162915D01*
X0111407Y0164513D02*
X0209495Y0164513D01*
X0210525Y0166112D02*
X0111407Y0166112D01*
X0103407Y0166112D02*
X0061156Y0166112D01*
X0061156Y0167710D02*
X0103407Y0167710D01*
X0103407Y0169309D02*
X0061156Y0169309D01*
X0061156Y0170908D02*
X0103407Y0170908D01*
X0103407Y0172506D02*
X0061156Y0172506D01*
X0061156Y0174105D02*
X0103407Y0174105D01*
X0103407Y0175703D02*
X0061156Y0175703D01*
X0061156Y0177302D02*
X0063298Y0177302D01*
X0071831Y0177302D02*
X0103407Y0177302D01*
X0103407Y0178900D02*
X0074216Y0178900D01*
X0075814Y0180499D02*
X0103407Y0180499D01*
X0103407Y0182097D02*
X0076560Y0182097D01*
X0077223Y0183696D02*
X0103407Y0183696D01*
X0103407Y0185294D02*
X0077465Y0185294D01*
X0077465Y0186893D02*
X0103407Y0186893D01*
X0103407Y0188491D02*
X0077352Y0188491D01*
X0076690Y0190090D02*
X0103407Y0190090D01*
X0103524Y0191688D02*
X0076028Y0191688D01*
X0074529Y0193287D02*
X0104427Y0193287D01*
X0105938Y0194885D02*
X0072588Y0194885D01*
X0080032Y0200014D02*
X0080561Y0199485D01*
X0081166Y0199045D01*
X0081833Y0198706D01*
X0082545Y0198475D01*
X0082981Y0198405D01*
X0082981Y0202434D01*
X0078953Y0202434D01*
X0079022Y0201997D01*
X0079253Y0201286D01*
X0079593Y0200619D01*
X0080032Y0200014D01*
X0080366Y0199681D02*
X0061156Y0199681D01*
X0061156Y0201279D02*
X0079256Y0201279D01*
X0078953Y0203787D02*
X0082981Y0203787D01*
X0082981Y0207815D01*
X0082545Y0207746D01*
X0081833Y0207515D01*
X0081166Y0207175D01*
X0080561Y0206735D01*
X0080032Y0206206D01*
X0079593Y0205601D01*
X0079253Y0204935D01*
X0079022Y0204223D01*
X0078953Y0203787D01*
X0079104Y0204476D02*
X0061156Y0204476D01*
X0061156Y0202878D02*
X0082981Y0202878D01*
X0082981Y0202434D02*
X0082981Y0203787D01*
X0084334Y0203787D01*
X0084334Y0207815D01*
X0084770Y0207746D01*
X0085482Y0207515D01*
X0086148Y0207175D01*
X0086754Y0206735D01*
X0087283Y0206206D01*
X0087722Y0205601D01*
X0088062Y0204935D01*
X0088293Y0204223D01*
X0088362Y0203787D01*
X0084334Y0203787D01*
X0084334Y0202434D01*
X0088362Y0202434D01*
X0088293Y0201997D01*
X0088062Y0201286D01*
X0087722Y0200619D01*
X0087283Y0200014D01*
X0086754Y0199485D01*
X0086148Y0199045D01*
X0085482Y0198706D01*
X0084770Y0198475D01*
X0084334Y0198405D01*
X0084334Y0202434D01*
X0082981Y0202434D01*
X0082981Y0201279D02*
X0084334Y0201279D01*
X0084334Y0199681D02*
X0082981Y0199681D01*
X0086949Y0199681D02*
X0110451Y0199681D01*
X0108947Y0198082D02*
X0061156Y0198082D01*
X0061156Y0196484D02*
X0107442Y0196484D01*
X0111956Y0201279D02*
X0088059Y0201279D01*
X0088211Y0204476D02*
X0114965Y0204476D01*
X0113460Y0202878D02*
X0084334Y0202878D01*
X0084334Y0204476D02*
X0082981Y0204476D01*
X0082981Y0206075D02*
X0084334Y0206075D01*
X0084334Y0207673D02*
X0082981Y0207673D01*
X0082321Y0207673D02*
X0061156Y0207673D01*
X0061156Y0206075D02*
X0079937Y0206075D01*
X0084994Y0207673D02*
X0117974Y0207673D01*
X0116469Y0206075D02*
X0087378Y0206075D01*
X0084050Y0215666D02*
X0123407Y0215666D01*
X0123407Y0217264D02*
X0087936Y0217264D01*
X0089733Y0218570D02*
X0089733Y0218570D01*
X0089733Y0218570D01*
X0089946Y0218863D02*
X0123407Y0218863D01*
X0123407Y0214067D02*
X0062786Y0214067D01*
X0061690Y0212469D02*
X0122487Y0212469D01*
X0120983Y0210870D02*
X0061210Y0210870D01*
X0061156Y0209272D02*
X0119478Y0209272D01*
X0125951Y0204476D02*
X0138407Y0204476D01*
X0138407Y0202878D02*
X0124446Y0202878D01*
X0122942Y0201279D02*
X0138407Y0201279D01*
X0138407Y0199681D02*
X0121437Y0199681D01*
X0119933Y0198082D02*
X0138407Y0198082D01*
X0138407Y0196484D02*
X0135347Y0196484D01*
X0137274Y0194885D02*
X0137856Y0194885D01*
X0129783Y0196484D02*
X0125347Y0196484D01*
X0127274Y0194885D02*
X0127856Y0194885D01*
X0119783Y0196484D02*
X0118428Y0196484D01*
X0117856Y0194885D02*
X0116924Y0194885D01*
X0117022Y0193287D02*
X0115419Y0193287D01*
X0116665Y0191688D02*
X0113915Y0191688D01*
X0112410Y0190090D02*
X0116665Y0190090D01*
X0117322Y0188491D02*
X0111407Y0188491D01*
X0111407Y0186893D02*
X0118578Y0186893D01*
X0126551Y0186893D02*
X0128578Y0186893D01*
X0136551Y0186893D02*
X0138578Y0186893D01*
X0146551Y0186893D02*
X0148578Y0186893D01*
X0156551Y0186893D02*
X0158578Y0186893D01*
X0166551Y0186893D02*
X0168578Y0186893D01*
X0176551Y0186893D02*
X0178578Y0186893D01*
X0186551Y0186893D02*
X0188578Y0186893D01*
X0196551Y0186893D02*
X0198578Y0186893D01*
X0206551Y0186893D02*
X0208578Y0186893D01*
X0207856Y0194885D02*
X0207274Y0194885D01*
X0205347Y0196484D02*
X0209783Y0196484D01*
X0215347Y0196484D02*
X0219783Y0196484D01*
X0217856Y0194885D02*
X0217274Y0194885D01*
X0225347Y0196484D02*
X0229783Y0196484D01*
X0227856Y0194885D02*
X0227274Y0194885D01*
X0232407Y0191093D02*
X0232565Y0191250D01*
X0232407Y0191093D02*
X0232407Y0166860D01*
X0237167Y0162100D01*
X0268657Y0161860D01*
X0272648Y0165850D01*
X0279864Y0165850D01*
X0274696Y0169309D02*
X0235607Y0169309D01*
X0235607Y0170908D02*
X0257793Y0170908D01*
X0257645Y0172506D02*
X0235607Y0172506D01*
X0235607Y0174105D02*
X0257645Y0174105D01*
X0257784Y0175703D02*
X0235607Y0175703D01*
X0235607Y0177302D02*
X0259090Y0177302D01*
X0262407Y0180499D02*
X0262408Y0180499D01*
X0262407Y0182097D02*
X0262408Y0182097D01*
X0262407Y0183696D02*
X0262408Y0183696D01*
X0265315Y0183696D02*
X0288368Y0183696D01*
X0287645Y0182097D02*
X0266570Y0182097D01*
X0266570Y0180499D02*
X0287645Y0180499D01*
X0287645Y0178900D02*
X0266570Y0178900D01*
X0265725Y0177302D02*
X0267919Y0177302D01*
X0269447Y0170908D02*
X0276295Y0170908D01*
X0269982Y0167710D02*
X0236083Y0167710D01*
X0237681Y0166112D02*
X0268384Y0166112D01*
X0292407Y0172904D02*
X0292407Y0173110D01*
X0292407Y0173317D01*
X0275306Y0194885D02*
X0237274Y0194885D01*
X0235347Y0196484D02*
X0255308Y0196484D01*
X0254495Y0198082D02*
X0146407Y0198082D01*
X0146407Y0196484D02*
X0149783Y0196484D01*
X0147856Y0194885D02*
X0147274Y0194885D01*
X0146407Y0199681D02*
X0157217Y0199681D01*
X0155347Y0196484D02*
X0159783Y0196484D01*
X0157856Y0194885D02*
X0157274Y0194885D01*
X0162598Y0199681D02*
X0254495Y0199681D01*
X0254495Y0201279D02*
X0249983Y0201279D01*
X0251582Y0202878D02*
X0255337Y0202878D01*
X0253947Y0204476D02*
X0253180Y0204476D01*
X0258658Y0199567D02*
X0258658Y0199567D01*
X0262820Y0199567D01*
X0262820Y0197755D01*
X0262697Y0197297D01*
X0262460Y0196887D01*
X0262125Y0196552D01*
X0261714Y0196315D01*
X0261257Y0196192D01*
X0258658Y0196192D01*
X0258658Y0199567D01*
X0258657Y0198082D02*
X0258658Y0198082D01*
X0258657Y0196484D02*
X0258658Y0196484D01*
X0262007Y0196484D02*
X0275102Y0196484D01*
X0275113Y0198082D02*
X0262820Y0198082D01*
X0262820Y0199681D02*
X0275775Y0199681D01*
X0276877Y0201279D02*
X0262820Y0201279D01*
X0261977Y0202878D02*
X0279119Y0202878D01*
X0274856Y0220461D02*
X0274211Y0220461D01*
X0235989Y0218863D02*
X0229107Y0218863D01*
X0232537Y0220461D02*
X0233930Y0220461D01*
X0224778Y0220461D02*
X0223385Y0220461D01*
X0214657Y0218863D02*
X0211326Y0218863D01*
X0213385Y0220461D02*
X0213930Y0220461D01*
X0214657Y0217264D02*
X0143057Y0217264D01*
X0143057Y0215666D02*
X0214657Y0215666D01*
X0214657Y0214067D02*
X0143357Y0214067D01*
X0144956Y0212469D02*
X0214657Y0212469D01*
X0214657Y0210870D02*
X0146112Y0210870D01*
X0146407Y0209272D02*
X0157778Y0209272D01*
X0162037Y0209272D02*
X0214657Y0209272D01*
X0205989Y0218863D02*
X0142769Y0218863D01*
X0140729Y0220461D02*
X0158232Y0220461D01*
X0156931Y0222060D02*
X0141943Y0222060D01*
X0142422Y0223658D02*
X0156297Y0223658D01*
X0156297Y0225257D02*
X0142366Y0225257D01*
X0141764Y0226855D02*
X0156735Y0226855D01*
X0157757Y0228454D02*
X0140256Y0228454D01*
X0137408Y0228454D02*
X0137407Y0228454D01*
X0137407Y0226855D02*
X0137408Y0226855D01*
X0137407Y0225257D02*
X0137408Y0225257D01*
X0134559Y0228454D02*
X0131407Y0228454D01*
X0131407Y0226855D02*
X0133051Y0226855D01*
X0132449Y0225257D02*
X0131407Y0225257D01*
X0131407Y0223658D02*
X0132393Y0223658D01*
X0132872Y0222060D02*
X0131407Y0222060D01*
X0131407Y0220461D02*
X0134086Y0220461D01*
X0132046Y0218863D02*
X0131407Y0218863D01*
X0131407Y0217264D02*
X0131757Y0217264D01*
X0131757Y0215666D02*
X0131407Y0215666D01*
X0131407Y0214067D02*
X0131757Y0214067D01*
X0131757Y0212469D02*
X0131407Y0212469D01*
X0131327Y0210870D02*
X0131757Y0210870D01*
X0132681Y0209272D02*
X0130476Y0209272D01*
X0128960Y0207673D02*
X0138407Y0207673D01*
X0138407Y0206075D02*
X0127455Y0206075D01*
X0165347Y0196484D02*
X0169783Y0196484D01*
X0167856Y0194885D02*
X0167274Y0194885D01*
X0175347Y0196484D02*
X0179783Y0196484D01*
X0177856Y0194885D02*
X0177274Y0194885D01*
X0185347Y0196484D02*
X0189783Y0196484D01*
X0187856Y0194885D02*
X0187274Y0194885D01*
X0195347Y0196484D02*
X0199783Y0196484D01*
X0197856Y0194885D02*
X0197274Y0194885D01*
X0203930Y0220461D02*
X0188062Y0220461D01*
X0188063Y0220462D02*
X0188693Y0220920D01*
X0189244Y0221470D01*
X0189702Y0222101D01*
X0190055Y0222795D01*
X0190296Y0223536D01*
X0190418Y0224305D01*
X0190418Y0224695D01*
X0190418Y0225084D01*
X0190296Y0225854D01*
X0190055Y0226595D01*
X0189702Y0227289D01*
X0189244Y0227919D01*
X0188693Y0228470D01*
X0188063Y0228928D01*
X0187368Y0229282D01*
X0186628Y0229523D01*
X0185858Y0229644D01*
X0185469Y0229644D01*
X0185469Y0224695D01*
X0190418Y0224695D01*
X0185469Y0224695D01*
X0185469Y0224695D01*
X0185468Y0224695D01*
X0185469Y0224695D01*
X0185469Y0219745D01*
X0185858Y0219745D01*
X0186628Y0219867D01*
X0187368Y0220108D01*
X0188063Y0220462D01*
X0189672Y0222060D02*
X0203008Y0222060D01*
X0202557Y0223658D02*
X0190316Y0223658D01*
X0190391Y0225257D02*
X0202557Y0225257D01*
X0203088Y0226855D02*
X0189923Y0226855D01*
X0188709Y0228454D02*
X0204124Y0228454D01*
X0204657Y0230052D02*
X0181594Y0230052D01*
X0181684Y0228454D02*
X0182228Y0228454D01*
X0185468Y0228454D02*
X0185469Y0228454D01*
X0185468Y0226855D02*
X0185469Y0226855D01*
X0185468Y0225257D02*
X0185469Y0225257D01*
X0185468Y0223658D02*
X0185469Y0223658D01*
X0185468Y0222060D02*
X0185469Y0222060D01*
X0185468Y0220461D02*
X0185469Y0220461D01*
X0182875Y0220461D02*
X0181209Y0220461D01*
X0173980Y0220461D02*
X0173335Y0220461D01*
X0166106Y0220461D02*
X0165461Y0220461D01*
X0163414Y0230052D02*
X0168153Y0230052D01*
X0171288Y0230052D02*
X0173594Y0230052D01*
X0160279Y0230052D02*
X0132507Y0230052D01*
X0096339Y0242841D02*
X0414873Y0242841D01*
X0434722Y0214067D02*
X0448427Y0214067D01*
X0449523Y0212469D02*
X0437851Y0212469D01*
X0439450Y0210870D02*
X0450002Y0210870D01*
X0450057Y0209272D02*
X0440307Y0209272D01*
X0440969Y0207673D02*
X0450057Y0207673D01*
X0450057Y0206075D02*
X0441107Y0206075D01*
X0441107Y0204476D02*
X0450057Y0204476D01*
X0450057Y0202878D02*
X0440692Y0202878D01*
X0440029Y0201279D02*
X0450057Y0201279D01*
X0450057Y0199681D02*
X0438781Y0199681D01*
X0436965Y0198082D02*
X0450057Y0198082D01*
X0419907Y0183110D02*
X0417407Y0185610D01*
X0407407Y0185610D01*
X0402407Y0190610D01*
X0397407Y0190610D01*
X0401759Y0194885D02*
X0401954Y0194885D01*
X0401977Y0196484D02*
X0401059Y0196484D01*
X0402292Y0198082D02*
X0402494Y0198082D01*
X0397592Y0201279D02*
X0397223Y0201279D01*
X0397223Y0202878D02*
X0397592Y0202878D01*
X0397592Y0204476D02*
X0397223Y0204476D01*
X0372820Y0202878D02*
X0357385Y0202878D01*
X0359308Y0201279D02*
X0370578Y0201279D01*
X0369476Y0199681D02*
X0360051Y0199681D01*
X0360260Y0198082D02*
X0368814Y0198082D01*
X0368803Y0196484D02*
X0361570Y0196484D01*
X0362940Y0194885D02*
X0369007Y0194885D01*
X0369669Y0193287D02*
X0364310Y0193287D01*
X0365680Y0191688D02*
X0371043Y0191688D01*
X0363365Y0182097D02*
X0357502Y0182097D01*
X0354813Y0182097D02*
X0351487Y0182097D01*
X0360089Y0180499D02*
X0364735Y0180499D01*
X0366105Y0178900D02*
X0361106Y0178900D01*
X0361510Y0177302D02*
X0367559Y0177302D01*
X0352430Y0202878D02*
X0352392Y0202878D01*
X0353518Y0146930D02*
X0341297Y0146930D01*
X0340608Y0145331D02*
X0354075Y0145331D01*
X0352906Y0143733D02*
X0341668Y0143733D01*
X0342728Y0142134D02*
X0351737Y0142134D01*
X0350568Y0140536D02*
X0343789Y0140536D01*
X0337761Y0127748D02*
X0330495Y0127748D01*
X0330693Y0126149D02*
X0333780Y0126149D01*
X0331299Y0124551D02*
X0330693Y0124551D01*
X0331157Y0120610D02*
X0334907Y0123110D01*
X0340114Y0123110D01*
X0331157Y0120610D02*
X0325931Y0120610D01*
X0325931Y0125610D02*
X0321157Y0125610D01*
X0318657Y0123110D01*
X0303884Y0120610D02*
X0303884Y0115610D01*
X0299270Y0118593D02*
X0299034Y0118496D01*
X0298740Y0118437D01*
X0298488Y0118269D01*
X0298208Y0118154D01*
X0297996Y0117942D01*
X0294738Y0115769D01*
X0294458Y0115654D01*
X0294246Y0115442D01*
X0293997Y0115275D01*
X0293828Y0115024D01*
X0293614Y0114810D01*
X0293500Y0114533D01*
X0293333Y0114284D01*
X0293273Y0113987D01*
X0293157Y0113707D01*
X0293157Y0113407D01*
X0293099Y0113113D01*
X0293157Y0112816D01*
X0293157Y0095562D01*
X0292436Y0095263D01*
X0291761Y0094588D01*
X0291395Y0093706D01*
X0291395Y0089601D01*
X0291761Y0088719D01*
X0292370Y0088110D01*
X0291761Y0087501D01*
X0291395Y0086619D01*
X0291395Y0082515D01*
X0291761Y0081633D01*
X0291976Y0081417D01*
X0291976Y0081029D01*
X0292613Y0079492D01*
X0293789Y0078316D01*
X0295326Y0077679D01*
X0296989Y0077679D01*
X0298526Y0078316D01*
X0299702Y0079492D01*
X0300339Y0081029D01*
X0300339Y0081417D01*
X0300457Y0081536D01*
X0300457Y0076936D01*
X0299832Y0076310D01*
X0271601Y0076310D01*
X0272268Y0077922D01*
X0272268Y0080129D01*
X0271423Y0082169D01*
X0269862Y0083730D01*
X0269718Y0083790D01*
X0269718Y0116360D01*
X0293004Y0116360D01*
X0294107Y0116817D01*
X0294951Y0117661D01*
X0299122Y0121832D01*
X0299122Y0118952D01*
X0299270Y0118593D01*
X0298216Y0118157D02*
X0295447Y0118157D01*
X0295921Y0116558D02*
X0293482Y0116558D01*
X0293764Y0114960D02*
X0269718Y0114960D01*
X0269718Y0113361D02*
X0293148Y0113361D01*
X0293157Y0111763D02*
X0269718Y0111763D01*
X0269718Y0110164D02*
X0277494Y0110164D01*
X0278020Y0110690D02*
X0276127Y0108797D01*
X0275102Y0106323D01*
X0275102Y0103645D01*
X0276127Y0101172D01*
X0278020Y0099278D01*
X0280494Y0098254D01*
X0283171Y0098254D01*
X0285645Y0099278D01*
X0287539Y0101172D01*
X0288563Y0103645D01*
X0288563Y0106323D01*
X0287539Y0108797D01*
X0285645Y0110690D01*
X0283171Y0111715D01*
X0280494Y0111715D01*
X0278020Y0110690D01*
X0276031Y0108566D02*
X0269718Y0108566D01*
X0269718Y0106967D02*
X0275369Y0106967D01*
X0275102Y0105369D02*
X0269718Y0105369D01*
X0269718Y0103770D02*
X0275102Y0103770D01*
X0275712Y0102172D02*
X0269718Y0102172D01*
X0269718Y0100573D02*
X0276725Y0100573D01*
X0278753Y0098975D02*
X0269718Y0098975D01*
X0269718Y0097376D02*
X0293157Y0097376D01*
X0293157Y0098975D02*
X0284912Y0098975D01*
X0286940Y0100573D02*
X0293157Y0100573D01*
X0293157Y0102172D02*
X0287953Y0102172D01*
X0288563Y0103770D02*
X0293157Y0103770D01*
X0293157Y0105369D02*
X0288563Y0105369D01*
X0288297Y0106967D02*
X0293157Y0106967D01*
X0293157Y0108566D02*
X0287634Y0108566D01*
X0286171Y0110164D02*
X0293157Y0110164D01*
X0303657Y0109360D02*
X0303657Y0075610D01*
X0301157Y0073110D01*
X0261157Y0073110D01*
X0258657Y0075610D01*
X0258657Y0076339D01*
X0258844Y0079026D01*
X0258844Y0084173D01*
X0254907Y0088110D01*
X0226157Y0088110D01*
X0223245Y0086780D02*
X0223445Y0086298D01*
X0224345Y0085397D01*
X0225521Y0084910D01*
X0253582Y0084910D01*
X0255231Y0083261D01*
X0254907Y0082937D01*
X0254114Y0083730D01*
X0252074Y0084575D01*
X0249867Y0084575D01*
X0247827Y0083730D01*
X0246609Y0082513D01*
X0246321Y0082801D01*
X0245691Y0083259D01*
X0244996Y0083613D01*
X0244255Y0083853D01*
X0243486Y0083975D01*
X0243097Y0083975D01*
X0243097Y0079026D01*
X0243096Y0079026D01*
X0243096Y0079026D01*
X0238147Y0079026D01*
X0238147Y0079415D01*
X0238269Y0080185D01*
X0238509Y0080926D01*
X0238863Y0081620D01*
X0239321Y0082250D01*
X0239872Y0082801D01*
X0240502Y0083259D01*
X0241196Y0083613D01*
X0241937Y0083853D01*
X0242707Y0083975D01*
X0243096Y0083975D01*
X0243096Y0079026D01*
X0238147Y0079026D01*
X0238147Y0078636D01*
X0238269Y0077867D01*
X0238509Y0077126D01*
X0238863Y0076431D01*
X0239321Y0075801D01*
X0239872Y0075250D01*
X0240502Y0074792D01*
X0241196Y0074439D01*
X0241899Y0074210D01*
X0220606Y0074210D01*
X0220769Y0074263D01*
X0221540Y0074656D01*
X0222240Y0075165D01*
X0222853Y0075777D01*
X0223361Y0076478D01*
X0223755Y0077249D01*
X0224022Y0078072D01*
X0224157Y0078927D01*
X0224157Y0079160D01*
X0218858Y0079160D01*
X0218858Y0079560D01*
X0224157Y0079560D01*
X0224157Y0079793D01*
X0224022Y0080648D01*
X0223755Y0081471D01*
X0223361Y0082243D01*
X0222853Y0082943D01*
X0222240Y0083555D01*
X0221540Y0084064D01*
X0220769Y0084457D01*
X0219945Y0084725D01*
X0219090Y0084860D01*
X0218857Y0084860D01*
X0218857Y0079560D01*
X0218457Y0079560D01*
X0218457Y0084860D01*
X0218225Y0084860D01*
X0217370Y0084725D01*
X0216546Y0084457D01*
X0215775Y0084064D01*
X0215074Y0083555D01*
X0214462Y0082943D01*
X0214025Y0082342D01*
X0213829Y0082816D01*
X0212113Y0084532D01*
X0211412Y0084822D01*
X0211370Y0084923D01*
X0205607Y0090686D01*
X0205607Y0106124D01*
X0205907Y0106248D01*
X0207565Y0107906D01*
X0209223Y0106248D01*
X0211391Y0105350D01*
X0213739Y0105350D01*
X0215907Y0106248D01*
X0217565Y0107906D01*
X0219223Y0106248D01*
X0219565Y0106107D01*
X0219565Y0091106D01*
X0220022Y0090003D01*
X0223245Y0086780D01*
X0223556Y0086186D02*
X0210107Y0086186D01*
X0208508Y0087785D02*
X0222240Y0087785D01*
X0220642Y0089383D02*
X0206910Y0089383D01*
X0205607Y0090982D02*
X0219616Y0090982D01*
X0219565Y0092580D02*
X0205607Y0092580D01*
X0205607Y0094179D02*
X0219565Y0094179D01*
X0219565Y0095777D02*
X0205607Y0095777D01*
X0205607Y0097376D02*
X0219565Y0097376D01*
X0219565Y0098975D02*
X0205607Y0098975D01*
X0205607Y0100573D02*
X0219565Y0100573D01*
X0219565Y0102172D02*
X0205607Y0102172D01*
X0205607Y0103770D02*
X0219565Y0103770D01*
X0219565Y0105369D02*
X0213783Y0105369D01*
X0211347Y0105369D02*
X0205607Y0105369D01*
X0206626Y0106967D02*
X0208504Y0106967D01*
X0212407Y0111093D02*
X0212565Y0111250D01*
X0217199Y0114960D02*
X0217931Y0114960D01*
X0217565Y0114594D02*
X0215907Y0116252D01*
X0215407Y0116459D01*
X0215407Y0122755D01*
X0217066Y0123860D01*
X0257415Y0123860D01*
X0263719Y0117557D01*
X0263719Y0083790D01*
X0263575Y0083730D01*
X0262781Y0082937D01*
X0262044Y0083674D01*
X0262044Y0084810D01*
X0261557Y0085986D01*
X0257620Y0089923D01*
X0256720Y0090823D01*
X0255544Y0091310D01*
X0227200Y0091310D01*
X0225565Y0092945D01*
X0225565Y0106107D01*
X0225907Y0106248D01*
X0227565Y0107906D01*
X0229223Y0106248D01*
X0231391Y0105350D01*
X0233739Y0105350D01*
X0235907Y0106248D01*
X0237567Y0107908D01*
X0238465Y0110076D01*
X0238465Y0112424D01*
X0237567Y0114592D01*
X0235907Y0116252D01*
X0233739Y0117150D01*
X0231391Y0117150D01*
X0229223Y0116252D01*
X0227565Y0114594D01*
X0225907Y0116252D01*
X0223739Y0117150D01*
X0221391Y0117150D01*
X0219223Y0116252D01*
X0217565Y0114594D01*
X0215407Y0116558D02*
X0219962Y0116558D01*
X0215407Y0118157D02*
X0240345Y0118157D01*
X0240165Y0117722D02*
X0240165Y0114778D01*
X0241292Y0112058D01*
X0243373Y0109977D01*
X0246093Y0108850D01*
X0249037Y0108850D01*
X0251757Y0109977D01*
X0253838Y0112058D01*
X0254965Y0114778D01*
X0254965Y0117722D01*
X0253838Y0120442D01*
X0251757Y0122523D01*
X0249037Y0123650D01*
X0246093Y0123650D01*
X0243373Y0122523D01*
X0241292Y0120442D01*
X0240165Y0117722D01*
X0240165Y0116558D02*
X0235167Y0116558D01*
X0237199Y0114960D02*
X0240165Y0114960D01*
X0240752Y0113361D02*
X0238077Y0113361D01*
X0238465Y0111763D02*
X0241587Y0111763D01*
X0243186Y0110164D02*
X0238465Y0110164D01*
X0237839Y0108566D02*
X0263719Y0108566D01*
X0263719Y0110164D02*
X0251944Y0110164D01*
X0253543Y0111763D02*
X0263719Y0111763D01*
X0263719Y0113361D02*
X0254378Y0113361D01*
X0254965Y0114960D02*
X0263719Y0114960D01*
X0263719Y0116558D02*
X0254965Y0116558D01*
X0254785Y0118157D02*
X0263118Y0118157D01*
X0261520Y0119755D02*
X0254123Y0119755D01*
X0252926Y0121354D02*
X0259921Y0121354D01*
X0258323Y0122952D02*
X0250722Y0122952D01*
X0244408Y0122952D02*
X0215704Y0122952D01*
X0215407Y0121354D02*
X0242203Y0121354D01*
X0241007Y0119755D02*
X0215407Y0119755D01*
X0225167Y0116558D02*
X0229962Y0116558D01*
X0227931Y0114960D02*
X0227199Y0114960D01*
X0226626Y0106967D02*
X0228504Y0106967D01*
X0231347Y0105369D02*
X0225565Y0105369D01*
X0225565Y0103770D02*
X0263719Y0103770D01*
X0263719Y0102172D02*
X0225565Y0102172D01*
X0225565Y0100573D02*
X0263719Y0100573D01*
X0263719Y0098975D02*
X0225565Y0098975D01*
X0225565Y0097376D02*
X0263719Y0097376D01*
X0263719Y0095777D02*
X0225565Y0095777D01*
X0225565Y0094179D02*
X0263719Y0094179D01*
X0263719Y0092580D02*
X0225930Y0092580D01*
X0220367Y0084588D02*
X0253904Y0084588D01*
X0254855Y0082989D02*
X0254960Y0082989D01*
X0247086Y0082989D02*
X0246062Y0082989D01*
X0243097Y0082989D02*
X0243096Y0082989D01*
X0243096Y0081391D02*
X0243097Y0081391D01*
X0243096Y0079792D02*
X0243097Y0079792D01*
X0240131Y0082989D02*
X0222806Y0082989D01*
X0223781Y0081391D02*
X0238747Y0081391D01*
X0238207Y0079792D02*
X0224157Y0079792D01*
X0224041Y0078194D02*
X0238217Y0078194D01*
X0238780Y0076595D02*
X0223421Y0076595D01*
X0222009Y0074997D02*
X0240221Y0074997D01*
X0218857Y0079792D02*
X0218457Y0079792D01*
X0218457Y0081391D02*
X0218857Y0081391D01*
X0218857Y0082989D02*
X0218457Y0082989D01*
X0218457Y0084588D02*
X0218857Y0084588D01*
X0216948Y0084588D02*
X0211977Y0084588D01*
X0213655Y0082989D02*
X0214508Y0082989D01*
X0208657Y0083110D02*
X0208657Y0079360D01*
X0208657Y0083110D02*
X0202407Y0089360D01*
X0202407Y0111093D01*
X0202565Y0111250D01*
X0192565Y0111250D02*
X0192565Y0085453D01*
X0198657Y0079360D01*
X0188657Y0079360D02*
X0182407Y0085610D01*
X0182407Y0111093D01*
X0182565Y0111250D01*
X0178504Y0106967D02*
X0176626Y0106967D01*
X0175907Y0106248D02*
X0177565Y0107906D01*
X0179207Y0106264D01*
X0179207Y0085460D01*
X0177444Y0085460D01*
X0175202Y0084532D01*
X0173486Y0082816D01*
X0172557Y0080574D01*
X0172557Y0078147D01*
X0173486Y0075905D01*
X0175057Y0074334D01*
X0175057Y0074210D01*
X0163345Y0074210D01*
X0163612Y0074321D01*
X0165173Y0075882D01*
X0166018Y0077922D01*
X0166018Y0080129D01*
X0165173Y0082169D01*
X0163612Y0083730D01*
X0163107Y0083939D01*
X0163107Y0095297D01*
X0163170Y0095614D01*
X0163107Y0095927D01*
X0163107Y0096247D01*
X0162984Y0096545D01*
X0162920Y0096862D01*
X0162743Y0097128D01*
X0162620Y0097423D01*
X0162392Y0097651D01*
X0162212Y0097920D01*
X0161946Y0098097D01*
X0161720Y0098323D01*
X0161422Y0098447D01*
X0158196Y0100597D01*
X0157970Y0100823D01*
X0157672Y0100947D01*
X0157403Y0101126D01*
X0157089Y0101188D01*
X0156794Y0101310D01*
X0156471Y0101310D01*
X0156154Y0101373D01*
X0155841Y0101310D01*
X0140307Y0101310D01*
X0140307Y0105799D01*
X0141391Y0105350D01*
X0143739Y0105350D01*
X0145907Y0106248D01*
X0147565Y0107906D01*
X0149223Y0106248D01*
X0151391Y0105350D01*
X0153739Y0105350D01*
X0155907Y0106248D01*
X0157565Y0107906D01*
X0159223Y0106248D01*
X0161391Y0105350D01*
X0163739Y0105350D01*
X0165907Y0106248D01*
X0167565Y0107906D01*
X0169223Y0106248D01*
X0171391Y0105350D01*
X0173739Y0105350D01*
X0175907Y0106248D01*
X0173783Y0105369D02*
X0179207Y0105369D01*
X0179207Y0103770D02*
X0140307Y0103770D01*
X0140307Y0102172D02*
X0179207Y0102172D01*
X0179207Y0100573D02*
X0158232Y0100573D01*
X0160630Y0098975D02*
X0179207Y0098975D01*
X0179207Y0097376D02*
X0162640Y0097376D01*
X0163137Y0095777D02*
X0179207Y0095777D01*
X0179207Y0094179D02*
X0163107Y0094179D01*
X0163107Y0092580D02*
X0179207Y0092580D01*
X0179207Y0090982D02*
X0163107Y0090982D01*
X0163107Y0089383D02*
X0179207Y0089383D01*
X0179207Y0087785D02*
X0163107Y0087785D01*
X0163107Y0086186D02*
X0179207Y0086186D01*
X0175338Y0084588D02*
X0163107Y0084588D01*
X0164353Y0082989D02*
X0173660Y0082989D01*
X0172896Y0081391D02*
X0165496Y0081391D01*
X0166018Y0079792D02*
X0172557Y0079792D01*
X0172557Y0078194D02*
X0166018Y0078194D01*
X0165469Y0076595D02*
X0173200Y0076595D01*
X0174394Y0074997D02*
X0164288Y0074997D01*
X0159907Y0077087D02*
X0160469Y0079026D01*
X0159907Y0077087D02*
X0159907Y0095610D01*
X0156157Y0098110D01*
X0138657Y0098110D01*
X0137407Y0099360D01*
X0132407Y0098110D02*
X0132407Y0111093D01*
X0132565Y0111250D01*
X0128504Y0106967D02*
X0126626Y0106967D01*
X0125907Y0106248D02*
X0127565Y0107906D01*
X0129207Y0106264D01*
X0129207Y0097474D01*
X0129695Y0096298D01*
X0130595Y0095397D01*
X0135595Y0090397D01*
X0136771Y0089910D01*
X0148582Y0089910D01*
X0149394Y0089098D01*
X0149394Y0083674D01*
X0148657Y0082937D01*
X0147864Y0083730D01*
X0145824Y0084575D01*
X0143617Y0084575D01*
X0141577Y0083730D01*
X0140359Y0082513D01*
X0140071Y0082801D01*
X0139441Y0083259D01*
X0138746Y0083613D01*
X0138005Y0083853D01*
X0137236Y0083975D01*
X0136847Y0083975D01*
X0136847Y0079026D01*
X0136846Y0079026D01*
X0136846Y0079026D01*
X0131897Y0079026D01*
X0131897Y0079415D01*
X0132019Y0080185D01*
X0132259Y0080926D01*
X0132613Y0081620D01*
X0133071Y0082250D01*
X0133622Y0082801D01*
X0134252Y0083259D01*
X0134946Y0083613D01*
X0135687Y0083853D01*
X0136457Y0083975D01*
X0136846Y0083975D01*
X0136846Y0079026D01*
X0131897Y0079026D01*
X0131897Y0078636D01*
X0132019Y0077867D01*
X0132259Y0077126D01*
X0132613Y0076431D01*
X0133071Y0075801D01*
X0133622Y0075250D01*
X0134252Y0074792D01*
X0134946Y0074439D01*
X0135649Y0074210D01*
X0133899Y0074210D01*
X0131007Y0077101D01*
X0131007Y0091326D01*
X0130459Y0092649D01*
X0124209Y0098899D01*
X0124209Y0098899D01*
X0123197Y0099912D01*
X0121874Y0100460D01*
X0096965Y0100460D01*
X0096965Y0107306D01*
X0097565Y0107906D01*
X0099223Y0106248D01*
X0101391Y0105350D01*
X0103739Y0105350D01*
X0105907Y0106248D01*
X0107567Y0107908D01*
X0107904Y0108723D01*
X0108032Y0108472D01*
X0108522Y0107797D01*
X0109112Y0107207D01*
X0109787Y0106717D01*
X0110530Y0106338D01*
X0111324Y0106080D01*
X0112148Y0105950D01*
X0112381Y0105950D01*
X0112381Y0111066D01*
X0112749Y0111066D01*
X0112749Y0105950D01*
X0112982Y0105950D01*
X0113806Y0106080D01*
X0114599Y0106338D01*
X0115343Y0106717D01*
X0116018Y0107207D01*
X0116608Y0107797D01*
X0117098Y0108472D01*
X0117226Y0108723D01*
X0117563Y0107908D01*
X0119223Y0106248D01*
X0121391Y0105350D01*
X0123739Y0105350D01*
X0125907Y0106248D01*
X0123783Y0105369D02*
X0129207Y0105369D01*
X0129207Y0103770D02*
X0096965Y0103770D01*
X0096965Y0102172D02*
X0129207Y0102172D01*
X0129207Y0100573D02*
X0096965Y0100573D01*
X0096965Y0105369D02*
X0101347Y0105369D01*
X0103783Y0105369D02*
X0121347Y0105369D01*
X0118504Y0106967D02*
X0115687Y0106967D01*
X0117145Y0108566D02*
X0117291Y0108566D01*
X0112749Y0108566D02*
X0112381Y0108566D01*
X0112381Y0110164D02*
X0112749Y0110164D01*
X0112749Y0111763D02*
X0112381Y0111763D01*
X0112381Y0113361D02*
X0112749Y0113361D01*
X0112749Y0114960D02*
X0112381Y0114960D01*
X0108779Y0114960D02*
X0107199Y0114960D01*
X0105167Y0116558D02*
X0119365Y0116558D01*
X0119365Y0118157D02*
X0096565Y0118157D01*
X0096565Y0119755D02*
X0119717Y0119755D01*
X0121125Y0121354D02*
X0096565Y0121354D01*
X0096565Y0122952D02*
X0139407Y0122952D01*
X0139407Y0121354D02*
X0138690Y0121354D01*
X0136157Y0119360D02*
X0137407Y0118110D01*
X0136157Y0119360D02*
X0123657Y0119360D01*
X0122565Y0118268D01*
X0122565Y0111250D01*
X0117931Y0114960D02*
X0116351Y0114960D01*
X0107984Y0108566D02*
X0107839Y0108566D01*
X0106626Y0106967D02*
X0109443Y0106967D01*
X0112381Y0106967D02*
X0112749Y0106967D01*
X0124134Y0098975D02*
X0129207Y0098975D01*
X0129248Y0097376D02*
X0125733Y0097376D01*
X0127331Y0095777D02*
X0130215Y0095777D01*
X0128930Y0094179D02*
X0131813Y0094179D01*
X0130488Y0092580D02*
X0133412Y0092580D01*
X0135010Y0090982D02*
X0131007Y0090982D01*
X0131007Y0089383D02*
X0149109Y0089383D01*
X0149394Y0087785D02*
X0131007Y0087785D01*
X0131007Y0086186D02*
X0149394Y0086186D01*
X0149394Y0084588D02*
X0131007Y0084588D01*
X0131007Y0082989D02*
X0133881Y0082989D01*
X0132497Y0081391D02*
X0131007Y0081391D01*
X0131007Y0079792D02*
X0131957Y0079792D01*
X0131967Y0078194D02*
X0131007Y0078194D01*
X0131514Y0076595D02*
X0132530Y0076595D01*
X0133112Y0074997D02*
X0133971Y0074997D01*
X0136846Y0079792D02*
X0136847Y0079792D01*
X0136846Y0081391D02*
X0136847Y0081391D01*
X0136846Y0082989D02*
X0136847Y0082989D01*
X0139812Y0082989D02*
X0140836Y0082989D01*
X0148605Y0082989D02*
X0148710Y0082989D01*
X0152594Y0079026D02*
X0152594Y0090423D01*
X0149907Y0093110D01*
X0137407Y0093110D01*
X0132407Y0098110D01*
X0140307Y0105369D02*
X0141347Y0105369D01*
X0143783Y0105369D02*
X0151347Y0105369D01*
X0153783Y0105369D02*
X0161347Y0105369D01*
X0163783Y0105369D02*
X0171347Y0105369D01*
X0168504Y0106967D02*
X0166626Y0106967D01*
X0158504Y0106967D02*
X0156626Y0106967D01*
X0148504Y0106967D02*
X0146626Y0106967D01*
X0120346Y0092580D02*
X0095698Y0092580D01*
X0089117Y0092580D02*
X0061156Y0092580D01*
X0061156Y0094179D02*
X0087724Y0094179D01*
X0087062Y0095777D02*
X0061156Y0095777D01*
X0061156Y0097376D02*
X0087055Y0097376D01*
X0087489Y0098975D02*
X0061156Y0098975D01*
X0061156Y0100573D02*
X0088165Y0100573D01*
X0088165Y0102172D02*
X0061156Y0102172D01*
X0061156Y0103770D02*
X0088165Y0103770D01*
X0088165Y0105369D02*
X0083783Y0105369D01*
X0081347Y0105369D02*
X0061156Y0105369D01*
X0061156Y0106967D02*
X0064106Y0106967D01*
X0061249Y0108566D02*
X0061156Y0108566D01*
X0071024Y0106967D02*
X0078504Y0106967D01*
X0077291Y0108566D02*
X0073881Y0108566D01*
X0075480Y0110164D02*
X0076665Y0110164D01*
X0076665Y0111763D02*
X0076422Y0111763D01*
X0077465Y0114960D02*
X0077931Y0114960D01*
X0077465Y0116558D02*
X0079963Y0116558D01*
X0077465Y0118157D02*
X0088565Y0118157D01*
X0088565Y0119755D02*
X0076829Y0119755D01*
X0076167Y0121354D02*
X0088565Y0121354D01*
X0088565Y0122952D02*
X0074863Y0122952D01*
X0073265Y0124551D02*
X0088565Y0124551D01*
X0088565Y0126149D02*
X0069536Y0126149D01*
X0065594Y0126149D02*
X0061156Y0126149D01*
X0061156Y0124551D02*
X0061865Y0124551D01*
X0061156Y0127748D02*
X0088565Y0127748D01*
X0088565Y0129346D02*
X0061156Y0129346D01*
X0061156Y0130945D02*
X0088565Y0130945D01*
X0088565Y0132543D02*
X0061156Y0132543D01*
X0061156Y0134142D02*
X0088565Y0134142D01*
X0088565Y0135740D02*
X0061156Y0135740D01*
X0061156Y0137339D02*
X0088565Y0137339D01*
X0088565Y0138937D02*
X0061156Y0138937D01*
X0061156Y0140536D02*
X0088565Y0140536D01*
X0088565Y0142134D02*
X0061156Y0142134D01*
X0061156Y0143733D02*
X0088565Y0143733D01*
X0088638Y0145331D02*
X0061156Y0145331D01*
X0061156Y0146930D02*
X0089478Y0146930D01*
X0091076Y0148528D02*
X0061156Y0148528D01*
X0061156Y0150127D02*
X0092675Y0150127D01*
X0094273Y0151725D02*
X0061156Y0151725D01*
X0061156Y0153324D02*
X0095872Y0153324D01*
X0103407Y0154922D02*
X0061156Y0154922D01*
X0061156Y0156521D02*
X0103407Y0156521D01*
X0103407Y0158119D02*
X0061156Y0158119D01*
X0061156Y0159718D02*
X0103407Y0159718D01*
X0103407Y0161316D02*
X0061156Y0161316D01*
X0061156Y0162915D02*
X0103407Y0162915D01*
X0103407Y0164513D02*
X0061156Y0164513D01*
X0097594Y0143733D02*
X0141287Y0143733D01*
X0139792Y0142134D02*
X0096565Y0142134D01*
X0096565Y0140536D02*
X0139407Y0140536D01*
X0139407Y0138937D02*
X0096565Y0138937D01*
X0096565Y0137339D02*
X0138262Y0137339D01*
X0137645Y0135740D02*
X0096565Y0135740D01*
X0096565Y0134142D02*
X0137645Y0134142D01*
X0137645Y0132543D02*
X0096565Y0132543D01*
X0096565Y0130945D02*
X0138285Y0130945D01*
X0137739Y0129346D02*
X0096565Y0129346D01*
X0096565Y0127748D02*
X0137645Y0127748D01*
X0137645Y0126149D02*
X0096565Y0126149D01*
X0096565Y0124551D02*
X0137837Y0124551D01*
X0142201Y0134154D02*
X0142407Y0134154D01*
X0142886Y0145331D02*
X0099193Y0145331D01*
X0111407Y0154922D02*
X0208895Y0154922D01*
X0208895Y0156521D02*
X0111407Y0156521D01*
X0111407Y0158119D02*
X0208999Y0158119D01*
X0213657Y0162915D02*
X0213658Y0162915D01*
X0213657Y0164513D02*
X0213658Y0164513D01*
X0213657Y0166112D02*
X0213658Y0166112D01*
X0184311Y0135110D02*
X0183208Y0135567D01*
X0182364Y0136411D01*
X0181165Y0137610D01*
X0176803Y0137610D01*
X0176875Y0137569D01*
X0177210Y0137234D01*
X0177447Y0136823D01*
X0177570Y0136365D01*
X0177570Y0134554D01*
X0173408Y0134554D01*
X0173408Y0134553D01*
X0177570Y0134553D01*
X0177570Y0134210D01*
X0205291Y0134210D01*
X0206720Y0135110D01*
X0184311Y0135110D01*
X0183035Y0135740D02*
X0177570Y0135740D01*
X0177105Y0137339D02*
X0181436Y0137339D01*
X0173407Y0134554D02*
X0173407Y0134553D01*
X0169245Y0134553D01*
X0169245Y0134210D01*
X0167170Y0134210D01*
X0167170Y0136206D01*
X0166804Y0137088D01*
X0166282Y0137610D01*
X0170012Y0137610D01*
X0169940Y0137569D01*
X0169605Y0137234D01*
X0169368Y0136823D01*
X0169245Y0136365D01*
X0169245Y0134554D01*
X0173407Y0134554D01*
X0169245Y0135740D02*
X0167170Y0135740D01*
X0166553Y0137339D02*
X0169710Y0137339D01*
X0216626Y0106967D02*
X0218504Y0106967D01*
X0233783Y0105369D02*
X0263719Y0105369D01*
X0263719Y0106967D02*
X0236626Y0106967D01*
X0256337Y0090982D02*
X0263719Y0090982D01*
X0263719Y0089383D02*
X0258160Y0089383D01*
X0259758Y0087785D02*
X0263719Y0087785D01*
X0263719Y0086186D02*
X0261357Y0086186D01*
X0262044Y0084588D02*
X0263719Y0084588D01*
X0262834Y0082989D02*
X0262729Y0082989D01*
X0269718Y0084588D02*
X0291395Y0084588D01*
X0291395Y0086186D02*
X0269718Y0086186D01*
X0269718Y0087785D02*
X0292044Y0087785D01*
X0291486Y0089383D02*
X0269718Y0089383D01*
X0269718Y0090982D02*
X0291395Y0090982D01*
X0291395Y0092580D02*
X0269718Y0092580D01*
X0269718Y0094179D02*
X0291591Y0094179D01*
X0293157Y0095777D02*
X0269718Y0095777D01*
X0270603Y0082989D02*
X0291395Y0082989D01*
X0291976Y0081391D02*
X0271746Y0081391D01*
X0272268Y0079792D02*
X0292488Y0079792D01*
X0294083Y0078194D02*
X0272268Y0078194D01*
X0271719Y0076595D02*
X0300117Y0076595D01*
X0300457Y0078194D02*
X0298232Y0078194D01*
X0299827Y0079792D02*
X0300457Y0079792D01*
X0300457Y0081391D02*
X0300339Y0081391D01*
X0305971Y0073398D02*
X0312918Y0073398D01*
X0334851Y0073398D02*
X0363124Y0073398D01*
X0362230Y0074997D02*
X0335569Y0074997D01*
X0335851Y0076595D02*
X0361907Y0076595D01*
X0361907Y0077060D02*
X0367207Y0077060D01*
X0367207Y0082360D01*
X0366975Y0082360D01*
X0366120Y0082225D01*
X0365296Y0081957D01*
X0364525Y0081564D01*
X0363824Y0081055D01*
X0363212Y0080443D01*
X0362703Y0079743D01*
X0362310Y0078971D01*
X0362043Y0078148D01*
X0361907Y0077293D01*
X0361907Y0077060D01*
X0362058Y0078194D02*
X0335788Y0078194D01*
X0335126Y0079792D02*
X0362739Y0079792D01*
X0364286Y0081391D02*
X0333782Y0081391D01*
X0367207Y0081391D02*
X0367607Y0081391D01*
X0367607Y0079792D02*
X0367207Y0079792D01*
X0367207Y0078194D02*
X0367607Y0078194D01*
X0367607Y0076595D02*
X0367207Y0076595D01*
X0367207Y0074997D02*
X0367607Y0074997D01*
X0367607Y0073398D02*
X0367207Y0073398D01*
X0424112Y0085587D02*
X0424112Y0085587D01*
X0371157Y0143733D02*
X0371158Y0143733D01*
X0371157Y0145331D02*
X0371158Y0145331D01*
X0371157Y0146930D02*
X0371158Y0146930D01*
X0303884Y0110610D02*
X0303657Y0109360D01*
X0299122Y0119755D02*
X0297045Y0119755D01*
X0298644Y0121354D02*
X0299122Y0121354D01*
X0123543Y0089383D02*
X0061897Y0089383D01*
X0061298Y0090982D02*
X0121945Y0090982D01*
X0123807Y0087785D02*
X0063325Y0087785D01*
X0085256Y0086186D02*
X0123807Y0086186D01*
X0123807Y0084588D02*
X0088476Y0084588D01*
X0089733Y0083674D02*
X0089733Y0083674D01*
X0089733Y0083674D01*
X0087100Y0085587D02*
X0087100Y0085587D01*
X0086626Y0106967D02*
X0088165Y0106967D01*
X0096965Y0106967D02*
X0098504Y0106967D01*
X0097931Y0114960D02*
X0097199Y0114960D01*
X0096565Y0116558D02*
X0099962Y0116558D01*
X0088565Y0116558D02*
X0085167Y0116558D01*
X0087199Y0114960D02*
X0087931Y0114960D01*
X0062542Y0194885D02*
X0061156Y0194885D01*
X0220855Y0230052D02*
X0235481Y0230052D01*
X0224973Y0228454D02*
X0223190Y0228454D01*
D29*
X0303146Y0198110D02*
X0303146Y0180610D01*
X0142565Y0191250D02*
X0142407Y0191093D01*
X0142565Y0191250D02*
X0142407Y0191407D01*
X0092565Y0111250D02*
X0092565Y0096860D01*
X0092565Y0095768D01*
X0144720Y0070797D02*
X0144907Y0070610D01*
D30*
X0092565Y0111250D02*
X0092565Y0144360D01*
X0098815Y0150610D01*
X0107407Y0150610D01*
X0107407Y0190610D01*
X0127407Y0211860D01*
X0127407Y0230610D01*
X0131157Y0234360D01*
X0178657Y0234360D01*
X0208657Y0234360D01*
X0208657Y0224360D01*
X0218657Y0224360D02*
X0218657Y0205610D01*
X0219907Y0204360D02*
X0247407Y0204360D01*
X0254907Y0211860D01*
X0257407Y0211860D01*
X0287407Y0211860D01*
X0292181Y0216634D01*
X0314907Y0216634D01*
X0321010Y0216634D01*
X0314169Y0198110D02*
X0331443Y0198110D01*
X0348372Y0198110D02*
X0354907Y0198110D01*
X0369907Y0180610D01*
X0383657Y0180610D01*
X0393657Y0170610D01*
X0397407Y0170610D01*
X0402407Y0165610D01*
X0407407Y0165610D01*
X0384907Y0164360D02*
X0384907Y0111860D01*
X0388657Y0108110D01*
X0396157Y0108110D01*
X0397407Y0106860D01*
X0397407Y0104360D01*
X0399907Y0101860D01*
X0407407Y0101860D01*
X0384907Y0164360D02*
X0378657Y0171860D01*
X0371157Y0171860D01*
X0354907Y0171860D01*
X0349622Y0177146D01*
X0348372Y0176860D01*
X0331443Y0176860D02*
X0323657Y0176860D01*
X0318657Y0180610D01*
X0314169Y0180610D01*
X0279864Y0145850D02*
X0273657Y0150610D01*
X0213657Y0150610D01*
X0107407Y0150610D01*
X0142407Y0191407D02*
X0142407Y0204360D01*
X0159907Y0204360D01*
X0219907Y0204360D01*
X0177594Y0224695D02*
X0177594Y0233297D01*
X0208657Y0234360D02*
X0286157Y0234360D01*
X0286344Y0232923D02*
X0286344Y0224695D01*
X0142407Y0209360D02*
X0142407Y0204360D01*
X0142407Y0209360D02*
X0137407Y0214360D01*
X0137407Y0214439D01*
D31*
X0177594Y0233297D02*
X0178657Y0234360D01*
X0218657Y0205610D02*
X0219907Y0204360D01*
X0286344Y0232923D02*
X0286157Y0234360D01*
X0311157Y0231860D02*
X0313657Y0234360D01*
X0320783Y0234360D01*
X0321010Y0234587D01*
X0321157Y0234734D01*
X0327033Y0234734D01*
X0328657Y0233110D01*
X0328657Y0208110D01*
X0327407Y0209360D01*
X0308451Y0209360D01*
X0304701Y0200404D01*
X0304907Y0200610D01*
X0304907Y0199872D01*
X0303146Y0198110D01*
X0310114Y0216841D02*
X0311047Y0216800D01*
X0311157Y0216911D01*
X0311157Y0220610D01*
X0311047Y0216800D02*
X0314907Y0216634D01*
X0311157Y0230610D02*
X0311157Y0231860D01*
X0348372Y0176860D02*
X0356157Y0176860D01*
X0250970Y0079026D02*
X0250970Y0072923D01*
X0249282Y0071235D01*
X0248657Y0070610D01*
X0178657Y0070610D01*
X0178657Y0079360D01*
X0178657Y0070610D02*
X0144907Y0070610D01*
X0132407Y0070610D01*
X0127407Y0075610D01*
X0127407Y0090610D01*
X0121157Y0096860D01*
X0092565Y0096860D01*
X0092407Y0096860D01*
X0144720Y0079026D02*
X0144720Y0070797D01*
D32*
X0142565Y0111250D02*
X0142407Y0111407D01*
X0142407Y0127067D01*
X0142407Y0134154D02*
X0142407Y0140610D01*
X0144907Y0143110D01*
X0183657Y0143110D01*
X0186157Y0140610D01*
X0259907Y0140610D01*
X0269907Y0130610D01*
X0287407Y0130610D01*
X0299907Y0143110D01*
X0317407Y0143110D01*
X0318657Y0144360D01*
X0318657Y0170610D01*
X0317407Y0171860D01*
X0293657Y0171860D01*
X0292407Y0173110D01*
X0292407Y0173317D02*
X0291364Y0174360D01*
X0268657Y0174360D01*
X0267614Y0173317D01*
X0262407Y0173317D01*
X0292407Y0180404D02*
X0302939Y0180404D01*
X0303146Y0180610D01*
X0321157Y0160610D02*
X0323657Y0163110D01*
X0338657Y0163110D01*
X0339907Y0164360D01*
X0339907Y0186860D01*
X0340114Y0188110D01*
X0330951Y0188110D01*
X0347201Y0188110D02*
X0347407Y0193110D01*
X0347407Y0195610D01*
X0348657Y0195896D01*
X0348372Y0198110D01*
X0371157Y0171860D02*
X0371157Y0167904D01*
X0371157Y0160817D02*
X0370951Y0160610D01*
X0326157Y0160610D01*
X0323657Y0158110D01*
X0323657Y0138110D01*
X0321157Y0135610D01*
X0299907Y0135610D01*
X0288657Y0124360D01*
X0268657Y0124360D01*
X0258657Y0134360D01*
X0211157Y0134360D01*
X0206157Y0131210D01*
X0164957Y0131210D01*
X0162407Y0133110D01*
X0162407Y0134154D01*
X0162407Y0127067D02*
X0162407Y0111407D01*
X0162565Y0111250D01*
X0172565Y0111250D02*
X0173407Y0112093D01*
X0173407Y0127467D01*
X0174051Y0126860D01*
X0206157Y0126860D01*
X0212407Y0130610D01*
X0258657Y0130610D01*
X0267407Y0121860D01*
X0289907Y0121860D01*
X0301157Y0131860D01*
X0309907Y0131860D01*
X0312407Y0129360D01*
X0312407Y0123110D01*
X0309907Y0120610D01*
X0303884Y0120610D01*
X0303884Y0115610D02*
X0299907Y0115610D01*
X0296157Y0113110D01*
X0296157Y0091654D01*
X0296157Y0084567D02*
X0296157Y0081860D01*
X0266719Y0079026D02*
X0266719Y0118799D01*
X0266157Y0119360D01*
X0258657Y0126860D01*
X0216157Y0126860D01*
X0212407Y0124360D01*
X0212407Y0111407D01*
X0212565Y0111250D01*
X0222565Y0111250D02*
X0222565Y0091703D01*
X0226157Y0088110D01*
X0266157Y0119360D02*
X0292407Y0119360D01*
X0298657Y0125610D01*
X0303884Y0125610D01*
X0299907Y0139360D02*
X0287407Y0126860D01*
X0269907Y0126860D01*
X0258657Y0138110D01*
X0184907Y0138110D01*
X0182407Y0140610D01*
X0156157Y0140610D01*
X0152407Y0136860D01*
X0152407Y0134154D01*
X0152407Y0127067D02*
X0152407Y0111407D01*
X0152565Y0111250D01*
X0142407Y0134154D02*
X0142201Y0134360D01*
X0213657Y0150610D02*
X0213657Y0155817D01*
X0299907Y0139360D02*
X0318657Y0139360D01*
X0321157Y0141860D01*
X0321157Y0160610D01*
X0343514Y0134504D02*
X0343657Y0134360D01*
X0343657Y0116860D01*
X0346157Y0115610D01*
X0357157Y0122860D02*
X0358657Y0124360D01*
X0371157Y0154154D02*
X0371157Y0160817D01*
D33*
X0306314Y0156060D02*
X0280074Y0156060D01*
X0279864Y0155850D01*
X0279864Y0165850D02*
X0279974Y0165960D01*
X0306314Y0165960D01*
X0137407Y0118110D02*
X0137407Y0099360D01*
M02*
